0
SECTION
2
HEADER
9
$INSUNITS
70
4
0
ENDSEC
0
SECTION
2
TABLES
0
TABLE
2
LTYPE
0
LTYPE
72
65
70
64
2
CONTINUOUS
3
______
73
0
40
0
0
ENDTAB
0
TABLE
2
LAYER
0
ENDTAB
0
ENDSEC
0
SECTION
2
ENTITIES
0
LINE
8
0
10
41
20
-91
11
59
21
-91
0
LINE
8
0
10
59
20
-91
11
59
21
-109
0
LINE
8
0
10
59
20
-109
11
41
21
-109
0
LINE
8
0
10
41
20
-109
11
41
21
-91
0
LINE
8
0
10
41
20
-74
11
59
21
-74
0
LINE
8
0
10
59
20
-74
11
59
21
-92
0
LINE
8
0
10
59
20
-92
11
41
21
-92
0
LINE
8
0
10
41
20
-92
11
41
21
-74
0
LINE
8
0
10
41
20
-57
11
59
21
-57
0
LINE
8
0
10
59
20
-57
11
59
21
-75
0
LINE
8
0
10
59
20
-75
11
41
21
-75
0
LINE
8
0
10
41
20
-75
11
41
21
-57
0
LINE
8
0
10
59
20
-89.2
11
77
21
-89.2
0
LINE
8
0
10
77
20
-89.2
11
77
21
-107.2
0
LINE
8
0
10
77
20
-107.2
11
59
21
-107.2
0
LINE
8
0
10
59
20
-107.2
11
59
21
-89.2
0
LINE
8
0
10
59
20
-72.2
11
77
21
-72.2
0
LINE
8
0
10
77
20
-72.2
11
77
21
-90.2
0
LINE
8
0
10
77
20
-90.2
11
59
21
-90.2
0
LINE
8
0
10
59
20
-90.2
11
59
21
-72.2
0
LINE
8
0
10
59
20
-55.2
11
77
21
-55.2
0
LINE
8
0
10
77
20
-55.2
11
77
21
-73.2
0
LINE
8
0
10
77
20
-73.2
11
59
21
-73.2
0
LINE
8
0
10
59
20
-73.2
11
59
21
-55.2
0
LINE
8
0
10
77
20
-77.32
11
95
21
-77.32
0
LINE
8
0
10
95
20
-77.32
11
95
21
-95.32
0
LINE
8
0
10
95
20
-95.32
11
77
21
-95.32
0
LINE
8
0
10
77
20
-95.32
11
77
21
-77.32
0
LINE
8
0
10
77
20
-60.32
11
95
21
-60.32
0
LINE
8
0
10
95
20
-60.32
11
95
21
-78.32
0
LINE
8
0
10
95
20
-78.32
11
77
21
-78.32
0
LINE
8
0
10
77
20
-78.32
11
77
21
-60.32
0
LINE
8
0
10
77
20
-43.32
11
95
21
-43.32
0
LINE
8
0
10
95
20
-43.32
11
95
21
-61.32
0
LINE
8
0
10
95
20
-61.32
11
77
21
-61.32
0
LINE
8
0
10
77
20
-61.32
11
77
21
-43.32
0
LINE
8
0
10
95
20
-72.82
11
113
21
-72.82
0
LINE
8
0
10
113
20
-72.82
11
113
21
-90.82
0
LINE
8
0
10
113
20
-90.82
11
95
21
-90.82
0
LINE
8
0
10
95
20
-90.82
11
95
21
-72.82
0
LINE
8
0
10
95
20
-55.82
11
113
21
-55.82
0
LINE
8
0
10
113
20
-55.82
11
113
21
-73.82
0
LINE
8
0
10
113
20
-73.82
11
95
21
-73.82
0
LINE
8
0
10
95
20
-73.82
11
95
21
-55.82
0
LINE
8
0
10
95
20
-38.82
11
113
21
-38.82
0
LINE
8
0
10
113
20
-38.82
11
113
21
-56.82
0
LINE
8
0
10
113
20
-56.82
11
95
21
-56.82
0
LINE
8
0
10
95
20
-56.82
11
95
21
-38.82
0
LINE
8
0
10
113
20
-77.32
11
131
21
-77.32
0
LINE
8
0
10
131
20
-77.32
11
131
21
-95.32
0
LINE
8
0
10
131
20
-95.32
11
113
21
-95.32
0
LINE
8
0
10
113
20
-95.32
11
113
21
-77.32
0
LINE
8
0
10
113
20
-60.32
11
131
21
-60.32
0
LINE
8
0
10
131
20
-60.32
11
131
21
-78.32
0
LINE
8
0
10
131
20
-78.32
11
113
21
-78.32
0
LINE
8
0
10
113
20
-78.32
11
113
21
-60.32
0
LINE
8
0
10
113
20
-43.32
11
131
21
-43.32
0
LINE
8
0
10
131
20
-43.32
11
131
21
-61.32
0
LINE
8
0
10
131
20
-61.32
11
113
21
-61.32
0
LINE
8
0
10
113
20
-61.32
11
113
21
-43.32
0
LINE
8
0
10
131
20
-80.02
11
149
21
-80.02
0
LINE
8
0
10
149
20
-80.02
11
149
21
-98.02
0
LINE
8
0
10
149
20
-98.02
11
131
21
-98.02
0
LINE
8
0
10
131
20
-98.02
11
131
21
-80.02
0
LINE
8
0
10
131
20
-63.02
11
149
21
-63.02
0
LINE
8
0
10
149
20
-63.02
11
149
21
-81.02
0
LINE
8
0
10
149
20
-81.02
11
131
21
-81.02
0
LINE
8
0
10
131
20
-81.02
11
131
21
-63.02
0
LINE
8
0
10
131
20
-46.02
11
149
21
-46.02
0
LINE
8
0
10
149
20
-46.02
11
149
21
-64.02
0
LINE
8
0
10
149
20
-64.02
11
131
21
-64.02
0
LINE
8
0
10
131
20
-64.02
11
131
21
-46.02
0
LINE
8
0
10
106.88
20
-97.3
11
124.88
21
-97.3
0
LINE
8
0
10
124.88
20
-97.3
11
124.88
21
-115.3
0
LINE
8
0
10
124.88
20
-115.3
11
106.88
21
-115.3
0
LINE
8
0
10
106.88
20
-115.3
11
106.88
21
-97.3
0
LINE
8
0
10
128.2679289
20
-97.6124798
11
145.9944685
21
-100.738147
0
LINE
8
0
10
145.9944685
20
-100.738147
11
142.8688013
21
-118.4646866
0
LINE
8
0
10
142.8688013
20
-118.4646866
11
125.1422617
21
-115.3390194
0
LINE
8
0
10
125.1422617
20
-115.3390194
11
128.2679289
21
-97.6124798
0
LINE
8
0
10
169.0642022
20
-99.215663
11
159.8296584
21
-124.5873638
0
LINE
8
0
10
159.8296584
20
-124.5873638
11
142.9151912
21
-118.4310012
0
LINE
8
0
10
142.9151912
20
-118.4310012
11
152.149735
21
-93.0593004
0
LINE
8
0
10
152.149735
20
-93.0593004
11
169.0642022
21
-99.215663
0
LINE
8
0
10
188.831697
20
-110.0830331
11
175.331697
21
-133.4657191
0
LINE
8
0
10
175.331697
20
-133.4657191
11
159.7432398
21
-124.4657191
0
LINE
8
0
10
159.7432398
20
-124.4657191
11
173.2432398
21
-101.0830331
0
LINE
8
0
10
173.2432398
20
-101.0830331
11
188.831697
21
-110.0830331
0
LINE
8
0
10
337
20
-91
11
355
21
-91
0
LINE
8
0
10
355
20
-91
11
355
21
-109
0
LINE
8
0
10
355
20
-109
11
337
21
-109
0
LINE
8
0
10
337
20
-109
11
337
21
-91
0
LINE
8
0
10
337
20
-74
11
355
21
-74
0
LINE
8
0
10
355
20
-74
11
355
21
-92
0
LINE
8
0
10
355
20
-92
11
337
21
-92
0
LINE
8
0
10
337
20
-92
11
337
21
-74
0
LINE
8
0
10
337
20
-57
11
355
21
-57
0
LINE
8
0
10
355
20
-57
11
355
21
-75
0
LINE
8
0
10
355
20
-75
11
337
21
-75
0
LINE
8
0
10
337
20
-75
11
337
21
-57
0
LINE
8
0
10
319
20
-89.2
11
337
21
-89.2
0
LINE
8
0
10
337
20
-89.2
11
337
21
-107.2
0
LINE
8
0
10
337
20
-107.2
11
319
21
-107.2
0
LINE
8
0
10
319
20
-107.2
11
319
21
-89.2
0
LINE
8
0
10
319
20
-72.2
11
337
21
-72.2
0
LINE
8
0
10
337
20
-72.2
11
337
21
-90.2
0
LINE
8
0
10
337
20
-90.2
11
319
21
-90.2
0
LINE
8
0
10
319
20
-90.2
11
319
21
-72.2
0
LINE
8
0
10
319
20
-55.2
11
337
21
-55.2
0
LINE
8
0
10
337
20
-55.2
11
337
21
-73.2
0
LINE
8
0
10
337
20
-73.2
11
319
21
-73.2
0
LINE
8
0
10
319
20
-73.2
11
319
21
-55.2
0
LINE
8
0
10
301
20
-77.32
11
319
21
-77.32
0
LINE
8
0
10
319
20
-77.32
11
319
21
-95.32
0
LINE
8
0
10
319
20
-95.32
11
301
21
-95.32
0
LINE
8
0
10
301
20
-95.32
11
301
21
-77.32
0
LINE
8
0
10
301
20
-60.32
11
319
21
-60.32
0
LINE
8
0
10
319
20
-60.32
11
319
21
-78.32
0
LINE
8
0
10
319
20
-78.32
11
301
21
-78.32
0
LINE
8
0
10
301
20
-78.32
11
301
21
-60.32
0
LINE
8
0
10
301
20
-43.32
11
319
21
-43.32
0
LINE
8
0
10
319
20
-43.32
11
319
21
-61.32
0
LINE
8
0
10
319
20
-61.32
11
301
21
-61.32
0
LINE
8
0
10
301
20
-61.32
11
301
21
-43.32
0
LINE
8
0
10
283
20
-72.82
11
301
21
-72.82
0
LINE
8
0
10
301
20
-72.82
11
301
21
-90.82
0
LINE
8
0
10
301
20
-90.82
11
283
21
-90.82
0
LINE
8
0
10
283
20
-90.82
11
283
21
-72.82
0
LINE
8
0
10
283
20
-55.82
11
301
21
-55.82
0
LINE
8
0
10
301
20
-55.82
11
301
21
-73.82
0
LINE
8
0
10
301
20
-73.82
11
283
21
-73.82
0
LINE
8
0
10
283
20
-73.82
11
283
21
-55.82
0
LINE
8
0
10
283
20
-38.82
11
301
21
-38.82
0
LINE
8
0
10
301
20
-38.82
11
301
21
-56.82
0
LINE
8
0
10
301
20
-56.82
11
283
21
-56.82
0
LINE
8
0
10
283
20
-56.82
11
283
21
-38.82
0
LINE
8
0
10
265
20
-77.32
11
283
21
-77.32
0
LINE
8
0
10
283
20
-77.32
11
283
21
-95.32
0
LINE
8
0
10
283
20
-95.32
11
265
21
-95.32
0
LINE
8
0
10
265
20
-95.32
11
265
21
-77.32
0
LINE
8
0
10
265
20
-60.32
11
283
21
-60.32
0
LINE
8
0
10
283
20
-60.32
11
283
21
-78.32
0
LINE
8
0
10
283
20
-78.32
11
265
21
-78.32
0
LINE
8
0
10
265
20
-78.32
11
265
21
-60.32
0
LINE
8
0
10
265
20
-43.32
11
283
21
-43.32
0
LINE
8
0
10
283
20
-43.32
11
283
21
-61.32
0
LINE
8
0
10
283
20
-61.32
11
265
21
-61.32
0
LINE
8
0
10
265
20
-61.32
11
265
21
-43.32
0
LINE
8
0
10
247
20
-80.02
11
265
21
-80.02
0
LINE
8
0
10
265
20
-80.02
11
265
21
-98.02
0
LINE
8
0
10
265
20
-98.02
11
247
21
-98.02
0
LINE
8
0
10
247
20
-98.02
11
247
21
-80.02
0
LINE
8
0
10
247
20
-63.02
11
265
21
-63.02
0
LINE
8
0
10
265
20
-63.02
11
265
21
-81.02
0
LINE
8
0
10
265
20
-81.02
11
247
21
-81.02
0
LINE
8
0
10
247
20
-81.02
11
247
21
-63.02
0
LINE
8
0
10
247
20
-46.02
11
265
21
-46.02
0
LINE
8
0
10
265
20
-46.02
11
265
21
-64.02
0
LINE
8
0
10
265
20
-64.02
11
247
21
-64.02
0
LINE
8
0
10
247
20
-64.02
11
247
21
-46.02
0
LINE
8
0
10
271.12
20
-97.3
11
289.12
21
-97.3
0
LINE
8
0
10
289.12
20
-97.3
11
289.12
21
-115.3
0
LINE
8
0
10
289.12
20
-115.3
11
271.12
21
-115.3
0
LINE
8
0
10
271.12
20
-115.3
11
271.12
21
-97.3
0
LINE
8
0
10
250.0055315
20
-100.738147
11
267.7320711
21
-97.6124798
0
LINE
8
0
10
267.7320711
20
-97.6124798
11
270.8577383
21
-115.3390194
0
LINE
8
0
10
270.8577383
20
-115.3390194
11
253.1311987
21
-118.4646866
0
LINE
8
0
10
253.1311987
20
-118.4646866
11
250.0055315
21
-100.738147
0
LINE
8
0
10
236.1703416
20
-124.5873638
11
226.9357978
21
-99.215663
0
LINE
8
0
10
226.9357978
20
-99.215663
11
243.850265
21
-93.0593004
0
LINE
8
0
10
243.850265
20
-93.0593004
11
253.0848088
21
-118.4310012
0
LINE
8
0
10
253.0848088
20
-118.4310012
11
236.1703416
21
-124.5873638
0
LINE
8
0
10
220.668303
20
-133.4657191
11
207.168303
21
-110.0830331
0
LINE
8
0
10
207.168303
20
-110.0830331
11
222.7567602
21
-101.0830331
0
LINE
8
0
10
222.7567602
20
-101.0830331
11
236.2567602
21
-124.4657191
0
LINE
8
0
10
236.2567602
20
-124.4657191
11
220.668303
21
-133.4657191
0
ENDSEC
0
EOF