<svg width="314mm" height="94.646mm" viewBox="0 0 314 94.646" xmlns="http://www.w3.org/2000/svg"><g id="svgGroup" stroke-linecap="round" fill-rule="evenodd" font-size="9pt" stroke="#000" stroke-width="0.25mm" fill="none" style="stroke:#000;stroke-width:0.25mm;fill:none"><path d="M 195.17 85.767 L 185.936 60.396 L 202.85 54.239 L 212.085 79.611 L 195.17 85.767 Z M 128.064 60.396 L 118.83 85.767 L 101.915 79.611 L 111.15 54.239 L 128.064 60.396 Z M 179.668 94.646 L 166.168 71.263 L 181.757 62.263 L 195.257 85.646 L 179.668 94.646 Z M 147.832 71.263 L 134.332 94.646 L 118.743 85.646 L 132.243 62.263 L 147.832 71.263 Z M 87.268 58.792 L 104.994 61.918 L 101.869 79.645 L 84.142 76.519 L 87.268 58.792 Z M 209.006 61.918 L 226.732 58.792 L 229.858 76.519 L 212.131 79.645 L 209.006 61.918 Z M 0 52.18 L 18 52.18 L 18 70.18 L 0 70.18 L 0 52.18 Z M 0 35.18 L 18 35.18 L 18 53.18 L 0 53.18 L 0 35.18 Z M 0 18.18 L 18 18.18 L 18 36.18 L 0 36.18 L 0 18.18 Z M 18 50.38 L 36 50.38 L 36 68.38 L 18 68.38 L 18 50.38 Z M 18 33.38 L 36 33.38 L 36 51.38 L 18 51.38 L 18 33.38 Z M 18 16.38 L 36 16.38 L 36 34.38 L 18 34.38 L 18 16.38 Z M 36 38.5 L 54 38.5 L 54 56.5 L 36 56.5 L 36 38.5 Z M 36 21.5 L 54 21.5 L 54 39.5 L 36 39.5 L 36 21.5 Z M 36 4.5 L 54 4.5 L 54 22.5 L 36 22.5 L 36 4.5 Z M 54 34 L 72 34 L 72 52 L 54 52 L 54 34 Z M 54 17 L 72 17 L 72 35 L 54 35 L 54 17 Z M 54 0 L 72 0 L 72 18 L 54 18 L 54 0 Z M 72 38.5 L 90 38.5 L 90 56.5 L 72 56.5 L 72 38.5 Z M 72 21.5 L 90 21.5 L 90 39.5 L 72 39.5 L 72 21.5 Z M 72 4.5 L 90 4.5 L 90 22.5 L 72 22.5 L 72 4.5 Z M 90 41.2 L 108 41.2 L 108 59.2 L 90 59.2 L 90 41.2 Z M 90 24.2 L 108 24.2 L 108 42.2 L 90 42.2 L 90 24.2 Z M 90 7.2 L 108 7.2 L 108 25.2 L 90 25.2 L 90 7.2 Z M 65.88 58.48 L 83.88 58.48 L 83.88 76.48 L 65.88 76.48 L 65.88 58.48 Z M 296 52.18 L 314 52.18 L 314 70.18 L 296 70.18 L 296 52.18 Z M 296 35.18 L 314 35.18 L 314 53.18 L 296 53.18 L 296 35.18 Z M 296 18.18 L 314 18.18 L 314 36.18 L 296 36.18 L 296 18.18 Z M 278 50.38 L 296 50.38 L 296 68.38 L 278 68.38 L 278 50.38 Z M 278 33.38 L 296 33.38 L 296 51.38 L 278 51.38 L 278 33.38 Z M 278 16.38 L 296 16.38 L 296 34.38 L 278 34.38 L 278 16.38 Z M 260 38.5 L 278 38.5 L 278 56.5 L 260 56.5 L 260 38.5 Z M 260 21.5 L 278 21.5 L 278 39.5 L 260 39.5 L 260 21.5 Z M 260 4.5 L 278 4.5 L 278 22.5 L 260 22.5 L 260 4.5 Z M 242 34 L 260 34 L 260 52 L 242 52 L 242 34 Z M 242 17 L 260 17 L 260 35 L 242 35 L 242 17 Z M 242 0 L 260 0 L 260 18 L 242 18 L 242 0 Z M 224 38.5 L 242 38.5 L 242 56.5 L 224 56.5 L 224 38.5 Z M 224 21.5 L 242 21.5 L 242 39.5 L 224 39.5 L 224 21.5 Z M 224 4.5 L 242 4.5 L 242 22.5 L 224 22.5 L 224 4.5 Z M 206 41.2 L 224 41.2 L 224 59.2 L 206 59.2 L 206 41.2 Z M 206 24.2 L 224 24.2 L 224 42.2 L 206 42.2 L 206 24.2 Z M 206 7.2 L 224 7.2 L 224 25.2 L 206 25.2 L 206 7.2 Z M 230.12 58.48 L 248.12 58.48 L 248.12 76.48 L 230.12 76.48 L 230.12 58.48 Z" vector-effect="non-scaling-stroke"/></g></svg>