<svg width="313.5mm" height="93.646mm" viewBox="0 0 313.5 93.646" xmlns="http://www.w3.org/2000/svg"><g id="svgGroup" stroke-linecap="round" fill-rule="evenodd" font-size="9pt" stroke="#000" stroke-width="0.25mm" fill="none" style="stroke:#000;stroke-width:0.25mm;fill:none"><path d="M 132.426 61.763 L 118.926 85.146 L 133.649 93.646 L 147.149 70.263 L 132.426 61.763 Z M 111.37 53.66 L 102.135 79.032 L 118.11 84.846 L 127.344 59.475 L 111.37 53.66 Z M 191.982 81.157 L 183.232 66.002 L 168.943 74.252 L 177.693 89.407 L 191.982 81.157 Z M 209.505 74.654 L 203.52 58.209 L 188.015 63.853 L 194.001 80.297 L 209.505 74.654 Z M 0 68.68 L 17.5 68.68 L 17.5 52.18 L 0 52.18 L 0 68.68 Z M 0 51.68 L 17.5 51.68 L 17.5 35.18 L 0 35.18 L 0 51.68 Z M 0 34.68 L 17.5 34.68 L 17.5 18.18 L 0 18.18 L 0 34.68 Z M 18 66.88 L 35.5 66.88 L 35.5 50.38 L 18 50.38 L 18 66.88 Z M 18 49.88 L 35.5 49.88 L 35.5 33.38 L 18 33.38 L 18 49.88 Z M 18 32.88 L 35.5 32.88 L 35.5 16.38 L 18 16.38 L 18 32.88 Z M 36 55 L 53.5 55 L 53.5 38.5 L 36 38.5 L 36 55 Z M 36 38 L 53.5 38 L 53.5 21.5 L 36 21.5 L 36 38 Z M 36 21 L 53.5 21 L 53.5 4.5 L 36 4.5 L 36 21 Z M 54 50.5 L 71.5 50.5 L 71.5 34 L 54 34 L 54 50.5 Z M 54 33.5 L 71.5 33.5 L 71.5 17 L 54 17 L 54 33.5 Z M 54 16.5 L 71.5 16.5 L 71.5 0 L 54 0 L 54 16.5 Z M 72 55 L 89.5 55 L 89.5 38.5 L 72 38.5 L 72 55 Z M 72 38 L 89.5 38 L 89.5 21.5 L 72 21.5 L 72 38 Z M 72 21 L 89.5 21 L 89.5 4.5 L 72 4.5 L 72 21 Z M 90 57.7 L 107.5 57.7 L 107.5 41.2 L 90 41.2 L 90 57.7 Z M 90 40.7 L 107.5 40.7 L 107.5 24.2 L 90 24.2 L 90 40.7 Z M 90 23.7 L 107.5 23.7 L 107.5 7.2 L 90 7.2 L 90 23.7 Z M 65.88 74.98 L 83.38 74.98 L 83.38 58.48 L 65.88 58.48 L 65.88 74.98 Z M 296 68.68 L 313.5 68.68 L 313.5 52.18 L 296 52.18 L 296 68.68 Z M 296 51.68 L 313.5 51.68 L 313.5 35.18 L 296 35.18 L 296 51.68 Z M 296 34.68 L 313.5 34.68 L 313.5 18.18 L 296 18.18 L 296 34.68 Z M 278 66.88 L 295.5 66.88 L 295.5 50.38 L 278 50.38 L 278 66.88 Z M 278 49.88 L 295.5 49.88 L 295.5 33.38 L 278 33.38 L 278 49.88 Z M 278 32.88 L 295.5 32.88 L 295.5 16.38 L 278 16.38 L 278 32.88 Z M 260 55 L 277.5 55 L 277.5 38.5 L 260 38.5 L 260 55 Z M 260 38 L 277.5 38 L 277.5 21.5 L 260 21.5 L 260 38 Z M 260 21 L 277.5 21 L 277.5 4.5 L 260 4.5 L 260 21 Z M 242 50.5 L 259.5 50.5 L 259.5 34 L 242 34 L 242 50.5 Z M 242 33.5 L 259.5 33.5 L 259.5 17 L 242 17 L 242 33.5 Z M 242 16.5 L 259.5 16.5 L 259.5 0 L 242 0 L 242 16.5 Z M 224 55 L 241.5 55 L 241.5 38.5 L 224 38.5 L 224 55 Z M 224 38 L 241.5 38 L 241.5 21.5 L 224 21.5 L 224 38 Z M 224 21 L 241.5 21 L 241.5 4.5 L 224 4.5 L 224 21 Z M 206 57.7 L 223.5 57.7 L 223.5 41.2 L 206 41.2 L 206 57.7 Z M 206 40.7 L 223.5 40.7 L 223.5 24.2 L 206 24.2 L 206 40.7 Z M 206 23.7 L 223.5 23.7 L 223.5 7.2 L 206 7.2 L 206 23.7 Z M 230.12 74.98 L 247.62 74.98 L 247.62 58.48 L 230.12 58.48 L 230.12 74.98 Z M 84.269 75.074 L 101.503 78.113 L 104.368 61.863 L 87.134 58.824 L 84.269 75.074 Z M 211.997 78.113 L 229.231 75.074 L 226.366 58.824 L 209.132 61.863 L 211.997 78.113 Z" vector-effect="non-scaling-stroke"/></g></svg>