0
SECTION
2
HEADER
9
$INSUNITS
70
4
0
ENDSEC
0
SECTION
2
TABLES
0
TABLE
2
LTYPE
0
LTYPE
72
65
70
64
2
CONTINUOUS
3
______
73
0
40
0
0
ENDTAB
0
TABLE
2
LAYER
0
ENDTAB
0
ENDSEC
0
SECTION
2
ENTITIES
0
LINE
8
0
10
41.25
20
-108.25
11
58.75
21
-108.25
0
LINE
8
0
10
58.75
20
-108.25
11
58.75
21
-91.75
0
LINE
8
0
10
58.75
20
-91.75
11
41.25
21
-91.75
0
LINE
8
0
10
41.25
20
-91.75
11
41.25
21
-108.25
0
LINE
8
0
10
41.25
20
-91.25
11
58.75
21
-91.25
0
LINE
8
0
10
58.75
20
-91.25
11
58.75
21
-74.75
0
LINE
8
0
10
58.75
20
-74.75
11
41.25
21
-74.75
0
LINE
8
0
10
41.25
20
-74.75
11
41.25
21
-91.25
0
LINE
8
0
10
41.25
20
-74.25
11
58.75
21
-74.25
0
LINE
8
0
10
58.75
20
-74.25
11
58.75
21
-57.75
0
LINE
8
0
10
58.75
20
-57.75
11
41.25
21
-57.75
0
LINE
8
0
10
41.25
20
-57.75
11
41.25
21
-74.25
0
LINE
8
0
10
59.25
20
-106.45
11
76.75
21
-106.45
0
LINE
8
0
10
76.75
20
-106.45
11
76.75
21
-89.95
0
LINE
8
0
10
76.75
20
-89.95
11
59.25
21
-89.95
0
LINE
8
0
10
59.25
20
-89.95
11
59.25
21
-106.45
0
LINE
8
0
10
59.25
20
-89.45
11
76.75
21
-89.45
0
LINE
8
0
10
76.75
20
-89.45
11
76.75
21
-72.95
0
LINE
8
0
10
76.75
20
-72.95
11
59.25
21
-72.95
0
LINE
8
0
10
59.25
20
-72.95
11
59.25
21
-89.45
0
LINE
8
0
10
59.25
20
-72.45
11
76.75
21
-72.45
0
LINE
8
0
10
76.75
20
-72.45
11
76.75
21
-55.95
0
LINE
8
0
10
76.75
20
-55.95
11
59.25
21
-55.95
0
LINE
8
0
10
59.25
20
-55.95
11
59.25
21
-72.45
0
LINE
8
0
10
77.25
20
-94.57
11
94.75
21
-94.57
0
LINE
8
0
10
94.75
20
-94.57
11
94.75
21
-78.07
0
LINE
8
0
10
94.75
20
-78.07
11
77.25
21
-78.07
0
LINE
8
0
10
77.25
20
-78.07
11
77.25
21
-94.57
0
LINE
8
0
10
77.25
20
-77.57
11
94.75
21
-77.57
0
LINE
8
0
10
94.75
20
-77.57
11
94.75
21
-61.07
0
LINE
8
0
10
94.75
20
-61.07
11
77.25
21
-61.07
0
LINE
8
0
10
77.25
20
-61.07
11
77.25
21
-77.57
0
LINE
8
0
10
77.25
20
-60.57
11
94.75
21
-60.57
0
LINE
8
0
10
94.75
20
-60.57
11
94.75
21
-44.07
0
LINE
8
0
10
94.75
20
-44.07
11
77.25
21
-44.07
0
LINE
8
0
10
77.25
20
-44.07
11
77.25
21
-60.57
0
LINE
8
0
10
95.25
20
-90.07
11
112.75
21
-90.07
0
LINE
8
0
10
112.75
20
-90.07
11
112.75
21
-73.57
0
LINE
8
0
10
112.75
20
-73.57
11
95.25
21
-73.57
0
LINE
8
0
10
95.25
20
-73.57
11
95.25
21
-90.07
0
LINE
8
0
10
95.25
20
-73.07
11
112.75
21
-73.07
0
LINE
8
0
10
112.75
20
-73.07
11
112.75
21
-56.57
0
LINE
8
0
10
112.75
20
-56.57
11
95.25
21
-56.57
0
LINE
8
0
10
95.25
20
-56.57
11
95.25
21
-73.07
0
LINE
8
0
10
95.25
20
-56.07
11
112.75
21
-56.07
0
LINE
8
0
10
112.75
20
-56.07
11
112.75
21
-39.57
0
LINE
8
0
10
112.75
20
-39.57
11
95.25
21
-39.57
0
LINE
8
0
10
95.25
20
-39.57
11
95.25
21
-56.07
0
LINE
8
0
10
113.25
20
-94.57
11
130.75
21
-94.57
0
LINE
8
0
10
130.75
20
-94.57
11
130.75
21
-78.07
0
LINE
8
0
10
130.75
20
-78.07
11
113.25
21
-78.07
0
LINE
8
0
10
113.25
20
-78.07
11
113.25
21
-94.57
0
LINE
8
0
10
113.25
20
-77.57
11
130.75
21
-77.57
0
LINE
8
0
10
130.75
20
-77.57
11
130.75
21
-61.07
0
LINE
8
0
10
130.75
20
-61.07
11
113.25
21
-61.07
0
LINE
8
0
10
113.25
20
-61.07
11
113.25
21
-77.57
0
LINE
8
0
10
113.25
20
-60.57
11
130.75
21
-60.57
0
LINE
8
0
10
130.75
20
-60.57
11
130.75
21
-44.07
0
LINE
8
0
10
130.75
20
-44.07
11
113.25
21
-44.07
0
LINE
8
0
10
113.25
20
-44.07
11
113.25
21
-60.57
0
LINE
8
0
10
131.25
20
-97.27
11
148.75
21
-97.27
0
LINE
8
0
10
148.75
20
-97.27
11
148.75
21
-80.77
0
LINE
8
0
10
148.75
20
-80.77
11
131.25
21
-80.77
0
LINE
8
0
10
131.25
20
-80.77
11
131.25
21
-97.27
0
LINE
8
0
10
131.25
20
-80.27
11
148.75
21
-80.27
0
LINE
8
0
10
148.75
20
-80.27
11
148.75
21
-63.77
0
LINE
8
0
10
148.75
20
-63.77
11
131.25
21
-63.77
0
LINE
8
0
10
131.25
20
-63.77
11
131.25
21
-80.27
0
LINE
8
0
10
131.25
20
-63.27
11
148.75
21
-63.27
0
LINE
8
0
10
148.75
20
-63.27
11
148.75
21
-46.77
0
LINE
8
0
10
148.75
20
-46.77
11
131.25
21
-46.77
0
LINE
8
0
10
131.25
20
-46.77
11
131.25
21
-63.27
0
LINE
8
0
10
107.13
20
-114.55
11
124.63
21
-114.55
0
LINE
8
0
10
124.63
20
-114.55
11
124.63
21
-98.05
0
LINE
8
0
10
124.63
20
-98.05
11
107.13
21
-98.05
0
LINE
8
0
10
107.13
20
-98.05
11
107.13
21
-114.55
0
LINE
8
0
10
125.5186998
20
-114.6438256
11
142.7528355
21
-117.6826687
0
LINE
8
0
10
142.7528355
20
-117.6826687
11
145.6180304
21
-101.4333408
0
LINE
8
0
10
145.6180304
20
-101.4333408
11
128.3838947
21
-98.3944977
0
LINE
8
0
10
128.3838947
20
-98.3944977
11
125.5186998
21
-114.6438256
0
LINE
8
0
10
337.25
20
-108.25
11
354.75
21
-108.25
0
LINE
8
0
10
354.75
20
-108.25
11
354.75
21
-91.75
0
LINE
8
0
10
354.75
20
-91.75
11
337.25
21
-91.75
0
LINE
8
0
10
337.25
20
-91.75
11
337.25
21
-108.25
0
LINE
8
0
10
337.25
20
-91.25
11
354.75
21
-91.25
0
LINE
8
0
10
354.75
20
-91.25
11
354.75
21
-74.75
0
LINE
8
0
10
354.75
20
-74.75
11
337.25
21
-74.75
0
LINE
8
0
10
337.25
20
-74.75
11
337.25
21
-91.25
0
LINE
8
0
10
337.25
20
-74.25
11
354.75
21
-74.25
0
LINE
8
0
10
354.75
20
-74.25
11
354.75
21
-57.75
0
LINE
8
0
10
354.75
20
-57.75
11
337.25
21
-57.75
0
LINE
8
0
10
337.25
20
-57.75
11
337.25
21
-74.25
0
LINE
8
0
10
319.25
20
-106.45
11
336.75
21
-106.45
0
LINE
8
0
10
336.75
20
-106.45
11
336.75
21
-89.95
0
LINE
8
0
10
336.75
20
-89.95
11
319.25
21
-89.95
0
LINE
8
0
10
319.25
20
-89.95
11
319.25
21
-106.45
0
LINE
8
0
10
319.25
20
-89.45
11
336.75
21
-89.45
0
LINE
8
0
10
336.75
20
-89.45
11
336.75
21
-72.95
0
LINE
8
0
10
336.75
20
-72.95
11
319.25
21
-72.95
0
LINE
8
0
10
319.25
20
-72.95
11
319.25
21
-89.45
0
LINE
8
0
10
319.25
20
-72.45
11
336.75
21
-72.45
0
LINE
8
0
10
336.75
20
-72.45
11
336.75
21
-55.95
0
LINE
8
0
10
336.75
20
-55.95
11
319.25
21
-55.95
0
LINE
8
0
10
319.25
20
-55.95
11
319.25
21
-72.45
0
LINE
8
0
10
301.25
20
-94.57
11
318.75
21
-94.57
0
LINE
8
0
10
318.75
20
-94.57
11
318.75
21
-78.07
0
LINE
8
0
10
318.75
20
-78.07
11
301.25
21
-78.07
0
LINE
8
0
10
301.25
20
-78.07
11
301.25
21
-94.57
0
LINE
8
0
10
301.25
20
-77.57
11
318.75
21
-77.57
0
LINE
8
0
10
318.75
20
-77.57
11
318.75
21
-61.07
0
LINE
8
0
10
318.75
20
-61.07
11
301.25
21
-61.07
0
LINE
8
0
10
301.25
20
-61.07
11
301.25
21
-77.57
0
LINE
8
0
10
301.25
20
-60.57
11
318.75
21
-60.57
0
LINE
8
0
10
318.75
20
-60.57
11
318.75
21
-44.07
0
LINE
8
0
10
318.75
20
-44.07
11
301.25
21
-44.07
0
LINE
8
0
10
301.25
20
-44.07
11
301.25
21
-60.57
0
LINE
8
0
10
283.25
20
-90.07
11
300.75
21
-90.07
0
LINE
8
0
10
300.75
20
-90.07
11
300.75
21
-73.57
0
LINE
8
0
10
300.75
20
-73.57
11
283.25
21
-73.57
0
LINE
8
0
10
283.25
20
-73.57
11
283.25
21
-90.07
0
LINE
8
0
10
283.25
20
-73.07
11
300.75
21
-73.07
0
LINE
8
0
10
300.75
20
-73.07
11
300.75
21
-56.57
0
LINE
8
0
10
300.75
20
-56.57
11
283.25
21
-56.57
0
LINE
8
0
10
283.25
20
-56.57
11
283.25
21
-73.07
0
LINE
8
0
10
283.25
20
-56.07
11
300.75
21
-56.07
0
LINE
8
0
10
300.75
20
-56.07
11
300.75
21
-39.57
0
LINE
8
0
10
300.75
20
-39.57
11
283.25
21
-39.57
0
LINE
8
0
10
283.25
20
-39.57
11
283.25
21
-56.07
0
LINE
8
0
10
265.25
20
-94.57
11
282.75
21
-94.57
0
LINE
8
0
10
282.75
20
-94.57
11
282.75
21
-78.07
0
LINE
8
0
10
282.75
20
-78.07
11
265.25
21
-78.07
0
LINE
8
0
10
265.25
20
-78.07
11
265.25
21
-94.57
0
LINE
8
0
10
265.25
20
-77.57
11
282.75
21
-77.57
0
LINE
8
0
10
282.75
20
-77.57
11
282.75
21
-61.07
0
LINE
8
0
10
282.75
20
-61.07
11
265.25
21
-61.07
0
LINE
8
0
10
265.25
20
-61.07
11
265.25
21
-77.57
0
LINE
8
0
10
265.25
20
-60.57
11
282.75
21
-60.57
0
LINE
8
0
10
282.75
20
-60.57
11
282.75
21
-44.07
0
LINE
8
0
10
282.75
20
-44.07
11
265.25
21
-44.07
0
LINE
8
0
10
265.25
20
-44.07
11
265.25
21
-60.57
0
LINE
8
0
10
247.25
20
-97.27
11
264.75
21
-97.27
0
LINE
8
0
10
264.75
20
-97.27
11
264.75
21
-80.77
0
LINE
8
0
10
264.75
20
-80.77
11
247.25
21
-80.77
0
LINE
8
0
10
247.25
20
-80.77
11
247.25
21
-97.27
0
LINE
8
0
10
247.25
20
-80.27
11
264.75
21
-80.27
0
LINE
8
0
10
264.75
20
-80.27
11
264.75
21
-63.77
0
LINE
8
0
10
264.75
20
-63.77
11
247.25
21
-63.77
0
LINE
8
0
10
247.25
20
-63.77
11
247.25
21
-80.27
0
LINE
8
0
10
247.25
20
-63.27
11
264.75
21
-63.27
0
LINE
8
0
10
264.75
20
-63.27
11
264.75
21
-46.77
0
LINE
8
0
10
264.75
20
-46.77
11
247.25
21
-46.77
0
LINE
8
0
10
247.25
20
-46.77
11
247.25
21
-63.27
0
LINE
8
0
10
271.37
20
-114.55
11
288.87
21
-114.55
0
LINE
8
0
10
288.87
20
-114.55
11
288.87
21
-98.05
0
LINE
8
0
10
288.87
20
-98.05
11
271.37
21
-98.05
0
LINE
8
0
10
271.37
20
-98.05
11
271.37
21
-114.55
0
LINE
8
0
10
253.2471645
20
-117.6826687
11
270.4813002
21
-114.6438256
0
LINE
8
0
10
270.4813002
20
-114.6438256
11
267.6161053
21
-98.3944977
0
LINE
8
0
10
267.6161053
20
-98.3944977
11
250.3819696
21
-101.4333408
0
LINE
8
0
10
250.3819696
20
-101.4333408
11
253.2471645
21
-117.6826687
0
LINE
8
0
10
250.7554437
20
-114.2239763
11
244.7700912
21
-97.7793555
0
LINE
8
0
10
244.7700912
20
-97.7793555
11
229.2651629
21
-103.4226879
0
LINE
8
0
10
229.2651629
20
-103.4226879
11
235.2505154
21
-119.8673087
0
LINE
8
0
10
235.2505154
20
-119.8673087
11
250.7554437
21
-114.2239763
0
LINE
8
0
10
233.2322412
20
-120.7270984
11
224.4822412
21
-105.5716538
0
LINE
8
0
10
224.4822412
20
-105.5716538
11
210.192822
21
-113.8216538
0
LINE
8
0
10
210.192822
20
-113.8216538
11
218.942822
21
-128.9770984
0
LINE
8
0
10
218.942822
20
-128.9770984
11
233.2322412
21
-120.7270984
0
LINE
8
0
10
152.6195814
20
-93.2303105
11
143.3850375
21
-118.6020113
0
LINE
8
0
10
143.3850375
20
-118.6020113
11
159.359812
21
-124.4163537
0
LINE
8
0
10
159.359812
20
-124.4163537
11
168.5943559
21
-99.0446529
0
LINE
8
0
10
168.5943559
20
-99.0446529
11
152.6195814
21
-93.2303105
0
LINE
8
0
10
173.6762525
20
-101.3330331
11
160.1762525
21
-124.7157191
0
LINE
8
0
10
160.1762525
20
-124.7157191
11
174.8986843
21
-133.2157191
0
LINE
8
0
10
174.8986843
20
-133.2157191
11
188.3986843
21
-109.8330331
0
LINE
8
0
10
188.3986843
20
-109.8330331
11
173.6762525
21
-101.3330331
0
ENDSEC
0
EOF