0
SECTION
2
HEADER
9
$INSUNITS
70
4
0
ENDSEC
0
SECTION
2
TABLES
0
TABLE
2
LTYPE
0
LTYPE
72
65
70
64
2
CONTINUOUS
3
______
73
0
40
0
0
ENDTAB
0
TABLE
2
LAYER
0
ENDTAB
0
ENDSEC
0
SECTION
2
ENTITIES
0
LINE
8
0
10
40
20
-107.5052562
11
40
21
-57.9723328
0
LINE
8
0
10
41.4058668
20
-56.0626192
11
57.8849823
21
-50.9357833
0
LINE
8
0
10
58.1098921
20
-50.8506707
11
75.8381452
21
-42.8926548
0
LINE
8
0
10
76.1721169
20
-42.7769708
11
93.7611401
21
-38.379715
0
LINE
8
0
10
94.2462113
20
-38.32
11
113.8563013
21
-38.32
0
LINE
8
0
10
114.1422229
20
-38.3405433
11
131.8942475
21
-40.9047246
0
LINE
8
0
10
132.1035225
20
-40.9464557
11
149.7563175
21
-45.4577256
0
LINE
8
0
10
150.2515141
20
-45.52
11
167.75
21
-45.52
0
LINE
8
0
10
169.75
20
-97.2112468
11
169.75
21
-47.52
0
LINE
8
0
10
170.9492888
20
-99.0439666
11
173.1577691
21
-100.0088466
0
LINE
8
0
10
173.3570579
20
-100.1095156
11
187.9826589
21
-108.5536103
0
LINE
8
0
10
188.7147097
20
-111.2856611
11
176.3168773
21
-132.7593367
0
LINE
8
0
10
173.5810785
20
-133.4892182
11
160.1449187
21
-125.6930088
0
LINE
8
0
10
159.8252108
20
-125.543505
11
142.2886632
21
-119.1607237
0
LINE
8
0
10
141.9795423
20
-119.0755643
11
124.2641646
21
-115.6947098
0
LINE
8
0
10
123.8736086
20
-115.6593155
11
106.1076073
21
-115.7982204
0
LINE
8
0
10
105.6578133
20
-115.7505898
11
78.2118598
21
-109.6471137
0
LINE
8
0
10
77.7829656
20
-109.5994289
11
41.9947368
21
-109.5052493
0
ARC
8
0
10
42
20
-57.9723328
40
2
50
107.2815006
51
180
0
ARC
8
0
10
57.2908491
20
-49.0260697
40
2
50
287.2815006
51
294.1747789
0
ARC
8
0
10
76.6571882
20
-44.7172558
40
2
50
104.0362421
51
114.1747789
0
ARC
8
0
10
94.2462113
20
-40.32
40
2
50
90
51
104.0362421
0
ARC
8
0
10
113.8563013
20
-40.32
40
2
50
81.780789
51
90
0
ARC
8
0
10
131.6083259
20
-42.8841813
40
2
50
75.664563
51
81.780789
0
ARC
8
0
10
150.2515141
20
-43.52
40
2
50
255.664563
51
270
0
ARC
8
0
10
167.75
20
-47.52
40
2
50
0
51
90
0
ARC
8
0
10
171.75
20
-97.2112468
40
2
50
180
51
246.3995903
0
ARC
8
0
10
172.3570579
20
-101.8415664
40
2
50
59.9999999
51
66.3995903
0
ARC
8
0
10
186.9826589
20
-110.2856611
40
2
50
329.9999999
51
59.9999999
0
ARC
8
0
10
174.5848265
20
-131.7593367
40
2
50
239.8759383
51
329.9999999
0
ARC
8
0
10
159.1411706
20
-127.4228902
40
2
50
59.8759383
51
70.0000019
0
ARC
8
0
10
141.6046229
20
-121.0401089
40
2
50
70.0000019
51
79.1954279
0
ARC
8
0
10
123.8892452
20
-117.6592544
40
2
50
79.1954279
51
90.4479602
0
ARC
8
0
10
106.0919707
20
-113.7982815
40
2
50
257.4624912
51
270.4479602
0
ARC
8
0
10
77.7777024
20
-111.599422
40
2
50
77.4624912
51
89.8492202
0
ARC
8
0
10
42
20
-107.5052562
40
2
50
180
51
269.8492202
0
ENDSEC
0
EOF