<svg width="148.983mm" height="95.439mm" viewBox="0 0 148.983 95.439" xmlns="http://www.w3.org/2000/svg"><g id="svgGroup" stroke-linecap="round" fill-rule="evenodd" font-size="9pt" stroke="#000" stroke-width="0.25mm" fill="none" style="stroke:#000;stroke-width:0.25mm;fill:none"><path d="M 0 69.185 L 0 19.652 A 2 2 0 0 1 1.406 17.743 L 17.885 12.616 A 2 2 0 0 0 18.11 12.531 L 35.838 4.573 A 2 2 0 0 1 36.172 4.457 L 53.761 0.06 A 2 2 0 0 1 54.246 0 L 73.856 0 A 2 2 0 0 1 74.142 0.021 L 91.894 2.585 A 2 2 0 0 1 92.104 2.626 L 109.756 7.138 A 2 2 0 0 0 110.252 7.2 L 127.75 7.2 A 2 2 0 0 1 129.75 9.2 L 129.75 58.891 A 2 2 0 0 0 130.949 60.724 L 133.158 61.689 A 2 2 0 0 1 133.357 61.79 L 147.983 70.234 A 2 2 0 0 1 148.715 72.966 L 136.317 94.439 A 2 2 0 0 1 133.581 95.169 L 120.145 87.373 A 2 2 0 0 0 119.825 87.224 L 102.289 80.841 A 2 2 0 0 0 101.98 80.756 L 84.264 77.375 A 2 2 0 0 0 83.874 77.339 L 66.108 77.478 A 2 2 0 0 1 65.658 77.431 L 38.212 71.327 A 2 2 0 0 0 37.783 71.279 L 1.995 71.185 A 2 2 0 0 1 0 69.185 Z" vector-effect="non-scaling-stroke"/></g></svg>