0
SECTION
2
HEADER
9
$INSUNITS
70
4
0
ENDSEC
0
SECTION
2
TABLES
0
TABLE
2
LTYPE
0
LTYPE
72
65
70
64
2
CONTINUOUS
3
______
73
0
40
0
0
ENDTAB
0
TABLE
2
LAYER
0
ENDTAB
0
ENDSEC
0
SECTION
2
ENTITIES
0
LINE
8
0
10
40
20
-109.5
11
60
21
-109.5
0
LINE
8
0
10
60
20
-109.5
11
60
21
-107.7
0
LINE
8
0
10
40
20
-109.5
11
40
21
-56.5
0
LINE
8
0
10
58
20
-56.5
11
40
21
-56.5
0
LINE
8
0
10
60
20
-107.7
11
78
21
-107.7
0
LINE
8
0
10
78
20
-107.7
11
78
21
-95.82
0
LINE
8
0
10
76
20
-54.7
11
58
21
-54.7
0
LINE
8
0
10
58
20
-54.7
11
58
21
-56.5
0
LINE
8
0
10
78
20
-95.82
11
96
21
-95.82
0
LINE
8
0
10
96
20
-95.82
11
96
21
-91.32
0
LINE
8
0
10
94
20
-42.82
11
76
21
-42.82
0
LINE
8
0
10
76
20
-42.82
11
76
21
-54.7
0
LINE
8
0
10
96
20
-91.32
11
112
21
-91.32
0
LINE
8
0
10
114
20
-42.82
11
114
21
-38.32
0
LINE
8
0
10
114
20
-38.32
11
94
21
-38.32
0
LINE
8
0
10
94
20
-38.32
11
94
21
-42.82
0
LINE
8
0
10
112
20
-95.82
11
130
21
-95.82
0
LINE
8
0
10
112
20
-91.32
11
112
21
-95.82
0
LINE
8
0
10
132
20
-45.52
11
132
21
-42.82
0
LINE
8
0
10
132
20
-42.82
11
114
21
-42.82
0
LINE
8
0
10
136.2941168
20
-98.52
11
149.630114
21
-98.52
0
LINE
8
0
10
150
20
-97.5037466
11
150
21
-45.52
0
LINE
8
0
10
130
20
-95.82
11
130
21
-97.4101774
0
LINE
8
0
10
150
20
-45.52
11
132
21
-45.52
0
LINE
8
0
10
105.88
20
-115.8
11
124.8772274
21
-115.8
0
LINE
8
0
10
125.88
20
-105.3963274
11
125.88
21
-96.8
0
LINE
8
0
10
125.88
20
-96.8
11
105.88
21
-96.8
0
LINE
8
0
10
105.88
20
-96.8
11
105.88
21
-115.8
0
LINE
8
0
10
124.8772274
20
-115.8
11
143.7667849
21
-119.1307386
0
LINE
8
0
10
143.7667849
20
-119.1307386
11
144.4485137
21
-115.2644627
0
LINE
8
0
10
145.3063455
20
-110.3994563
11
147.0661003
21
-100.4193913
0
LINE
8
0
10
147.0661003
20
-100.4193913
11
136.2941168
21
-98.52
0
LINE
8
0
10
130
20
-97.4101774
11
127.3699453
21
-96.9464278
0
LINE
8
0
10
127.3699453
20
-96.9464278
11
125.88
21
-105.3963274
0
LINE
8
0
10
150.4828182
20
-96.1772145
11
150
21
-97.5037466
0
LINE
8
0
10
149.630114
20
-98.52
11
145.3063455
21
-110.3994563
0
LINE
8
0
10
144.4485137
20
-115.2644627
11
161.4965752
21
-121.4694497
0
LINE
8
0
10
161.4965752
20
-121.4694497
11
161.5064686
21
-121.4422678
0
LINE
8
0
10
162.5213628
20
-118.6538688
11
168.336978
21
-102.6755973
0
LINE
8
0
10
168.336978
20
-102.6755973
11
150.4828182
21
-96.1772145
0
LINE
8
0
10
171.0602271
20
-103.8641221
11
162.5213628
21
-118.6538688
0
LINE
8
0
10
161.5064686
20
-121.4422678
11
177.5147097
21
-130.6846301
0
LINE
8
0
10
177.5147097
20
-130.6846301
11
187.5147097
21
-113.3641221
0
LINE
8
0
10
187.5147097
20
-113.3641221
11
171.0602271
21
-103.8641221
0
LINE
8
0
10
336
20
-109.5
11
356
21
-109.5
0
LINE
8
0
10
356
20
-109.5
11
356
21
-56.5
0
LINE
8
0
10
336
20
-107.7
11
336
21
-109.5
0
LINE
8
0
10
356
20
-56.5
11
338
21
-56.5
0
LINE
8
0
10
318
20
-107.7
11
336
21
-107.7
0
LINE
8
0
10
318
20
-95.82
11
318
21
-107.7
0
LINE
8
0
10
338
20
-56.5
11
338
21
-54.7
0
LINE
8
0
10
338
20
-54.7
11
320
21
-54.7
0
LINE
8
0
10
300
20
-95.82
11
318
21
-95.82
0
LINE
8
0
10
300
20
-91.32
11
300
21
-95.82
0
LINE
8
0
10
320
20
-54.7
11
320
21
-42.82
0
LINE
8
0
10
320
20
-42.82
11
302
21
-42.82
0
LINE
8
0
10
284
20
-91.32
11
300
21
-91.32
0
LINE
8
0
10
302
20
-42.82
11
302
21
-38.32
0
LINE
8
0
10
302
20
-38.32
11
282
21
-38.32
0
LINE
8
0
10
282
20
-38.32
11
282
21
-42.82
0
LINE
8
0
10
266
20
-95.82
11
284
21
-95.82
0
LINE
8
0
10
284
20
-95.82
11
284
21
-91.32
0
LINE
8
0
10
282
20
-42.82
11
264
21
-42.82
0
LINE
8
0
10
264
20
-42.82
11
264
21
-45.52
0
LINE
8
0
10
246.369886
20
-98.52
11
259.7058832
21
-98.52
0
LINE
8
0
10
266
20
-97.4101774
11
266
21
-95.82
0
LINE
8
0
10
246
20
-97.5037466
11
246
21
-45.52
0
LINE
8
0
10
264
20
-45.52
11
246
21
-45.52
0
LINE
8
0
10
271.1227726
20
-115.8
11
290.12
21
-115.8
0
LINE
8
0
10
290.12
20
-115.8
11
290.12
21
-96.8
0
LINE
8
0
10
290.12
20
-96.8
11
270.12
21
-96.8
0
LINE
8
0
10
270.12
20
-96.8
11
270.12
21
-105.3963274
0
LINE
8
0
10
252.2332151
20
-119.1307386
11
271.1227726
21
-115.8
0
LINE
8
0
10
270.12
20
-105.3963274
11
268.6300547
21
-96.9464278
0
LINE
8
0
10
268.6300547
20
-96.9464278
11
266
21
-97.4101774
0
LINE
8
0
10
259.7058832
20
-98.52
11
248.9338997
21
-100.4193913
0
LINE
8
0
10
248.9338997
20
-100.4193913
11
250.6936545
21
-110.3994563
0
LINE
8
0
10
251.5514863
20
-115.2644627
11
252.2332151
21
-119.1307386
0
LINE
8
0
10
246
20
-97.5037466
11
245.5171818
21
-96.1772145
0
LINE
8
0
10
250.6936545
20
-110.3994563
11
246.369886
21
-98.52
0
LINE
8
0
10
245.5171818
20
-96.1772145
11
227.663022
21
-102.6755973
0
LINE
8
0
10
227.663022
20
-102.6755973
11
233.4786372
21
-118.6538688
0
LINE
8
0
10
234.4935314
20
-121.4422678
11
234.5034248
21
-121.4694497
0
LINE
8
0
10
234.5034248
20
-121.4694497
11
251.5514863
21
-115.2644627
0
LINE
8
0
10
233.4786372
20
-118.6538688
11
224.9397729
21
-103.8641221
0
LINE
8
0
10
224.9397729
20
-103.8641221
11
208.4852903
21
-113.3641221
0
LINE
8
0
10
208.4852903
20
-113.3641221
11
218.4852903
21
-130.6846301
0
LINE
8
0
10
218.4852903
20
-130.6846301
11
234.4935314
21
-121.4422678
0
ENDSEC
0
EOF