<svg width="316mm" height="92.365mm" viewBox="0 0 316 92.365" xmlns="http://www.w3.org/2000/svg"><g id="svgGroup" stroke-linecap="round" fill-rule="evenodd" font-size="9pt" stroke="#000" stroke-width="0.25mm" fill="none" style="stroke:#000;stroke-width:0.25mm;fill:none"><path d="M 0 71.18 L 20 71.18 L 20 69.38 L 38 69.38 L 38 57.5 L 56 57.5 L 56 53 L 72 53 L 72 57.5 L 90 57.5 L 90 59.09 L 87.37 58.626 L 85.88 67.076 L 85.88 58.48 L 65.88 58.48 L 65.88 77.48 L 84.877 77.48 L 103.767 80.811 L 104.449 76.944 L 121.497 83.149 L 121.506 83.122 L 137.515 92.365 L 147.515 75.044 L 131.06 65.544 L 122.521 80.334 L 128.337 64.356 L 110.483 57.857 L 110 59.184 L 110 7.2 L 92 7.2 L 92 4.5 L 74 4.5 L 74 0 L 54 0 L 54 4.5 L 36 4.5 L 36 16.38 L 18 16.38 L 18 18.18 L 0 18.18 L 0 71.18 Z M 296 71.18 L 316 71.18 L 316 18.18 L 298 18.18 L 298 16.38 L 280 16.38 L 280 4.5 L 262 4.5 L 262 0 L 242 0 L 242 4.5 L 224 4.5 L 224 7.2 L 206 7.2 L 206 59.184 L 205.517 57.857 L 187.663 64.356 L 193.479 80.334 L 184.94 65.544 L 168.485 75.044 L 178.485 92.365 L 194.494 83.122 L 194.503 83.149 L 211.551 76.944 L 212.233 80.811 L 231.123 77.48 L 250.12 77.48 L 250.12 58.48 L 230.12 58.48 L 230.12 67.076 L 228.63 58.626 L 226 59.09 L 226 57.5 L 244 57.5 L 244 53 L 260 53 L 260 57.5 L 278 57.5 L 278 69.38 L 296 69.38 L 296 71.18 Z M 96.294 60.2 L 109.63 60.2 L 105.306 72.079 L 107.066 62.099 L 96.294 60.2 Z M 206.37 60.2 L 219.706 60.2 L 208.934 62.099 L 210.694 72.079 L 206.37 60.2 Z" vector-effect="non-scaling-stroke"/></g></svg>