0
SECTION
2
HEADER
9
$INSUNITS
70
4
0
ENDSEC
0
SECTION
2
TABLES
0
TABLE
2
LTYPE
0
LTYPE
72
65
70
64
2
CONTINUOUS
3
______
73
0
40
0
0
ENDTAB
0
TABLE
2
LAYER
0
ENDTAB
0
ENDSEC
0
SECTION
2
ENTITIES
0
LINE
8
0
10
356
20
-57.9723328
11
356
21
-107.5052562
0
LINE
8
0
10
354.0052632
20
-109.5052493
11
318.2170344
21
-109.5994289
0
LINE
8
0
10
317.7881402
20
-109.6471137
11
290.3421867
21
-115.7505898
0
LINE
8
0
10
289.8923927
20
-115.7982204
11
272.1263914
21
-115.6593155
0
LINE
8
0
10
271.7358354
20
-115.6947098
11
254.0204577
21
-119.0755643
0
LINE
8
0
10
253.7113368
20
-119.1607237
11
236.1747892
21
-125.543505
0
LINE
8
0
10
235.8550813
20
-125.6930088
11
222.4189215
21
-133.4892182
0
LINE
8
0
10
219.6831227
20
-132.7593367
11
207.2852903
21
-111.2856611
0
LINE
8
0
10
208.0173411
20
-108.5536103
11
222.6429421
21
-100.1095156
0
LINE
8
0
10
222.8422309
20
-100.0088466
11
225.0507112
21
-99.0439666
0
LINE
8
0
10
226.25
20
-97.2112468
11
226.25
21
-47.52
0
LINE
8
0
10
228.25
20
-45.52
11
245.7484859
21
-45.52
0
LINE
8
0
10
246.2436825
20
-45.4577256
11
263.8232902
21
-40.9651592
0
LINE
8
0
10
264.1819638
20
-40.9075498
11
301.6848554
21
-38.3415625
0
LINE
8
0
10
302.3064496
20
-38.3966124
11
319.8278831
21
-42.7769708
0
LINE
8
0
10
320.1618548
20
-42.8926548
11
337.8901079
21
-50.8506707
0
LINE
8
0
10
338.1150177
20
-50.9357833
11
354.5941332
21
-56.0626192
0
ARC
8
0
10
354
20
-107.5052562
40
2
50
270.1507798
51
0
0
ARC
8
0
10
318.2222976
20
-111.599422
40
2
50
90.1507798
51
102.5375088
0
ARC
8
0
10
289.9080293
20
-113.7982815
40
2
50
269.5520398
51
282.5375088
0
ARC
8
0
10
272.1107548
20
-117.6592544
40
2
50
89.5520398
51
100.8045721
0
ARC
8
0
10
254.3953771
20
-121.0401089
40
2
50
100.8045721
51
109.9999981
0
ARC
8
0
10
236.8588294
20
-127.4228902
40
2
50
109.9999981
51
120.1240617
0
ARC
8
0
10
221.4151735
20
-131.7593367
40
2
50
210.0000001
51
300.1240617
0
ARC
8
0
10
209.0173411
20
-110.2856611
40
2
50
120.0000001
51
210.0000001
0
ARC
8
0
10
223.6429421
20
-101.8415664
40
2
50
113.6004097
51
120.0000001
0
ARC
8
0
10
224.25
20
-97.2112468
40
2
50
293.6004097
51
0
0
ARC
8
0
10
228.25
20
-47.52
40
2
50
90
51
180
0
ARC
8
0
10
245.7484859
20
-43.52
40
2
50
270
51
284.335437
0
ARC
8
0
10
264.3184868
20
-42.9028847
40
2
50
93.9141395
51
104.335437
0
ARC
8
0
10
301.8213784
20
-40.3368974
40
2
50
75.9637579
51
93.9141395
0
ARC
8
0
10
319.3428118
20
-44.7172558
40
2
50
65.8252211
51
75.9637579
0
ARC
8
0
10
338.7091509
20
-49.0260697
40
2
50
245.8252211
51
252.7184994
0
ARC
8
0
10
354
20
-57.9723328
40
2
50
0
51
72.7184994
0
ENDSEC
0
EOF