<svg width="148.983mm" height="95.422mm" viewBox="0 0 148.983 95.422" xmlns="http://www.w3.org/2000/svg"><g id="svgGroup" stroke-linecap="round" fill-rule="evenodd" font-size="9pt" stroke="#000" stroke-width="0.25mm" fill="none" style="stroke:#000;stroke-width:0.25mm;fill:none"><path d="M 148.983 19.635 L 148.983 69.168 A 2 2 0 0 1 146.988 71.168 L 111.2 71.263 A 2 2 0 0 0 110.771 71.31 L 83.325 77.414 A 2 2 0 0 1 82.875 77.461 L 65.109 77.322 A 2 2 0 0 0 64.718 77.358 L 47.003 80.739 A 2 2 0 0 0 46.694 80.824 L 29.157 87.207 A 2 2 0 0 0 28.838 87.356 L 15.402 95.152 A 2 2 0 0 1 12.666 94.422 L 0.268 72.949 A 2 2 0 0 1 1 70.217 L 15.626 61.773 A 2 2 0 0 1 15.825 61.672 L 18.033 60.707 A 2 2 0 0 0 19.233 58.874 L 19.233 9.183 A 2 2 0 0 1 21.233 7.183 L 38.731 7.183 A 2 2 0 0 0 39.226 7.121 L 56.806 2.628 A 2 2 0 0 1 57.165 2.571 L 94.668 0.005 A 2 2 0 0 1 95.289 0.06 L 112.811 4.44 A 2 2 0 0 1 113.145 4.556 L 130.873 12.514 A 2 2 0 0 0 131.098 12.599 L 147.577 17.726 A 2 2 0 0 1 148.983 19.635 Z" vector-effect="non-scaling-stroke"/></g></svg>