M48
; DRILL file {KiCad 9.0.2} date 2025-06-08T10:19:29-0600
; FORMAT={-:-/ absolute / inch / decimal}
; #@! TF.CreationDate,2025-06-08T10:19:29-06:00
; #@! TF.GenerationSoftware,Kicad,Pcbnew,9.0.2
; #@! TF.FileFunction,NonPlated,1,2,NPTH
FMAT,2
INCH
; #@! TA.AperFunction,NonPlated,NPTH,ComponentDrill
T1C0.0295
; #@! TA.AperFunction,NonPlated,NPTH,ComponentDrill
T2C0.0354
; #@! TA.AperFunction,NonPlated,NPTH,ComponentDrill
T3C0.0748
; #@! TA.AperFunction,NonPlated,NPTH,ComponentDrill
T4C0.1181
; #@! TA.AperFunction,NonPlated,NPTH,ComponentDrill
T5C0.1339
; #@! TA.AperFunction,NonPlated,NPTH,ComponentDrill
T6C0.1693
%
G90
G05
T1
X6.5555Y-3.2882
X6.6637Y-3.2882
T2
X6.6043Y-3.5972
X6.6043Y-3.7154
T3
X1.752Y-2.5984
X1.752Y-3.2677
X1.752Y-3.937
X2.185Y-2.5984
X2.185Y-3.2677
X2.185Y-3.937
X2.4606Y-2.5276
X2.4606Y-3.1969
X2.4606Y-3.8661
X2.8937Y-2.5276
X2.8937Y-3.1969
X2.8937Y-3.8661
X3.1693Y-2.0598
X3.1693Y-2.7291
X3.1693Y-3.3984
X3.6024Y-2.0598
X3.6024Y-2.7291
X3.6024Y-3.3984
X3.878Y-1.8827
X3.878Y-2.552
X3.878Y-3.2213
X4.2323Y-4.0677
X4.311Y-1.8827
X4.311Y-2.552
X4.311Y-3.2213
X4.5866Y-2.0598
X4.5866Y-2.7291
X4.5866Y-3.3984
X4.6654Y-4.0677
X5.005Y-4.1282
X5.0197Y-2.0598
X5.0197Y-2.7291
X5.0197Y-3.3984
X5.2953Y-2.1661
X5.2953Y-2.8354
X5.2953Y-3.5047
X5.4233Y-4.2403
X5.7283Y-2.1661
X5.7283Y-2.8354
X5.7283Y-3.5047
X5.9096Y-4.4654
X6.1062Y-4.0795
X6.5246Y-4.8378
X6.7668Y-4.4788
T4
X1.7717Y-2.7461
X1.7717Y-3.4154
X1.7717Y-4.0846
X1.9685Y-2.8327
X1.9685Y-3.502
X1.9685Y-4.1713
X2.1654Y-2.7461
X2.1654Y-3.4154
X2.1654Y-4.0846
X2.4803Y-2.6752
X2.4803Y-3.3445
X2.4803Y-4.0138
X2.6772Y-2.7618
X2.6772Y-3.4311
X2.6772Y-4.1004
X2.874Y-2.6752
X2.874Y-3.3445
X2.874Y-4.0138
X3.189Y-2.2075
X3.189Y-2.8768
X3.189Y-3.5461
X3.3858Y-2.2941
X3.3858Y-2.9634
X3.3858Y-3.6327
X3.5827Y-2.2075
X3.5827Y-2.8768
X3.5827Y-3.5461
X3.8976Y-2.0303
X3.8976Y-2.6996
X3.8976Y-3.3689
X4.0945Y-2.1169
X4.0945Y-2.7862
X4.0945Y-3.4555
X4.252Y-4.2154
X4.2913Y-2.0303
X4.2913Y-2.6996
X4.2913Y-3.3689
X4.4488Y-4.302
X4.6063Y-2.2075
X4.6063Y-2.8768
X4.6063Y-3.5461
X4.6457Y-4.2154
X4.8031Y-2.2941
X4.8031Y-2.9634
X4.8031Y-3.6327
X4.9858Y-4.2759
X5.0Y-2.2075
X5.0Y-2.8768
X5.0Y-3.5461
X5.1535Y-4.4105
X5.315Y-2.3138
X5.315Y-2.9831
X5.315Y-3.6524
X5.3661Y-4.3778
X5.5118Y-2.4004
X5.5118Y-3.0697
X5.5118Y-3.739
X5.7087Y-2.3138
X5.7087Y-2.9831
X5.7087Y-3.6524
X5.787Y-4.3808
X5.7992Y-4.1661
X5.9657Y-4.03
X6.4132Y-4.7389
X6.4515Y-4.5273
X6.6333Y-4.4125
T5
X1.9685Y-2.5984
X1.9685Y-3.2677
X1.9685Y-3.937
X2.6772Y-2.5276
X2.6772Y-3.1969
X2.6772Y-3.8661
X3.3858Y-2.0598
X3.3858Y-2.7291
X3.3858Y-3.3984
X4.0945Y-1.8827
X4.0945Y-2.552
X4.0945Y-3.2213
X4.4488Y-4.0677
X4.8031Y-2.0598
X4.8031Y-2.7291
X4.8031Y-3.3984
X5.2142Y-4.1843
X5.5118Y-2.1661
X5.5118Y-2.8354
X5.5118Y-3.5047
X6.0079Y-4.2724
X6.6457Y-4.6583
T6
X2.3031Y-2.9331
X2.3031Y-3.6024
X2.9528Y-2.0598
X4.2717Y-3.6445
X5.1772Y-2.5008
X6.4429Y-4.2724
M30
