%TF.GenerationSoftware,KiCad,Pcbnew,9.0.2*%
%TF.CreationDate,2025-06-10T18:45:11-06:00*%
%TF.ProjectId,scyboard,73637962-6f61-4726-942e-6b696361645f,1*%
%TF.SameCoordinates,Original*%
%TF.FileFunction,Soldermask,Top*%
%TF.FilePolarity,Negative*%
%FSLAX46Y46*%
G04 Gerber Fmt 4.6, Leading zero omitted, Abs format (unit mm)*
G04 Created by KiCad (PCBNEW 9.0.2) date 2025-06-10 18:45:11*
%MOMM*%
%LPD*%
G01*
G04 APERTURE LIST*
G04 Aperture macros list*
%AMRoundRect*
0 Rectangle with rounded corners*
0 $1 Rounding radius*
0 $2 $3 $4 $5 $6 $7 $8 $9 X,Y pos of 4 corners*
0 Add a 4 corners polygon primitive as box body*
4,1,4,$2,$3,$4,$5,$6,$7,$8,$9,$2,$3,0*
0 Add four circle primitives for the rounded corners*
1,1,$1+$1,$2,$3*
1,1,$1+$1,$4,$5*
1,1,$1+$1,$6,$7*
1,1,$1+$1,$8,$9*
0 Add four rect primitives between the rounded corners*
20,1,$1+$1,$2,$3,$4,$5,0*
20,1,$1+$1,$4,$5,$6,$7,0*
20,1,$1+$1,$6,$7,$8,$9,0*
20,1,$1+$1,$8,$9,$2,$3,0*%
%AMFreePoly0*
4,1,16,0.635355,0.285355,0.650000,0.250000,0.650000,-1.000000,0.635355,-1.035355,0.600000,-1.050000,0.564645,-1.035355,0.000000,-0.470710,-0.564645,-1.035355,-0.600000,-1.050000,-0.635355,-1.035355,-0.650000,-1.000000,-0.650000,0.250000,-0.635355,0.285355,-0.600000,0.300000,0.600000,0.300000,0.635355,0.285355,0.635355,0.285355,$1*%
%AMFreePoly1*
4,1,14,0.035355,0.435355,0.635355,-0.164645,0.650000,-0.200000,0.650000,-0.400000,0.635355,-0.435355,0.600000,-0.450000,-0.600000,-0.450000,-0.635355,-0.435355,-0.650000,-0.400000,-0.650000,-0.200000,-0.635355,-0.164645,-0.035355,0.435355,0.000000,0.450000,0.035355,0.435355,0.035355,0.435355,$1*%
%AMFreePoly2*
4,1,14,1.335355,1.335355,1.350000,1.300000,1.350000,-0.117000,1.335355,-0.152355,0.152355,-1.335355,0.117000,-1.350000,-1.300000,-1.350000,-1.335355,-1.335355,-1.350000,-1.300000,-1.350000,1.300000,-1.335355,1.335355,-1.300000,1.350000,1.300000,1.350000,1.335355,1.335355,1.335355,1.335355,$1*%
G04 Aperture macros list end*
%ADD10RoundRect,0.050000X-0.600000X0.450000X-0.600000X-0.450000X0.600000X-0.450000X0.600000X0.450000X0*%
%ADD11RoundRect,0.050000X-0.300000X-0.600000X0.300000X-0.600000X0.300000X0.600000X-0.300000X0.600000X0*%
%ADD12C,1.800000*%
%ADD13C,0.900000*%
%ADD14C,4.400000*%
%ADD15RoundRect,0.050000X0.708583X0.245786X-0.037551X0.749059X-0.708583X-0.245786X0.037551X-0.749059X0*%
%ADD16RoundRect,0.050000X0.400000X-0.500000X0.400000X0.500000X-0.400000X0.500000X-0.400000X-0.500000X0*%
%ADD17C,1.000000*%
%ADD18RoundRect,0.050000X0.750000X-0.350000X0.750000X0.350000X-0.750000X0.350000X-0.750000X-0.350000X0*%
%ADD19RoundRect,0.050000X-0.463087X0.589958X-0.696024X-0.279375X0.463087X-0.589958X0.696024X0.279375X0*%
%ADD20FreePoly0,90.000000*%
%ADD21O,1.850000X1.300000*%
%ADD22FreePoly1,90.000000*%
%ADD23C,0.850000*%
%ADD24RoundRect,0.050000X0.500000X-0.775000X0.500000X0.775000X-0.500000X0.775000X-0.500000X-0.775000X0*%
%ADD25RoundRect,0.050000X0.673347X0.330308X-0.128559X0.738900X-0.673347X-0.330308X0.128559X-0.738900X0*%
%ADD26C,2.000000*%
%ADD27C,3.100000*%
%ADD28C,3.500000*%
%ADD29FreePoly2,180.000000*%
%ADD30RoundRect,0.050000X1.300000X1.300000X-1.300000X1.300000X-1.300000X-1.300000X1.300000X-1.300000X0*%
%ADD31FreePoly2,56.000000*%
%ADD32RoundRect,0.050000X0.350798X-1.804700X1.804700X0.350798X-0.350798X1.804700X-1.804700X-0.350798X0*%
%ADD33FreePoly2,165.000000*%
%ADD34RoundRect,0.050000X1.592168X0.919239X-0.919239X1.592168X-1.592168X-0.919239X0.919239X-1.592168X0*%
%ADD35FreePoly2,63.000000*%
%ADD36RoundRect,0.050000X0.568121X-1.748496X1.748496X0.568121X-0.568121X1.748496X-1.748496X-0.568121X0*%
G04 APERTURE END LIST*
D10*
%TO.C,D24*%
X57750000Y-79850000D03*
X57750000Y-83150000D03*
%TD*%
D11*
%TO.C,MCU1*%
X164980000Y-49445000D03*
D12*
X167120000Y-49445000D03*
D11*
X164980000Y-51985000D03*
D12*
X167120000Y-51985000D03*
D11*
X164980000Y-54525000D03*
D12*
X167120000Y-54525000D03*
D11*
X164980000Y-57065000D03*
D12*
X167120000Y-57065000D03*
D11*
X164980000Y-59605000D03*
D12*
X167120000Y-59605000D03*
D11*
X164980000Y-62145000D03*
D12*
X167120000Y-62145000D03*
D11*
X164980000Y-64685000D03*
D12*
X167120000Y-64685000D03*
D11*
X164980000Y-67225000D03*
D12*
X167120000Y-67225000D03*
D11*
X164980000Y-69765000D03*
D12*
X167120000Y-69765000D03*
D11*
X164980000Y-72305000D03*
D12*
X167120000Y-72305000D03*
D11*
X164980000Y-74845000D03*
D12*
X167120000Y-74845000D03*
D11*
X164980000Y-77385000D03*
D12*
X167120000Y-77385000D03*
X151880000Y-77385000D03*
D11*
X154020000Y-77385000D03*
D12*
X151880000Y-74845000D03*
D11*
X154020000Y-74845000D03*
D12*
X151880000Y-72305000D03*
D11*
X154020000Y-72305000D03*
D12*
X151880000Y-69765000D03*
D11*
X154020000Y-69765000D03*
D12*
X151880000Y-67225000D03*
D11*
X154020000Y-67225000D03*
D12*
X151880000Y-64685000D03*
D11*
X154020000Y-64685000D03*
D12*
X151880000Y-62145000D03*
D11*
X154020000Y-62145000D03*
D12*
X151880000Y-59605000D03*
D11*
X154020000Y-59605000D03*
D12*
X151880000Y-57065000D03*
D11*
X154020000Y-57065000D03*
D12*
X151880000Y-54525000D03*
D11*
X154020000Y-54525000D03*
D12*
X151880000Y-51985000D03*
D11*
X154020000Y-51985000D03*
D12*
X151880000Y-49445000D03*
D11*
X154020000Y-49445000D03*
D13*
X162900000Y-49445000D03*
D11*
X164080000Y-49445000D03*
D13*
X162900000Y-51985000D03*
D11*
X164080000Y-51985000D03*
D13*
X162900000Y-54525000D03*
D11*
X164080000Y-54525000D03*
D13*
X162900000Y-57065000D03*
D11*
X164080000Y-57065000D03*
D13*
X162900000Y-59605000D03*
D11*
X164080000Y-59605000D03*
D13*
X162900000Y-62145000D03*
D11*
X164080000Y-62145000D03*
D13*
X162900000Y-64685000D03*
D11*
X164080000Y-64685000D03*
D13*
X162900000Y-67225000D03*
D11*
X164080000Y-67225000D03*
D13*
X162900000Y-69765000D03*
D11*
X164080000Y-69765000D03*
D13*
X162900000Y-72305000D03*
D11*
X164080000Y-72305000D03*
D13*
X162900000Y-74845000D03*
D11*
X164080000Y-74845000D03*
D13*
X162900000Y-77385000D03*
D11*
X164080000Y-77385000D03*
X154920000Y-77385000D03*
D13*
X156100000Y-77385000D03*
D11*
X154920000Y-74845000D03*
D13*
X156100000Y-74845000D03*
D11*
X154920000Y-72305000D03*
D13*
X156100000Y-72305000D03*
D11*
X154920000Y-69765000D03*
D13*
X156100000Y-69765000D03*
D11*
X154920000Y-67225000D03*
D13*
X156100000Y-67225000D03*
D11*
X154920000Y-64685000D03*
D13*
X156100000Y-64685000D03*
D11*
X154920000Y-62145000D03*
D13*
X156100000Y-62145000D03*
D11*
X154920000Y-59605000D03*
D13*
X156100000Y-59605000D03*
D11*
X154920000Y-57065000D03*
D13*
X156100000Y-57065000D03*
D11*
X154920000Y-54525000D03*
D13*
X156100000Y-54525000D03*
D11*
X154920000Y-51985000D03*
D13*
X156100000Y-51985000D03*
D11*
X154920000Y-49445000D03*
D13*
X156100000Y-49445000D03*
%TD*%
D14*
%TO.C,MH5*%
X152250000Y-90330000D03*
%TD*%
D10*
%TO.C,D35*%
X129750000Y-83170000D03*
X129750000Y-86470000D03*
%TD*%
D15*
%TO.C,D44*%
X167077712Y-126506468D03*
X164341888Y-124661132D03*
%TD*%
D10*
%TO.C,D25*%
X57750000Y-62850000D03*
X57750000Y-66150000D03*
%TD*%
%TO.C,D32*%
X111750000Y-78670000D03*
X111750000Y-81970000D03*
%TD*%
%TO.C,D30*%
X93750000Y-66170000D03*
X93750000Y-69470000D03*
%TD*%
%TO.C,D31*%
X93750000Y-49170000D03*
X93750000Y-52470000D03*
%TD*%
D14*
%TO.C,MH2*%
X79800000Y-108250000D03*
%TD*%
D10*
%TO.C,D40*%
X147750000Y-51870000D03*
X147750000Y-55170000D03*
%TD*%
%TO.C,D23*%
X57750000Y-96850000D03*
X57750000Y-100150000D03*
%TD*%
D14*
%TO.C,MH1*%
X57750000Y-55000000D03*
%TD*%
D16*
%TO.C,PWR1*%
X166640000Y-89220000D03*
X166640000Y-96520000D03*
D17*
X167750000Y-91370000D03*
X167750000Y-94370000D03*
D16*
X168850000Y-89220000D03*
X168850000Y-96520000D03*
D18*
X165990000Y-95120000D03*
X165990000Y-92120000D03*
X165990000Y-90620000D03*
%TD*%
D10*
%TO.C,D29*%
X93750000Y-83170000D03*
X93750000Y-86470000D03*
%TD*%
%TO.C,D37*%
X129750000Y-49170000D03*
X129750000Y-52470000D03*
%TD*%
D19*
%TO.C,D42*%
X140741250Y-105243222D03*
X139887150Y-108430778D03*
%TD*%
D20*
%TO.C,JST1*%
X160409000Y-88030000D03*
X160409000Y-90030000D03*
D21*
X163225000Y-88030000D03*
X163225000Y-90030000D03*
D22*
X161425000Y-88030000D03*
X161425000Y-90030000D03*
%TD*%
D14*
%TO.C,MH4*%
X115630000Y-41180000D03*
%TD*%
%TO.C,MH6*%
X108500000Y-92570000D03*
%TD*%
D10*
%TO.C,D26*%
X75750000Y-95050000D03*
X75750000Y-98350000D03*
%TD*%
D23*
%TO.C,RST1*%
X169259000Y-83520000D03*
X166509000Y-83520000D03*
D24*
X168734000Y-86145000D03*
X167034000Y-86145000D03*
X168734000Y-80895000D03*
X167034000Y-80895000D03*
%TD*%
D10*
%TO.C,D33*%
X111750000Y-61670000D03*
X111750000Y-64970000D03*
%TD*%
D14*
%TO.C,MH3*%
X92370000Y-41180000D03*
%TD*%
D10*
%TO.C,D28*%
X75750000Y-61050000D03*
X75750000Y-64350000D03*
%TD*%
%TO.C,D41*%
X120750000Y-100170000D03*
X120750000Y-103470000D03*
%TD*%
D25*
%TO.C,D43*%
X151888261Y-116855384D03*
X148947939Y-115357216D03*
%TD*%
D10*
%TO.C,D39*%
X147750000Y-68870000D03*
X147750000Y-72170000D03*
%TD*%
%TO.C,D34*%
X111750000Y-44670000D03*
X111750000Y-47970000D03*
%TD*%
%TO.C,D38*%
X147750000Y-85870000D03*
X147750000Y-89170000D03*
%TD*%
%TO.C,D36*%
X129750000Y-66170000D03*
X129750000Y-69470000D03*
%TD*%
%TO.C,D27*%
X75750000Y-78050000D03*
X75750000Y-81350000D03*
%TD*%
D26*
%TO.C,S3*%
X55500000Y-66000000D03*
D27*
X55000000Y-69750000D03*
X50000000Y-71950000D03*
D28*
X50000000Y-66000000D03*
D27*
X45000000Y-69750000D03*
D26*
X44500000Y-66000000D03*
D29*
X46725000Y-71950000D03*
D30*
X58275000Y-69750000D03*
%TD*%
D26*
%TO.C,S7*%
X91500000Y-86320000D03*
D27*
X91000000Y-90070000D03*
X86000000Y-92270000D03*
D28*
X86000000Y-86320000D03*
D27*
X81000000Y-90070000D03*
D26*
X80500000Y-86320000D03*
D29*
X82725000Y-92270000D03*
D30*
X94275000Y-90070000D03*
%TD*%
D26*
%TO.C,S6*%
X73500000Y-64200000D03*
D27*
X73000000Y-67950000D03*
X68000000Y-70150000D03*
D28*
X68000000Y-64200000D03*
D27*
X63000000Y-67950000D03*
D26*
X62500000Y-64200000D03*
D29*
X64725000Y-70150000D03*
D30*
X76275000Y-67950000D03*
%TD*%
D26*
%TO.C,S11*%
X109500000Y-64820000D03*
D27*
X109000000Y-68570000D03*
X104000000Y-70770000D03*
D28*
X104000000Y-64820000D03*
D27*
X99000000Y-68570000D03*
D26*
X98500000Y-64820000D03*
D29*
X100725000Y-70770000D03*
D30*
X112275000Y-68570000D03*
%TD*%
D26*
%TO.C,S18*%
X145500000Y-55020000D03*
D27*
X145000000Y-58770000D03*
X140000000Y-60970000D03*
D28*
X140000000Y-55020000D03*
D27*
X135000000Y-58770000D03*
D26*
X134500000Y-55020000D03*
D29*
X136725000Y-60970000D03*
D30*
X148275000Y-58770000D03*
%TD*%
D26*
%TO.C,S22*%
X165724439Y-122879707D03*
D27*
X162895145Y-120368214D03*
X163867226Y-114992802D03*
D28*
X168800000Y-118320000D03*
D27*
X168487074Y-112077839D03*
D26*
X171875561Y-113760293D03*
D31*
X165698583Y-112277704D03*
D32*
X161063788Y-123083313D03*
%TD*%
D26*
%TO.C,S10*%
X109500000Y-81820000D03*
D27*
X109000000Y-85570000D03*
X104000000Y-87770000D03*
D28*
X104000000Y-81820000D03*
D27*
X99000000Y-85570000D03*
D26*
X98500000Y-81820000D03*
D29*
X100725000Y-87770000D03*
D30*
X112275000Y-85570000D03*
%TD*%
D26*
%TO.C,S12*%
X109500000Y-47820000D03*
D27*
X109000000Y-51570000D03*
X104000000Y-53770000D03*
D28*
X104000000Y-47820000D03*
D27*
X99000000Y-51570000D03*
D26*
X98500000Y-47820000D03*
D29*
X100725000Y-53770000D03*
D30*
X112275000Y-51570000D03*
%TD*%
D26*
%TO.C,S8*%
X91500000Y-69320000D03*
D27*
X91000000Y-73070000D03*
X86000000Y-75270000D03*
D28*
X86000000Y-69320000D03*
D27*
X81000000Y-73070000D03*
D26*
X80500000Y-69320000D03*
D29*
X82725000Y-75270000D03*
D30*
X94275000Y-73070000D03*
%TD*%
D26*
%TO.C,S19*%
X118500000Y-103320000D03*
D27*
X118000000Y-107070000D03*
X113000000Y-109270000D03*
D28*
X113000000Y-103320000D03*
D27*
X108000000Y-107070000D03*
D26*
X107500000Y-103320000D03*
D29*
X109725000Y-109270000D03*
D30*
X121275000Y-107070000D03*
%TD*%
D26*
%TO.C,S1*%
X55500000Y-100000000D03*
D27*
X55000000Y-103750000D03*
X50000000Y-105950000D03*
D28*
X50000000Y-100000000D03*
D27*
X45000000Y-103750000D03*
D26*
X44500000Y-100000000D03*
D29*
X46725000Y-105950000D03*
D30*
X58275000Y-103750000D03*
%TD*%
D26*
%TO.C,S15*%
X127500000Y-52320000D03*
D27*
X127000000Y-56070000D03*
X122000000Y-58270000D03*
D28*
X122000000Y-52320000D03*
D27*
X117000000Y-56070000D03*
D26*
X116500000Y-52320000D03*
D29*
X118725000Y-58270000D03*
D30*
X130275000Y-56070000D03*
%TD*%
D26*
%TO.C,S16*%
X145500000Y-89020000D03*
D27*
X145000000Y-92770000D03*
X140000000Y-94970000D03*
D28*
X140000000Y-89020000D03*
D27*
X135000000Y-92770000D03*
D26*
X134500000Y-89020000D03*
D29*
X136725000Y-94970000D03*
D30*
X148275000Y-92770000D03*
%TD*%
D26*
%TO.C,S20*%
X137752592Y-107703505D03*
D27*
X136299058Y-111196317D03*
X130900027Y-112027259D03*
D28*
X132440000Y-106280000D03*
D27*
X126639799Y-108608127D03*
D26*
X127127408Y-104856495D03*
D33*
X127736620Y-111179626D03*
D34*
X139462465Y-112043949D03*
%TD*%
D26*
%TO.C,S14*%
X127500000Y-69320000D03*
D27*
X127000000Y-73070000D03*
X122000000Y-75270000D03*
D28*
X122000000Y-69320000D03*
D27*
X117000000Y-73070000D03*
D26*
X116500000Y-69320000D03*
D29*
X118725000Y-75270000D03*
D30*
X130275000Y-73070000D03*
%TD*%
D26*
%TO.C,S2*%
X55500000Y-83000000D03*
D27*
X55000000Y-86750000D03*
X50000000Y-88950000D03*
D28*
X50000000Y-83000000D03*
D27*
X45000000Y-86750000D03*
D26*
X44500000Y-83000000D03*
D29*
X46725000Y-88950000D03*
D30*
X58275000Y-86750000D03*
%TD*%
D26*
%TO.C,S13*%
X127500000Y-86320000D03*
D27*
X127000000Y-90070000D03*
X122000000Y-92270000D03*
D28*
X122000000Y-86320000D03*
D27*
X117000000Y-90070000D03*
D26*
X116500000Y-86320000D03*
D29*
X118725000Y-92270000D03*
D30*
X130275000Y-90070000D03*
%TD*%
D26*
%TO.C,S4*%
X73500000Y-98200000D03*
D27*
X73000000Y-101950000D03*
X68000000Y-104150000D03*
D28*
X68000000Y-98200000D03*
D27*
X63000000Y-101950000D03*
D26*
X62500000Y-98200000D03*
D29*
X64725000Y-104150000D03*
D30*
X76275000Y-101950000D03*
%TD*%
D26*
%TO.C,S17*%
X145500000Y-72020000D03*
D27*
X145000000Y-75770000D03*
X140000000Y-77970000D03*
D28*
X140000000Y-72020000D03*
D27*
X135000000Y-75770000D03*
D26*
X134500000Y-72020000D03*
D29*
X136725000Y-77970000D03*
D30*
X148275000Y-75770000D03*
%TD*%
D26*
%TO.C,S21*%
X150103052Y-113420536D03*
D27*
X146988773Y-111272568D03*
X147298511Y-105818757D03*
D28*
X152600000Y-108520000D03*
D27*
X151528678Y-102362503D03*
D26*
X155096948Y-103619464D03*
D35*
X148785330Y-102900710D03*
D36*
X145501954Y-114190615D03*
%TD*%
D26*
%TO.C,S9*%
X91500000Y-52320000D03*
D27*
X91000000Y-56070000D03*
X86000000Y-58270000D03*
D28*
X86000000Y-52320000D03*
D27*
X81000000Y-56070000D03*
D26*
X80500000Y-52320000D03*
D29*
X82725000Y-58270000D03*
D30*
X94275000Y-56070000D03*
%TD*%
D26*
%TO.C,S5*%
X73500000Y-81200000D03*
D27*
X73000000Y-84950000D03*
X68000000Y-87150000D03*
D28*
X68000000Y-81200000D03*
D27*
X63000000Y-84950000D03*
D26*
X62500000Y-81200000D03*
D29*
X64725000Y-87150000D03*
D30*
X76275000Y-84950000D03*
%TD*%
M02*
