%TF.GenerationSoftware,KiCad,Pcbnew,9.0.2*%
%TF.CreationDate,2025-06-10T18:45:11-06:00*%
%TF.ProjectId,scyboard,73637962-6f61-4726-942e-6b696361645f,1*%
%TF.SameCoordinates,Original*%
%TF.FileFunction,Soldermask,Bot*%
%TF.FilePolarity,Negative*%
%FSLAX46Y46*%
G04 Gerber Fmt 4.6, Leading zero omitted, Abs format (unit mm)*
G04 Created by KiCad (PCBNEW 9.0.2) date 2025-06-10 18:45:11*
%MOMM*%
%LPD*%
G01*
G04 APERTURE LIST*
G04 Aperture macros list*
%AMRoundRect*
0 Rectangle with rounded corners*
0 $1 Rounding radius*
0 $2 $3 $4 $5 $6 $7 $8 $9 X,Y pos of 4 corners*
0 Add a 4 corners polygon primitive as box body*
4,1,4,$2,$3,$4,$5,$6,$7,$8,$9,$2,$3,0*
0 Add four circle primitives for the rounded corners*
1,1,$1+$1,$2,$3*
1,1,$1+$1,$4,$5*
1,1,$1+$1,$6,$7*
1,1,$1+$1,$8,$9*
0 Add four rect primitives between the rounded corners*
20,1,$1+$1,$2,$3,$4,$5,0*
20,1,$1+$1,$4,$5,$6,$7,0*
20,1,$1+$1,$6,$7,$8,$9,0*
20,1,$1+$1,$8,$9,$2,$3,0*%
%AMFreePoly0*
4,1,16,0.635355,0.285355,0.650000,0.250000,0.650000,-1.000000,0.635355,-1.035355,0.600000,-1.050000,0.564645,-1.035355,0.000000,-0.470710,-0.564645,-1.035355,-0.600000,-1.050000,-0.635355,-1.035355,-0.650000,-1.000000,-0.650000,0.250000,-0.635355,0.285355,-0.600000,0.300000,0.600000,0.300000,0.635355,0.285355,0.635355,0.285355,$1*%
%AMFreePoly1*
4,1,14,0.035355,0.435355,0.635355,-0.164645,0.650000,-0.200000,0.650000,-0.400000,0.635355,-0.435355,0.600000,-0.450000,-0.600000,-0.450000,-0.635355,-0.435355,-0.650000,-0.400000,-0.650000,-0.200000,-0.635355,-0.164645,-0.035355,0.435355,0.000000,0.450000,0.035355,0.435355,0.035355,0.435355,$1*%
%AMFreePoly2*
4,1,14,1.335355,1.335355,1.350000,1.300000,1.350000,-1.300000,1.335355,-1.335355,1.300000,-1.350000,-0.117000,-1.350000,-0.152355,-1.335355,-1.335355,-0.152355,-1.350000,-0.117000,-1.350000,1.300000,-1.335355,1.335355,-1.300000,1.350000,1.300000,1.350000,1.335355,1.335355,1.335355,1.335355,$1*%
G04 Aperture macros list end*
%ADD10RoundRect,0.050000X-0.300000X-0.600000X0.300000X-0.600000X0.300000X0.600000X-0.300000X0.600000X0*%
%ADD11C,1.800000*%
%ADD12C,0.900000*%
%ADD13C,4.400000*%
%ADD14RoundRect,0.050000X-0.400000X0.500000X-0.400000X-0.500000X0.400000X-0.500000X0.400000X0.500000X0*%
%ADD15C,1.000000*%
%ADD16RoundRect,0.050000X-0.750000X0.350000X-0.750000X-0.350000X0.750000X-0.350000X0.750000X0.350000X0*%
%ADD17FreePoly0,90.000000*%
%ADD18O,1.850000X1.300000*%
%ADD19FreePoly1,90.000000*%
%ADD20C,0.850000*%
%ADD21RoundRect,0.050000X0.500000X-0.775000X0.500000X0.775000X-0.500000X0.775000X-0.500000X-0.775000X0*%
%ADD22C,2.000000*%
%ADD23C,3.100000*%
%ADD24C,3.500000*%
%ADD25FreePoly2,180.000000*%
%ADD26RoundRect,0.050000X1.300000X1.300000X-1.300000X1.300000X-1.300000X-1.300000X1.300000X-1.300000X0*%
%ADD27RoundRect,0.050000X-0.463087X0.589958X-0.696024X-0.279375X0.463087X-0.589958X0.696024X0.279375X0*%
%ADD28RoundRect,0.050000X0.708583X0.245786X-0.037551X0.749059X-0.708583X-0.245786X0.037551X-0.749059X0*%
%ADD29RoundRect,0.050000X-0.600000X0.450000X-0.600000X-0.450000X0.600000X-0.450000X0.600000X0.450000X0*%
%ADD30FreePoly2,56.000000*%
%ADD31RoundRect,0.050000X0.350798X-1.804700X1.804700X0.350798X-0.350798X1.804700X-1.804700X-0.350798X0*%
%ADD32FreePoly2,165.000000*%
%ADD33RoundRect,0.050000X1.592168X0.919239X-0.919239X1.592168X-1.592168X-0.919239X0.919239X-1.592168X0*%
%ADD34RoundRect,0.050000X0.673347X0.330308X-0.128559X0.738900X-0.673347X-0.330308X0.128559X-0.738900X0*%
%ADD35FreePoly2,63.000000*%
%ADD36RoundRect,0.050000X0.568121X-1.748496X1.748496X0.568121X-0.568121X1.748496X-1.748496X-0.568121X0*%
G04 APERTURE END LIST*
D10*
%TO.C,MCU1*%
X164980000Y-49445000D03*
D11*
X167120000Y-49445000D03*
D10*
X164980000Y-51985000D03*
D11*
X167120000Y-51985000D03*
D10*
X164980000Y-54525000D03*
D11*
X167120000Y-54525000D03*
D10*
X164980000Y-57065000D03*
D11*
X167120000Y-57065000D03*
D10*
X164980000Y-59605000D03*
D11*
X167120000Y-59605000D03*
D10*
X164980000Y-62145000D03*
D11*
X167120000Y-62145000D03*
D10*
X164980000Y-64685000D03*
D11*
X167120000Y-64685000D03*
D10*
X164980000Y-67225000D03*
D11*
X167120000Y-67225000D03*
D10*
X164980000Y-69765000D03*
D11*
X167120000Y-69765000D03*
D10*
X164980000Y-72305000D03*
D11*
X167120000Y-72305000D03*
D10*
X164980000Y-74845000D03*
D11*
X167120000Y-74845000D03*
D10*
X164980000Y-77385000D03*
D11*
X167120000Y-77385000D03*
X151880000Y-77385000D03*
D10*
X154020000Y-77385000D03*
D11*
X151880000Y-74845000D03*
D10*
X154020000Y-74845000D03*
D11*
X151880000Y-72305000D03*
D10*
X154020000Y-72305000D03*
D11*
X151880000Y-69765000D03*
D10*
X154020000Y-69765000D03*
D11*
X151880000Y-67225000D03*
D10*
X154020000Y-67225000D03*
D11*
X151880000Y-64685000D03*
D10*
X154020000Y-64685000D03*
D11*
X151880000Y-62145000D03*
D10*
X154020000Y-62145000D03*
D11*
X151880000Y-59605000D03*
D10*
X154020000Y-59605000D03*
D11*
X151880000Y-57065000D03*
D10*
X154020000Y-57065000D03*
D11*
X151880000Y-54525000D03*
D10*
X154020000Y-54525000D03*
D11*
X151880000Y-51985000D03*
D10*
X154020000Y-51985000D03*
D11*
X151880000Y-49445000D03*
D10*
X154020000Y-49445000D03*
X154920000Y-49445000D03*
D12*
X162900000Y-49445000D03*
D10*
X154920000Y-51985000D03*
D12*
X162900000Y-51985000D03*
D10*
X154920000Y-54525000D03*
D12*
X162900000Y-54525000D03*
D10*
X154920000Y-57065000D03*
D12*
X162900000Y-57065000D03*
D10*
X154920000Y-59605000D03*
D12*
X162900000Y-59605000D03*
D10*
X154920000Y-62145000D03*
D12*
X162900000Y-62145000D03*
D10*
X154920000Y-64685000D03*
D12*
X162900000Y-64685000D03*
D10*
X154920000Y-67225000D03*
D12*
X162900000Y-67225000D03*
D10*
X154920000Y-69765000D03*
D12*
X162900000Y-69765000D03*
D10*
X154920000Y-72305000D03*
D12*
X162900000Y-72305000D03*
D10*
X154920000Y-74845000D03*
D12*
X162900000Y-74845000D03*
D10*
X154920000Y-77385000D03*
D12*
X162900000Y-77385000D03*
X156100000Y-77385000D03*
D10*
X164080000Y-77385000D03*
D12*
X156100000Y-74845000D03*
D10*
X164080000Y-74845000D03*
D12*
X156100000Y-72305000D03*
D10*
X164080000Y-72305000D03*
D12*
X156100000Y-69765000D03*
D10*
X164080000Y-69765000D03*
D12*
X156100000Y-67225000D03*
D10*
X164080000Y-67225000D03*
D12*
X156100000Y-64685000D03*
D10*
X164080000Y-64685000D03*
D12*
X156100000Y-62145000D03*
D10*
X164080000Y-62145000D03*
D12*
X156100000Y-59605000D03*
D10*
X164080000Y-59605000D03*
D12*
X156100000Y-57065000D03*
D10*
X164080000Y-57065000D03*
D12*
X156100000Y-54525000D03*
D10*
X164080000Y-54525000D03*
D12*
X156100000Y-51985000D03*
D10*
X164080000Y-51985000D03*
D12*
X156100000Y-49445000D03*
D10*
X164080000Y-49445000D03*
%TD*%
D13*
%TO.C,MH5*%
X152250000Y-90330000D03*
%TD*%
%TO.C,MH2*%
X79800000Y-108250000D03*
%TD*%
%TO.C,MH1*%
X57750000Y-55000000D03*
%TD*%
D14*
%TO.C,PWR1*%
X166640000Y-89220000D03*
X166640000Y-96520000D03*
D15*
X167750000Y-91370000D03*
X167750000Y-94370000D03*
D14*
X168850000Y-89220000D03*
X168850000Y-96520000D03*
D16*
X165990000Y-90620000D03*
X165990000Y-93620000D03*
X165990000Y-95120000D03*
%TD*%
D17*
%TO.C,JST1*%
X160409000Y-90030000D03*
X160409000Y-88030000D03*
D18*
X163225000Y-88030000D03*
X163225000Y-90030000D03*
D19*
X161425000Y-88030000D03*
X161425000Y-90030000D03*
%TD*%
D13*
%TO.C,MH4*%
X115630000Y-41180000D03*
%TD*%
%TO.C,MH6*%
X108500000Y-92570000D03*
%TD*%
D20*
%TO.C,RST1*%
X169259000Y-83520000D03*
X166509000Y-83520000D03*
D21*
X168734000Y-80895000D03*
X167034000Y-80895000D03*
X168734000Y-86145000D03*
X167034000Y-86145000D03*
%TD*%
D13*
%TO.C,MH3*%
X92370000Y-41180000D03*
%TD*%
D22*
%TO.C,S3*%
X55500000Y-66000000D03*
D23*
X55000000Y-69750000D03*
X50000000Y-71950000D03*
D24*
X50000000Y-66000000D03*
D23*
X45000000Y-69750000D03*
D22*
X44500000Y-66000000D03*
D25*
X53275000Y-71950000D03*
D26*
X41725000Y-69750000D03*
%TD*%
D22*
%TO.C,S7*%
X91500000Y-86320000D03*
D23*
X91000000Y-90070000D03*
X86000000Y-92270000D03*
D24*
X86000000Y-86320000D03*
D23*
X81000000Y-90070000D03*
D22*
X80500000Y-86320000D03*
D25*
X89275000Y-92270000D03*
D26*
X77725000Y-90070000D03*
%TD*%
D27*
%TO.C,D20*%
X125769350Y-101231522D03*
X124915250Y-104419078D03*
%TD*%
D28*
%TO.C,D22*%
X175745212Y-113656368D03*
X173009388Y-111811032D03*
%TD*%
D29*
%TO.C,D10*%
X96250000Y-78670000D03*
X96250000Y-81970000D03*
%TD*%
D22*
%TO.C,S6*%
X73500000Y-64200000D03*
D23*
X73000000Y-67950000D03*
X68000000Y-70150000D03*
D24*
X68000000Y-64200000D03*
D23*
X63000000Y-67950000D03*
D22*
X62500000Y-64200000D03*
D25*
X71275000Y-70150000D03*
D26*
X59725000Y-67950000D03*
%TD*%
D29*
%TO.C,D13*%
X114250000Y-83170000D03*
X114250000Y-86470000D03*
%TD*%
D22*
%TO.C,S11*%
X109500000Y-64820000D03*
D23*
X109000000Y-68570000D03*
X104000000Y-70770000D03*
D24*
X104000000Y-64820000D03*
D23*
X99000000Y-68570000D03*
D22*
X98500000Y-64820000D03*
D25*
X107275000Y-70770000D03*
D26*
X95725000Y-68570000D03*
%TD*%
D22*
%TO.C,S18*%
X145500000Y-55020000D03*
D23*
X145000000Y-58770000D03*
X140000000Y-60970000D03*
D24*
X140000000Y-55020000D03*
D23*
X135000000Y-58770000D03*
D22*
X134500000Y-55020000D03*
D25*
X143275000Y-60970000D03*
D26*
X131725000Y-58770000D03*
%TD*%
D29*
%TO.C,D18*%
X132250000Y-51870000D03*
X132250000Y-55170000D03*
%TD*%
D22*
%TO.C,S22*%
X165724439Y-122879707D03*
D23*
X162895145Y-120368214D03*
X163867226Y-114992802D03*
D24*
X168800000Y-118320000D03*
D23*
X168487074Y-112077839D03*
D22*
X171875561Y-113760293D03*
D30*
X162035870Y-117707900D03*
D31*
X170318430Y-109362741D03*
%TD*%
D29*
%TO.C,D2*%
X42250000Y-79850000D03*
X42250000Y-83150000D03*
%TD*%
D22*
%TO.C,S10*%
X109500000Y-81820000D03*
D23*
X109000000Y-85570000D03*
X104000000Y-87770000D03*
D24*
X104000000Y-81820000D03*
D23*
X99000000Y-85570000D03*
D22*
X98500000Y-81820000D03*
D25*
X107275000Y-87770000D03*
D26*
X95725000Y-85570000D03*
%TD*%
D22*
%TO.C,S12*%
X109500000Y-47820000D03*
D23*
X109000000Y-51570000D03*
X104000000Y-53770000D03*
D24*
X104000000Y-47820000D03*
D23*
X99000000Y-51570000D03*
D22*
X98500000Y-47820000D03*
D25*
X107275000Y-53770000D03*
D26*
X95725000Y-51570000D03*
%TD*%
D22*
%TO.C,S8*%
X91500000Y-69320000D03*
D23*
X91000000Y-73070000D03*
X86000000Y-75270000D03*
D24*
X86000000Y-69320000D03*
D23*
X81000000Y-73070000D03*
D22*
X80500000Y-69320000D03*
D25*
X89275000Y-75270000D03*
D26*
X77725000Y-73070000D03*
%TD*%
D29*
%TO.C,D3*%
X42250000Y-62850000D03*
X42250000Y-66150000D03*
%TD*%
D22*
%TO.C,S19*%
X118500000Y-103320000D03*
D23*
X118000000Y-107070000D03*
X113000000Y-109270000D03*
D24*
X113000000Y-103320000D03*
D23*
X108000000Y-107070000D03*
D22*
X107500000Y-103320000D03*
D25*
X116275000Y-109270000D03*
D26*
X104725000Y-107070000D03*
%TD*%
D22*
%TO.C,S1*%
X55500000Y-100000000D03*
D23*
X55000000Y-103750000D03*
X50000000Y-105950000D03*
D24*
X50000000Y-100000000D03*
D23*
X45000000Y-103750000D03*
D22*
X44500000Y-100000000D03*
D25*
X53275000Y-105950000D03*
D26*
X41725000Y-103750000D03*
%TD*%
D29*
%TO.C,D12*%
X96250000Y-44670000D03*
X96250000Y-47970000D03*
%TD*%
%TO.C,D16*%
X132250000Y-85870000D03*
X132250000Y-89170000D03*
%TD*%
%TO.C,D9*%
X78250000Y-49170000D03*
X78250000Y-52470000D03*
%TD*%
D22*
%TO.C,S15*%
X127500000Y-52320000D03*
D23*
X127000000Y-56070000D03*
X122000000Y-58270000D03*
D24*
X122000000Y-52320000D03*
D23*
X117000000Y-56070000D03*
D22*
X116500000Y-52320000D03*
D25*
X125275000Y-58270000D03*
D26*
X113725000Y-56070000D03*
%TD*%
D29*
%TO.C,D6*%
X60250000Y-61050000D03*
X60250000Y-64350000D03*
%TD*%
D22*
%TO.C,S16*%
X145500000Y-89020000D03*
D23*
X145000000Y-92770000D03*
X140000000Y-94970000D03*
D24*
X140000000Y-89020000D03*
D23*
X135000000Y-92770000D03*
D22*
X134500000Y-89020000D03*
D25*
X143275000Y-94970000D03*
D26*
X131725000Y-92770000D03*
%TD*%
D22*
%TO.C,S20*%
X137752592Y-107703505D03*
D23*
X136299058Y-111196317D03*
X130900027Y-112027259D03*
D24*
X132440000Y-106280000D03*
D23*
X126639799Y-108608127D03*
D22*
X127127408Y-104856495D03*
D32*
X134063434Y-112874891D03*
D33*
X123476392Y-107760494D03*
%TD*%
D29*
%TO.C,D15*%
X114250000Y-49170000D03*
X114250000Y-52470000D03*
%TD*%
%TO.C,D11*%
X96250000Y-61670000D03*
X96250000Y-64970000D03*
%TD*%
D22*
%TO.C,S14*%
X127500000Y-69320000D03*
D23*
X127000000Y-73070000D03*
X122000000Y-75270000D03*
D24*
X122000000Y-69320000D03*
D23*
X117000000Y-73070000D03*
D22*
X116500000Y-69320000D03*
D25*
X125275000Y-75270000D03*
D26*
X113725000Y-73070000D03*
%TD*%
D29*
%TO.C,D14*%
X114250000Y-66170000D03*
X114250000Y-69470000D03*
%TD*%
D22*
%TO.C,S2*%
X55500000Y-83000000D03*
D23*
X55000000Y-86750000D03*
X50000000Y-88950000D03*
D24*
X50000000Y-83000000D03*
D23*
X45000000Y-86750000D03*
D22*
X44500000Y-83000000D03*
D25*
X53275000Y-88950000D03*
D26*
X41725000Y-86750000D03*
%TD*%
D34*
%TO.C,D21*%
X158925061Y-103044784D03*
X155984739Y-101546616D03*
%TD*%
D29*
%TO.C,D7*%
X78250000Y-83170000D03*
X78250000Y-86470000D03*
%TD*%
%TO.C,D17*%
X132250000Y-68870000D03*
X132250000Y-72170000D03*
%TD*%
%TO.C,D5*%
X60250000Y-78050000D03*
X60250000Y-81350000D03*
%TD*%
%TO.C,D19*%
X105250000Y-100170000D03*
X105250000Y-103470000D03*
%TD*%
D22*
%TO.C,S13*%
X127500000Y-86320000D03*
D23*
X127000000Y-90070000D03*
X122000000Y-92270000D03*
D24*
X122000000Y-86320000D03*
D23*
X117000000Y-90070000D03*
D22*
X116500000Y-86320000D03*
D25*
X125275000Y-92270000D03*
D26*
X113725000Y-90070000D03*
%TD*%
D29*
%TO.C,D1*%
X42250000Y-96850000D03*
X42250000Y-100150000D03*
%TD*%
D22*
%TO.C,S4*%
X73500000Y-98200000D03*
D23*
X73000000Y-101950000D03*
X68000000Y-104150000D03*
D24*
X68000000Y-98200000D03*
D23*
X63000000Y-101950000D03*
D22*
X62500000Y-98200000D03*
D25*
X71275000Y-104150000D03*
D26*
X59725000Y-101950000D03*
%TD*%
D22*
%TO.C,S17*%
X145500000Y-72020000D03*
D23*
X145000000Y-75770000D03*
X140000000Y-77970000D03*
D24*
X140000000Y-72020000D03*
D23*
X135000000Y-75770000D03*
D22*
X134500000Y-72020000D03*
D25*
X143275000Y-77970000D03*
D26*
X131725000Y-75770000D03*
%TD*%
D22*
%TO.C,S21*%
X150103052Y-113420536D03*
D23*
X146988773Y-111272568D03*
X147298511Y-105818757D03*
D24*
X152600000Y-108520000D03*
D23*
X151528678Y-102362503D03*
D22*
X155096948Y-103619464D03*
D35*
X145811692Y-108736803D03*
D36*
X153015497Y-99444457D03*
%TD*%
D22*
%TO.C,S9*%
X91500000Y-52320000D03*
D23*
X91000000Y-56070000D03*
X86000000Y-58270000D03*
D24*
X86000000Y-52320000D03*
D23*
X81000000Y-56070000D03*
D22*
X80500000Y-52320000D03*
D25*
X89275000Y-58270000D03*
D26*
X77725000Y-56070000D03*
%TD*%
D22*
%TO.C,S5*%
X73500000Y-81200000D03*
D23*
X73000000Y-84950000D03*
X68000000Y-87150000D03*
D24*
X68000000Y-81200000D03*
D23*
X63000000Y-84950000D03*
D22*
X62500000Y-81200000D03*
D25*
X71275000Y-87150000D03*
D26*
X59725000Y-84950000D03*
%TD*%
D29*
%TO.C,D8*%
X78250000Y-66170000D03*
X78250000Y-69470000D03*
%TD*%
%TO.C,D4*%
X60250000Y-95050000D03*
X60250000Y-98350000D03*
%TD*%
M02*
