%TF.GenerationSoftware,KiCad,Pcbnew,9.0.2*%
%TF.CreationDate,2025-06-08T10:18:17-06:00*%
%TF.ProjectId,scyboard,73637962-6f61-4726-942e-6b696361645f,1*%
%TF.SameCoordinates,Original*%
%TF.FileFunction,Legend,Top*%
%TF.FilePolarity,Positive*%
%FSLAX46Y46*%
G04 Gerber Fmt 4.6, Leading zero omitted, Abs format (unit mm)*
G04 Created by KiCad (PCBNEW 9.0.2) date 2025-06-08 10:18:17*
%MOMM*%
%LPD*%
G01*
G04 APERTURE LIST*
%ADD10C,0.150000*%
%ADD11C,0.100000*%
%ADD12C,0.120000*%
%ADD13C,0.000000*%
G04 APERTURE END LIST*
D10*
X161508207Y-83899819D02*
X161174874Y-83423628D01*
X160936779Y-83899819D02*
X160936779Y-82899819D01*
X160936779Y-82899819D02*
X161317731Y-82899819D01*
X161317731Y-82899819D02*
X161412969Y-82947438D01*
X161412969Y-82947438D02*
X161460588Y-82995057D01*
X161460588Y-82995057D02*
X161508207Y-83090295D01*
X161508207Y-83090295D02*
X161508207Y-83233152D01*
X161508207Y-83233152D02*
X161460588Y-83328390D01*
X161460588Y-83328390D02*
X161412969Y-83376009D01*
X161412969Y-83376009D02*
X161317731Y-83423628D01*
X161317731Y-83423628D02*
X160936779Y-83423628D01*
X161936779Y-83376009D02*
X162270112Y-83376009D01*
X162412969Y-83899819D02*
X161936779Y-83899819D01*
X161936779Y-83899819D02*
X161936779Y-82899819D01*
X161936779Y-82899819D02*
X162412969Y-82899819D01*
X162793922Y-83852200D02*
X162936779Y-83899819D01*
X162936779Y-83899819D02*
X163174874Y-83899819D01*
X163174874Y-83899819D02*
X163270112Y-83852200D01*
X163270112Y-83852200D02*
X163317731Y-83804580D01*
X163317731Y-83804580D02*
X163365350Y-83709342D01*
X163365350Y-83709342D02*
X163365350Y-83614104D01*
X163365350Y-83614104D02*
X163317731Y-83518866D01*
X163317731Y-83518866D02*
X163270112Y-83471247D01*
X163270112Y-83471247D02*
X163174874Y-83423628D01*
X163174874Y-83423628D02*
X162984398Y-83376009D01*
X162984398Y-83376009D02*
X162889160Y-83328390D01*
X162889160Y-83328390D02*
X162841541Y-83280771D01*
X162841541Y-83280771D02*
X162793922Y-83185533D01*
X162793922Y-83185533D02*
X162793922Y-83090295D01*
X162793922Y-83090295D02*
X162841541Y-82995057D01*
X162841541Y-82995057D02*
X162889160Y-82947438D01*
X162889160Y-82947438D02*
X162984398Y-82899819D01*
X162984398Y-82899819D02*
X163222493Y-82899819D01*
X163222493Y-82899819D02*
X163365350Y-82947438D01*
X163793922Y-83376009D02*
X164127255Y-83376009D01*
X164270112Y-83899819D02*
X163793922Y-83899819D01*
X163793922Y-83899819D02*
X163793922Y-82899819D01*
X163793922Y-82899819D02*
X164270112Y-82899819D01*
X164555827Y-82899819D02*
X165127255Y-82899819D01*
X164841541Y-83899819D02*
X164841541Y-82899819D01*
X156716667Y-56519819D02*
X157050000Y-57519819D01*
X157050000Y-57519819D02*
X157383333Y-56519819D01*
X158288095Y-57424580D02*
X158240476Y-57472200D01*
X158240476Y-57472200D02*
X158097619Y-57519819D01*
X158097619Y-57519819D02*
X158002381Y-57519819D01*
X158002381Y-57519819D02*
X157859524Y-57472200D01*
X157859524Y-57472200D02*
X157764286Y-57376961D01*
X157764286Y-57376961D02*
X157716667Y-57281723D01*
X157716667Y-57281723D02*
X157669048Y-57091247D01*
X157669048Y-57091247D02*
X157669048Y-56948390D01*
X157669048Y-56948390D02*
X157716667Y-56757914D01*
X157716667Y-56757914D02*
X157764286Y-56662676D01*
X157764286Y-56662676D02*
X157859524Y-56567438D01*
X157859524Y-56567438D02*
X158002381Y-56519819D01*
X158002381Y-56519819D02*
X158097619Y-56519819D01*
X158097619Y-56519819D02*
X158240476Y-56567438D01*
X158240476Y-56567438D02*
X158288095Y-56615057D01*
X159288095Y-57424580D02*
X159240476Y-57472200D01*
X159240476Y-57472200D02*
X159097619Y-57519819D01*
X159097619Y-57519819D02*
X159002381Y-57519819D01*
X159002381Y-57519819D02*
X158859524Y-57472200D01*
X158859524Y-57472200D02*
X158764286Y-57376961D01*
X158764286Y-57376961D02*
X158716667Y-57281723D01*
X158716667Y-57281723D02*
X158669048Y-57091247D01*
X158669048Y-57091247D02*
X158669048Y-56948390D01*
X158669048Y-56948390D02*
X158716667Y-56757914D01*
X158716667Y-56757914D02*
X158764286Y-56662676D01*
X158764286Y-56662676D02*
X158859524Y-56567438D01*
X158859524Y-56567438D02*
X159002381Y-56519819D01*
X159002381Y-56519819D02*
X159097619Y-56519819D01*
X159097619Y-56519819D02*
X159240476Y-56567438D01*
X159240476Y-56567438D02*
X159288095Y-56615057D01*
X157293333Y-59964580D02*
X157245714Y-60012200D01*
X157245714Y-60012200D02*
X157102857Y-60059819D01*
X157102857Y-60059819D02*
X157007619Y-60059819D01*
X157007619Y-60059819D02*
X156864762Y-60012200D01*
X156864762Y-60012200D02*
X156769524Y-59916961D01*
X156769524Y-59916961D02*
X156721905Y-59821723D01*
X156721905Y-59821723D02*
X156674286Y-59631247D01*
X156674286Y-59631247D02*
X156674286Y-59488390D01*
X156674286Y-59488390D02*
X156721905Y-59297914D01*
X156721905Y-59297914D02*
X156769524Y-59202676D01*
X156769524Y-59202676D02*
X156864762Y-59107438D01*
X156864762Y-59107438D02*
X157007619Y-59059819D01*
X157007619Y-59059819D02*
X157102857Y-59059819D01*
X157102857Y-59059819D02*
X157245714Y-59107438D01*
X157245714Y-59107438D02*
X157293333Y-59155057D01*
X157912381Y-59059819D02*
X158007619Y-59059819D01*
X158007619Y-59059819D02*
X158102857Y-59107438D01*
X158102857Y-59107438D02*
X158150476Y-59155057D01*
X158150476Y-59155057D02*
X158198095Y-59250295D01*
X158198095Y-59250295D02*
X158245714Y-59440771D01*
X158245714Y-59440771D02*
X158245714Y-59678866D01*
X158245714Y-59678866D02*
X158198095Y-59869342D01*
X158198095Y-59869342D02*
X158150476Y-59964580D01*
X158150476Y-59964580D02*
X158102857Y-60012200D01*
X158102857Y-60012200D02*
X158007619Y-60059819D01*
X158007619Y-60059819D02*
X157912381Y-60059819D01*
X157912381Y-60059819D02*
X157817143Y-60012200D01*
X157817143Y-60012200D02*
X157769524Y-59964580D01*
X157769524Y-59964580D02*
X157721905Y-59869342D01*
X157721905Y-59869342D02*
X157674286Y-59678866D01*
X157674286Y-59678866D02*
X157674286Y-59440771D01*
X157674286Y-59440771D02*
X157721905Y-59250295D01*
X157721905Y-59250295D02*
X157769524Y-59155057D01*
X157769524Y-59155057D02*
X157817143Y-59107438D01*
X157817143Y-59107438D02*
X157912381Y-59059819D01*
X157293333Y-72664580D02*
X157245714Y-72712200D01*
X157245714Y-72712200D02*
X157102857Y-72759819D01*
X157102857Y-72759819D02*
X157007619Y-72759819D01*
X157007619Y-72759819D02*
X156864762Y-72712200D01*
X156864762Y-72712200D02*
X156769524Y-72616961D01*
X156769524Y-72616961D02*
X156721905Y-72521723D01*
X156721905Y-72521723D02*
X156674286Y-72331247D01*
X156674286Y-72331247D02*
X156674286Y-72188390D01*
X156674286Y-72188390D02*
X156721905Y-71997914D01*
X156721905Y-71997914D02*
X156769524Y-71902676D01*
X156769524Y-71902676D02*
X156864762Y-71807438D01*
X156864762Y-71807438D02*
X157007619Y-71759819D01*
X157007619Y-71759819D02*
X157102857Y-71759819D01*
X157102857Y-71759819D02*
X157245714Y-71807438D01*
X157245714Y-71807438D02*
X157293333Y-71855057D01*
X158198095Y-71759819D02*
X157721905Y-71759819D01*
X157721905Y-71759819D02*
X157674286Y-72236009D01*
X157674286Y-72236009D02*
X157721905Y-72188390D01*
X157721905Y-72188390D02*
X157817143Y-72140771D01*
X157817143Y-72140771D02*
X158055238Y-72140771D01*
X158055238Y-72140771D02*
X158150476Y-72188390D01*
X158150476Y-72188390D02*
X158198095Y-72236009D01*
X158198095Y-72236009D02*
X158245714Y-72331247D01*
X158245714Y-72331247D02*
X158245714Y-72569342D01*
X158245714Y-72569342D02*
X158198095Y-72664580D01*
X158198095Y-72664580D02*
X158150476Y-72712200D01*
X158150476Y-72712200D02*
X158055238Y-72759819D01*
X158055238Y-72759819D02*
X157817143Y-72759819D01*
X157817143Y-72759819D02*
X157721905Y-72712200D01*
X157721905Y-72712200D02*
X157674286Y-72664580D01*
X159735714Y-60012200D02*
X159878571Y-60059819D01*
X159878571Y-60059819D02*
X160116666Y-60059819D01*
X160116666Y-60059819D02*
X160211904Y-60012200D01*
X160211904Y-60012200D02*
X160259523Y-59964580D01*
X160259523Y-59964580D02*
X160307142Y-59869342D01*
X160307142Y-59869342D02*
X160307142Y-59774104D01*
X160307142Y-59774104D02*
X160259523Y-59678866D01*
X160259523Y-59678866D02*
X160211904Y-59631247D01*
X160211904Y-59631247D02*
X160116666Y-59583628D01*
X160116666Y-59583628D02*
X159926190Y-59536009D01*
X159926190Y-59536009D02*
X159830952Y-59488390D01*
X159830952Y-59488390D02*
X159783333Y-59440771D01*
X159783333Y-59440771D02*
X159735714Y-59345533D01*
X159735714Y-59345533D02*
X159735714Y-59250295D01*
X159735714Y-59250295D02*
X159783333Y-59155057D01*
X159783333Y-59155057D02*
X159830952Y-59107438D01*
X159830952Y-59107438D02*
X159926190Y-59059819D01*
X159926190Y-59059819D02*
X160164285Y-59059819D01*
X160164285Y-59059819D02*
X160307142Y-59107438D01*
X160735714Y-60059819D02*
X160735714Y-59059819D01*
X160735714Y-59059819D02*
X160973809Y-59059819D01*
X160973809Y-59059819D02*
X161116666Y-59107438D01*
X161116666Y-59107438D02*
X161211904Y-59202676D01*
X161211904Y-59202676D02*
X161259523Y-59297914D01*
X161259523Y-59297914D02*
X161307142Y-59488390D01*
X161307142Y-59488390D02*
X161307142Y-59631247D01*
X161307142Y-59631247D02*
X161259523Y-59821723D01*
X161259523Y-59821723D02*
X161211904Y-59916961D01*
X161211904Y-59916961D02*
X161116666Y-60012200D01*
X161116666Y-60012200D02*
X160973809Y-60059819D01*
X160973809Y-60059819D02*
X160735714Y-60059819D01*
X161688095Y-59774104D02*
X162164285Y-59774104D01*
X161592857Y-60059819D02*
X161926190Y-59059819D01*
X161926190Y-59059819D02*
X162259523Y-60059819D01*
X157502380Y-54979819D02*
X157169047Y-54503628D01*
X156930952Y-54979819D02*
X156930952Y-53979819D01*
X156930952Y-53979819D02*
X157311904Y-53979819D01*
X157311904Y-53979819D02*
X157407142Y-54027438D01*
X157407142Y-54027438D02*
X157454761Y-54075057D01*
X157454761Y-54075057D02*
X157502380Y-54170295D01*
X157502380Y-54170295D02*
X157502380Y-54313152D01*
X157502380Y-54313152D02*
X157454761Y-54408390D01*
X157454761Y-54408390D02*
X157407142Y-54456009D01*
X157407142Y-54456009D02*
X157311904Y-54503628D01*
X157311904Y-54503628D02*
X156930952Y-54503628D01*
X157883333Y-54932200D02*
X158026190Y-54979819D01*
X158026190Y-54979819D02*
X158264285Y-54979819D01*
X158264285Y-54979819D02*
X158359523Y-54932200D01*
X158359523Y-54932200D02*
X158407142Y-54884580D01*
X158407142Y-54884580D02*
X158454761Y-54789342D01*
X158454761Y-54789342D02*
X158454761Y-54694104D01*
X158454761Y-54694104D02*
X158407142Y-54598866D01*
X158407142Y-54598866D02*
X158359523Y-54551247D01*
X158359523Y-54551247D02*
X158264285Y-54503628D01*
X158264285Y-54503628D02*
X158073809Y-54456009D01*
X158073809Y-54456009D02*
X157978571Y-54408390D01*
X157978571Y-54408390D02*
X157930952Y-54360771D01*
X157930952Y-54360771D02*
X157883333Y-54265533D01*
X157883333Y-54265533D02*
X157883333Y-54170295D01*
X157883333Y-54170295D02*
X157930952Y-54075057D01*
X157930952Y-54075057D02*
X157978571Y-54027438D01*
X157978571Y-54027438D02*
X158073809Y-53979819D01*
X158073809Y-53979819D02*
X158311904Y-53979819D01*
X158311904Y-53979819D02*
X158454761Y-54027438D01*
X158740476Y-53979819D02*
X159311904Y-53979819D01*
X159026190Y-54979819D02*
X159026190Y-53979819D01*
X157288095Y-51487438D02*
X157192857Y-51439819D01*
X157192857Y-51439819D02*
X157050000Y-51439819D01*
X157050000Y-51439819D02*
X156907143Y-51487438D01*
X156907143Y-51487438D02*
X156811905Y-51582676D01*
X156811905Y-51582676D02*
X156764286Y-51677914D01*
X156764286Y-51677914D02*
X156716667Y-51868390D01*
X156716667Y-51868390D02*
X156716667Y-52011247D01*
X156716667Y-52011247D02*
X156764286Y-52201723D01*
X156764286Y-52201723D02*
X156811905Y-52296961D01*
X156811905Y-52296961D02*
X156907143Y-52392200D01*
X156907143Y-52392200D02*
X157050000Y-52439819D01*
X157050000Y-52439819D02*
X157145238Y-52439819D01*
X157145238Y-52439819D02*
X157288095Y-52392200D01*
X157288095Y-52392200D02*
X157335714Y-52344580D01*
X157335714Y-52344580D02*
X157335714Y-52011247D01*
X157335714Y-52011247D02*
X157145238Y-52011247D01*
X157764286Y-52439819D02*
X157764286Y-51439819D01*
X157764286Y-51439819D02*
X158335714Y-52439819D01*
X158335714Y-52439819D02*
X158335714Y-51439819D01*
X158811905Y-52439819D02*
X158811905Y-51439819D01*
X158811905Y-51439819D02*
X159050000Y-51439819D01*
X159050000Y-51439819D02*
X159192857Y-51487438D01*
X159192857Y-51487438D02*
X159288095Y-51582676D01*
X159288095Y-51582676D02*
X159335714Y-51677914D01*
X159335714Y-51677914D02*
X159383333Y-51868390D01*
X159383333Y-51868390D02*
X159383333Y-52011247D01*
X159383333Y-52011247D02*
X159335714Y-52201723D01*
X159335714Y-52201723D02*
X159288095Y-52296961D01*
X159288095Y-52296961D02*
X159192857Y-52392200D01*
X159192857Y-52392200D02*
X159050000Y-52439819D01*
X159050000Y-52439819D02*
X158811905Y-52439819D01*
X161373333Y-75299819D02*
X161040000Y-74823628D01*
X160801905Y-75299819D02*
X160801905Y-74299819D01*
X160801905Y-74299819D02*
X161182857Y-74299819D01*
X161182857Y-74299819D02*
X161278095Y-74347438D01*
X161278095Y-74347438D02*
X161325714Y-74395057D01*
X161325714Y-74395057D02*
X161373333Y-74490295D01*
X161373333Y-74490295D02*
X161373333Y-74633152D01*
X161373333Y-74633152D02*
X161325714Y-74728390D01*
X161325714Y-74728390D02*
X161278095Y-74776009D01*
X161278095Y-74776009D02*
X161182857Y-74823628D01*
X161182857Y-74823628D02*
X160801905Y-74823628D01*
X161706667Y-74299819D02*
X162325714Y-74299819D01*
X162325714Y-74299819D02*
X161992381Y-74680771D01*
X161992381Y-74680771D02*
X162135238Y-74680771D01*
X162135238Y-74680771D02*
X162230476Y-74728390D01*
X162230476Y-74728390D02*
X162278095Y-74776009D01*
X162278095Y-74776009D02*
X162325714Y-74871247D01*
X162325714Y-74871247D02*
X162325714Y-75109342D01*
X162325714Y-75109342D02*
X162278095Y-75204580D01*
X162278095Y-75204580D02*
X162230476Y-75252200D01*
X162230476Y-75252200D02*
X162135238Y-75299819D01*
X162135238Y-75299819D02*
X161849524Y-75299819D01*
X161849524Y-75299819D02*
X161754286Y-75252200D01*
X161754286Y-75252200D02*
X161706667Y-75204580D01*
X160307142Y-49899819D02*
X159830952Y-49899819D01*
X159830952Y-49899819D02*
X159830952Y-48899819D01*
X160640476Y-49376009D02*
X160973809Y-49376009D01*
X161116666Y-49899819D02*
X160640476Y-49899819D01*
X160640476Y-49899819D02*
X160640476Y-48899819D01*
X160640476Y-48899819D02*
X161116666Y-48899819D01*
X161545238Y-49899819D02*
X161545238Y-48899819D01*
X161545238Y-48899819D02*
X161783333Y-48899819D01*
X161783333Y-48899819D02*
X161926190Y-48947438D01*
X161926190Y-48947438D02*
X162021428Y-49042676D01*
X162021428Y-49042676D02*
X162069047Y-49137914D01*
X162069047Y-49137914D02*
X162116666Y-49328390D01*
X162116666Y-49328390D02*
X162116666Y-49471247D01*
X162116666Y-49471247D02*
X162069047Y-49661723D01*
X162069047Y-49661723D02*
X162021428Y-49756961D01*
X162021428Y-49756961D02*
X161926190Y-49852200D01*
X161926190Y-49852200D02*
X161783333Y-49899819D01*
X161783333Y-49899819D02*
X161545238Y-49899819D01*
X157293333Y-62504580D02*
X157245714Y-62552200D01*
X157245714Y-62552200D02*
X157102857Y-62599819D01*
X157102857Y-62599819D02*
X157007619Y-62599819D01*
X157007619Y-62599819D02*
X156864762Y-62552200D01*
X156864762Y-62552200D02*
X156769524Y-62456961D01*
X156769524Y-62456961D02*
X156721905Y-62361723D01*
X156721905Y-62361723D02*
X156674286Y-62171247D01*
X156674286Y-62171247D02*
X156674286Y-62028390D01*
X156674286Y-62028390D02*
X156721905Y-61837914D01*
X156721905Y-61837914D02*
X156769524Y-61742676D01*
X156769524Y-61742676D02*
X156864762Y-61647438D01*
X156864762Y-61647438D02*
X157007619Y-61599819D01*
X157007619Y-61599819D02*
X157102857Y-61599819D01*
X157102857Y-61599819D02*
X157245714Y-61647438D01*
X157245714Y-61647438D02*
X157293333Y-61695057D01*
X158245714Y-62599819D02*
X157674286Y-62599819D01*
X157960000Y-62599819D02*
X157960000Y-61599819D01*
X157960000Y-61599819D02*
X157864762Y-61742676D01*
X157864762Y-61742676D02*
X157769524Y-61837914D01*
X157769524Y-61837914D02*
X157674286Y-61885533D01*
X157293333Y-67584580D02*
X157245714Y-67632200D01*
X157245714Y-67632200D02*
X157102857Y-67679819D01*
X157102857Y-67679819D02*
X157007619Y-67679819D01*
X157007619Y-67679819D02*
X156864762Y-67632200D01*
X156864762Y-67632200D02*
X156769524Y-67536961D01*
X156769524Y-67536961D02*
X156721905Y-67441723D01*
X156721905Y-67441723D02*
X156674286Y-67251247D01*
X156674286Y-67251247D02*
X156674286Y-67108390D01*
X156674286Y-67108390D02*
X156721905Y-66917914D01*
X156721905Y-66917914D02*
X156769524Y-66822676D01*
X156769524Y-66822676D02*
X156864762Y-66727438D01*
X156864762Y-66727438D02*
X157007619Y-66679819D01*
X157007619Y-66679819D02*
X157102857Y-66679819D01*
X157102857Y-66679819D02*
X157245714Y-66727438D01*
X157245714Y-66727438D02*
X157293333Y-66775057D01*
X157626667Y-66679819D02*
X158245714Y-66679819D01*
X158245714Y-66679819D02*
X157912381Y-67060771D01*
X157912381Y-67060771D02*
X158055238Y-67060771D01*
X158055238Y-67060771D02*
X158150476Y-67108390D01*
X158150476Y-67108390D02*
X158198095Y-67156009D01*
X158198095Y-67156009D02*
X158245714Y-67251247D01*
X158245714Y-67251247D02*
X158245714Y-67489342D01*
X158245714Y-67489342D02*
X158198095Y-67584580D01*
X158198095Y-67584580D02*
X158150476Y-67632200D01*
X158150476Y-67632200D02*
X158055238Y-67679819D01*
X158055238Y-67679819D02*
X157769524Y-67679819D01*
X157769524Y-67679819D02*
X157674286Y-67632200D01*
X157674286Y-67632200D02*
X157626667Y-67584580D01*
X161373333Y-65044580D02*
X161325714Y-65092200D01*
X161325714Y-65092200D02*
X161182857Y-65139819D01*
X161182857Y-65139819D02*
X161087619Y-65139819D01*
X161087619Y-65139819D02*
X160944762Y-65092200D01*
X160944762Y-65092200D02*
X160849524Y-64996961D01*
X160849524Y-64996961D02*
X160801905Y-64901723D01*
X160801905Y-64901723D02*
X160754286Y-64711247D01*
X160754286Y-64711247D02*
X160754286Y-64568390D01*
X160754286Y-64568390D02*
X160801905Y-64377914D01*
X160801905Y-64377914D02*
X160849524Y-64282676D01*
X160849524Y-64282676D02*
X160944762Y-64187438D01*
X160944762Y-64187438D02*
X161087619Y-64139819D01*
X161087619Y-64139819D02*
X161182857Y-64139819D01*
X161182857Y-64139819D02*
X161325714Y-64187438D01*
X161325714Y-64187438D02*
X161373333Y-64235057D01*
X161754286Y-65092200D02*
X161897143Y-65139819D01*
X161897143Y-65139819D02*
X162135238Y-65139819D01*
X162135238Y-65139819D02*
X162230476Y-65092200D01*
X162230476Y-65092200D02*
X162278095Y-65044580D01*
X162278095Y-65044580D02*
X162325714Y-64949342D01*
X162325714Y-64949342D02*
X162325714Y-64854104D01*
X162325714Y-64854104D02*
X162278095Y-64758866D01*
X162278095Y-64758866D02*
X162230476Y-64711247D01*
X162230476Y-64711247D02*
X162135238Y-64663628D01*
X162135238Y-64663628D02*
X161944762Y-64616009D01*
X161944762Y-64616009D02*
X161849524Y-64568390D01*
X161849524Y-64568390D02*
X161801905Y-64520771D01*
X161801905Y-64520771D02*
X161754286Y-64425533D01*
X161754286Y-64425533D02*
X161754286Y-64330295D01*
X161754286Y-64330295D02*
X161801905Y-64235057D01*
X161801905Y-64235057D02*
X161849524Y-64187438D01*
X161849524Y-64187438D02*
X161944762Y-64139819D01*
X161944762Y-64139819D02*
X162182857Y-64139819D01*
X162182857Y-64139819D02*
X162325714Y-64187438D01*
X160801905Y-77839819D02*
X160801905Y-76839819D01*
X160801905Y-76839819D02*
X161182857Y-76839819D01*
X161182857Y-76839819D02*
X161278095Y-76887438D01*
X161278095Y-76887438D02*
X161325714Y-76935057D01*
X161325714Y-76935057D02*
X161373333Y-77030295D01*
X161373333Y-77030295D02*
X161373333Y-77173152D01*
X161373333Y-77173152D02*
X161325714Y-77268390D01*
X161325714Y-77268390D02*
X161278095Y-77316009D01*
X161278095Y-77316009D02*
X161182857Y-77363628D01*
X161182857Y-77363628D02*
X160801905Y-77363628D01*
X161849524Y-77839819D02*
X162040000Y-77839819D01*
X162040000Y-77839819D02*
X162135238Y-77792200D01*
X162135238Y-77792200D02*
X162182857Y-77744580D01*
X162182857Y-77744580D02*
X162278095Y-77601723D01*
X162278095Y-77601723D02*
X162325714Y-77411247D01*
X162325714Y-77411247D02*
X162325714Y-77030295D01*
X162325714Y-77030295D02*
X162278095Y-76935057D01*
X162278095Y-76935057D02*
X162230476Y-76887438D01*
X162230476Y-76887438D02*
X162135238Y-76839819D01*
X162135238Y-76839819D02*
X161944762Y-76839819D01*
X161944762Y-76839819D02*
X161849524Y-76887438D01*
X161849524Y-76887438D02*
X161801905Y-76935057D01*
X161801905Y-76935057D02*
X161754286Y-77030295D01*
X161754286Y-77030295D02*
X161754286Y-77268390D01*
X161754286Y-77268390D02*
X161801905Y-77363628D01*
X161801905Y-77363628D02*
X161849524Y-77411247D01*
X161849524Y-77411247D02*
X161944762Y-77458866D01*
X161944762Y-77458866D02*
X162135238Y-77458866D01*
X162135238Y-77458866D02*
X162230476Y-77411247D01*
X162230476Y-77411247D02*
X162278095Y-77363628D01*
X162278095Y-77363628D02*
X162325714Y-77268390D01*
X159878571Y-52439819D02*
X159878571Y-51439819D01*
X159878571Y-51439819D02*
X160116666Y-51439819D01*
X160116666Y-51439819D02*
X160259523Y-51487438D01*
X160259523Y-51487438D02*
X160354761Y-51582676D01*
X160354761Y-51582676D02*
X160402380Y-51677914D01*
X160402380Y-51677914D02*
X160449999Y-51868390D01*
X160449999Y-51868390D02*
X160449999Y-52011247D01*
X160449999Y-52011247D02*
X160402380Y-52201723D01*
X160402380Y-52201723D02*
X160354761Y-52296961D01*
X160354761Y-52296961D02*
X160259523Y-52392200D01*
X160259523Y-52392200D02*
X160116666Y-52439819D01*
X160116666Y-52439819D02*
X159878571Y-52439819D01*
X160830952Y-52154104D02*
X161307142Y-52154104D01*
X160735714Y-52439819D02*
X161069047Y-51439819D01*
X161069047Y-51439819D02*
X161402380Y-52439819D01*
X161592857Y-51439819D02*
X162164285Y-51439819D01*
X161878571Y-52439819D02*
X161878571Y-51439819D01*
X160188095Y-56567438D02*
X160092857Y-56519819D01*
X160092857Y-56519819D02*
X159950000Y-56519819D01*
X159950000Y-56519819D02*
X159807143Y-56567438D01*
X159807143Y-56567438D02*
X159711905Y-56662676D01*
X159711905Y-56662676D02*
X159664286Y-56757914D01*
X159664286Y-56757914D02*
X159616667Y-56948390D01*
X159616667Y-56948390D02*
X159616667Y-57091247D01*
X159616667Y-57091247D02*
X159664286Y-57281723D01*
X159664286Y-57281723D02*
X159711905Y-57376961D01*
X159711905Y-57376961D02*
X159807143Y-57472200D01*
X159807143Y-57472200D02*
X159950000Y-57519819D01*
X159950000Y-57519819D02*
X160045238Y-57519819D01*
X160045238Y-57519819D02*
X160188095Y-57472200D01*
X160188095Y-57472200D02*
X160235714Y-57424580D01*
X160235714Y-57424580D02*
X160235714Y-57091247D01*
X160235714Y-57091247D02*
X160045238Y-57091247D01*
X160664286Y-57519819D02*
X160664286Y-56519819D01*
X160664286Y-56519819D02*
X161235714Y-57519819D01*
X161235714Y-57519819D02*
X161235714Y-56519819D01*
X161711905Y-57519819D02*
X161711905Y-56519819D01*
X161711905Y-56519819D02*
X161950000Y-56519819D01*
X161950000Y-56519819D02*
X162092857Y-56567438D01*
X162092857Y-56567438D02*
X162188095Y-56662676D01*
X162188095Y-56662676D02*
X162235714Y-56757914D01*
X162235714Y-56757914D02*
X162283333Y-56948390D01*
X162283333Y-56948390D02*
X162283333Y-57091247D01*
X162283333Y-57091247D02*
X162235714Y-57281723D01*
X162235714Y-57281723D02*
X162188095Y-57376961D01*
X162188095Y-57376961D02*
X162092857Y-57472200D01*
X162092857Y-57472200D02*
X161950000Y-57519819D01*
X161950000Y-57519819D02*
X161711905Y-57519819D01*
X156835714Y-77839819D02*
X156835714Y-76839819D01*
X156835714Y-76839819D02*
X157216666Y-76839819D01*
X157216666Y-76839819D02*
X157311904Y-76887438D01*
X157311904Y-76887438D02*
X157359523Y-76935057D01*
X157359523Y-76935057D02*
X157407142Y-77030295D01*
X157407142Y-77030295D02*
X157407142Y-77173152D01*
X157407142Y-77173152D02*
X157359523Y-77268390D01*
X157359523Y-77268390D02*
X157311904Y-77316009D01*
X157311904Y-77316009D02*
X157216666Y-77363628D01*
X157216666Y-77363628D02*
X156835714Y-77363628D01*
X158359523Y-77839819D02*
X157788095Y-77839819D01*
X158073809Y-77839819D02*
X158073809Y-76839819D01*
X158073809Y-76839819D02*
X157978571Y-76982676D01*
X157978571Y-76982676D02*
X157883333Y-77077914D01*
X157883333Y-77077914D02*
X157788095Y-77125533D01*
X158978571Y-76839819D02*
X159073809Y-76839819D01*
X159073809Y-76839819D02*
X159169047Y-76887438D01*
X159169047Y-76887438D02*
X159216666Y-76935057D01*
X159216666Y-76935057D02*
X159264285Y-77030295D01*
X159264285Y-77030295D02*
X159311904Y-77220771D01*
X159311904Y-77220771D02*
X159311904Y-77458866D01*
X159311904Y-77458866D02*
X159264285Y-77649342D01*
X159264285Y-77649342D02*
X159216666Y-77744580D01*
X159216666Y-77744580D02*
X159169047Y-77792200D01*
X159169047Y-77792200D02*
X159073809Y-77839819D01*
X159073809Y-77839819D02*
X158978571Y-77839819D01*
X158978571Y-77839819D02*
X158883333Y-77792200D01*
X158883333Y-77792200D02*
X158835714Y-77744580D01*
X158835714Y-77744580D02*
X158788095Y-77649342D01*
X158788095Y-77649342D02*
X158740476Y-77458866D01*
X158740476Y-77458866D02*
X158740476Y-77220771D01*
X158740476Y-77220771D02*
X158788095Y-77030295D01*
X158788095Y-77030295D02*
X158835714Y-76935057D01*
X158835714Y-76935057D02*
X158883333Y-76887438D01*
X158883333Y-76887438D02*
X158978571Y-76839819D01*
X161373333Y-67679819D02*
X161040000Y-67203628D01*
X160801905Y-67679819D02*
X160801905Y-66679819D01*
X160801905Y-66679819D02*
X161182857Y-66679819D01*
X161182857Y-66679819D02*
X161278095Y-66727438D01*
X161278095Y-66727438D02*
X161325714Y-66775057D01*
X161325714Y-66775057D02*
X161373333Y-66870295D01*
X161373333Y-66870295D02*
X161373333Y-67013152D01*
X161373333Y-67013152D02*
X161325714Y-67108390D01*
X161325714Y-67108390D02*
X161278095Y-67156009D01*
X161278095Y-67156009D02*
X161182857Y-67203628D01*
X161182857Y-67203628D02*
X160801905Y-67203628D01*
X161992381Y-66679819D02*
X162087619Y-66679819D01*
X162087619Y-66679819D02*
X162182857Y-66727438D01*
X162182857Y-66727438D02*
X162230476Y-66775057D01*
X162230476Y-66775057D02*
X162278095Y-66870295D01*
X162278095Y-66870295D02*
X162325714Y-67060771D01*
X162325714Y-67060771D02*
X162325714Y-67298866D01*
X162325714Y-67298866D02*
X162278095Y-67489342D01*
X162278095Y-67489342D02*
X162230476Y-67584580D01*
X162230476Y-67584580D02*
X162182857Y-67632200D01*
X162182857Y-67632200D02*
X162087619Y-67679819D01*
X162087619Y-67679819D02*
X161992381Y-67679819D01*
X161992381Y-67679819D02*
X161897143Y-67632200D01*
X161897143Y-67632200D02*
X161849524Y-67584580D01*
X161849524Y-67584580D02*
X161801905Y-67489342D01*
X161801905Y-67489342D02*
X161754286Y-67298866D01*
X161754286Y-67298866D02*
X161754286Y-67060771D01*
X161754286Y-67060771D02*
X161801905Y-66870295D01*
X161801905Y-66870295D02*
X161849524Y-66775057D01*
X161849524Y-66775057D02*
X161897143Y-66727438D01*
X161897143Y-66727438D02*
X161992381Y-66679819D01*
X157359523Y-49899819D02*
X157026190Y-49423628D01*
X156788095Y-49899819D02*
X156788095Y-48899819D01*
X156788095Y-48899819D02*
X157169047Y-48899819D01*
X157169047Y-48899819D02*
X157264285Y-48947438D01*
X157264285Y-48947438D02*
X157311904Y-48995057D01*
X157311904Y-48995057D02*
X157359523Y-49090295D01*
X157359523Y-49090295D02*
X157359523Y-49233152D01*
X157359523Y-49233152D02*
X157311904Y-49328390D01*
X157311904Y-49328390D02*
X157264285Y-49376009D01*
X157264285Y-49376009D02*
X157169047Y-49423628D01*
X157169047Y-49423628D02*
X156788095Y-49423628D01*
X157740476Y-49614104D02*
X158216666Y-49614104D01*
X157645238Y-49899819D02*
X157978571Y-48899819D01*
X157978571Y-48899819D02*
X158311904Y-49899819D01*
X158550000Y-48899819D02*
X158788095Y-49899819D01*
X158788095Y-49899819D02*
X158978571Y-49185533D01*
X158978571Y-49185533D02*
X159169047Y-49899819D01*
X159169047Y-49899819D02*
X159407143Y-48899819D01*
X159759524Y-62552200D02*
X159902381Y-62599819D01*
X159902381Y-62599819D02*
X160140476Y-62599819D01*
X160140476Y-62599819D02*
X160235714Y-62552200D01*
X160235714Y-62552200D02*
X160283333Y-62504580D01*
X160283333Y-62504580D02*
X160330952Y-62409342D01*
X160330952Y-62409342D02*
X160330952Y-62314104D01*
X160330952Y-62314104D02*
X160283333Y-62218866D01*
X160283333Y-62218866D02*
X160235714Y-62171247D01*
X160235714Y-62171247D02*
X160140476Y-62123628D01*
X160140476Y-62123628D02*
X159950000Y-62076009D01*
X159950000Y-62076009D02*
X159854762Y-62028390D01*
X159854762Y-62028390D02*
X159807143Y-61980771D01*
X159807143Y-61980771D02*
X159759524Y-61885533D01*
X159759524Y-61885533D02*
X159759524Y-61790295D01*
X159759524Y-61790295D02*
X159807143Y-61695057D01*
X159807143Y-61695057D02*
X159854762Y-61647438D01*
X159854762Y-61647438D02*
X159950000Y-61599819D01*
X159950000Y-61599819D02*
X160188095Y-61599819D01*
X160188095Y-61599819D02*
X160330952Y-61647438D01*
X161330952Y-62504580D02*
X161283333Y-62552200D01*
X161283333Y-62552200D02*
X161140476Y-62599819D01*
X161140476Y-62599819D02*
X161045238Y-62599819D01*
X161045238Y-62599819D02*
X160902381Y-62552200D01*
X160902381Y-62552200D02*
X160807143Y-62456961D01*
X160807143Y-62456961D02*
X160759524Y-62361723D01*
X160759524Y-62361723D02*
X160711905Y-62171247D01*
X160711905Y-62171247D02*
X160711905Y-62028390D01*
X160711905Y-62028390D02*
X160759524Y-61837914D01*
X160759524Y-61837914D02*
X160807143Y-61742676D01*
X160807143Y-61742676D02*
X160902381Y-61647438D01*
X160902381Y-61647438D02*
X161045238Y-61599819D01*
X161045238Y-61599819D02*
X161140476Y-61599819D01*
X161140476Y-61599819D02*
X161283333Y-61647438D01*
X161283333Y-61647438D02*
X161330952Y-61695057D01*
X162235714Y-62599819D02*
X161759524Y-62599819D01*
X161759524Y-62599819D02*
X161759524Y-61599819D01*
X160188095Y-54027438D02*
X160092857Y-53979819D01*
X160092857Y-53979819D02*
X159950000Y-53979819D01*
X159950000Y-53979819D02*
X159807143Y-54027438D01*
X159807143Y-54027438D02*
X159711905Y-54122676D01*
X159711905Y-54122676D02*
X159664286Y-54217914D01*
X159664286Y-54217914D02*
X159616667Y-54408390D01*
X159616667Y-54408390D02*
X159616667Y-54551247D01*
X159616667Y-54551247D02*
X159664286Y-54741723D01*
X159664286Y-54741723D02*
X159711905Y-54836961D01*
X159711905Y-54836961D02*
X159807143Y-54932200D01*
X159807143Y-54932200D02*
X159950000Y-54979819D01*
X159950000Y-54979819D02*
X160045238Y-54979819D01*
X160045238Y-54979819D02*
X160188095Y-54932200D01*
X160188095Y-54932200D02*
X160235714Y-54884580D01*
X160235714Y-54884580D02*
X160235714Y-54551247D01*
X160235714Y-54551247D02*
X160045238Y-54551247D01*
X160664286Y-54979819D02*
X160664286Y-53979819D01*
X160664286Y-53979819D02*
X161235714Y-54979819D01*
X161235714Y-54979819D02*
X161235714Y-53979819D01*
X161711905Y-54979819D02*
X161711905Y-53979819D01*
X161711905Y-53979819D02*
X161950000Y-53979819D01*
X161950000Y-53979819D02*
X162092857Y-54027438D01*
X162092857Y-54027438D02*
X162188095Y-54122676D01*
X162188095Y-54122676D02*
X162235714Y-54217914D01*
X162235714Y-54217914D02*
X162283333Y-54408390D01*
X162283333Y-54408390D02*
X162283333Y-54551247D01*
X162283333Y-54551247D02*
X162235714Y-54741723D01*
X162235714Y-54741723D02*
X162188095Y-54836961D01*
X162188095Y-54836961D02*
X162092857Y-54932200D01*
X162092857Y-54932200D02*
X161950000Y-54979819D01*
X161950000Y-54979819D02*
X161711905Y-54979819D01*
X156835714Y-75299819D02*
X156835714Y-74299819D01*
X156835714Y-74299819D02*
X157216666Y-74299819D01*
X157216666Y-74299819D02*
X157311904Y-74347438D01*
X157311904Y-74347438D02*
X157359523Y-74395057D01*
X157359523Y-74395057D02*
X157407142Y-74490295D01*
X157407142Y-74490295D02*
X157407142Y-74633152D01*
X157407142Y-74633152D02*
X157359523Y-74728390D01*
X157359523Y-74728390D02*
X157311904Y-74776009D01*
X157311904Y-74776009D02*
X157216666Y-74823628D01*
X157216666Y-74823628D02*
X156835714Y-74823628D01*
X158359523Y-75299819D02*
X157788095Y-75299819D01*
X158073809Y-75299819D02*
X158073809Y-74299819D01*
X158073809Y-74299819D02*
X157978571Y-74442676D01*
X157978571Y-74442676D02*
X157883333Y-74537914D01*
X157883333Y-74537914D02*
X157788095Y-74585533D01*
X159216666Y-74299819D02*
X159026190Y-74299819D01*
X159026190Y-74299819D02*
X158930952Y-74347438D01*
X158930952Y-74347438D02*
X158883333Y-74395057D01*
X158883333Y-74395057D02*
X158788095Y-74537914D01*
X158788095Y-74537914D02*
X158740476Y-74728390D01*
X158740476Y-74728390D02*
X158740476Y-75109342D01*
X158740476Y-75109342D02*
X158788095Y-75204580D01*
X158788095Y-75204580D02*
X158835714Y-75252200D01*
X158835714Y-75252200D02*
X158930952Y-75299819D01*
X158930952Y-75299819D02*
X159121428Y-75299819D01*
X159121428Y-75299819D02*
X159216666Y-75252200D01*
X159216666Y-75252200D02*
X159264285Y-75204580D01*
X159264285Y-75204580D02*
X159311904Y-75109342D01*
X159311904Y-75109342D02*
X159311904Y-74871247D01*
X159311904Y-74871247D02*
X159264285Y-74776009D01*
X159264285Y-74776009D02*
X159216666Y-74728390D01*
X159216666Y-74728390D02*
X159121428Y-74680771D01*
X159121428Y-74680771D02*
X158930952Y-74680771D01*
X158930952Y-74680771D02*
X158835714Y-74728390D01*
X158835714Y-74728390D02*
X158788095Y-74776009D01*
X158788095Y-74776009D02*
X158740476Y-74871247D01*
X161373333Y-70219819D02*
X161040000Y-69743628D01*
X160801905Y-70219819D02*
X160801905Y-69219819D01*
X160801905Y-69219819D02*
X161182857Y-69219819D01*
X161182857Y-69219819D02*
X161278095Y-69267438D01*
X161278095Y-69267438D02*
X161325714Y-69315057D01*
X161325714Y-69315057D02*
X161373333Y-69410295D01*
X161373333Y-69410295D02*
X161373333Y-69553152D01*
X161373333Y-69553152D02*
X161325714Y-69648390D01*
X161325714Y-69648390D02*
X161278095Y-69696009D01*
X161278095Y-69696009D02*
X161182857Y-69743628D01*
X161182857Y-69743628D02*
X160801905Y-69743628D01*
X162325714Y-70219819D02*
X161754286Y-70219819D01*
X162040000Y-70219819D02*
X162040000Y-69219819D01*
X162040000Y-69219819D02*
X161944762Y-69362676D01*
X161944762Y-69362676D02*
X161849524Y-69457914D01*
X161849524Y-69457914D02*
X161754286Y-69505533D01*
X157293333Y-65044580D02*
X157245714Y-65092200D01*
X157245714Y-65092200D02*
X157102857Y-65139819D01*
X157102857Y-65139819D02*
X157007619Y-65139819D01*
X157007619Y-65139819D02*
X156864762Y-65092200D01*
X156864762Y-65092200D02*
X156769524Y-64996961D01*
X156769524Y-64996961D02*
X156721905Y-64901723D01*
X156721905Y-64901723D02*
X156674286Y-64711247D01*
X156674286Y-64711247D02*
X156674286Y-64568390D01*
X156674286Y-64568390D02*
X156721905Y-64377914D01*
X156721905Y-64377914D02*
X156769524Y-64282676D01*
X156769524Y-64282676D02*
X156864762Y-64187438D01*
X156864762Y-64187438D02*
X157007619Y-64139819D01*
X157007619Y-64139819D02*
X157102857Y-64139819D01*
X157102857Y-64139819D02*
X157245714Y-64187438D01*
X157245714Y-64187438D02*
X157293333Y-64235057D01*
X157674286Y-64235057D02*
X157721905Y-64187438D01*
X157721905Y-64187438D02*
X157817143Y-64139819D01*
X157817143Y-64139819D02*
X158055238Y-64139819D01*
X158055238Y-64139819D02*
X158150476Y-64187438D01*
X158150476Y-64187438D02*
X158198095Y-64235057D01*
X158198095Y-64235057D02*
X158245714Y-64330295D01*
X158245714Y-64330295D02*
X158245714Y-64425533D01*
X158245714Y-64425533D02*
X158198095Y-64568390D01*
X158198095Y-64568390D02*
X157626667Y-65139819D01*
X157626667Y-65139819D02*
X158245714Y-65139819D01*
X157293333Y-70124580D02*
X157245714Y-70172200D01*
X157245714Y-70172200D02*
X157102857Y-70219819D01*
X157102857Y-70219819D02*
X157007619Y-70219819D01*
X157007619Y-70219819D02*
X156864762Y-70172200D01*
X156864762Y-70172200D02*
X156769524Y-70076961D01*
X156769524Y-70076961D02*
X156721905Y-69981723D01*
X156721905Y-69981723D02*
X156674286Y-69791247D01*
X156674286Y-69791247D02*
X156674286Y-69648390D01*
X156674286Y-69648390D02*
X156721905Y-69457914D01*
X156721905Y-69457914D02*
X156769524Y-69362676D01*
X156769524Y-69362676D02*
X156864762Y-69267438D01*
X156864762Y-69267438D02*
X157007619Y-69219819D01*
X157007619Y-69219819D02*
X157102857Y-69219819D01*
X157102857Y-69219819D02*
X157245714Y-69267438D01*
X157245714Y-69267438D02*
X157293333Y-69315057D01*
X158150476Y-69553152D02*
X158150476Y-70219819D01*
X157912381Y-69172200D02*
X157674286Y-69886485D01*
X157674286Y-69886485D02*
X158293333Y-69886485D01*
X161373333Y-72759819D02*
X161040000Y-72283628D01*
X160801905Y-72759819D02*
X160801905Y-71759819D01*
X160801905Y-71759819D02*
X161182857Y-71759819D01*
X161182857Y-71759819D02*
X161278095Y-71807438D01*
X161278095Y-71807438D02*
X161325714Y-71855057D01*
X161325714Y-71855057D02*
X161373333Y-71950295D01*
X161373333Y-71950295D02*
X161373333Y-72093152D01*
X161373333Y-72093152D02*
X161325714Y-72188390D01*
X161325714Y-72188390D02*
X161278095Y-72236009D01*
X161278095Y-72236009D02*
X161182857Y-72283628D01*
X161182857Y-72283628D02*
X160801905Y-72283628D01*
X161754286Y-71855057D02*
X161801905Y-71807438D01*
X161801905Y-71807438D02*
X161897143Y-71759819D01*
X161897143Y-71759819D02*
X162135238Y-71759819D01*
X162135238Y-71759819D02*
X162230476Y-71807438D01*
X162230476Y-71807438D02*
X162278095Y-71855057D01*
X162278095Y-71855057D02*
X162325714Y-71950295D01*
X162325714Y-71950295D02*
X162325714Y-72045533D01*
X162325714Y-72045533D02*
X162278095Y-72188390D01*
X162278095Y-72188390D02*
X161706667Y-72759819D01*
X161706667Y-72759819D02*
X162325714Y-72759819D01*
X167105952Y-87324819D02*
X167296428Y-87324819D01*
X167296428Y-87324819D02*
X167391666Y-87372438D01*
X167391666Y-87372438D02*
X167486904Y-87467676D01*
X167486904Y-87467676D02*
X167534523Y-87658152D01*
X167534523Y-87658152D02*
X167534523Y-87991485D01*
X167534523Y-87991485D02*
X167486904Y-88181961D01*
X167486904Y-88181961D02*
X167391666Y-88277200D01*
X167391666Y-88277200D02*
X167296428Y-88324819D01*
X167296428Y-88324819D02*
X167105952Y-88324819D01*
X167105952Y-88324819D02*
X167010714Y-88277200D01*
X167010714Y-88277200D02*
X166915476Y-88181961D01*
X166915476Y-88181961D02*
X166867857Y-87991485D01*
X166867857Y-87991485D02*
X166867857Y-87658152D01*
X166867857Y-87658152D02*
X166915476Y-87467676D01*
X166915476Y-87467676D02*
X167010714Y-87372438D01*
X167010714Y-87372438D02*
X167105952Y-87324819D01*
X167963095Y-88324819D02*
X167963095Y-87324819D01*
X167963095Y-87324819D02*
X168534523Y-88324819D01*
X168534523Y-88324819D02*
X168534523Y-87324819D01*
X166772619Y-97324819D02*
X166963095Y-97324819D01*
X166963095Y-97324819D02*
X167058333Y-97372438D01*
X167058333Y-97372438D02*
X167153571Y-97467676D01*
X167153571Y-97467676D02*
X167201190Y-97658152D01*
X167201190Y-97658152D02*
X167201190Y-97991485D01*
X167201190Y-97991485D02*
X167153571Y-98181961D01*
X167153571Y-98181961D02*
X167058333Y-98277200D01*
X167058333Y-98277200D02*
X166963095Y-98324819D01*
X166963095Y-98324819D02*
X166772619Y-98324819D01*
X166772619Y-98324819D02*
X166677381Y-98277200D01*
X166677381Y-98277200D02*
X166582143Y-98181961D01*
X166582143Y-98181961D02*
X166534524Y-97991485D01*
X166534524Y-97991485D02*
X166534524Y-97658152D01*
X166534524Y-97658152D02*
X166582143Y-97467676D01*
X166582143Y-97467676D02*
X166677381Y-97372438D01*
X166677381Y-97372438D02*
X166772619Y-97324819D01*
X167963095Y-97801009D02*
X167629762Y-97801009D01*
X167629762Y-98324819D02*
X167629762Y-97324819D01*
X167629762Y-97324819D02*
X168105952Y-97324819D01*
X168820238Y-97801009D02*
X168486905Y-97801009D01*
X168486905Y-98324819D02*
X168486905Y-97324819D01*
X168486905Y-97324819D02*
X168963095Y-97324819D01*
D11*
%TO.C,D28*%
X75350000Y-62950000D02*
X75750000Y-62350000D01*
X75750000Y-61950000D02*
X75750000Y-62350000D01*
X75750000Y-62350000D02*
X75200000Y-62350000D01*
X75750000Y-62350000D02*
X76150000Y-62950000D01*
X75750000Y-62350000D02*
X76300000Y-62350000D01*
X75750000Y-62950000D02*
X75750000Y-63450000D01*
X76150000Y-62950000D02*
X75350000Y-62950000D01*
%TO.C,D24*%
X57350000Y-81750000D02*
X57750000Y-81150000D01*
X57750000Y-80750000D02*
X57750000Y-81150000D01*
X57750000Y-81150000D02*
X57200000Y-81150000D01*
X57750000Y-81150000D02*
X58150000Y-81750000D01*
X57750000Y-81150000D02*
X58300000Y-81150000D01*
X57750000Y-81750000D02*
X57750000Y-82250000D01*
X58150000Y-81750000D02*
X57350000Y-81750000D01*
%TO.C,D23*%
X57350000Y-98750000D02*
X57750000Y-98150000D01*
X57750000Y-97750000D02*
X57750000Y-98150000D01*
X57750000Y-98150000D02*
X57200000Y-98150000D01*
X57750000Y-98150000D02*
X58150000Y-98750000D01*
X57750000Y-98150000D02*
X58300000Y-98150000D01*
X57750000Y-98750000D02*
X57750000Y-99250000D01*
X58150000Y-98750000D02*
X57350000Y-98750000D01*
%TO.C,D29*%
X93350000Y-85070000D02*
X93750000Y-84470000D01*
X93750000Y-84070000D02*
X93750000Y-84470000D01*
X93750000Y-84470000D02*
X93200000Y-84470000D01*
X93750000Y-84470000D02*
X94150000Y-85070000D01*
X93750000Y-84470000D02*
X94300000Y-84470000D01*
X93750000Y-85070000D02*
X93750000Y-85570000D01*
X94150000Y-85070000D02*
X93350000Y-85070000D01*
%TO.C,D37*%
X129350000Y-51070000D02*
X129750000Y-50470000D01*
X129750000Y-50070000D02*
X129750000Y-50470000D01*
X129750000Y-50470000D02*
X129200000Y-50470000D01*
X129750000Y-50470000D02*
X130150000Y-51070000D01*
X129750000Y-50470000D02*
X130300000Y-50470000D01*
X129750000Y-51070000D02*
X129750000Y-51570000D01*
X130150000Y-51070000D02*
X129350000Y-51070000D01*
D12*
%TO.C,MCU1*%
X150550000Y-48115000D02*
X150550000Y-78715000D01*
X150550000Y-48115000D02*
X153210000Y-48115000D01*
X150550000Y-78715000D02*
X153210000Y-78715000D01*
X153210000Y-48115000D02*
X153210000Y-78715000D01*
X165790000Y-48115000D02*
X165790000Y-78715000D01*
X165790000Y-48115000D02*
X168450000Y-48115000D01*
X165790000Y-50715000D02*
X168450000Y-50715000D01*
X165790000Y-78715000D02*
X168450000Y-78715000D01*
X168450000Y-48115000D02*
X168450000Y-78715000D01*
D11*
%TO.C,D36*%
X129350000Y-68070000D02*
X129750000Y-67470000D01*
X129750000Y-67070000D02*
X129750000Y-67470000D01*
X129750000Y-67470000D02*
X129200000Y-67470000D01*
X129750000Y-67470000D02*
X130150000Y-68070000D01*
X129750000Y-67470000D02*
X130300000Y-67470000D01*
X129750000Y-68070000D02*
X129750000Y-68570000D01*
X130150000Y-68070000D02*
X129350000Y-68070000D01*
%TO.C,D38*%
X147350000Y-87770000D02*
X147750000Y-87170000D01*
X147750000Y-86770000D02*
X147750000Y-87170000D01*
X147750000Y-87170000D02*
X147200000Y-87170000D01*
X147750000Y-87170000D02*
X148150000Y-87770000D01*
X147750000Y-87170000D02*
X148300000Y-87170000D01*
X147750000Y-87770000D02*
X147750000Y-88270000D01*
X148150000Y-87770000D02*
X147350000Y-87770000D01*
D13*
%TO.C,G\u002A\u002A\u002A*%
G36*
X90370210Y-98467711D02*
G01*
X90502091Y-98469573D01*
X90616705Y-98472509D01*
X90709393Y-98476561D01*
X90723167Y-98477398D01*
X91254168Y-98524434D01*
X91774004Y-98596652D01*
X92281693Y-98693798D01*
X92776255Y-98815620D01*
X93256710Y-98961867D01*
X93722078Y-99132285D01*
X94171377Y-99326623D01*
X94341183Y-99408419D01*
X94429493Y-99452753D01*
X94519033Y-99498638D01*
X94602313Y-99542172D01*
X94671842Y-99579453D01*
X94707599Y-99599328D01*
X94789239Y-99647677D01*
X94885955Y-99707926D01*
X94992013Y-99776232D01*
X95101675Y-99848754D01*
X95209205Y-99921651D01*
X95308868Y-99991081D01*
X95394926Y-100053203D01*
X95461643Y-100104176D01*
X95462418Y-100104796D01*
X95512904Y-100146154D01*
X95571467Y-100195553D01*
X95634304Y-100249615D01*
X95697612Y-100304965D01*
X95757588Y-100358225D01*
X95810429Y-100406018D01*
X95852333Y-100444967D01*
X95879496Y-100471696D01*
X95888117Y-100482825D01*
X95874453Y-100478262D01*
X95838692Y-100463266D01*
X95785305Y-100439795D01*
X95718763Y-100409804D01*
X95666334Y-100385788D01*
X95286663Y-100224620D01*
X94885368Y-100080856D01*
X94464852Y-99955100D01*
X94027516Y-99847959D01*
X93575758Y-99760039D01*
X93111982Y-99691945D01*
X92772920Y-99655621D01*
X92669205Y-99648030D01*
X92542006Y-99641674D01*
X92396253Y-99636573D01*
X92236877Y-99632750D01*
X92068809Y-99630225D01*
X91896981Y-99629019D01*
X91726322Y-99629154D01*
X91561764Y-99630651D01*
X91408237Y-99633530D01*
X91270674Y-99637814D01*
X91154005Y-99643523D01*
X91087403Y-99648380D01*
X90621036Y-99698324D01*
X90177981Y-99764662D01*
X89758432Y-99847345D01*
X89362581Y-99946325D01*
X88990619Y-100061551D01*
X88642739Y-100192974D01*
X88319133Y-100340547D01*
X88261522Y-100369831D01*
X88015143Y-100506959D01*
X87791488Y-100652683D01*
X87584253Y-100811512D01*
X87387133Y-100987955D01*
X87358717Y-101015562D01*
X87184273Y-101186738D01*
X87104295Y-101135577D01*
X87027005Y-101096524D01*
X86933941Y-101065689D01*
X86832249Y-101043937D01*
X86729075Y-101032134D01*
X86631564Y-101031144D01*
X86546863Y-101041832D01*
X86489501Y-101061130D01*
X86410211Y-101114502D01*
X86343958Y-101185837D01*
X86297750Y-101267029D01*
X86288327Y-101293819D01*
X86272385Y-101357812D01*
X86266919Y-101414712D01*
X86271918Y-101475876D01*
X86287376Y-101552658D01*
X86288133Y-101555884D01*
X86300804Y-101599614D01*
X86323895Y-101668379D01*
X86356609Y-101760132D01*
X86398152Y-101872825D01*
X86447728Y-102004411D01*
X86504541Y-102152841D01*
X86567795Y-102316068D01*
X86636696Y-102492045D01*
X86710446Y-102678723D01*
X86788251Y-102874056D01*
X86869315Y-103075995D01*
X86952843Y-103282493D01*
X87038038Y-103491503D01*
X87080231Y-103594407D01*
X87149790Y-103763720D01*
X88164228Y-103757434D01*
X89178666Y-103751149D01*
X89649365Y-104020235D01*
X90120063Y-104289322D01*
X90120063Y-104791571D01*
X90119888Y-104909596D01*
X90119391Y-105017755D01*
X90118612Y-105112696D01*
X90117595Y-105191067D01*
X90116380Y-105249516D01*
X90115009Y-105284690D01*
X90113826Y-105293820D01*
X90108369Y-105292032D01*
X90094086Y-105285999D01*
X90068804Y-105274719D01*
X90030346Y-105257192D01*
X89976540Y-105232413D01*
X89905209Y-105199382D01*
X89814180Y-105157097D01*
X89701278Y-105104555D01*
X89564328Y-105040755D01*
X89541125Y-105029941D01*
X89503530Y-105012449D01*
X89444084Y-104984829D01*
X89367531Y-104949281D01*
X89278615Y-104908009D01*
X89182078Y-104863214D01*
X89104203Y-104827089D01*
X88755220Y-104665223D01*
X88002986Y-104662385D01*
X87827639Y-104661713D01*
X87679114Y-104661325D01*
X87554918Y-104661517D01*
X87452560Y-104662586D01*
X87369547Y-104664829D01*
X87303387Y-104668541D01*
X87251588Y-104674020D01*
X87211659Y-104681561D01*
X87181108Y-104691461D01*
X87157442Y-104704016D01*
X87138169Y-104719524D01*
X87120798Y-104738280D01*
X87102836Y-104760580D01*
X87095063Y-104770389D01*
X87068208Y-104809739D01*
X87053509Y-104850142D01*
X87046643Y-104904487D01*
X87045894Y-104916956D01*
X87052214Y-105006699D01*
X87082823Y-105081076D01*
X87139241Y-105143179D01*
X87167127Y-105163778D01*
X87194177Y-105179091D01*
X87246351Y-105205782D01*
X87322078Y-105243118D01*
X87419788Y-105290363D01*
X87537911Y-105346785D01*
X87674878Y-105411649D01*
X87829117Y-105484220D01*
X87999059Y-105563764D01*
X88183134Y-105649547D01*
X88379770Y-105740836D01*
X88587400Y-105836895D01*
X88804451Y-105936990D01*
X89029354Y-106040388D01*
X89260540Y-106146355D01*
X89496436Y-106254155D01*
X89599752Y-106301264D01*
X89727303Y-106363941D01*
X89829712Y-106425284D01*
X89910791Y-106488546D01*
X89974351Y-106556983D01*
X90024201Y-106633849D01*
X90048862Y-106684782D01*
X90065018Y-106724737D01*
X90078059Y-106765234D01*
X90088523Y-106810440D01*
X90096950Y-106864522D01*
X90103878Y-106931649D01*
X90109846Y-107015989D01*
X90115393Y-107121708D01*
X90120481Y-107238865D01*
X90124689Y-107338456D01*
X90128704Y-107427748D01*
X90132328Y-107502759D01*
X90135362Y-107559506D01*
X90137607Y-107594005D01*
X90138671Y-107602901D01*
X90153620Y-107602701D01*
X90193426Y-107600691D01*
X90253707Y-107597132D01*
X90330081Y-107592288D01*
X90418164Y-107586418D01*
X90442510Y-107584752D01*
X90551118Y-107577663D01*
X90635518Y-107573388D01*
X90700703Y-107572152D01*
X90751665Y-107574178D01*
X90793394Y-107579692D01*
X90830884Y-107588918D01*
X90869124Y-107602080D01*
X90874676Y-107604194D01*
X90892195Y-107596260D01*
X90918606Y-107566349D01*
X90944825Y-107527307D01*
X90996247Y-107443234D01*
X90958489Y-107338251D01*
X90942156Y-107292838D01*
X91247366Y-107292838D01*
X91251958Y-107321352D01*
X91264511Y-107356949D01*
X91286737Y-107406442D01*
X91313779Y-107463006D01*
X91387865Y-107616901D01*
X91396216Y-107551460D01*
X91398197Y-107518476D01*
X91394328Y-107483570D01*
X91382983Y-107440260D01*
X91365229Y-107389733D01*
X92194536Y-107389733D01*
X92194942Y-107408437D01*
X92204960Y-107427566D01*
X92228536Y-107451267D01*
X92269614Y-107483688D01*
X92315996Y-107517452D01*
X92368858Y-107554793D01*
X92412751Y-107584824D01*
X92442361Y-107603970D01*
X92452105Y-107609046D01*
X92461478Y-107596759D01*
X92478597Y-107563588D01*
X92500288Y-107515851D01*
X92507889Y-107498026D01*
X92528867Y-107446379D01*
X92543818Y-107406311D01*
X92550338Y-107384395D01*
X92550227Y-107382263D01*
X92536576Y-107373740D01*
X92502445Y-107353439D01*
X92452733Y-107324249D01*
X92392338Y-107289058D01*
X92381709Y-107282888D01*
X92217676Y-107187730D01*
X92208950Y-107270406D01*
X92203013Y-107323613D01*
X92197280Y-107370146D01*
X92194536Y-107389733D01*
X91365229Y-107389733D01*
X91362535Y-107382066D01*
X91337658Y-107318256D01*
X91270748Y-107150494D01*
X91255221Y-107229803D01*
X91249024Y-107264592D01*
X91247366Y-107292838D01*
X90942156Y-107292838D01*
X90920731Y-107233269D01*
X90989520Y-106962261D01*
X91449228Y-106962261D01*
X91521143Y-107176143D01*
X91550471Y-107259875D01*
X91575437Y-107324140D01*
X91594897Y-107366250D01*
X91607703Y-107383516D01*
X91609663Y-107383663D01*
X91629274Y-107378403D01*
X91671990Y-107368232D01*
X91732266Y-107354431D01*
X91804557Y-107338283D01*
X91836602Y-107331232D01*
X91910789Y-107314846D01*
X91973854Y-107300656D01*
X92020711Y-107289828D01*
X92046276Y-107283525D01*
X92049475Y-107282480D01*
X92051341Y-107267673D01*
X92053919Y-107231076D01*
X92056690Y-107180187D01*
X92057043Y-107172813D01*
X92062071Y-107065828D01*
X91837333Y-106932362D01*
X91612594Y-106798895D01*
X91530911Y-106880578D01*
X91449228Y-106962261D01*
X90989520Y-106962261D01*
X90990245Y-106959404D01*
X91059759Y-106685540D01*
X91032065Y-106652175D01*
X92298019Y-106652175D01*
X92436467Y-106746136D01*
X92512602Y-106797774D01*
X92567976Y-106835158D01*
X92606071Y-106860507D01*
X92630371Y-106876042D01*
X92644360Y-106883983D01*
X92651523Y-106886550D01*
X92655342Y-106885963D01*
X92655666Y-106885820D01*
X92670592Y-106878612D01*
X92707465Y-106860660D01*
X92761902Y-106834101D01*
X92829520Y-106801074D01*
X92894421Y-106769348D01*
X93125846Y-106656179D01*
X93057590Y-106567475D01*
X93022495Y-106523922D01*
X92992370Y-106490205D01*
X92972970Y-106472701D01*
X92971265Y-106471837D01*
X92951662Y-106473438D01*
X92909216Y-106482351D01*
X92849115Y-106497313D01*
X92776546Y-106517060D01*
X92727483Y-106531178D01*
X92640917Y-106556429D01*
X92555177Y-106581148D01*
X92478246Y-106603050D01*
X92418108Y-106619856D01*
X92399895Y-106624813D01*
X92298019Y-106652175D01*
X91032065Y-106652175D01*
X90978313Y-106587416D01*
X90941216Y-106539441D01*
X90912952Y-106496643D01*
X90898038Y-106466111D01*
X90896807Y-106459502D01*
X90899707Y-106434331D01*
X90906081Y-106396469D01*
X91143263Y-106396469D01*
X91206165Y-106460562D01*
X91269068Y-106524655D01*
X91304163Y-106491840D01*
X91334401Y-106459103D01*
X91355171Y-106429711D01*
X91363558Y-106407789D01*
X91372566Y-106380297D01*
X91624313Y-106380297D01*
X91626339Y-106395816D01*
X91627802Y-106398111D01*
X91637660Y-106404295D01*
X91656079Y-106405976D01*
X91686783Y-106402502D01*
X91733498Y-106393218D01*
X91799949Y-106377472D01*
X91889858Y-106354609D01*
X91894996Y-106353274D01*
X93139825Y-106353274D01*
X93148110Y-106369635D01*
X93169867Y-106400838D01*
X93199602Y-106439966D01*
X93231824Y-106480100D01*
X93261037Y-106514322D01*
X93281751Y-106535714D01*
X93287700Y-106539516D01*
X93301090Y-106530061D01*
X93331665Y-106503999D01*
X93375363Y-106464920D01*
X93428124Y-106416414D01*
X93449196Y-106396734D01*
X93512051Y-106338056D01*
X93574763Y-106279982D01*
X93630597Y-106228722D01*
X93672815Y-106190484D01*
X93677352Y-106186437D01*
X93713869Y-106152874D01*
X93737659Y-106125283D01*
X93753161Y-106094967D01*
X93764816Y-106053226D01*
X93777063Y-105991361D01*
X93777144Y-105990926D01*
X93787104Y-105933244D01*
X93793426Y-105887384D01*
X93793604Y-105884713D01*
X94703416Y-105884713D01*
X94711272Y-105943550D01*
X94732023Y-106018419D01*
X94764026Y-106105111D01*
X94805644Y-106199419D01*
X94855234Y-106297134D01*
X94911158Y-106394049D01*
X94943213Y-106444267D01*
X94977894Y-106495957D01*
X95026037Y-106566766D01*
X95084281Y-106651803D01*
X95149270Y-106746178D01*
X95217645Y-106845003D01*
X95284375Y-106940989D01*
X95346677Y-107030819D01*
X95403243Y-107113238D01*
X95451953Y-107185088D01*
X95490685Y-107243209D01*
X95517320Y-107284442D01*
X95529737Y-107305630D01*
X95530369Y-107307405D01*
X95534060Y-107308745D01*
X95538520Y-107292289D01*
X95537128Y-107257568D01*
X95525467Y-107215337D01*
X95523976Y-107211678D01*
X95511976Y-107188554D01*
X95486500Y-107143377D01*
X95483336Y-107137912D01*
X96018485Y-107137912D01*
X96103460Y-107078306D01*
X96155354Y-107037782D01*
X96180102Y-107008038D01*
X96181959Y-106995354D01*
X96176973Y-106973584D01*
X96167374Y-106928485D01*
X96154289Y-106865475D01*
X96138847Y-106789970D01*
X96128231Y-106737501D01*
X96111768Y-106657963D01*
X96096582Y-106588584D01*
X96083851Y-106534442D01*
X96074751Y-106500615D01*
X96071285Y-106491860D01*
X96067628Y-106500701D01*
X96065321Y-106533314D01*
X96064602Y-106584177D01*
X96065265Y-106631692D01*
X96064351Y-106718012D01*
X96058623Y-106818617D01*
X96049030Y-106919048D01*
X96043711Y-106960285D01*
X96018485Y-107137912D01*
X95483336Y-107137912D01*
X95449307Y-107079139D01*
X95402157Y-106998829D01*
X95346807Y-106905438D01*
X95285016Y-106801958D01*
X95218544Y-106691379D01*
X95197724Y-106656890D01*
X95126828Y-106538774D01*
X95057402Y-106421625D01*
X94991710Y-106309373D01*
X94932020Y-106205947D01*
X94880596Y-106115277D01*
X94839705Y-106041292D01*
X94811613Y-105987922D01*
X94809335Y-105983345D01*
X94775037Y-105914728D01*
X94750798Y-105869326D01*
X94734218Y-105843820D01*
X94722897Y-105834890D01*
X94714434Y-105839219D01*
X94710092Y-105846115D01*
X94703416Y-105884713D01*
X93793604Y-105884713D01*
X93795230Y-105860251D01*
X93794337Y-105855995D01*
X93780288Y-105862495D01*
X93743457Y-105887132D01*
X93684000Y-105929789D01*
X93602074Y-105990352D01*
X93497834Y-106068705D01*
X93371438Y-106164733D01*
X93245403Y-106261160D01*
X93198896Y-106297988D01*
X93162812Y-106328755D01*
X93142454Y-106348836D01*
X93139825Y-106353274D01*
X91894996Y-106353274D01*
X91919362Y-106346943D01*
X92027684Y-106318815D01*
X92153037Y-106286437D01*
X92284032Y-106252739D01*
X92409282Y-106220653D01*
X92489462Y-106200207D01*
X92784942Y-106125052D01*
X93172564Y-105793712D01*
X93269717Y-105710685D01*
X93365296Y-105629040D01*
X93446662Y-105559567D01*
X94909833Y-105559567D01*
X94920256Y-105691251D01*
X94930678Y-105822935D01*
X95284488Y-106437563D01*
X95370838Y-106587079D01*
X95443908Y-106712470D01*
X95504634Y-106815244D01*
X95553951Y-106896913D01*
X95592798Y-106958986D01*
X95622109Y-107002972D01*
X95642820Y-107030381D01*
X95655869Y-107042723D01*
X95660283Y-107043578D01*
X95690385Y-107032182D01*
X95721531Y-107020737D01*
X95747473Y-107003398D01*
X95778234Y-106966888D01*
X95816334Y-106907966D01*
X95837263Y-106872016D01*
X95913731Y-106737523D01*
X95887799Y-106664229D01*
X95874833Y-106629217D01*
X95852984Y-106572038D01*
X95824217Y-106497758D01*
X95790497Y-106411443D01*
X95753792Y-106318156D01*
X95737292Y-106276432D01*
X95612717Y-105961930D01*
X95405372Y-105745236D01*
X96106557Y-105745236D01*
X96109457Y-105775354D01*
X96118904Y-105822250D01*
X96135508Y-105888491D01*
X96159878Y-105976647D01*
X96192623Y-106089286D01*
X96204473Y-106129250D01*
X96246769Y-106269751D01*
X96285430Y-106394941D01*
X96319803Y-106502886D01*
X96349235Y-106591651D01*
X96373075Y-106659301D01*
X96390669Y-106703901D01*
X96401364Y-106723516D01*
X96404336Y-106721783D01*
X96402899Y-106699086D01*
X96396233Y-106652219D01*
X96385111Y-106585703D01*
X96370308Y-106504061D01*
X96352599Y-106411813D01*
X96342810Y-106362695D01*
X96321333Y-106258112D01*
X96299249Y-106153882D01*
X96278013Y-106056630D01*
X96259078Y-105972981D01*
X96243897Y-105909560D01*
X96240417Y-105895947D01*
X96204343Y-105757912D01*
X96269416Y-105657319D01*
X96305510Y-105599494D01*
X96325996Y-105559910D01*
X96332588Y-105533160D01*
X96327005Y-105513841D01*
X96318320Y-105503363D01*
X96304616Y-105502433D01*
X96281016Y-105520141D01*
X96245157Y-105558608D01*
X96211218Y-105599364D01*
X96171178Y-105649204D01*
X96137750Y-105691643D01*
X96115551Y-105720778D01*
X96109595Y-105729327D01*
X96106557Y-105745236D01*
X95405372Y-105745236D01*
X95385447Y-105724413D01*
X95158177Y-105486896D01*
X95090447Y-105507659D01*
X95035074Y-105524245D01*
X94979930Y-105540179D01*
X94966275Y-105543995D01*
X94909833Y-105559567D01*
X93446662Y-105559567D01*
X93455613Y-105551924D01*
X93536980Y-105482486D01*
X93605709Y-105423873D01*
X93658111Y-105379233D01*
X93680583Y-105360124D01*
X93727979Y-105318453D01*
X93763927Y-105284076D01*
X93784468Y-105260972D01*
X93786949Y-105253199D01*
X93769767Y-105255874D01*
X93728088Y-105265731D01*
X93665575Y-105281801D01*
X93585890Y-105303119D01*
X93492693Y-105328717D01*
X93389648Y-105357627D01*
X93364523Y-105364762D01*
X93257361Y-105395103D01*
X93157113Y-105423183D01*
X93067892Y-105447874D01*
X92993812Y-105468046D01*
X92938987Y-105482572D01*
X92907531Y-105490323D01*
X92904830Y-105490881D01*
X92853531Y-105500759D01*
X92897501Y-105471934D01*
X92921422Y-105457491D01*
X92965830Y-105431834D01*
X93026762Y-105397170D01*
X93100256Y-105355705D01*
X93182348Y-105309645D01*
X93269076Y-105261198D01*
X93356478Y-105212569D01*
X93440590Y-105165966D01*
X93517451Y-105123593D01*
X93583096Y-105087659D01*
X93633564Y-105060369D01*
X93664892Y-105043931D01*
X93672921Y-105040170D01*
X93671993Y-105026660D01*
X93656966Y-104994339D01*
X93630537Y-104948423D01*
X93604098Y-104907060D01*
X93587036Y-104881386D01*
X94033393Y-104881386D01*
X94046448Y-104889658D01*
X94080779Y-104902074D01*
X94129136Y-104916032D01*
X94132325Y-104916862D01*
X94185552Y-104931533D01*
X94257222Y-104952533D01*
X94337927Y-104977054D01*
X94417811Y-105002140D01*
X94604363Y-105061834D01*
X94825845Y-105023932D01*
X94905307Y-105010681D01*
X94976522Y-104999450D01*
X95033560Y-104991127D01*
X95070495Y-104986597D01*
X95079317Y-104986030D01*
X95110097Y-104995015D01*
X95148885Y-105017537D01*
X95162281Y-105027695D01*
X95204177Y-105061163D01*
X95256858Y-105102111D01*
X95315625Y-105147022D01*
X95375779Y-105192381D01*
X95432622Y-105234675D01*
X95481454Y-105270388D01*
X95517577Y-105296005D01*
X95536291Y-105308010D01*
X95537638Y-105308476D01*
X95535021Y-105298143D01*
X95518421Y-105271844D01*
X95505132Y-105253514D01*
X95485363Y-105230961D01*
X95446939Y-105190490D01*
X95392305Y-105134528D01*
X95323910Y-105065500D01*
X95244202Y-104985833D01*
X95155628Y-104897953D01*
X95060636Y-104804287D01*
X94961672Y-104707261D01*
X94861186Y-104609302D01*
X94761625Y-104512835D01*
X94665435Y-104420288D01*
X94641644Y-104397516D01*
X94524391Y-104285408D01*
X94392481Y-104307402D01*
X94324531Y-104321018D01*
X94271379Y-104336174D01*
X94239583Y-104350931D01*
X94236439Y-104353587D01*
X94225834Y-104372508D01*
X94207460Y-104413556D01*
X94183421Y-104471259D01*
X94155823Y-104540144D01*
X94126772Y-104614737D01*
X94098373Y-104689566D01*
X94072731Y-104759159D01*
X94051952Y-104818043D01*
X94038141Y-104860745D01*
X94033393Y-104881386D01*
X93587036Y-104881386D01*
X93519234Y-104779358D01*
X93442874Y-104822498D01*
X93372151Y-104861753D01*
X93281977Y-104910741D01*
X93179035Y-104965915D01*
X93070004Y-105023723D01*
X92961566Y-105080618D01*
X92860402Y-105133048D01*
X92806001Y-105160874D01*
X92701575Y-105215324D01*
X92618556Y-105262919D01*
X92551417Y-105308370D01*
X92494629Y-105356389D01*
X92442665Y-105411688D01*
X92389998Y-105478979D01*
X92331101Y-105562973D01*
X92326715Y-105569433D01*
X92282171Y-105634437D01*
X92243536Y-105689493D01*
X92213669Y-105730635D01*
X92195423Y-105753899D01*
X92191172Y-105757581D01*
X92194798Y-105743382D01*
X92207820Y-105709547D01*
X92227234Y-105663005D01*
X92250037Y-105610682D01*
X92273226Y-105559505D01*
X92293797Y-105516401D01*
X92305486Y-105493922D01*
X92315686Y-105470284D01*
X92315852Y-105462103D01*
X92302301Y-105467559D01*
X92267482Y-105485591D01*
X92215438Y-105513994D01*
X92150212Y-105550561D01*
X92076666Y-105592614D01*
X91842221Y-105727867D01*
X91726542Y-106052783D01*
X91688336Y-106161326D01*
X91659844Y-106245433D01*
X91640232Y-106308021D01*
X91628666Y-106352004D01*
X91624313Y-106380297D01*
X91372566Y-106380297D01*
X91378582Y-106361935D01*
X91398928Y-106296430D01*
X91423281Y-106215557D01*
X91450329Y-106123598D01*
X91469334Y-106057809D01*
X91567583Y-105715220D01*
X91523869Y-105618812D01*
X91499787Y-105564934D01*
X91478856Y-105516766D01*
X91465738Y-105485059D01*
X91456851Y-105465141D01*
X91449037Y-105463128D01*
X91438392Y-105482296D01*
X91422918Y-105520998D01*
X91411123Y-105554112D01*
X91392078Y-105610818D01*
X91367213Y-105686708D01*
X91337959Y-105777377D01*
X91305748Y-105878416D01*
X91272010Y-105985419D01*
X91268890Y-105995375D01*
X91143263Y-106396469D01*
X90906081Y-106396469D01*
X90907671Y-106387021D01*
X90919524Y-106324076D01*
X90934088Y-106251997D01*
X90935944Y-106243130D01*
X90975140Y-106056549D01*
X90889636Y-105818087D01*
X90861622Y-105739104D01*
X90837455Y-105669336D01*
X90818760Y-105613608D01*
X90807162Y-105576744D01*
X90804086Y-105564082D01*
X90812125Y-105548887D01*
X90835043Y-105512356D01*
X90871011Y-105457236D01*
X90918199Y-105386278D01*
X90974778Y-105302230D01*
X91038920Y-105207841D01*
X91042688Y-105202342D01*
X91737770Y-105202342D01*
X91737803Y-105202514D01*
X91753965Y-105285613D01*
X91765773Y-105343918D01*
X91774158Y-105381468D01*
X91780052Y-105402301D01*
X91784385Y-105410456D01*
X91785906Y-105411073D01*
X91799075Y-105402379D01*
X91831853Y-105378002D01*
X91880906Y-105340504D01*
X91942898Y-105292447D01*
X92014495Y-105236390D01*
X92056015Y-105203664D01*
X92131043Y-105144149D01*
X92197712Y-105090796D01*
X92252789Y-105046231D01*
X92254588Y-105044749D01*
X92580365Y-105044749D01*
X92585741Y-105049706D01*
X92594133Y-105046197D01*
X92612559Y-105034831D01*
X92651983Y-105009494D01*
X92708981Y-104972422D01*
X92780127Y-104925852D01*
X92861994Y-104872019D01*
X92951157Y-104813162D01*
X92956128Y-104809874D01*
X93044380Y-104751456D01*
X93124360Y-104698433D01*
X93192889Y-104652920D01*
X93246788Y-104617031D01*
X93282876Y-104592881D01*
X93297974Y-104582584D01*
X93298195Y-104582408D01*
X93298834Y-104566703D01*
X93295079Y-104531333D01*
X93290867Y-104503245D01*
X93283288Y-104457199D01*
X93743282Y-104457199D01*
X93816954Y-104576912D01*
X93890626Y-104696624D01*
X94012643Y-104365386D01*
X94134660Y-104034149D01*
X94095019Y-103954042D01*
X94073029Y-103911757D01*
X94055724Y-103882384D01*
X94047858Y-103873029D01*
X94036533Y-103884675D01*
X94014622Y-103917625D01*
X93984798Y-103967039D01*
X93949733Y-104028077D01*
X93912098Y-104095900D01*
X93874566Y-104165667D01*
X93839809Y-104232538D01*
X93810500Y-104291675D01*
X93789310Y-104338236D01*
X93784670Y-104349717D01*
X93743282Y-104457199D01*
X93283288Y-104457199D01*
X93278575Y-104428562D01*
X92984088Y-104625730D01*
X92900314Y-104682658D01*
X92823772Y-104736257D01*
X92758192Y-104783790D01*
X92707303Y-104822517D01*
X92674833Y-104849699D01*
X92665438Y-104859776D01*
X92646103Y-104893703D01*
X92621844Y-104942108D01*
X92605259Y-104978093D01*
X92586632Y-105022342D01*
X92580365Y-105044749D01*
X92254588Y-105044749D01*
X92293039Y-105013082D01*
X92315229Y-104993976D01*
X92318563Y-104990414D01*
X92312095Y-104972989D01*
X92296536Y-104941294D01*
X92277657Y-104906329D01*
X92261230Y-104879090D01*
X92257280Y-104873609D01*
X92243560Y-104872144D01*
X92213982Y-104884753D01*
X92166522Y-104912574D01*
X92099154Y-104956745D01*
X92052772Y-104988495D01*
X91987583Y-105032943D01*
X91931144Y-105070188D01*
X91887658Y-105097555D01*
X91861328Y-105112371D01*
X91855462Y-105114081D01*
X91857805Y-105098750D01*
X91868958Y-105062804D01*
X91886499Y-105012705D01*
X91908003Y-104954913D01*
X91931049Y-104895889D01*
X91953212Y-104842093D01*
X91972070Y-104799986D01*
X91976955Y-104790145D01*
X91989973Y-104755011D01*
X91983633Y-104733256D01*
X91982275Y-104731819D01*
X91964835Y-104728239D01*
X91941292Y-104747556D01*
X91910876Y-104790916D01*
X91872814Y-104859464D01*
X91826332Y-104954347D01*
X91813145Y-104982664D01*
X91775403Y-105067496D01*
X91751019Y-105130172D01*
X91738854Y-105174014D01*
X91737770Y-105202342D01*
X91042688Y-105202342D01*
X91108793Y-105105859D01*
X91116218Y-105095069D01*
X91428395Y-104641598D01*
X91605995Y-104560052D01*
X91677609Y-104526966D01*
X91680408Y-104525601D01*
X92684980Y-104525601D01*
X92696686Y-104523323D01*
X92726817Y-104510420D01*
X92754561Y-104496873D01*
X92785240Y-104480514D01*
X92807178Y-104464381D01*
X92824196Y-104442503D01*
X92840117Y-104408914D01*
X92858762Y-104357645D01*
X92875478Y-104308051D01*
X92926815Y-104154592D01*
X92964898Y-104114173D01*
X93481151Y-104114173D01*
X93486871Y-104119598D01*
X93499788Y-104119273D01*
X93502079Y-104118912D01*
X93521942Y-104104850D01*
X93556666Y-104067583D01*
X93605121Y-104008473D01*
X93666176Y-103928883D01*
X93716663Y-103860537D01*
X93771259Y-103785085D01*
X93784683Y-103766218D01*
X94214558Y-103766218D01*
X94215143Y-103808907D01*
X94238846Y-103849202D01*
X94260571Y-103872123D01*
X94289778Y-103903108D01*
X94305135Y-103930973D01*
X94311026Y-103967399D01*
X94311869Y-104008802D01*
X94311869Y-104095760D01*
X94403474Y-104085758D01*
X94462087Y-104079055D01*
X94517123Y-104072261D01*
X94546376Y-104068307D01*
X94560315Y-104066953D01*
X94574282Y-104068421D01*
X94590568Y-104074607D01*
X94611459Y-104087408D01*
X94639244Y-104108720D01*
X94676212Y-104140438D01*
X94724651Y-104184459D01*
X94786849Y-104242679D01*
X94865095Y-104316994D01*
X94961676Y-104409301D01*
X94986005Y-104432587D01*
X95087065Y-104529215D01*
X95169224Y-104607344D01*
X95234688Y-104668816D01*
X95285664Y-104715474D01*
X95324358Y-104749159D01*
X95352977Y-104771712D01*
X95373728Y-104784975D01*
X95388818Y-104790790D01*
X95400452Y-104791000D01*
X95410838Y-104787445D01*
X95411049Y-104787348D01*
X95437098Y-104776209D01*
X95484750Y-104756670D01*
X95548317Y-104731032D01*
X95622110Y-104701597D01*
X95663947Y-104685036D01*
X95737442Y-104655085D01*
X95800231Y-104627710D01*
X95847693Y-104605070D01*
X95875202Y-104589324D01*
X95880211Y-104584004D01*
X95872903Y-104547624D01*
X95853050Y-104493838D01*
X95824142Y-104429778D01*
X95789670Y-104362579D01*
X95753122Y-104299373D01*
X95717988Y-104247293D01*
X95711198Y-104238540D01*
X95678827Y-104199337D01*
X95633972Y-104146756D01*
X95579722Y-104084252D01*
X95519167Y-104015282D01*
X95455397Y-103943299D01*
X95391503Y-103871762D01*
X95330573Y-103804124D01*
X95275699Y-103743842D01*
X95229969Y-103694372D01*
X95196474Y-103659169D01*
X95178303Y-103641689D01*
X95176428Y-103640457D01*
X95159070Y-103643432D01*
X95119088Y-103654577D01*
X95061519Y-103672362D01*
X94991400Y-103695254D01*
X94948018Y-103709909D01*
X94873714Y-103734922D01*
X94809810Y-103755704D01*
X94761129Y-103770745D01*
X94732496Y-103778533D01*
X94726972Y-103779128D01*
X94734398Y-103767219D01*
X94758137Y-103738494D01*
X94794357Y-103697430D01*
X94833448Y-103654713D01*
X94875872Y-103607352D01*
X94907290Y-103568928D01*
X94924495Y-103543613D01*
X94925055Y-103535485D01*
X94905492Y-103538317D01*
X94861568Y-103545991D01*
X94797685Y-103557695D01*
X94718246Y-103572616D01*
X94627653Y-103589943D01*
X94583018Y-103598581D01*
X94260571Y-103661212D01*
X94235626Y-103711705D01*
X94214558Y-103766218D01*
X93784683Y-103766218D01*
X93819459Y-103717341D01*
X93858736Y-103660950D01*
X93886561Y-103619560D01*
X93900407Y-103596817D01*
X93901483Y-103593918D01*
X93897834Y-103578603D01*
X93885891Y-103578739D01*
X93864156Y-103595879D01*
X93831133Y-103631575D01*
X93785325Y-103687383D01*
X93725236Y-103764855D01*
X93682959Y-103820714D01*
X93613621Y-103913201D01*
X93560589Y-103984920D01*
X93522344Y-104038373D01*
X93497368Y-104076064D01*
X93484143Y-104100496D01*
X93481151Y-104114173D01*
X92964898Y-104114173D01*
X93447126Y-103602359D01*
X93547586Y-103495474D01*
X93641821Y-103394705D01*
X93727931Y-103302119D01*
X93730119Y-103299751D01*
X94533915Y-103299751D01*
X94536103Y-103300513D01*
X94557779Y-103298028D01*
X94601692Y-103291278D01*
X94661254Y-103281323D01*
X94723357Y-103270397D01*
X94790318Y-103257670D01*
X94846408Y-103245723D01*
X94885468Y-103235954D01*
X94901101Y-103230058D01*
X94908029Y-103214491D01*
X94922842Y-103175456D01*
X94944166Y-103116928D01*
X94970623Y-103042879D01*
X95000839Y-102957285D01*
X95033438Y-102864117D01*
X95067043Y-102767351D01*
X95100280Y-102670959D01*
X95131772Y-102578915D01*
X95160143Y-102495193D01*
X95184019Y-102423766D01*
X95202022Y-102368609D01*
X95212777Y-102333694D01*
X95215184Y-102322889D01*
X95206162Y-102333624D01*
X95181927Y-102365990D01*
X95144147Y-102417658D01*
X95094492Y-102486294D01*
X95034632Y-102569570D01*
X94966236Y-102665152D01*
X94890973Y-102770710D01*
X94810513Y-102883913D01*
X94726525Y-103002430D01*
X94640679Y-103123929D01*
X94586300Y-103201087D01*
X94554444Y-103249399D01*
X94536322Y-103283594D01*
X94533915Y-103299751D01*
X93730119Y-103299751D01*
X93804018Y-103219781D01*
X93868184Y-103149756D01*
X93918529Y-103094111D01*
X93953155Y-103054911D01*
X93970163Y-103034222D01*
X93971595Y-103031772D01*
X93964739Y-103009912D01*
X93942442Y-102982141D01*
X93941035Y-102980801D01*
X93906318Y-102948186D01*
X93390099Y-103483514D01*
X92873880Y-104018843D01*
X92779430Y-104268905D01*
X92749371Y-104348836D01*
X92723261Y-104418925D01*
X92702737Y-104474726D01*
X92689436Y-104511793D01*
X92684980Y-104525601D01*
X91680408Y-104525601D01*
X91726698Y-104503027D01*
X91757384Y-104485162D01*
X91773787Y-104470301D01*
X91780028Y-104455370D01*
X91780227Y-104437298D01*
X91779705Y-104430551D01*
X91780042Y-104410484D01*
X91786378Y-104389805D01*
X91801573Y-104364582D01*
X91828485Y-104330878D01*
X91869974Y-104284762D01*
X91928899Y-104222297D01*
X91937933Y-104212829D01*
X91998635Y-104148775D01*
X92041205Y-104102184D01*
X92068105Y-104069662D01*
X92081795Y-104047810D01*
X92084738Y-104033232D01*
X92079601Y-104022945D01*
X92515678Y-104022945D01*
X92521277Y-104065884D01*
X92524879Y-104081772D01*
X92535787Y-104120554D01*
X92545257Y-104142682D01*
X92549072Y-104144826D01*
X92554470Y-104128403D01*
X92563874Y-104088905D01*
X92576004Y-104032091D01*
X92589578Y-103963719D01*
X92590833Y-103957163D01*
X92604009Y-103886388D01*
X92614837Y-103824937D01*
X92622241Y-103779166D01*
X92622523Y-103776855D01*
X92843293Y-103776855D01*
X92930534Y-103691505D01*
X93017775Y-103606155D01*
X93028032Y-103347074D01*
X93031765Y-103260335D01*
X93035709Y-103181624D01*
X93039541Y-103116524D01*
X93042939Y-103070619D01*
X93045148Y-103051350D01*
X93048828Y-103027419D01*
X93044430Y-103030402D01*
X93037332Y-103044022D01*
X93029757Y-103065679D01*
X93016251Y-103110693D01*
X92998169Y-103174025D01*
X92976871Y-103250639D01*
X92953714Y-103335498D01*
X92930056Y-103423566D01*
X92907255Y-103509806D01*
X92886668Y-103589182D01*
X92869654Y-103656655D01*
X92857570Y-103707191D01*
X92853595Y-103725557D01*
X92843293Y-103776855D01*
X92622523Y-103776855D01*
X92625140Y-103755435D01*
X92625148Y-103754870D01*
X92620148Y-103750806D01*
X92607092Y-103768685D01*
X92588688Y-103803186D01*
X92567644Y-103848986D01*
X92546667Y-103900764D01*
X92536201Y-103929685D01*
X92520293Y-103982368D01*
X92515678Y-104022945D01*
X92079601Y-104022945D01*
X92079395Y-104022532D01*
X92077386Y-104020394D01*
X92058540Y-104006204D01*
X92038139Y-104008484D01*
X92014425Y-104020813D01*
X91990028Y-104034414D01*
X91944196Y-104059621D01*
X91881261Y-104094062D01*
X91805556Y-104135370D01*
X91721413Y-104181174D01*
X91683350Y-104201862D01*
X91392569Y-104359825D01*
X91278525Y-104246450D01*
X91227103Y-104194307D01*
X91191442Y-104153675D01*
X91166024Y-104115902D01*
X91145332Y-104072338D01*
X91123851Y-104014330D01*
X91116012Y-103991606D01*
X91099231Y-103944260D01*
X91073520Y-103873853D01*
X91040482Y-103784682D01*
X91001724Y-103681040D01*
X90958849Y-103567222D01*
X90913463Y-103447524D01*
X90876957Y-103351812D01*
X90827135Y-103221335D01*
X90786867Y-103115027D01*
X90755157Y-103029710D01*
X90731012Y-102962201D01*
X90723519Y-102939653D01*
X91047648Y-102939653D01*
X91050718Y-102954352D01*
X91062412Y-102991581D01*
X91081081Y-103046415D01*
X91105073Y-103113932D01*
X91117540Y-103148157D01*
X91156390Y-103254734D01*
X91196409Y-103365806D01*
X91236355Y-103477810D01*
X91274991Y-103587182D01*
X91311076Y-103690358D01*
X91343371Y-103783775D01*
X91370635Y-103863867D01*
X91391629Y-103927071D01*
X91405114Y-103969824D01*
X91409850Y-103988531D01*
X91417251Y-104002078D01*
X91421904Y-104001591D01*
X91440853Y-103993453D01*
X91477929Y-103977237D01*
X91516922Y-103960063D01*
X91565478Y-103936104D01*
X91591341Y-103915715D01*
X91599987Y-103894341D01*
X91600136Y-103890826D01*
X91605528Y-103862055D01*
X91619578Y-103815407D01*
X91630791Y-103784183D01*
X91856049Y-103784183D01*
X91869269Y-103776243D01*
X91902621Y-103754184D01*
X91952193Y-103720654D01*
X92014071Y-103678298D01*
X92079074Y-103633413D01*
X92171211Y-103569774D01*
X92276745Y-103497250D01*
X92384752Y-103423324D01*
X92484313Y-103355482D01*
X92518272Y-103332438D01*
X92739966Y-103182234D01*
X92749723Y-103105799D01*
X92756201Y-103063694D01*
X92767308Y-103000421D01*
X92781664Y-102923500D01*
X92785171Y-102905550D01*
X93327414Y-102905550D01*
X93361621Y-103044245D01*
X93376924Y-103103253D01*
X93390424Y-103149812D01*
X93400261Y-103177784D01*
X93403710Y-103183100D01*
X93418756Y-103174641D01*
X93447346Y-103153163D01*
X93460867Y-103142124D01*
X93490861Y-103115718D01*
X93501238Y-103097861D01*
X93494971Y-103078424D01*
X93484454Y-103061783D01*
X93472021Y-103032994D01*
X93456268Y-102982110D01*
X93439068Y-102915886D01*
X93422292Y-102841078D01*
X93419525Y-102827532D01*
X93380282Y-102632485D01*
X93353848Y-102769017D01*
X93327414Y-102905550D01*
X92785171Y-102905550D01*
X92797888Y-102840456D01*
X92803700Y-102811594D01*
X92818735Y-102735749D01*
X92830928Y-102670745D01*
X92839380Y-102621660D01*
X92843193Y-102593573D01*
X92843054Y-102588959D01*
X92829071Y-102593302D01*
X92798219Y-102609638D01*
X92770756Y-102626065D01*
X92735687Y-102649414D01*
X92713395Y-102671427D01*
X92698551Y-102700784D01*
X92685823Y-102746162D01*
X92679103Y-102775285D01*
X92665681Y-102836935D01*
X92653798Y-102895360D01*
X92646045Y-102937805D01*
X92637113Y-102970010D01*
X92618256Y-103001079D01*
X92584637Y-103037407D01*
X92540176Y-103077776D01*
X92486331Y-103124158D01*
X92425818Y-103175286D01*
X92363438Y-103227220D01*
X92303989Y-103276023D01*
X92252270Y-103317756D01*
X92213081Y-103348480D01*
X92191220Y-103364256D01*
X92190820Y-103364494D01*
X92168065Y-103364547D01*
X92131106Y-103352661D01*
X92112452Y-103344015D01*
X92076022Y-103326698D01*
X92052491Y-103317910D01*
X92048269Y-103317812D01*
X92041356Y-103332591D01*
X92026185Y-103367740D01*
X92005652Y-103416519D01*
X91999037Y-103432423D01*
X91970199Y-103501541D01*
X91936602Y-103581480D01*
X91905025Y-103656113D01*
X91901983Y-103663266D01*
X91879889Y-103716522D01*
X91863841Y-103757809D01*
X91856117Y-103781131D01*
X91856049Y-103784183D01*
X91630791Y-103784183D01*
X91639480Y-103759985D01*
X91643957Y-103748548D01*
X91664356Y-103696509D01*
X91692148Y-103624649D01*
X91724407Y-103540583D01*
X91758206Y-103451925D01*
X91777082Y-103402141D01*
X91866637Y-103165416D01*
X91828780Y-103125902D01*
X91804025Y-103097071D01*
X91796203Y-103084349D01*
X92180461Y-103084349D01*
X92182748Y-103108889D01*
X92195779Y-103111686D01*
X92219680Y-103094173D01*
X92253860Y-103058585D01*
X92294029Y-103012740D01*
X92331506Y-102968503D01*
X92353447Y-102941425D01*
X92374358Y-102903787D01*
X92394245Y-102844620D01*
X92414180Y-102760541D01*
X92420131Y-102730978D01*
X92433701Y-102663064D01*
X92445949Y-102604735D01*
X92455443Y-102562625D01*
X92460440Y-102544105D01*
X92462157Y-102526277D01*
X92445156Y-102530218D01*
X92409216Y-102556033D01*
X92373364Y-102586564D01*
X92346437Y-102611267D01*
X92325673Y-102634314D01*
X92308450Y-102661068D01*
X92292148Y-102696888D01*
X92274147Y-102747135D01*
X92251827Y-102817169D01*
X92236791Y-102865962D01*
X92207609Y-102964317D01*
X92188790Y-103036636D01*
X92180461Y-103084349D01*
X91796203Y-103084349D01*
X91791355Y-103076463D01*
X91790923Y-103074172D01*
X91800076Y-103057406D01*
X91823659Y-103027111D01*
X91845886Y-103001691D01*
X91872232Y-102968383D01*
X91897098Y-102926161D01*
X91923082Y-102869619D01*
X91952787Y-102793351D01*
X91972635Y-102738257D01*
X92044423Y-102535088D01*
X92182326Y-102415810D01*
X92240359Y-102364854D01*
X92279014Y-102328364D01*
X92301637Y-102302288D01*
X92311572Y-102282573D01*
X92312166Y-102265168D01*
X92311048Y-102259890D01*
X92306238Y-102229531D01*
X92300955Y-102178496D01*
X92296023Y-102115395D01*
X92293853Y-102080346D01*
X92289940Y-102019691D01*
X92285877Y-101971816D01*
X92282253Y-101942994D01*
X92280459Y-101937444D01*
X92265774Y-101943493D01*
X92231338Y-101959607D01*
X92183616Y-101982737D01*
X92165243Y-101991791D01*
X92055409Y-102046139D01*
X92004380Y-102178664D01*
X91975110Y-102254819D01*
X91943170Y-102338136D01*
X91914460Y-102413224D01*
X91908655Y-102428442D01*
X91886226Y-102485305D01*
X91866800Y-102523942D01*
X91843512Y-102552768D01*
X91809496Y-102580202D01*
X91757888Y-102614660D01*
X91755507Y-102616208D01*
X91647054Y-102686721D01*
X91632194Y-102777431D01*
X91598633Y-102980854D01*
X91569210Y-103156135D01*
X91543947Y-103303146D01*
X91522867Y-103421762D01*
X91505993Y-103511854D01*
X91493348Y-103573298D01*
X91484955Y-103605965D01*
X91481475Y-103611517D01*
X91478353Y-103594654D01*
X91474342Y-103552370D01*
X91469697Y-103488532D01*
X91464676Y-103407011D01*
X91459532Y-103311674D01*
X91454522Y-103206392D01*
X91454146Y-103197917D01*
X91449285Y-103091515D01*
X91444523Y-102994290D01*
X91440081Y-102910215D01*
X91436177Y-102843259D01*
X91433034Y-102797394D01*
X91430870Y-102776592D01*
X91430770Y-102776206D01*
X91418557Y-102765117D01*
X91399190Y-102772357D01*
X91376072Y-102784114D01*
X91332607Y-102805034D01*
X91275113Y-102832110D01*
X91212853Y-102860982D01*
X91150440Y-102889919D01*
X91098537Y-102914372D01*
X91062499Y-102931789D01*
X91047684Y-102939619D01*
X91047648Y-102939653D01*
X90723519Y-102939653D01*
X90713439Y-102909322D01*
X90701442Y-102867891D01*
X90694029Y-102834729D01*
X90690204Y-102806654D01*
X90688976Y-102780487D01*
X90689348Y-102753047D01*
X90689390Y-102751628D01*
X90692410Y-102649770D01*
X90661543Y-102618665D01*
X91075377Y-102618665D01*
X91080364Y-102626307D01*
X91096574Y-102620246D01*
X91134486Y-102603488D01*
X91189445Y-102578166D01*
X91256798Y-102546414D01*
X91307046Y-102522362D01*
X91388186Y-102482955D01*
X91448249Y-102452262D01*
X91492691Y-102426530D01*
X91526963Y-102402005D01*
X91556520Y-102374933D01*
X91586815Y-102341562D01*
X91610496Y-102313505D01*
X91649521Y-102265493D01*
X91694400Y-102208303D01*
X91741683Y-102146574D01*
X91787924Y-102084948D01*
X91829673Y-102028067D01*
X91863484Y-101980571D01*
X91885906Y-101947102D01*
X91893520Y-101932547D01*
X91881278Y-101934468D01*
X91848612Y-101946557D01*
X91801609Y-101966478D01*
X91780854Y-101975798D01*
X91724517Y-102005634D01*
X91648996Y-102052091D01*
X91557599Y-102112994D01*
X91453634Y-102186167D01*
X91386512Y-102235120D01*
X91297687Y-102300888D01*
X91229641Y-102352021D01*
X91179483Y-102391169D01*
X91144318Y-102420982D01*
X91121253Y-102444110D01*
X91107394Y-102463204D01*
X91099846Y-102480914D01*
X91095717Y-102499891D01*
X91095419Y-102501725D01*
X91087169Y-102548554D01*
X91079006Y-102588231D01*
X91077785Y-102593329D01*
X91075377Y-102618665D01*
X90661543Y-102618665D01*
X90596415Y-102553034D01*
X90500420Y-102456298D01*
X90512404Y-102291326D01*
X90808927Y-102291326D01*
X90981142Y-102201266D01*
X91047804Y-102165977D01*
X91106891Y-102133906D01*
X91152534Y-102108293D01*
X91178862Y-102092380D01*
X91180769Y-102091040D01*
X91193930Y-102073128D01*
X91209320Y-102035846D01*
X91227728Y-101976712D01*
X91249943Y-101893242D01*
X91271389Y-101805582D01*
X91291835Y-101720622D01*
X91310415Y-101645007D01*
X91325913Y-101583567D01*
X91337109Y-101541132D01*
X91342717Y-101522681D01*
X91345236Y-101530392D01*
X91347012Y-101562983D01*
X91347948Y-101616025D01*
X91347950Y-101685092D01*
X91347365Y-101739217D01*
X91346379Y-101835197D01*
X91347689Y-101904504D01*
X91352797Y-101949765D01*
X91363206Y-101973609D01*
X91380418Y-101978665D01*
X91405936Y-101967562D01*
X91441262Y-101942928D01*
X91456992Y-101931008D01*
X91498601Y-101895493D01*
X91521661Y-101863233D01*
X91533420Y-101823564D01*
X91534565Y-101816885D01*
X91541511Y-101780367D01*
X91544983Y-101763883D01*
X91776266Y-101763883D01*
X91788872Y-101761480D01*
X91823769Y-101748680D01*
X91834994Y-101744124D01*
X92410750Y-101744124D01*
X92412325Y-101871906D01*
X92433071Y-101993323D01*
X92471092Y-102104181D01*
X92524495Y-102200286D01*
X92591386Y-102277445D01*
X92669871Y-102331462D01*
X92677651Y-102335142D01*
X92728375Y-102355726D01*
X92754855Y-102360483D01*
X92756813Y-102349668D01*
X92733972Y-102323532D01*
X92712080Y-102303866D01*
X92630944Y-102215632D01*
X92608195Y-102174772D01*
X93051396Y-102174772D01*
X93058601Y-102186263D01*
X93080790Y-102175020D01*
X93118828Y-102140529D01*
X93132698Y-102126364D01*
X93190635Y-102066122D01*
X93121015Y-102114529D01*
X93083418Y-102142559D01*
X93058139Y-102165017D01*
X93051396Y-102174772D01*
X92608195Y-102174772D01*
X92572802Y-102111204D01*
X92538233Y-101993276D01*
X92527816Y-101864544D01*
X92537056Y-101776220D01*
X92782174Y-101776220D01*
X92787386Y-101863386D01*
X92806316Y-101932667D01*
X92842383Y-101993628D01*
X92872603Y-102029048D01*
X92904844Y-102059865D01*
X92920827Y-102067643D01*
X92919033Y-102053189D01*
X92897940Y-102017311D01*
X92897083Y-102016045D01*
X92852039Y-101924094D01*
X92834051Y-101820947D01*
X92835639Y-101760276D01*
X92855131Y-101663740D01*
X92897048Y-101581322D01*
X92938659Y-101530721D01*
X92964997Y-101501594D01*
X92972099Y-101487585D01*
X92961664Y-101483293D01*
X92953651Y-101483087D01*
X92911136Y-101496184D01*
X92866454Y-101531763D01*
X92825959Y-101584260D01*
X92814059Y-101605390D01*
X92794932Y-101653340D01*
X92784970Y-101709585D01*
X92782174Y-101776220D01*
X92537056Y-101776220D01*
X92542131Y-101727704D01*
X92567047Y-101628948D01*
X92612218Y-101524458D01*
X92675162Y-101436875D01*
X92752167Y-101368105D01*
X92839522Y-101320052D01*
X92933515Y-101294619D01*
X93030434Y-101293712D01*
X93126568Y-101319235D01*
X93149922Y-101329908D01*
X93220226Y-101375864D01*
X93277975Y-101439367D01*
X93327482Y-101525507D01*
X93340808Y-101555205D01*
X93375754Y-101636982D01*
X93366810Y-101571650D01*
X93338117Y-101459296D01*
X93286984Y-101362633D01*
X93216776Y-101283866D01*
X93130856Y-101225202D01*
X93032587Y-101188845D01*
X92925332Y-101177002D01*
X92812455Y-101191880D01*
X92795020Y-101196618D01*
X92710070Y-101235353D01*
X92629133Y-101298287D01*
X92555797Y-101380309D01*
X92493649Y-101476309D01*
X92446275Y-101581176D01*
X92417263Y-101689799D01*
X92410750Y-101744124D01*
X91834994Y-101744124D01*
X91876574Y-101727247D01*
X91942906Y-101698944D01*
X91997676Y-101674812D01*
X92219086Y-101576035D01*
X92342995Y-101299152D01*
X92380984Y-101214940D01*
X92415644Y-101139379D01*
X92444968Y-101076747D01*
X92466945Y-101031321D01*
X92479567Y-101007379D01*
X92481002Y-101005281D01*
X92504446Y-100990734D01*
X92541447Y-100979208D01*
X92542406Y-100979017D01*
X92570509Y-100972608D01*
X92620575Y-100960334D01*
X92686893Y-100943671D01*
X92763750Y-100924093D01*
X92845432Y-100903076D01*
X92926227Y-100882095D01*
X93000422Y-100862627D01*
X93062305Y-100846145D01*
X93106163Y-100834127D01*
X93124680Y-100828632D01*
X93129471Y-100818696D01*
X93106799Y-100801083D01*
X93088571Y-100791074D01*
X93063901Y-100779849D01*
X93038133Y-100772812D01*
X93007329Y-100770418D01*
X92967549Y-100773120D01*
X92914855Y-100781372D01*
X92845306Y-100795629D01*
X92754965Y-100816343D01*
X92649280Y-100841692D01*
X92459685Y-100887638D01*
X92283346Y-101035132D01*
X92207321Y-101100017D01*
X92125233Y-101172219D01*
X92046214Y-101243585D01*
X91979393Y-101305962D01*
X91970472Y-101314535D01*
X91833938Y-101446445D01*
X91805102Y-101600311D01*
X91793283Y-101664236D01*
X91783809Y-101717109D01*
X91777809Y-101752528D01*
X91776266Y-101763883D01*
X91544983Y-101763883D01*
X91553758Y-101722225D01*
X91569804Y-101649349D01*
X91588148Y-101568629D01*
X91596098Y-101534385D01*
X91647471Y-101314535D01*
X91735689Y-101229498D01*
X91779629Y-101188204D01*
X91838855Y-101134025D01*
X91906449Y-101073218D01*
X91975496Y-101012038D01*
X91994288Y-100995571D01*
X92060610Y-100937400D01*
X92125744Y-100879894D01*
X92183416Y-100828618D01*
X92227351Y-100789137D01*
X92237951Y-100779473D01*
X92262598Y-100757376D01*
X92285602Y-100739146D01*
X92310871Y-100723223D01*
X92342313Y-100708047D01*
X92383836Y-100692058D01*
X92439348Y-100673695D01*
X92512756Y-100651399D01*
X92607967Y-100623610D01*
X92681379Y-100602444D01*
X92745081Y-100583431D01*
X92796197Y-100566880D01*
X92829482Y-100554581D01*
X92839729Y-100548358D01*
X92815419Y-100537373D01*
X92767087Y-100526001D01*
X92700003Y-100514985D01*
X92619439Y-100505069D01*
X92530664Y-100496996D01*
X92438948Y-100491510D01*
X92435816Y-100491376D01*
X92309991Y-100489099D01*
X92203320Y-100495137D01*
X92106364Y-100511366D01*
X92009679Y-100539662D01*
X91903824Y-100581901D01*
X91844486Y-100608845D01*
X91652291Y-100710817D01*
X91475876Y-100828870D01*
X91317373Y-100960714D01*
X91178916Y-101104057D01*
X91062636Y-101256609D01*
X90970668Y-101416079D01*
X90905143Y-101580176D01*
X90889881Y-101634183D01*
X90873527Y-101708382D01*
X90856924Y-101800501D01*
X90841189Y-101902351D01*
X90827436Y-102005743D01*
X90816783Y-102102488D01*
X90810345Y-102184399D01*
X90808944Y-102227974D01*
X90808927Y-102291326D01*
X90512404Y-102291326D01*
X90515805Y-102244505D01*
X90542688Y-101977755D01*
X90583208Y-101735605D01*
X90638103Y-101516329D01*
X90708115Y-101318204D01*
X90793982Y-101139504D01*
X90896446Y-100978504D01*
X91016246Y-100833479D01*
X91154122Y-100702706D01*
X91189953Y-100673274D01*
X91389263Y-100531666D01*
X91601465Y-100415625D01*
X91828658Y-100324103D01*
X91979856Y-100278713D01*
X92118552Y-100249489D01*
X92263953Y-100234010D01*
X92419615Y-100232437D01*
X92589091Y-100244928D01*
X92775937Y-100271642D01*
X92983707Y-100312736D01*
X93043264Y-100326182D01*
X93114032Y-100342955D01*
X93174014Y-100357973D01*
X93217664Y-100369787D01*
X93239435Y-100376949D01*
X93240717Y-100377735D01*
X93238374Y-100393600D01*
X93224261Y-100426500D01*
X93208185Y-100457064D01*
X93167932Y-100528672D01*
X93362492Y-100660766D01*
X93436963Y-100711956D01*
X93510310Y-100763483D01*
X93575712Y-100810482D01*
X93626352Y-100848088D01*
X93641327Y-100859711D01*
X93725603Y-100926562D01*
X93725603Y-101027305D01*
X93717413Y-101125751D01*
X93694152Y-101235896D01*
X93688780Y-101255117D01*
X93671416Y-101317171D01*
X93662042Y-101360574D01*
X93659967Y-101394672D01*
X93664499Y-101428814D01*
X93673226Y-101465614D01*
X93689920Y-101536503D01*
X93707389Y-101619731D01*
X93724191Y-101707377D01*
X93738885Y-101791522D01*
X93750029Y-101864245D01*
X93756184Y-101917626D01*
X93756614Y-101923916D01*
X93756122Y-101960562D01*
X93748523Y-101997736D01*
X93731389Y-102042898D01*
X93702293Y-102103512D01*
X93691033Y-102125507D01*
X93621563Y-102260013D01*
X93658926Y-102426604D01*
X93673759Y-102494712D01*
X93685804Y-102553777D01*
X93693743Y-102597081D01*
X93696290Y-102617079D01*
X93698909Y-102631796D01*
X93709912Y-102638477D01*
X93734021Y-102636717D01*
X93775955Y-102626111D01*
X93840434Y-102606254D01*
X93847079Y-102604135D01*
X93902455Y-102587122D01*
X93948044Y-102574348D01*
X93975894Y-102568006D01*
X93979329Y-102567680D01*
X93993178Y-102578930D01*
X94021446Y-102610346D01*
X94061255Y-102658427D01*
X94109728Y-102719674D01*
X94163986Y-102790586D01*
X94178613Y-102810077D01*
X94233424Y-102882532D01*
X94282643Y-102945935D01*
X94323518Y-102996878D01*
X94353298Y-103031949D01*
X94369229Y-103047738D01*
X94370812Y-103048248D01*
X94381332Y-103036064D01*
X94407670Y-103002568D01*
X94448164Y-102949976D01*
X94501148Y-102880507D01*
X94564959Y-102796378D01*
X94637934Y-102699805D01*
X94718408Y-102593007D01*
X94804719Y-102478201D01*
X94895201Y-102357603D01*
X94988193Y-102233432D01*
X95082028Y-102107905D01*
X95175045Y-101983238D01*
X95265579Y-101861650D01*
X95351967Y-101745358D01*
X95432544Y-101636579D01*
X95505648Y-101537530D01*
X95565738Y-101455722D01*
X95621899Y-101379567D01*
X95671834Y-101312880D01*
X95713136Y-101258787D01*
X95743402Y-101220417D01*
X95760226Y-101200896D01*
X95762879Y-101199374D01*
X95759196Y-101217644D01*
X95749129Y-101258402D01*
X95734149Y-101315895D01*
X95715729Y-101384369D01*
X95712744Y-101395290D01*
X95689880Y-101480063D01*
X95662932Y-101582136D01*
X95632630Y-101698578D01*
X95599705Y-101826456D01*
X95564888Y-101962839D01*
X95528907Y-102104795D01*
X95492494Y-102249392D01*
X95456378Y-102393698D01*
X95421290Y-102534781D01*
X95387959Y-102669710D01*
X95357116Y-102795552D01*
X95329491Y-102909377D01*
X95305814Y-103008250D01*
X95286816Y-103089242D01*
X95273226Y-103149420D01*
X95265774Y-103185853D01*
X95264553Y-103194981D01*
X95278374Y-103196729D01*
X95316574Y-103197043D01*
X95374258Y-103195997D01*
X95446529Y-103193664D01*
X95499081Y-103191488D01*
X95733609Y-103180981D01*
X95952471Y-103372968D01*
X96065010Y-103473794D01*
X96158744Y-103562846D01*
X96238750Y-103645347D01*
X96310106Y-103726517D01*
X96373754Y-103806168D01*
X96412174Y-103858338D01*
X96455831Y-103920907D01*
X96501668Y-103989092D01*
X96546631Y-104058114D01*
X96587662Y-104123189D01*
X96621704Y-104179536D01*
X96645703Y-104222373D01*
X96656601Y-104246920D01*
X96656940Y-104249232D01*
X96654490Y-104270142D01*
X96647580Y-104315851D01*
X96636877Y-104382296D01*
X96623047Y-104465413D01*
X96606756Y-104561140D01*
X96588992Y-104663583D01*
X96521040Y-105051985D01*
X96675552Y-105293820D01*
X96830065Y-105535655D01*
X96875757Y-105916728D01*
X96888320Y-106021041D01*
X96900016Y-106117292D01*
X96910312Y-106201170D01*
X96918678Y-106268365D01*
X96924580Y-106314564D01*
X96927316Y-106334443D01*
X96927145Y-106366632D01*
X96921172Y-106416795D01*
X96910668Y-106474460D01*
X96909831Y-106478348D01*
X96886481Y-106585610D01*
X96987853Y-107002323D01*
X97013943Y-107108039D01*
X97038316Y-107203885D01*
X97060014Y-107286329D01*
X97078082Y-107351838D01*
X97091565Y-107396881D01*
X97099507Y-107417925D01*
X97100609Y-107419036D01*
X97115882Y-107411255D01*
X97151356Y-107389642D01*
X97202955Y-107356788D01*
X97266603Y-107315288D01*
X97332816Y-107271350D01*
X97403491Y-107224613D01*
X97465470Y-107184634D01*
X97514808Y-107153877D01*
X97547560Y-107134802D01*
X97559707Y-107129732D01*
X97556652Y-107144690D01*
X97544770Y-107183736D01*
X97525284Y-107243417D01*
X97499415Y-107320283D01*
X97468383Y-107410882D01*
X97433410Y-107511764D01*
X97395718Y-107619477D01*
X97356527Y-107730572D01*
X97317060Y-107841596D01*
X97278537Y-107949098D01*
X97242180Y-108049629D01*
X97209210Y-108139736D01*
X97180849Y-108215969D01*
X97158317Y-108274876D01*
X97142836Y-108313008D01*
X97136174Y-108326460D01*
X97118008Y-108347938D01*
X97086498Y-108384835D01*
X97047441Y-108430367D01*
X97033603Y-108446459D01*
X96994843Y-108497150D01*
X96945014Y-108571269D01*
X96885741Y-108665819D01*
X96818650Y-108777806D01*
X96745365Y-108904233D01*
X96667512Y-109042107D01*
X96586717Y-109188432D01*
X96504604Y-109340212D01*
X96422799Y-109494453D01*
X96342926Y-109648159D01*
X96266613Y-109798335D01*
X96195482Y-109941986D01*
X96131161Y-110076116D01*
X96075274Y-110197731D01*
X96042072Y-110273741D01*
X96009806Y-110351550D01*
X95988563Y-110408470D01*
X95976742Y-110450072D01*
X95972745Y-110481924D01*
X95974742Y-110508248D01*
X95975822Y-110527539D01*
X95972982Y-110554167D01*
X95965415Y-110590971D01*
X95952313Y-110640790D01*
X95932869Y-110706461D01*
X95906276Y-110790825D01*
X95871727Y-110896720D01*
X95828415Y-111026984D01*
X95820636Y-111050225D01*
X95657391Y-111537559D01*
X93004412Y-111537559D01*
X92672889Y-111537535D01*
X92369489Y-111537458D01*
X92093020Y-111537318D01*
X91842292Y-111537106D01*
X91616114Y-111536812D01*
X91413295Y-111536427D01*
X91232645Y-111535941D01*
X91072973Y-111535346D01*
X90933087Y-111534632D01*
X90811798Y-111533790D01*
X90707914Y-111532810D01*
X90620245Y-111531682D01*
X90547599Y-111530398D01*
X90488786Y-111528949D01*
X90442616Y-111527324D01*
X90407897Y-111525514D01*
X90383438Y-111523511D01*
X90368049Y-111521304D01*
X90360539Y-111518885D01*
X90359411Y-111516772D01*
X90369153Y-111500133D01*
X90393324Y-111462036D01*
X90430033Y-111405368D01*
X90477387Y-111333022D01*
X90518312Y-111270927D01*
X94598276Y-111270927D01*
X94601989Y-111273282D01*
X94619671Y-111265936D01*
X94652504Y-111247876D01*
X94670306Y-111237211D01*
X94699471Y-111217302D01*
X94719780Y-111195624D01*
X94735608Y-111164655D01*
X94751332Y-111116871D01*
X94761683Y-111080109D01*
X94768885Y-111053368D01*
X95072949Y-111053368D01*
X95076228Y-111055000D01*
X95088651Y-111030000D01*
X95109979Y-110978895D01*
X95139972Y-110902215D01*
X95168274Y-110827537D01*
X95195923Y-110752574D01*
X95219105Y-110687293D01*
X95236157Y-110636575D01*
X95245415Y-110605303D01*
X95246507Y-110597811D01*
X95232049Y-110595612D01*
X95201907Y-110604385D01*
X95197454Y-110606211D01*
X95178561Y-110615289D01*
X95164737Y-110627296D01*
X95153972Y-110647453D01*
X95144258Y-110680983D01*
X95133588Y-110733108D01*
X95120380Y-110806623D01*
X95107305Y-110879507D01*
X95095186Y-110944754D01*
X95085355Y-110995334D01*
X95079144Y-111024220D01*
X95079054Y-111024576D01*
X95072949Y-111053368D01*
X94768885Y-111053368D01*
X94780559Y-111010023D01*
X94791231Y-110964333D01*
X94793662Y-110939286D01*
X94787820Y-110931126D01*
X94773667Y-110936097D01*
X94760421Y-110944314D01*
X94740464Y-110965359D01*
X94714960Y-111003391D01*
X94686636Y-111052742D01*
X94658224Y-111107746D01*
X94632453Y-111162734D01*
X94612051Y-111212038D01*
X94599749Y-111249992D01*
X94598276Y-111270927D01*
X90518312Y-111270927D01*
X90533497Y-111247887D01*
X90545713Y-111229452D01*
X94049906Y-111229452D01*
X94054141Y-111234268D01*
X94063447Y-111215545D01*
X94075507Y-111177834D01*
X94097600Y-111116377D01*
X94128823Y-111047987D01*
X94155074Y-111000036D01*
X94188924Y-110935761D01*
X94207026Y-110882032D01*
X94209273Y-110862168D01*
X94206085Y-110831770D01*
X94197498Y-110826100D01*
X94195999Y-110827444D01*
X94171885Y-110861417D01*
X94143212Y-110914424D01*
X94114093Y-110977496D01*
X94088639Y-111041664D01*
X94070962Y-111097960D01*
X94069817Y-111102657D01*
X94057525Y-111160759D01*
X94050961Y-111203987D01*
X94049906Y-111229452D01*
X90545713Y-111229452D01*
X90596469Y-111152854D01*
X90659966Y-111057476D01*
X90729648Y-110952689D01*
X90795926Y-110852357D01*
X90856583Y-110759887D01*
X90909399Y-110678687D01*
X90952158Y-110612165D01*
X90968257Y-110586583D01*
X94546748Y-110586583D01*
X94583450Y-110659013D01*
X94604407Y-110698677D01*
X94619949Y-110724985D01*
X94625367Y-110731442D01*
X94638447Y-110722954D01*
X94668321Y-110700491D01*
X94709025Y-110668563D01*
X94717461Y-110661823D01*
X94805413Y-110590267D01*
X94871928Y-110533406D01*
X94919386Y-110488847D01*
X94950167Y-110454196D01*
X94966651Y-110427057D01*
X94971234Y-110406513D01*
X94969586Y-110381668D01*
X94958842Y-110373601D01*
X94930795Y-110378665D01*
X94917013Y-110382411D01*
X94883214Y-110395803D01*
X94831633Y-110421093D01*
X94769341Y-110454631D01*
X94704677Y-110492008D01*
X94546748Y-110586583D01*
X90968257Y-110586583D01*
X90982640Y-110563728D01*
X90995472Y-110542294D01*
X92133441Y-110542294D01*
X92135789Y-110540906D01*
X92157257Y-110523825D01*
X92196323Y-110492172D01*
X92247973Y-110450027D01*
X92307196Y-110401473D01*
X92325788Y-110386187D01*
X92684925Y-110096375D01*
X95180709Y-110096375D01*
X95186723Y-110111159D01*
X95218437Y-110121272D01*
X95277251Y-110127063D01*
X95308523Y-110128243D01*
X95374478Y-110129959D01*
X95493433Y-109835604D01*
X95740387Y-109835604D01*
X95750485Y-109825576D01*
X95770332Y-109791853D01*
X95778997Y-109775095D01*
X95796182Y-109742526D01*
X95824923Y-109689774D01*
X95862292Y-109622144D01*
X95905358Y-109544936D01*
X95949462Y-109466518D01*
X96010904Y-109353320D01*
X96069135Y-109237828D01*
X96119853Y-109128909D01*
X96158756Y-109035428D01*
X96159244Y-109034146D01*
X96189415Y-108955083D01*
X96219756Y-108876197D01*
X96246796Y-108806474D01*
X96267065Y-108754903D01*
X96267560Y-108753662D01*
X96287195Y-108700289D01*
X96294489Y-108667731D01*
X96290408Y-108650683D01*
X96286861Y-108647639D01*
X96261564Y-108639687D01*
X96254345Y-108640507D01*
X96243855Y-108655196D01*
X96223516Y-108694062D01*
X96194636Y-108754173D01*
X96158521Y-108832597D01*
X96116479Y-108926403D01*
X96069816Y-109032661D01*
X96019839Y-109148437D01*
X95967856Y-109270802D01*
X95915173Y-109396824D01*
X95890612Y-109456313D01*
X95854841Y-109543272D01*
X95821415Y-109624446D01*
X95792489Y-109694605D01*
X95770221Y-109748517D01*
X95756768Y-109780952D01*
X95756153Y-109782423D01*
X95741716Y-109821399D01*
X95740387Y-109835604D01*
X95493433Y-109835604D01*
X95509115Y-109796800D01*
X95556502Y-109679638D01*
X95609483Y-109548802D01*
X95664053Y-109414172D01*
X95716209Y-109285625D01*
X95761945Y-109173042D01*
X95767446Y-109159515D01*
X95802934Y-109071952D01*
X95834181Y-108994255D01*
X95859667Y-108930259D01*
X95877867Y-108883801D01*
X95887259Y-108858717D01*
X95888175Y-108855389D01*
X95877438Y-108865274D01*
X95849351Y-108892771D01*
X95807169Y-108934647D01*
X95754151Y-108987668D01*
X95693554Y-109048600D01*
X95692672Y-109049489D01*
X95500133Y-109243589D01*
X95343589Y-109661405D01*
X95304276Y-109766341D01*
X95268164Y-109862744D01*
X95236572Y-109947099D01*
X95210814Y-110015889D01*
X95192208Y-110065601D01*
X95182070Y-110092719D01*
X95180709Y-110096375D01*
X92684925Y-110096375D01*
X92802256Y-110001693D01*
X93268814Y-109640342D01*
X93488162Y-109475944D01*
X93584119Y-109404708D01*
X93672833Y-109338622D01*
X93751483Y-109279806D01*
X93817248Y-109230378D01*
X93867309Y-109192456D01*
X93898845Y-109168158D01*
X93908811Y-109159984D01*
X93902922Y-109160125D01*
X93875757Y-109172011D01*
X93831866Y-109193520D01*
X93784230Y-109218087D01*
X93718763Y-109252409D01*
X93636685Y-109295324D01*
X93547402Y-109341920D01*
X93460319Y-109387285D01*
X93439798Y-109397960D01*
X93357934Y-109440869D01*
X93274638Y-109485109D01*
X93198197Y-109526240D01*
X93136897Y-109559827D01*
X93121866Y-109568237D01*
X93055388Y-109603479D01*
X92983787Y-109637932D01*
X92921158Y-109664859D01*
X92913850Y-109667666D01*
X92880838Y-109680478D01*
X92852922Y-109693342D01*
X92826966Y-109709234D01*
X92799834Y-109731131D01*
X92768390Y-109762008D01*
X92729499Y-109804842D01*
X92680024Y-109862608D01*
X92616831Y-109938284D01*
X92572884Y-109991281D01*
X92477114Y-110107261D01*
X92390320Y-110213168D01*
X92313849Y-110307308D01*
X92249047Y-110387991D01*
X92197259Y-110453523D01*
X92159832Y-110502212D01*
X92138110Y-110532367D01*
X92133441Y-110542294D01*
X90995472Y-110542294D01*
X90997066Y-110539631D01*
X91016023Y-110498873D01*
X91038262Y-110437731D01*
X91064373Y-110354284D01*
X91094945Y-110246613D01*
X91130567Y-110112797D01*
X91144086Y-110060408D01*
X91246584Y-109660523D01*
X91286082Y-109617305D01*
X92286287Y-109617305D01*
X92290088Y-109616836D01*
X92305867Y-109601766D01*
X92334930Y-109570779D01*
X92378586Y-109522559D01*
X92438140Y-109455791D01*
X92514899Y-109369160D01*
X92573688Y-109302649D01*
X92625766Y-109243703D01*
X93051396Y-109243703D01*
X93061141Y-109241252D01*
X93086825Y-109223242D01*
X93123122Y-109194287D01*
X93164704Y-109159003D01*
X93206247Y-109122006D01*
X93242423Y-109087912D01*
X93267906Y-109061337D01*
X93277205Y-109048024D01*
X93284020Y-109025264D01*
X93297534Y-108980790D01*
X93315826Y-108920905D01*
X93336975Y-108851913D01*
X93338157Y-108848061D01*
X93392169Y-108672181D01*
X93431528Y-108635539D01*
X94356679Y-108635539D01*
X94360788Y-108646075D01*
X94377610Y-108652105D01*
X94412280Y-108654320D01*
X94469930Y-108653408D01*
X94485898Y-108652867D01*
X94616024Y-108648209D01*
X94624603Y-108696837D01*
X94629466Y-108728015D01*
X94637222Y-108781936D01*
X94646987Y-108852272D01*
X94657875Y-108932698D01*
X94663839Y-108977548D01*
X94694495Y-109209631D01*
X94829293Y-109412523D01*
X94874451Y-109479158D01*
X94914269Y-109535396D01*
X94945920Y-109577443D01*
X94966572Y-109601503D01*
X94973124Y-109605482D01*
X94979697Y-109589074D01*
X94993050Y-109548688D01*
X95011880Y-109488521D01*
X95034884Y-109412772D01*
X95060757Y-109325640D01*
X95072343Y-109286052D01*
X95162528Y-108976553D01*
X95139299Y-108882994D01*
X95129272Y-108826311D01*
X95120961Y-108748199D01*
X95114595Y-108655972D01*
X95113011Y-108618556D01*
X95346843Y-108618556D01*
X95351478Y-108656756D01*
X95353193Y-108664853D01*
X95369256Y-108728462D01*
X95387871Y-108790765D01*
X95406862Y-108845699D01*
X95424055Y-108887202D01*
X95437275Y-108909213D01*
X95441520Y-108911093D01*
X95455327Y-108900094D01*
X95487103Y-108871617D01*
X95533737Y-108828552D01*
X95592116Y-108773789D01*
X95659129Y-108710217D01*
X95702651Y-108668601D01*
X95950922Y-108430515D01*
X96053900Y-108118976D01*
X96086076Y-108021037D01*
X96087423Y-108016891D01*
X96365245Y-108016891D01*
X96374742Y-108095453D01*
X96401439Y-108166820D01*
X96407600Y-108177519D01*
X96431102Y-108212145D01*
X96443892Y-108223840D01*
X96443636Y-108212445D01*
X96428606Y-108178956D01*
X96408794Y-108111997D01*
X96407946Y-108032130D01*
X96423929Y-107946799D01*
X96454612Y-107863448D01*
X96497860Y-107789520D01*
X96551541Y-107732459D01*
X96557941Y-107727568D01*
X96618741Y-107682856D01*
X96573008Y-107682856D01*
X96515474Y-107696427D01*
X96464807Y-107733706D01*
X96422728Y-107789542D01*
X96390960Y-107858785D01*
X96371225Y-107936285D01*
X96365245Y-108016891D01*
X96087423Y-108016891D01*
X96117096Y-107925526D01*
X96145066Y-107838359D01*
X96168090Y-107765452D01*
X96184274Y-107712721D01*
X96187413Y-107702066D01*
X96203615Y-107649051D01*
X96219169Y-107613465D01*
X96240695Y-107586564D01*
X96274813Y-107559604D01*
X96316524Y-107531521D01*
X96374612Y-107494591D01*
X96434018Y-107459190D01*
X96482346Y-107432693D01*
X96484317Y-107431700D01*
X96523165Y-107410862D01*
X96548461Y-107394629D01*
X96553937Y-107388801D01*
X96544612Y-107374385D01*
X96520911Y-107348702D01*
X96512480Y-107340446D01*
X96470620Y-107300342D01*
X96208354Y-107429308D01*
X95946088Y-107558275D01*
X95890107Y-107748811D01*
X95867026Y-107827389D01*
X95838375Y-107924968D01*
X95806832Y-108032421D01*
X95775077Y-108140621D01*
X95752424Y-108217824D01*
X95726619Y-108304139D01*
X95702708Y-108381070D01*
X95682177Y-108444067D01*
X95666516Y-108488584D01*
X95657212Y-108510072D01*
X95656527Y-108510958D01*
X95647796Y-108513571D01*
X95650457Y-108496301D01*
X95653788Y-108472349D01*
X95657856Y-108424634D01*
X95662280Y-108358685D01*
X95666679Y-108280029D01*
X95669654Y-108217824D01*
X95673405Y-108134761D01*
X95676819Y-108061678D01*
X95679648Y-108003708D01*
X95681642Y-107965984D01*
X95682447Y-107954004D01*
X95681866Y-107936482D01*
X95673084Y-107934370D01*
X95654224Y-107949446D01*
X95623410Y-107983489D01*
X95578765Y-108038276D01*
X95536266Y-108092514D01*
X95399777Y-108268400D01*
X95369033Y-108433649D01*
X95355131Y-108514163D01*
X95347897Y-108573411D01*
X95346843Y-108618556D01*
X95113011Y-108618556D01*
X95110403Y-108556940D01*
X95108614Y-108458415D01*
X95109456Y-108367707D01*
X95113159Y-108292130D01*
X95119243Y-108242480D01*
X95129911Y-108206595D01*
X95151410Y-108149371D01*
X95181664Y-108075786D01*
X95218595Y-107990818D01*
X95260127Y-107899447D01*
X95280185Y-107856676D01*
X95328549Y-107752734D01*
X95367133Y-107665909D01*
X95395042Y-107598376D01*
X95411383Y-107552313D01*
X95415261Y-107529894D01*
X95414915Y-107529011D01*
X95398727Y-107507675D01*
X95368539Y-107473846D01*
X95329196Y-107432362D01*
X95285547Y-107388057D01*
X95242437Y-107345770D01*
X95204715Y-107310337D01*
X95177228Y-107286594D01*
X95164823Y-107279378D01*
X95164778Y-107279418D01*
X95155498Y-107294350D01*
X95134899Y-107330560D01*
X95105518Y-107383493D01*
X95069891Y-107448597D01*
X95045896Y-107492856D01*
X94934778Y-107698530D01*
X94751569Y-107798795D01*
X94568361Y-107899060D01*
X94462974Y-108256307D01*
X94434181Y-108354630D01*
X94408316Y-108444337D01*
X94386509Y-108521387D01*
X94369895Y-108581742D01*
X94359604Y-108621360D01*
X94356679Y-108635539D01*
X93431528Y-108635539D01*
X93506953Y-108565322D01*
X93560618Y-108512588D01*
X93611792Y-108457404D01*
X93656295Y-108404832D01*
X93689948Y-108359932D01*
X93708572Y-108327764D01*
X93710946Y-108318322D01*
X93700797Y-108322608D01*
X93674328Y-108341669D01*
X93641327Y-108368063D01*
X93600334Y-108400869D01*
X93543833Y-108444536D01*
X93480068Y-108492748D01*
X93431361Y-108528884D01*
X93291014Y-108632004D01*
X93171205Y-108933130D01*
X93136384Y-109021057D01*
X93105543Y-109099719D01*
X93080238Y-109165081D01*
X93062026Y-109213108D01*
X93052463Y-109239763D01*
X93051396Y-109243703D01*
X92625766Y-109243703D01*
X92792172Y-109055351D01*
X92890522Y-108816856D01*
X92988872Y-108578360D01*
X92955432Y-108546945D01*
X92943108Y-108534703D01*
X92933382Y-108526814D01*
X92924266Y-108526269D01*
X92913771Y-108536060D01*
X92899906Y-108559179D01*
X92880684Y-108598617D01*
X92854115Y-108657366D01*
X92818209Y-108738418D01*
X92798423Y-108783083D01*
X92766414Y-108852886D01*
X92732916Y-108920491D01*
X92695824Y-108989348D01*
X92653030Y-109062909D01*
X92602427Y-109144624D01*
X92541908Y-109237946D01*
X92469366Y-109346324D01*
X92382693Y-109473211D01*
X92333690Y-109544253D01*
X92309395Y-109579697D01*
X92293159Y-109604486D01*
X92286287Y-109617305D01*
X91286082Y-109617305D01*
X91322400Y-109577567D01*
X91351127Y-109546059D01*
X91371765Y-109520215D01*
X91384798Y-109494964D01*
X91390706Y-109465231D01*
X91389973Y-109425943D01*
X91383079Y-109372028D01*
X91370508Y-109298412D01*
X91356365Y-109220142D01*
X91344988Y-109159511D01*
X91335372Y-109121402D01*
X91324210Y-109099462D01*
X91308197Y-109087342D01*
X91284023Y-109078689D01*
X91282458Y-109078208D01*
X91250803Y-109070815D01*
X91224652Y-109073847D01*
X91193472Y-109090207D01*
X91163036Y-109111129D01*
X91108629Y-109146740D01*
X91046209Y-109183240D01*
X91015155Y-109199680D01*
X90935578Y-109239621D01*
X90765992Y-109187563D01*
X90556919Y-109123246D01*
X90374461Y-109066812D01*
X90217138Y-109017786D01*
X90083469Y-108975696D01*
X89971971Y-108940069D01*
X89881164Y-108910430D01*
X89809565Y-108886306D01*
X89755695Y-108867225D01*
X89718070Y-108852712D01*
X89717918Y-108852649D01*
X89652254Y-108828240D01*
X89596917Y-108815742D01*
X89572969Y-108814348D01*
X91586378Y-108814348D01*
X91588887Y-108835530D01*
X91596139Y-108880063D01*
X91607114Y-108942554D01*
X91620796Y-109017610D01*
X91636167Y-109099842D01*
X91652209Y-109183856D01*
X91667905Y-109264260D01*
X91682236Y-109335664D01*
X91694186Y-109392674D01*
X91702009Y-109426999D01*
X91713788Y-109475669D01*
X91724212Y-109520333D01*
X91732503Y-109548245D01*
X91739216Y-109556872D01*
X91739282Y-109556809D01*
X91739254Y-109540807D01*
X91733936Y-109503968D01*
X91724463Y-109454056D01*
X91723772Y-109450743D01*
X91714264Y-109399143D01*
X91702705Y-109326886D01*
X91690370Y-109242437D01*
X91678531Y-109154265D01*
X91675128Y-109127228D01*
X91660045Y-109017775D01*
X91645029Y-108935056D01*
X91629551Y-108876498D01*
X91617288Y-108846828D01*
X91599524Y-108818066D01*
X91588309Y-108809344D01*
X91586378Y-108814348D01*
X89572969Y-108814348D01*
X89536945Y-108812251D01*
X89511812Y-108812626D01*
X89461190Y-108812694D01*
X89419330Y-108808250D01*
X89398827Y-108802807D01*
X92376344Y-108802807D01*
X92387989Y-108786839D01*
X92412889Y-108750293D01*
X92448357Y-108697192D01*
X92491709Y-108631559D01*
X92540258Y-108557417D01*
X92544590Y-108550772D01*
X92700127Y-108312109D01*
X92659576Y-108276867D01*
X92632143Y-108255100D01*
X92617576Y-108252234D01*
X92607945Y-108266367D01*
X92546323Y-108404410D01*
X92493186Y-108524369D01*
X92449152Y-108624810D01*
X92414840Y-108704299D01*
X92390870Y-108761402D01*
X92377861Y-108794684D01*
X92376344Y-108802807D01*
X89398827Y-108802807D01*
X89376952Y-108797000D01*
X89324777Y-108776650D01*
X89272279Y-108753423D01*
X89245533Y-108741553D01*
X91918535Y-108741553D01*
X91918631Y-108741800D01*
X91927688Y-108750949D01*
X91939163Y-108744757D01*
X91955081Y-108720148D01*
X91977465Y-108674045D01*
X92005730Y-108609495D01*
X92032028Y-108548808D01*
X92067151Y-108468968D01*
X92107763Y-108377493D01*
X92150528Y-108281900D01*
X92185588Y-108204111D01*
X92216949Y-108134003D01*
X93104984Y-108134003D01*
X93105065Y-108147379D01*
X93118391Y-108173093D01*
X93138223Y-108201570D01*
X93156339Y-108221685D01*
X93162538Y-108225153D01*
X93170652Y-108213071D01*
X93189979Y-108180042D01*
X93217762Y-108130887D01*
X93251243Y-108070429D01*
X93256815Y-108060265D01*
X93292326Y-107996462D01*
X93324091Y-107941326D01*
X93348851Y-107900387D01*
X93363345Y-107879172D01*
X93364131Y-107878321D01*
X93381331Y-107866662D01*
X93420458Y-107843100D01*
X93477730Y-107809817D01*
X93549368Y-107768993D01*
X93631589Y-107722811D01*
X93688957Y-107690930D01*
X93776029Y-107642400D01*
X93854962Y-107597756D01*
X93921975Y-107559189D01*
X93973290Y-107528889D01*
X94005126Y-107509046D01*
X94013584Y-107502793D01*
X94024386Y-107486033D01*
X94046791Y-107447443D01*
X94078588Y-107391048D01*
X94117564Y-107320871D01*
X94161505Y-107240935D01*
X94208198Y-107155264D01*
X94255431Y-107067880D01*
X94300990Y-106982809D01*
X94337768Y-106913381D01*
X94338341Y-106907693D01*
X94324182Y-106921944D01*
X94298080Y-106952571D01*
X94262824Y-106996013D01*
X94221201Y-107048706D01*
X94176000Y-107107088D01*
X94130009Y-107167596D01*
X94086015Y-107226667D01*
X94046808Y-107280739D01*
X94018449Y-107321403D01*
X93945728Y-107428582D01*
X93616417Y-107596025D01*
X93287106Y-107763468D01*
X93191379Y-107942186D01*
X93146815Y-108028826D01*
X93117920Y-108092995D01*
X93104984Y-108134003D01*
X92216949Y-108134003D01*
X92221922Y-108122886D01*
X92253370Y-108050805D01*
X92278153Y-107992090D01*
X92294495Y-107950969D01*
X92300616Y-107931664D01*
X92300557Y-107930943D01*
X92290535Y-107937636D01*
X92266128Y-107963413D01*
X92230953Y-108004226D01*
X92188626Y-108056022D01*
X92186653Y-108058494D01*
X92076728Y-108196336D01*
X91994713Y-108463572D01*
X91969433Y-108547465D01*
X91947939Y-108621728D01*
X91931468Y-108681844D01*
X91921255Y-108723291D01*
X91918535Y-108741553D01*
X89245533Y-108741553D01*
X89209190Y-108725424D01*
X89163982Y-108707974D01*
X89127986Y-108699199D01*
X89092531Y-108697225D01*
X89048949Y-108700177D01*
X89033148Y-108701728D01*
X88973418Y-108710059D01*
X88942199Y-108720140D01*
X88937738Y-108728727D01*
X88953910Y-108768932D01*
X88979065Y-108831882D01*
X89012334Y-108915383D01*
X89052848Y-109017241D01*
X89099739Y-109135260D01*
X89152137Y-109267246D01*
X89209173Y-109411005D01*
X89269979Y-109564341D01*
X89333686Y-109725060D01*
X89399424Y-109890968D01*
X89466325Y-110059869D01*
X89533521Y-110229570D01*
X89600141Y-110397874D01*
X89665318Y-110562588D01*
X89728181Y-110721518D01*
X89787864Y-110872467D01*
X89843495Y-111013242D01*
X89894208Y-111141648D01*
X89939132Y-111255491D01*
X89977398Y-111352575D01*
X90008139Y-111430706D01*
X90030485Y-111487689D01*
X90043566Y-111521330D01*
X90046780Y-111529953D01*
X90032780Y-111532039D01*
X89993403Y-111533905D01*
X89932587Y-111535472D01*
X89854269Y-111536656D01*
X89762386Y-111537374D01*
X89682678Y-111537559D01*
X89318577Y-111537559D01*
X89221722Y-111292060D01*
X89097077Y-110976136D01*
X88982765Y-110686443D01*
X88878375Y-110421939D01*
X88783493Y-110181582D01*
X88697708Y-109964331D01*
X88620606Y-109769145D01*
X88551776Y-109594981D01*
X88490803Y-109440798D01*
X88437276Y-109305555D01*
X88390783Y-109188209D01*
X88350909Y-109087719D01*
X88317244Y-109003044D01*
X88289374Y-108933142D01*
X88266887Y-108876971D01*
X88249370Y-108833489D01*
X88236411Y-108801656D01*
X88227596Y-108780429D01*
X88222514Y-108768766D01*
X88221095Y-108765945D01*
X88205402Y-108765365D01*
X88174682Y-108777885D01*
X88161538Y-108785146D01*
X88109198Y-108816027D01*
X87982403Y-108755562D01*
X87855609Y-108695098D01*
X87320640Y-108688641D01*
X86785672Y-108682184D01*
X86499867Y-108532240D01*
X86407120Y-108483522D01*
X86376783Y-108467552D01*
X89199585Y-108467552D01*
X89205917Y-108463896D01*
X89208753Y-108459659D01*
X89219269Y-108433453D01*
X89231151Y-108389778D01*
X89238125Y-108357063D01*
X89245087Y-108316417D01*
X89564112Y-108316417D01*
X89566442Y-108321804D01*
X89571171Y-108326622D01*
X89602937Y-108340837D01*
X89663527Y-108349767D01*
X89752932Y-108353410D01*
X89753647Y-108353417D01*
X89789740Y-108353439D01*
X89803849Y-108352114D01*
X89794140Y-108348641D01*
X89758778Y-108342221D01*
X89709677Y-108334249D01*
X89641087Y-108323390D01*
X89596951Y-108316963D01*
X89572787Y-108314721D01*
X89564112Y-108316417D01*
X89245087Y-108316417D01*
X89251248Y-108280451D01*
X89260346Y-108212062D01*
X89264979Y-108157063D01*
X89264707Y-108120624D01*
X89259342Y-108107899D01*
X89252492Y-108121473D01*
X89244035Y-108158138D01*
X89235190Y-108211806D01*
X89229203Y-108258130D01*
X89221000Y-108325412D01*
X89212975Y-108385147D01*
X89206269Y-108429119D01*
X89203241Y-108445003D01*
X89199585Y-108467552D01*
X86376783Y-108467552D01*
X86314729Y-108434885D01*
X86228811Y-108389557D01*
X86155480Y-108350763D01*
X86100850Y-108321730D01*
X86099682Y-108321106D01*
X88041467Y-108321106D01*
X88045197Y-108354433D01*
X88047178Y-108367549D01*
X88056512Y-108425920D01*
X88254496Y-108370311D01*
X88326375Y-108349777D01*
X88387645Y-108331619D01*
X88433008Y-108317458D01*
X88457164Y-108308914D01*
X88459582Y-108307599D01*
X88455937Y-108292722D01*
X88439057Y-108261859D01*
X88421128Y-108234280D01*
X88375570Y-108168063D01*
X88210857Y-108235860D01*
X88147139Y-108262169D01*
X88094180Y-108284190D01*
X88057364Y-108299673D01*
X88042079Y-108306367D01*
X88041995Y-108306419D01*
X88041467Y-108321106D01*
X86099682Y-108321106D01*
X86093145Y-108317613D01*
X85972227Y-108252931D01*
X85972227Y-108053143D01*
X87745805Y-108053143D01*
X87752667Y-108069909D01*
X87769293Y-108099605D01*
X87789510Y-108132215D01*
X87807148Y-108157724D01*
X87815547Y-108166345D01*
X87829361Y-108160249D01*
X87864264Y-108143473D01*
X87915153Y-108118502D01*
X87976925Y-108087822D01*
X87977640Y-108087465D01*
X90296836Y-108087465D01*
X90299161Y-108099829D01*
X90321110Y-108112752D01*
X90353444Y-108121673D01*
X90369227Y-108123178D01*
X90395370Y-108126286D01*
X90444678Y-108134220D01*
X90511583Y-108146006D01*
X90590516Y-108160671D01*
X90655032Y-108173125D01*
X90739360Y-108189353D01*
X90815866Y-108203492D01*
X90878986Y-108214558D01*
X90923158Y-108221568D01*
X90940621Y-108223578D01*
X90959373Y-108223043D01*
X90962892Y-108216124D01*
X90949242Y-108198187D01*
X90916491Y-108164597D01*
X90915659Y-108163765D01*
X90854272Y-108102377D01*
X90579240Y-108091235D01*
X90492516Y-108088111D01*
X90416234Y-108086104D01*
X90355079Y-108085278D01*
X90313737Y-108085693D01*
X90296893Y-108087414D01*
X90296836Y-108087465D01*
X87977640Y-108087465D01*
X87984099Y-108084239D01*
X88046936Y-108052681D01*
X88099533Y-108025978D01*
X88136729Y-108006770D01*
X88153362Y-107997700D01*
X88153698Y-107997449D01*
X88149739Y-107983481D01*
X88134269Y-107952378D01*
X88119214Y-107925647D01*
X88079773Y-107858346D01*
X87967691Y-107920305D01*
X87908538Y-107952948D01*
X87851978Y-107984066D01*
X87808285Y-108008006D01*
X87800767Y-108012104D01*
X87766995Y-108032853D01*
X87747608Y-108049357D01*
X87745805Y-108053143D01*
X85972227Y-108053143D01*
X85972227Y-107814935D01*
X87630435Y-107814935D01*
X87634297Y-107829321D01*
X87634958Y-107829423D01*
X87650971Y-107822740D01*
X87667984Y-107814212D01*
X88291414Y-107814212D01*
X88315231Y-107880444D01*
X88339048Y-107946676D01*
X88430060Y-107946676D01*
X88521072Y-107946676D01*
X88501748Y-107900718D01*
X88484506Y-107867189D01*
X88462269Y-107846288D01*
X88427105Y-107833498D01*
X88371085Y-107824300D01*
X88366644Y-107823732D01*
X88352001Y-107821879D01*
X89434454Y-107821879D01*
X89436069Y-107836374D01*
X89445084Y-107864032D01*
X89469113Y-107896603D01*
X89493128Y-107904024D01*
X89519726Y-107905867D01*
X89568937Y-107909976D01*
X89634201Y-107915780D01*
X89708956Y-107922708D01*
X89724333Y-107924166D01*
X89833921Y-107934228D01*
X89917083Y-107940911D01*
X89976508Y-107944262D01*
X90014881Y-107944328D01*
X90034892Y-107941154D01*
X90039227Y-107934788D01*
X90035530Y-107929563D01*
X90018084Y-107923433D01*
X89977336Y-107913739D01*
X89918572Y-107901427D01*
X89847079Y-107887446D01*
X89768144Y-107872742D01*
X89687053Y-107858262D01*
X89609094Y-107844953D01*
X89539553Y-107833763D01*
X89483717Y-107825639D01*
X89446873Y-107821527D01*
X89434454Y-107821879D01*
X88352001Y-107821879D01*
X88291414Y-107814212D01*
X87667984Y-107814212D01*
X87687395Y-107804482D01*
X87739034Y-107777336D01*
X87800689Y-107743991D01*
X87809006Y-107739431D01*
X87870846Y-107705429D01*
X87922486Y-107676965D01*
X87958989Y-107656764D01*
X87975420Y-107647551D01*
X87975839Y-107647293D01*
X87974478Y-107632890D01*
X87966099Y-107600875D01*
X87953854Y-107561119D01*
X87940896Y-107523493D01*
X87938787Y-107518356D01*
X88187151Y-107518356D01*
X88188163Y-107531722D01*
X88191718Y-107559877D01*
X88200731Y-107578353D01*
X88221474Y-107592154D01*
X88260217Y-107606280D01*
X88295309Y-107617175D01*
X88345583Y-107632004D01*
X88383478Y-107642137D01*
X88401691Y-107645638D01*
X88402240Y-107645500D01*
X88401930Y-107644226D01*
X91679551Y-107644226D01*
X91683610Y-107684695D01*
X91691354Y-107744214D01*
X91701988Y-107817890D01*
X91714718Y-107900833D01*
X91728750Y-107988148D01*
X91743289Y-108074944D01*
X91757542Y-108156329D01*
X91770713Y-108227409D01*
X91782010Y-108283293D01*
X91790636Y-108319088D01*
X91793619Y-108327749D01*
X91802066Y-108342682D01*
X91809106Y-108342678D01*
X91816441Y-108323987D01*
X91825768Y-108282858D01*
X91834704Y-108237070D01*
X91846394Y-108178944D01*
X91858152Y-108136804D01*
X91874414Y-108102172D01*
X91899613Y-108066568D01*
X91938185Y-108021515D01*
X91960515Y-107996536D01*
X92010426Y-107940806D01*
X92059705Y-107885630D01*
X92100802Y-107839465D01*
X92116233Y-107822056D01*
X92123235Y-107814136D01*
X92679367Y-107814136D01*
X92737136Y-107864513D01*
X92771231Y-107891057D01*
X92796614Y-107905006D01*
X92804862Y-107905134D01*
X92813407Y-107889616D01*
X92832235Y-107851064D01*
X92859609Y-107793183D01*
X92893791Y-107719674D01*
X92933043Y-107634241D01*
X92967619Y-107558275D01*
X93010062Y-107464228D01*
X93048870Y-107377456D01*
X93082256Y-107302021D01*
X93108429Y-107241985D01*
X93119587Y-107215621D01*
X93317205Y-107215621D01*
X93317538Y-107221367D01*
X93324480Y-107221613D01*
X93340930Y-107214902D01*
X93369784Y-107199775D01*
X93413942Y-107174777D01*
X93476301Y-107138450D01*
X93559758Y-107089335D01*
X93603372Y-107063616D01*
X93645671Y-107038577D01*
X93681090Y-107016532D01*
X93712204Y-106994647D01*
X93741587Y-106970087D01*
X93771814Y-106940019D01*
X93805459Y-106901607D01*
X93845096Y-106852019D01*
X93893301Y-106788420D01*
X93952648Y-106707976D01*
X94025711Y-106607852D01*
X94059379Y-106561621D01*
X94119898Y-106472915D01*
X94163071Y-106397312D01*
X94187786Y-106337123D01*
X94192928Y-106294656D01*
X94191369Y-106288059D01*
X94180335Y-106293392D01*
X94152669Y-106317235D01*
X94111583Y-106356524D01*
X94060285Y-106408191D01*
X94003915Y-106467121D01*
X93906985Y-106566788D01*
X93819441Y-106648948D01*
X93733939Y-106720164D01*
X93656177Y-106777846D01*
X93589723Y-106825240D01*
X93541692Y-106861783D01*
X93506462Y-106893393D01*
X93478414Y-106925991D01*
X93451928Y-106965494D01*
X93421384Y-107017824D01*
X93411153Y-107035910D01*
X93377615Y-107096145D01*
X93348891Y-107149278D01*
X93328488Y-107188729D01*
X93320584Y-107205833D01*
X93317205Y-107215621D01*
X93119587Y-107215621D01*
X93125602Y-107201409D01*
X93131580Y-107185942D01*
X93133207Y-107172558D01*
X93123748Y-107172013D01*
X93099985Y-107185980D01*
X93058702Y-107216138D01*
X93027450Y-107240164D01*
X92954550Y-107296793D01*
X92900393Y-107340548D01*
X92860870Y-107376916D01*
X92831873Y-107411381D01*
X92809292Y-107449430D01*
X92789019Y-107496547D01*
X92766944Y-107558219D01*
X92748241Y-107612922D01*
X92679367Y-107814136D01*
X92123235Y-107814136D01*
X92170395Y-107760789D01*
X92097912Y-107689396D01*
X92061408Y-107649851D01*
X92035368Y-107614793D01*
X92025430Y-107591810D01*
X92025430Y-107591803D01*
X92020332Y-107569776D01*
X92014437Y-107565733D01*
X91990287Y-107568377D01*
X91946820Y-107575143D01*
X91891177Y-107584705D01*
X91830498Y-107595743D01*
X91771923Y-107606933D01*
X91722593Y-107616951D01*
X91689646Y-107624476D01*
X91679970Y-107627700D01*
X91679551Y-107644226D01*
X88401930Y-107644226D01*
X88398923Y-107631852D01*
X88385699Y-107600289D01*
X88374226Y-107575848D01*
X88350249Y-107533459D01*
X88324401Y-107509690D01*
X88285927Y-107495225D01*
X88279125Y-107493464D01*
X88228445Y-107481732D01*
X88200136Y-107480324D01*
X88188328Y-107491709D01*
X88187151Y-107518356D01*
X87938787Y-107518356D01*
X87930377Y-107497866D01*
X87926337Y-107492320D01*
X87911343Y-107499313D01*
X87876648Y-107518257D01*
X87827735Y-107546096D01*
X87780873Y-107573411D01*
X87719513Y-107610295D01*
X87679468Y-107637068D01*
X87656326Y-107657663D01*
X87645670Y-107676013D01*
X87643087Y-107696049D01*
X87643087Y-107696160D01*
X87640019Y-107742540D01*
X87633927Y-107783621D01*
X87630435Y-107814935D01*
X85972227Y-107814935D01*
X85972227Y-107691108D01*
X85972227Y-107129285D01*
X86063831Y-107177596D01*
X86220532Y-107259868D01*
X86374705Y-107340111D01*
X86524092Y-107417195D01*
X86666433Y-107489990D01*
X86799468Y-107557368D01*
X86920936Y-107618199D01*
X87028579Y-107671355D01*
X87120137Y-107715706D01*
X87193350Y-107750122D01*
X87245958Y-107773475D01*
X87275702Y-107784636D01*
X87280265Y-107785453D01*
X87311584Y-107776524D01*
X87320874Y-107752263D01*
X87308325Y-107716460D01*
X87274663Y-107673457D01*
X87228687Y-107626021D01*
X87252959Y-107529392D01*
X87265597Y-107474095D01*
X87269860Y-107433344D01*
X87265821Y-107393616D01*
X87261589Y-107375542D01*
X87542378Y-107375542D01*
X87544923Y-107400491D01*
X87547518Y-107404380D01*
X87562757Y-107397473D01*
X87598336Y-107378578D01*
X87649247Y-107350426D01*
X87710480Y-107315753D01*
X87722784Y-107308701D01*
X87803915Y-107260829D01*
X87853669Y-107227870D01*
X88074961Y-107227870D01*
X88079728Y-107265409D01*
X88094381Y-107297669D01*
X88115118Y-107326563D01*
X88139100Y-107339333D01*
X88166732Y-107326841D01*
X88194172Y-107292163D01*
X88214726Y-107246825D01*
X88231221Y-107201946D01*
X88244949Y-107167991D01*
X88250441Y-107156668D01*
X88267899Y-107154950D01*
X88306057Y-107167397D01*
X88358032Y-107191297D01*
X88405622Y-107214475D01*
X88441809Y-107230608D01*
X88459881Y-107236739D01*
X88460691Y-107236554D01*
X88455105Y-107223391D01*
X88436408Y-107192571D01*
X88408434Y-107150357D01*
X88403744Y-107143529D01*
X88368581Y-107095820D01*
X88336286Y-107063019D01*
X88296978Y-107037203D01*
X88240777Y-107010447D01*
X88234311Y-107007616D01*
X88183689Y-106986409D01*
X88144648Y-106971687D01*
X88123789Y-106965883D01*
X88122076Y-106966224D01*
X88117688Y-106982212D01*
X88109259Y-107020313D01*
X88098232Y-107073845D01*
X88091828Y-107106195D01*
X88079265Y-107177363D01*
X88074961Y-107227870D01*
X87853669Y-107227870D01*
X87861865Y-107222441D01*
X87899668Y-107189911D01*
X87920362Y-107159616D01*
X87926984Y-107127932D01*
X87922571Y-107091234D01*
X87918582Y-107075032D01*
X87906129Y-107035966D01*
X87894660Y-107012107D01*
X87890431Y-107008650D01*
X87875722Y-107017166D01*
X87842370Y-107040570D01*
X87794787Y-107075649D01*
X87737384Y-107119187D01*
X87713927Y-107137270D01*
X87547819Y-107265891D01*
X87543351Y-107335135D01*
X87542378Y-107375542D01*
X87261589Y-107375542D01*
X87253961Y-107342959D01*
X87242875Y-107289952D01*
X87237815Y-107243906D01*
X87239123Y-107219561D01*
X87253084Y-107197536D01*
X87285097Y-107161710D01*
X87330543Y-107116864D01*
X87384803Y-107067781D01*
X87390359Y-107062976D01*
X87445883Y-107014698D01*
X87494238Y-106971803D01*
X87530536Y-106938684D01*
X87549889Y-106919738D01*
X87550699Y-106918798D01*
X87555756Y-106904759D01*
X87551486Y-106881829D01*
X87536165Y-106845638D01*
X87508067Y-106791818D01*
X87482429Y-106745830D01*
X87459897Y-106705328D01*
X87440624Y-106671116D01*
X87422216Y-106641677D01*
X87402277Y-106615492D01*
X87378411Y-106591043D01*
X87348221Y-106566814D01*
X87309313Y-106541287D01*
X87259289Y-106512942D01*
X87195755Y-106480264D01*
X87116313Y-106441733D01*
X87018569Y-106395833D01*
X86900126Y-106341045D01*
X86758589Y-106275852D01*
X86692255Y-106245268D01*
X86597998Y-106200777D01*
X86507963Y-106156435D01*
X86427211Y-106114875D01*
X86360803Y-106078733D01*
X86313799Y-106050643D01*
X86300103Y-106041162D01*
X86287148Y-106029312D01*
X87914019Y-106029312D01*
X87917235Y-106044030D01*
X87929925Y-106079769D01*
X87949906Y-106130653D01*
X87967603Y-106173422D01*
X87995598Y-106240590D01*
X88030249Y-106324941D01*
X88067439Y-106416396D01*
X88103053Y-106504875D01*
X88108158Y-106517651D01*
X88136911Y-106589405D01*
X88161762Y-106650876D01*
X88180733Y-106697215D01*
X88191846Y-106723573D01*
X88193835Y-106727739D01*
X88208740Y-106733227D01*
X88245681Y-106743955D01*
X88298242Y-106758109D01*
X88332607Y-106766982D01*
X88399318Y-106785810D01*
X88452694Y-106806929D01*
X88497474Y-106834504D01*
X88538395Y-106872699D01*
X88580192Y-106925683D01*
X88627604Y-106997618D01*
X88665746Y-107059948D01*
X88710050Y-107130031D01*
X88757084Y-107198692D01*
X88800967Y-107257644D01*
X88833208Y-107295871D01*
X88870221Y-107336521D01*
X88891265Y-107366794D01*
X88900842Y-107397290D01*
X88903455Y-107438610D01*
X88903560Y-107461475D01*
X88903560Y-107552379D01*
X88965851Y-107580362D01*
X89028142Y-107608344D01*
X89037673Y-107575981D01*
X89042232Y-107546741D01*
X89045995Y-107497347D01*
X89048328Y-107436959D01*
X89048666Y-107417145D01*
X89050127Y-107290672D01*
X88928686Y-107131340D01*
X88787412Y-106946496D01*
X88661237Y-106782468D01*
X88550478Y-106639657D01*
X88455452Y-106518466D01*
X88376476Y-106419298D01*
X88313870Y-106342553D01*
X88267949Y-106288634D01*
X88239031Y-106257944D01*
X88238452Y-106257407D01*
X88205681Y-106229646D01*
X88160253Y-106194356D01*
X88107382Y-106155200D01*
X88052281Y-106115844D01*
X88000161Y-106079952D01*
X87956236Y-106051190D01*
X87925719Y-106033221D01*
X87914019Y-106029312D01*
X86287148Y-106029312D01*
X86194210Y-105944298D01*
X86108759Y-105828461D01*
X86042670Y-105691968D01*
X86008362Y-105586953D01*
X86000557Y-105554092D01*
X85994236Y-105515954D01*
X85989179Y-105468850D01*
X85985166Y-105409091D01*
X85981979Y-105332988D01*
X85979399Y-105236853D01*
X85977207Y-105116997D01*
X85976155Y-105044657D01*
X85974538Y-104915801D01*
X85973699Y-104812105D01*
X85973810Y-104729419D01*
X85975043Y-104663594D01*
X85977572Y-104610483D01*
X85981567Y-104565936D01*
X85987202Y-104525805D01*
X85994649Y-104485943D01*
X86000504Y-104458390D01*
X86054298Y-104278099D01*
X86133550Y-104112032D01*
X86237827Y-103961013D01*
X86296873Y-103893867D01*
X86352686Y-103834998D01*
X86326107Y-103747300D01*
X86316405Y-103716884D01*
X86303774Y-103680497D01*
X86287279Y-103635793D01*
X86265983Y-103580428D01*
X86238950Y-103512058D01*
X86205244Y-103428337D01*
X86163928Y-103326922D01*
X86114067Y-103205468D01*
X86054724Y-103061630D01*
X85986271Y-102896219D01*
X85878875Y-102636322D01*
X85782543Y-102401740D01*
X85696662Y-102190899D01*
X85620620Y-102002226D01*
X85553806Y-101834147D01*
X85495608Y-101685088D01*
X85445413Y-101553476D01*
X85402611Y-101437738D01*
X85366589Y-101336300D01*
X85336735Y-101247588D01*
X85312438Y-101170030D01*
X85304225Y-101142077D01*
X85249532Y-100911701D01*
X85221528Y-100693345D01*
X85221135Y-100631807D01*
X86477882Y-100631807D01*
X86605067Y-100632404D01*
X86703096Y-100635731D01*
X86802410Y-100644129D01*
X86894710Y-100656549D01*
X86971702Y-100671945D01*
X87011317Y-100683667D01*
X87048462Y-100696553D01*
X87073243Y-100704045D01*
X87075835Y-100704575D01*
X87090906Y-100696603D01*
X87124570Y-100673513D01*
X87172483Y-100638442D01*
X87230304Y-100594527D01*
X87258753Y-100572438D01*
X87486257Y-100403222D01*
X87712745Y-100252989D01*
X87943760Y-100118837D01*
X88184849Y-99997865D01*
X88441556Y-99887170D01*
X88719426Y-99783852D01*
X88849272Y-99740161D01*
X89186802Y-99639153D01*
X89542737Y-99551007D01*
X89919297Y-99475275D01*
X90318702Y-99411507D01*
X90713658Y-99362429D01*
X90777774Y-99356064D01*
X90844676Y-99350790D01*
X90917730Y-99346514D01*
X91000296Y-99343144D01*
X91095740Y-99340587D01*
X91207422Y-99338752D01*
X91338708Y-99337546D01*
X91492958Y-99336877D01*
X91651685Y-99336658D01*
X91837758Y-99336817D01*
X91999002Y-99337632D01*
X92139900Y-99339375D01*
X92264932Y-99342318D01*
X92378582Y-99346733D01*
X92485332Y-99352892D01*
X92589663Y-99361067D01*
X92696057Y-99371531D01*
X92808996Y-99384554D01*
X92932963Y-99400409D01*
X93072440Y-99419368D01*
X93117351Y-99425615D01*
X93227886Y-99441331D01*
X93318698Y-99455062D01*
X93399158Y-99468407D01*
X93478635Y-99482967D01*
X93566501Y-99500339D01*
X93623006Y-99511922D01*
X93645124Y-99514731D01*
X93640149Y-99508126D01*
X93637663Y-99506626D01*
X93612136Y-99496813D01*
X93562414Y-99482057D01*
X93492991Y-99463432D01*
X93408362Y-99442007D01*
X93313022Y-99418855D01*
X93211465Y-99395048D01*
X93108187Y-99371656D01*
X93007680Y-99349752D01*
X92914441Y-99330407D01*
X92832964Y-99314693D01*
X92831546Y-99314434D01*
X92580981Y-99271637D01*
X92339563Y-99236679D01*
X92101238Y-99209063D01*
X91859950Y-99188294D01*
X91609647Y-99173877D01*
X91344272Y-99165317D01*
X91057772Y-99162118D01*
X90970150Y-99162121D01*
X90807121Y-99162799D01*
X90668322Y-99164151D01*
X90548674Y-99166366D01*
X90443099Y-99169632D01*
X90346516Y-99174139D01*
X90253847Y-99180075D01*
X90160013Y-99187629D01*
X90076803Y-99195342D01*
X89630399Y-99248464D01*
X89205525Y-99319051D01*
X88802481Y-99406986D01*
X88421572Y-99512155D01*
X88063100Y-99634442D01*
X87727367Y-99773731D01*
X87414677Y-99929908D01*
X87125331Y-100102857D01*
X86859633Y-100292463D01*
X86617885Y-100498610D01*
X86591574Y-100523428D01*
X86477882Y-100631807D01*
X85221135Y-100631807D01*
X85220211Y-100487034D01*
X85245581Y-100292793D01*
X85297637Y-100110645D01*
X85340275Y-100010092D01*
X85422517Y-99865435D01*
X85527085Y-99729401D01*
X85655371Y-99600745D01*
X85808763Y-99478220D01*
X85988651Y-99360582D01*
X86186162Y-99251804D01*
X86504357Y-99103130D01*
X86847908Y-98968974D01*
X87216835Y-98849328D01*
X87611158Y-98744190D01*
X88030897Y-98653552D01*
X88476072Y-98577411D01*
X88946703Y-98515761D01*
X89174708Y-98491981D01*
X89252415Y-98486163D01*
X89354770Y-98481023D01*
X89477117Y-98476605D01*
X89614799Y-98472953D01*
X89763157Y-98470110D01*
X89917535Y-98468120D01*
X90073274Y-98467028D01*
X90225718Y-98466877D01*
X90370210Y-98467711D01*
G37*
D11*
%TO.C,D35*%
X129350000Y-85070000D02*
X129750000Y-84470000D01*
X129750000Y-84070000D02*
X129750000Y-84470000D01*
X129750000Y-84470000D02*
X129200000Y-84470000D01*
X129750000Y-84470000D02*
X130150000Y-85070000D01*
X129750000Y-84470000D02*
X130300000Y-84470000D01*
X129750000Y-85070000D02*
X129750000Y-85570000D01*
X130150000Y-85070000D02*
X129350000Y-85070000D01*
D12*
%TO.C,PWR1*%
X166300000Y-91470000D02*
X166300000Y-91270000D01*
X166300000Y-94470000D02*
X166300000Y-92770000D01*
X167350000Y-96320000D02*
X168140000Y-96320000D01*
X168140000Y-89420000D02*
X167350000Y-89420000D01*
X169150000Y-95720000D02*
X169150000Y-90020000D01*
D11*
%TO.C,D25*%
X57350000Y-64750000D02*
X57750000Y-64150000D01*
X57750000Y-63750000D02*
X57750000Y-64150000D01*
X57750000Y-64150000D02*
X57200000Y-64150000D01*
X57750000Y-64150000D02*
X58150000Y-64750000D01*
X57750000Y-64150000D02*
X58300000Y-64150000D01*
X57750000Y-64750000D02*
X57750000Y-65250000D01*
X58150000Y-64750000D02*
X57350000Y-64750000D01*
%TO.C,D42*%
X139863125Y-106974954D02*
X140404787Y-106498926D01*
X140249495Y-107078481D02*
X140120086Y-107561444D01*
X140404787Y-106498926D02*
X139873526Y-106356575D01*
X140404787Y-106498926D02*
X140635866Y-107182009D01*
X140404787Y-106498926D02*
X140936046Y-106641276D01*
X140508314Y-106112556D02*
X140404787Y-106498926D01*
X140635866Y-107182009D02*
X139863125Y-106974954D01*
%TO.C,D44*%
X165278863Y-125775617D02*
X165726218Y-125112387D01*
X165502541Y-125444002D02*
X165088022Y-125164405D01*
X165726218Y-125112387D02*
X165999963Y-125779518D01*
X165999963Y-125779518D02*
X165278863Y-125775617D01*
X165999963Y-125779518D02*
X165692407Y-126235488D01*
X165999963Y-125779518D02*
X166307519Y-125323547D01*
X166331578Y-126003195D02*
X165999963Y-125779518D01*
%TO.C,D39*%
X147350000Y-70770000D02*
X147750000Y-70170000D01*
X147750000Y-69770000D02*
X147750000Y-70170000D01*
X147750000Y-70170000D02*
X147200000Y-70170000D01*
X147750000Y-70170000D02*
X148150000Y-70770000D01*
X147750000Y-70170000D02*
X148300000Y-70170000D01*
X147750000Y-70770000D02*
X147750000Y-71270000D01*
X148150000Y-70770000D02*
X147350000Y-70770000D01*
%TO.C,D34*%
X111350000Y-46570000D02*
X111750000Y-45970000D01*
X111750000Y-45570000D02*
X111750000Y-45970000D01*
X111750000Y-45970000D02*
X111200000Y-45970000D01*
X111750000Y-45970000D02*
X112150000Y-46570000D01*
X111750000Y-45970000D02*
X112300000Y-45970000D01*
X111750000Y-46570000D02*
X111750000Y-47070000D01*
X112150000Y-46570000D02*
X111350000Y-46570000D01*
%TO.C,D32*%
X111350000Y-80570000D02*
X111750000Y-79970000D01*
X111750000Y-79570000D02*
X111750000Y-79970000D01*
X111750000Y-79970000D02*
X111200000Y-79970000D01*
X111750000Y-79970000D02*
X112150000Y-80570000D01*
X111750000Y-79970000D02*
X112300000Y-79970000D01*
X111750000Y-80570000D02*
X111750000Y-81070000D01*
X112150000Y-80570000D02*
X111350000Y-80570000D01*
%TO.C,D43*%
X150013752Y-116349205D02*
X150376945Y-115636400D01*
X150195348Y-115992802D02*
X149749845Y-115765807D01*
X150376945Y-115636400D02*
X150729952Y-116265197D01*
X150729952Y-116265197D02*
X150013752Y-116349205D01*
X150729952Y-116265197D02*
X150480258Y-116755250D01*
X150729952Y-116265197D02*
X150979647Y-115775143D01*
X151086355Y-116446793D02*
X150729952Y-116265197D01*
%TO.C,RST1*%
X166134000Y-81420000D02*
X166134000Y-81170000D01*
X166134000Y-85620000D02*
X166134000Y-85870000D01*
X166384000Y-81170000D02*
X166134000Y-81170000D01*
X166384000Y-85870000D02*
X166134000Y-85870000D01*
X169384000Y-81170000D02*
X169634000Y-81170000D01*
X169384000Y-85870000D02*
X169634000Y-85870000D01*
X169634000Y-81420000D02*
X169634000Y-81170000D01*
X169634000Y-85620000D02*
X169634000Y-85870000D01*
%TO.C,D31*%
X93350000Y-51070000D02*
X93750000Y-50470000D01*
X93750000Y-50070000D02*
X93750000Y-50470000D01*
X93750000Y-50470000D02*
X93200000Y-50470000D01*
X93750000Y-50470000D02*
X94150000Y-51070000D01*
X93750000Y-50470000D02*
X94300000Y-50470000D01*
X93750000Y-51070000D02*
X93750000Y-51570000D01*
X94150000Y-51070000D02*
X93350000Y-51070000D01*
%TO.C,JST1*%
X155825000Y-87530000D02*
X155825000Y-88530000D01*
X155825000Y-90530000D02*
X155825000Y-89530000D01*
X156325000Y-90030000D02*
X155325000Y-90030000D01*
D12*
X156865000Y-85970000D02*
X157865000Y-85970000D01*
X156865000Y-86890000D02*
X156865000Y-85970000D01*
X156865000Y-91170000D02*
X156865000Y-92090000D01*
X156865000Y-92090000D02*
X157865000Y-92090000D01*
X164685000Y-85970000D02*
X163685000Y-85970000D01*
X164685000Y-86970000D02*
X164685000Y-85970000D01*
X164685000Y-91170000D02*
X164685000Y-92090000D01*
X164685000Y-92090000D02*
X163685000Y-92090000D01*
D11*
%TO.C,D33*%
X111350000Y-63570000D02*
X111750000Y-62970000D01*
X111750000Y-62570000D02*
X111750000Y-62970000D01*
X111750000Y-62970000D02*
X111200000Y-62970000D01*
X111750000Y-62970000D02*
X112150000Y-63570000D01*
X111750000Y-62970000D02*
X112300000Y-62970000D01*
X111750000Y-63570000D02*
X111750000Y-64070000D01*
X112150000Y-63570000D02*
X111350000Y-63570000D01*
%TO.C,D30*%
X93350000Y-68070000D02*
X93750000Y-67470000D01*
X93750000Y-67070000D02*
X93750000Y-67470000D01*
X93750000Y-67470000D02*
X93200000Y-67470000D01*
X93750000Y-67470000D02*
X94150000Y-68070000D01*
X93750000Y-67470000D02*
X94300000Y-67470000D01*
X93750000Y-68070000D02*
X93750000Y-68570000D01*
X94150000Y-68070000D02*
X93350000Y-68070000D01*
%TO.C,D40*%
X147350000Y-53770000D02*
X147750000Y-53170000D01*
X147750000Y-52770000D02*
X147750000Y-53170000D01*
X147750000Y-53170000D02*
X147200000Y-53170000D01*
X147750000Y-53170000D02*
X148150000Y-53770000D01*
X147750000Y-53170000D02*
X148300000Y-53170000D01*
X147750000Y-53770000D02*
X147750000Y-54270000D01*
X148150000Y-53770000D02*
X147350000Y-53770000D01*
%TO.C,D26*%
X75350000Y-96950000D02*
X75750000Y-96350000D01*
X75750000Y-95950000D02*
X75750000Y-96350000D01*
X75750000Y-96350000D02*
X75200000Y-96350000D01*
X75750000Y-96350000D02*
X76150000Y-96950000D01*
X75750000Y-96350000D02*
X76300000Y-96350000D01*
X75750000Y-96950000D02*
X75750000Y-97450000D01*
X76150000Y-96950000D02*
X75350000Y-96950000D01*
%TO.C,D41*%
X120350000Y-102070000D02*
X120750000Y-101470000D01*
X120750000Y-101070000D02*
X120750000Y-101470000D01*
X120750000Y-101470000D02*
X120200000Y-101470000D01*
X120750000Y-101470000D02*
X121150000Y-102070000D01*
X120750000Y-101470000D02*
X121300000Y-101470000D01*
X120750000Y-102070000D02*
X120750000Y-102570000D01*
X121150000Y-102070000D02*
X120350000Y-102070000D01*
%TO.C,D27*%
X75350000Y-79950000D02*
X75750000Y-79350000D01*
X75750000Y-78950000D02*
X75750000Y-79350000D01*
X75750000Y-79350000D02*
X75200000Y-79350000D01*
X75750000Y-79350000D02*
X76150000Y-79950000D01*
X75750000Y-79350000D02*
X76300000Y-79350000D01*
X75750000Y-79950000D02*
X75750000Y-80450000D01*
X76150000Y-79950000D02*
X75350000Y-79950000D01*
D10*
%TO.C,S21*%
X143897826Y-111942305D02*
X145931703Y-107950595D01*
X144432430Y-112214699D02*
X143897826Y-111942305D01*
X144612761Y-106133788D02*
X144831269Y-106806286D01*
X145650995Y-107223957D02*
X144831269Y-106806286D01*
X145974732Y-103460768D02*
X144612761Y-106133788D01*
X146647231Y-103242260D02*
X145974732Y-103460768D01*
X148085557Y-114076060D02*
X147640053Y-113849066D01*
X149504809Y-109748737D02*
X150128514Y-110066531D01*
X149765754Y-104831227D02*
X149984262Y-105503724D01*
X149984262Y-105503724D02*
X148940083Y-107553040D01*
X150128514Y-110066531D02*
X148085557Y-114076060D01*
X145650995Y-107223957D02*
G75*
G02*
X145931702Y-107950595I-222964J-503672D01*
G01*
X149486989Y-109739657D02*
G75*
G02*
X148940083Y-107553040I819856J1366762D01*
G01*
%TO.C,S1*%
X48000000Y-104200000D02*
X48500000Y-103700000D01*
X48000000Y-107700000D02*
X48500000Y-108200000D01*
X48500000Y-103700000D02*
X50800000Y-103700000D01*
X48500000Y-108200000D02*
X51500000Y-108200000D01*
X51500000Y-108200000D02*
X52000000Y-107700000D01*
X52000000Y-106780000D02*
X52000000Y-107700000D01*
X52500000Y-101500000D02*
X57000000Y-101500000D01*
X52500000Y-102200000D02*
X52500000Y-101500000D01*
X57000000Y-101500000D02*
X57000000Y-102000000D01*
X57000000Y-105600000D02*
X57000000Y-106200000D01*
X57000000Y-106200000D02*
X52520000Y-106200000D01*
X52000000Y-106780000D02*
G75*
G02*
X52520000Y-106200000I549999J30001D01*
G01*
X52500000Y-102220000D02*
G75*
G02*
X50800000Y-103700000I-1589999J109999D01*
G01*
%TO.C,S7*%
X84000000Y-90520000D02*
X84500000Y-90020000D01*
X84000000Y-94020000D02*
X84500000Y-94520000D01*
X84500000Y-90020000D02*
X86800000Y-90020000D01*
X84500000Y-94520000D02*
X87500000Y-94520000D01*
X87500000Y-94520000D02*
X88000000Y-94020000D01*
X88000000Y-93100000D02*
X88000000Y-94020000D01*
X88500000Y-87820000D02*
X93000000Y-87820000D01*
X88500000Y-88520000D02*
X88500000Y-87820000D01*
X93000000Y-87820000D02*
X93000000Y-88320000D01*
X93000000Y-91920000D02*
X93000000Y-92520000D01*
X93000000Y-92520000D02*
X88520000Y-92520000D01*
X88000000Y-93100000D02*
G75*
G02*
X88520000Y-92520000I549999J30001D01*
G01*
X88500000Y-88540000D02*
G75*
G02*
X86800000Y-90020000I-1589999J109999D01*
G01*
%TO.C,S22*%
X159745617Y-120656267D02*
X162250801Y-116942179D01*
X160243039Y-120991783D02*
X159745617Y-120656267D01*
X161163103Y-114978175D02*
X161298025Y-115672290D01*
X162060739Y-116186747D02*
X161298025Y-115672290D01*
X162840681Y-112491062D02*
X161163103Y-114978175D01*
X163534796Y-112356139D02*
X162840681Y-112491062D01*
X163642093Y-123284474D02*
X163227575Y-123004877D01*
X165578135Y-119162370D02*
X166158461Y-119553805D01*
X166158461Y-119553805D02*
X163642093Y-123284474D01*
X166436428Y-114313315D02*
X166571350Y-115007430D01*
X166571350Y-115007430D02*
X165285207Y-116914216D01*
X162060739Y-116186747D02*
G75*
G02*
X162250800Y-116942179I-282683J-472746D01*
G01*
X165561554Y-119151186D02*
G75*
G02*
X165285206Y-116914215I980310J1256659D01*
G01*
%TO.C,S5*%
X66000000Y-85400000D02*
X66500000Y-84900000D01*
X66000000Y-88900000D02*
X66500000Y-89400000D01*
X66500000Y-84900000D02*
X68800000Y-84900000D01*
X66500000Y-89400000D02*
X69500000Y-89400000D01*
X69500000Y-89400000D02*
X70000000Y-88900000D01*
X70000000Y-87980000D02*
X70000000Y-88900000D01*
X70500000Y-82700000D02*
X75000000Y-82700000D01*
X70500000Y-83400000D02*
X70500000Y-82700000D01*
X75000000Y-82700000D02*
X75000000Y-83200000D01*
X75000000Y-86800000D02*
X75000000Y-87400000D01*
X75000000Y-87400000D02*
X70520000Y-87400000D01*
X70000000Y-87980000D02*
G75*
G02*
X70520000Y-87400000I549999J30001D01*
G01*
X70500000Y-83420000D02*
G75*
G02*
X68800000Y-84900000I-1589999J109999D01*
G01*
%TO.C,S10*%
X102000000Y-86020000D02*
X102500000Y-85520000D01*
X102000000Y-89520000D02*
X102500000Y-90020000D01*
X102500000Y-85520000D02*
X104800000Y-85520000D01*
X102500000Y-90020000D02*
X105500000Y-90020000D01*
X105500000Y-90020000D02*
X106000000Y-89520000D01*
X106000000Y-88600000D02*
X106000000Y-89520000D01*
X106500000Y-83320000D02*
X111000000Y-83320000D01*
X106500000Y-84020000D02*
X106500000Y-83320000D01*
X111000000Y-83320000D02*
X111000000Y-83820000D01*
X111000000Y-87420000D02*
X111000000Y-88020000D01*
X111000000Y-88020000D02*
X106520000Y-88020000D01*
X106000000Y-88600000D02*
G75*
G02*
X106520000Y-88020000I549999J30001D01*
G01*
X106500000Y-84040000D02*
G75*
G02*
X104800000Y-85520000I-1589999J109999D01*
G01*
%TO.C,S12*%
X102000000Y-52020000D02*
X102500000Y-51520000D01*
X102000000Y-55520000D02*
X102500000Y-56020000D01*
X102500000Y-51520000D02*
X104800000Y-51520000D01*
X102500000Y-56020000D02*
X105500000Y-56020000D01*
X105500000Y-56020000D02*
X106000000Y-55520000D01*
X106000000Y-54600000D02*
X106000000Y-55520000D01*
X106500000Y-49320000D02*
X111000000Y-49320000D01*
X106500000Y-50020000D02*
X106500000Y-49320000D01*
X111000000Y-49320000D02*
X111000000Y-49820000D01*
X111000000Y-53420000D02*
X111000000Y-54020000D01*
X111000000Y-54020000D02*
X106520000Y-54020000D01*
X106000000Y-54600000D02*
G75*
G02*
X106520000Y-54020000I549999J30001D01*
G01*
X106500000Y-50040000D02*
G75*
G02*
X104800000Y-51520000I-1589999J109999D01*
G01*
%TO.C,S2*%
X48000000Y-87200000D02*
X48500000Y-86700000D01*
X48000000Y-90700000D02*
X48500000Y-91200000D01*
X48500000Y-86700000D02*
X50800000Y-86700000D01*
X48500000Y-91200000D02*
X51500000Y-91200000D01*
X51500000Y-91200000D02*
X52000000Y-90700000D01*
X52000000Y-89780000D02*
X52000000Y-90700000D01*
X52500000Y-84500000D02*
X57000000Y-84500000D01*
X52500000Y-85200000D02*
X52500000Y-84500000D01*
X57000000Y-84500000D02*
X57000000Y-85000000D01*
X57000000Y-88600000D02*
X57000000Y-89200000D01*
X57000000Y-89200000D02*
X52520000Y-89200000D01*
X52000000Y-89780000D02*
G75*
G02*
X52520000Y-89200000I549999J30001D01*
G01*
X52500000Y-85220000D02*
G75*
G02*
X50800000Y-86700000I-1589999J109999D01*
G01*
%TO.C,S3*%
X48000000Y-70200000D02*
X48500000Y-69700000D01*
X48000000Y-73700000D02*
X48500000Y-74200000D01*
X48500000Y-69700000D02*
X50800000Y-69700000D01*
X48500000Y-74200000D02*
X51500000Y-74200000D01*
X51500000Y-74200000D02*
X52000000Y-73700000D01*
X52000000Y-72780000D02*
X52000000Y-73700000D01*
X52500000Y-67500000D02*
X57000000Y-67500000D01*
X52500000Y-68200000D02*
X52500000Y-67500000D01*
X57000000Y-67500000D02*
X57000000Y-68000000D01*
X57000000Y-71600000D02*
X57000000Y-72200000D01*
X57000000Y-72200000D02*
X52520000Y-72200000D01*
X52000000Y-72780000D02*
G75*
G02*
X52520000Y-72200000I549999J30001D01*
G01*
X52500000Y-68220000D02*
G75*
G02*
X50800000Y-69700000I-1589999J109999D01*
G01*
%TO.C,S13*%
X120000000Y-90520000D02*
X120500000Y-90020000D01*
X120000000Y-94020000D02*
X120500000Y-94520000D01*
X120500000Y-90020000D02*
X122800000Y-90020000D01*
X120500000Y-94520000D02*
X123500000Y-94520000D01*
X123500000Y-94520000D02*
X124000000Y-94020000D01*
X124000000Y-93100000D02*
X124000000Y-94020000D01*
X124500000Y-87820000D02*
X129000000Y-87820000D01*
X124500000Y-88520000D02*
X124500000Y-87820000D01*
X129000000Y-87820000D02*
X129000000Y-88320000D01*
X129000000Y-91920000D02*
X129000000Y-92520000D01*
X129000000Y-92520000D02*
X124520000Y-92520000D01*
X124000000Y-93100000D02*
G75*
G02*
X124520000Y-92520000I549999J30001D01*
G01*
X124500000Y-88540000D02*
G75*
G02*
X122800000Y-90020000I-1589999J109999D01*
G01*
%TO.C,S9*%
X84000000Y-56520000D02*
X84500000Y-56020000D01*
X84000000Y-60020000D02*
X84500000Y-60520000D01*
X84500000Y-56020000D02*
X86800000Y-56020000D01*
X84500000Y-60520000D02*
X87500000Y-60520000D01*
X87500000Y-60520000D02*
X88000000Y-60020000D01*
X88000000Y-59100000D02*
X88000000Y-60020000D01*
X88500000Y-53820000D02*
X93000000Y-53820000D01*
X88500000Y-54520000D02*
X88500000Y-53820000D01*
X93000000Y-53820000D02*
X93000000Y-54320000D01*
X93000000Y-57920000D02*
X93000000Y-58520000D01*
X93000000Y-58520000D02*
X88520000Y-58520000D01*
X88000000Y-59100000D02*
G75*
G02*
X88520000Y-58520000I549999J30001D01*
G01*
X88500000Y-54540000D02*
G75*
G02*
X86800000Y-56020000I-1589999J109999D01*
G01*
%TO.C,S15*%
X120000000Y-56520000D02*
X120500000Y-56020000D01*
X120000000Y-60020000D02*
X120500000Y-60520000D01*
X120500000Y-56020000D02*
X122800000Y-56020000D01*
X120500000Y-60520000D02*
X123500000Y-60520000D01*
X123500000Y-60520000D02*
X124000000Y-60020000D01*
X124000000Y-59100000D02*
X124000000Y-60020000D01*
X124500000Y-53820000D02*
X129000000Y-53820000D01*
X124500000Y-54520000D02*
X124500000Y-53820000D01*
X129000000Y-53820000D02*
X129000000Y-54320000D01*
X129000000Y-57920000D02*
X129000000Y-58520000D01*
X129000000Y-58520000D02*
X124520000Y-58520000D01*
X124000000Y-59100000D02*
G75*
G02*
X124520000Y-58520000I549999J30001D01*
G01*
X124500000Y-54540000D02*
G75*
G02*
X122800000Y-56020000I-1589999J109999D01*
G01*
%TO.C,S8*%
X84000000Y-73520000D02*
X84500000Y-73020000D01*
X84000000Y-77020000D02*
X84500000Y-77520000D01*
X84500000Y-73020000D02*
X86800000Y-73020000D01*
X84500000Y-77520000D02*
X87500000Y-77520000D01*
X87500000Y-77520000D02*
X88000000Y-77020000D01*
X88000000Y-76100000D02*
X88000000Y-77020000D01*
X88500000Y-70820000D02*
X93000000Y-70820000D01*
X88500000Y-71520000D02*
X88500000Y-70820000D01*
X93000000Y-70820000D02*
X93000000Y-71320000D01*
X93000000Y-74920000D02*
X93000000Y-75520000D01*
X93000000Y-75520000D02*
X88520000Y-75520000D01*
X88000000Y-76100000D02*
G75*
G02*
X88520000Y-75520000I549999J30001D01*
G01*
X88500000Y-71540000D02*
G75*
G02*
X86800000Y-73020000I-1589999J109999D01*
G01*
%TO.C,S17*%
X138000000Y-76220000D02*
X138500000Y-75720000D01*
X138000000Y-79720000D02*
X138500000Y-80220000D01*
X138500000Y-75720000D02*
X140800000Y-75720000D01*
X138500000Y-80220000D02*
X141500000Y-80220000D01*
X141500000Y-80220000D02*
X142000000Y-79720000D01*
X142000000Y-78800000D02*
X142000000Y-79720000D01*
X142500000Y-73520000D02*
X147000000Y-73520000D01*
X142500000Y-74220000D02*
X142500000Y-73520000D01*
X147000000Y-73520000D02*
X147000000Y-74020000D01*
X147000000Y-77620000D02*
X147000000Y-78220000D01*
X147000000Y-78220000D02*
X142520000Y-78220000D01*
X142000000Y-78800000D02*
G75*
G02*
X142520000Y-78220000I549999J30001D01*
G01*
X142500000Y-74240000D02*
G75*
G02*
X140800000Y-75720000I-1589999J109999D01*
G01*
%TO.C,S11*%
X102000000Y-69020000D02*
X102500000Y-68520000D01*
X102000000Y-72520000D02*
X102500000Y-73020000D01*
X102500000Y-68520000D02*
X104800000Y-68520000D01*
X102500000Y-73020000D02*
X105500000Y-73020000D01*
X105500000Y-73020000D02*
X106000000Y-72520000D01*
X106000000Y-71600000D02*
X106000000Y-72520000D01*
X106500000Y-66320000D02*
X111000000Y-66320000D01*
X106500000Y-67020000D02*
X106500000Y-66320000D01*
X111000000Y-66320000D02*
X111000000Y-66820000D01*
X111000000Y-70420000D02*
X111000000Y-71020000D01*
X111000000Y-71020000D02*
X106520000Y-71020000D01*
X106000000Y-71600000D02*
G75*
G02*
X106520000Y-71020000I549999J30001D01*
G01*
X106500000Y-67040000D02*
G75*
G02*
X104800000Y-68520000I-1589999J109999D01*
G01*
%TO.C,S19*%
X111000000Y-107520000D02*
X111500000Y-107020000D01*
X111000000Y-111020000D02*
X111500000Y-111520000D01*
X111500000Y-107020000D02*
X113800000Y-107020000D01*
X111500000Y-111520000D02*
X114500000Y-111520000D01*
X114500000Y-111520000D02*
X115000000Y-111020000D01*
X115000000Y-110100000D02*
X115000000Y-111020000D01*
X115500000Y-104820000D02*
X120000000Y-104820000D01*
X115500000Y-105520000D02*
X115500000Y-104820000D01*
X120000000Y-104820000D02*
X120000000Y-105320000D01*
X120000000Y-108920000D02*
X120000000Y-109520000D01*
X120000000Y-109520000D02*
X115520000Y-109520000D01*
X115000000Y-110100000D02*
G75*
G02*
X115520000Y-109520000I549999J30001D01*
G01*
X115500000Y-105540000D02*
G75*
G02*
X113800000Y-107020000I-1589999J109999D01*
G01*
%TO.C,S20*%
X128515242Y-113199991D02*
X128868795Y-113812363D01*
X128868795Y-113812363D02*
X131766573Y-114588820D01*
X129421108Y-109819250D02*
X130033481Y-109465697D01*
X130033481Y-109465697D02*
X132255110Y-110060981D01*
X131766573Y-114588820D02*
X132378945Y-114235267D01*
X132617059Y-113346615D02*
X132378945Y-114235267D01*
X134285413Y-109052083D02*
X134466586Y-108375936D01*
X134466586Y-108375936D02*
X138813252Y-109540622D01*
X137596803Y-114080472D02*
X133269455Y-112920964D01*
X137752094Y-113500918D02*
X137596803Y-114080472D01*
X138813252Y-109540622D02*
X138683843Y-110023585D01*
X132617059Y-113346615D02*
G75*
G02*
X133269455Y-112920965I539020J-113368D01*
G01*
X134280236Y-109071403D02*
G75*
G02*
X132255110Y-110060980I-1507351J517773D01*
G01*
%TO.C,S18*%
X138000000Y-59220000D02*
X138500000Y-58720000D01*
X138000000Y-62720000D02*
X138500000Y-63220000D01*
X138500000Y-58720000D02*
X140800000Y-58720000D01*
X138500000Y-63220000D02*
X141500000Y-63220000D01*
X141500000Y-63220000D02*
X142000000Y-62720000D01*
X142000000Y-61800000D02*
X142000000Y-62720000D01*
X142500000Y-56520000D02*
X147000000Y-56520000D01*
X142500000Y-57220000D02*
X142500000Y-56520000D01*
X147000000Y-56520000D02*
X147000000Y-57020000D01*
X147000000Y-60620000D02*
X147000000Y-61220000D01*
X147000000Y-61220000D02*
X142520000Y-61220000D01*
X142000000Y-61800000D02*
G75*
G02*
X142520000Y-61220000I549999J30001D01*
G01*
X142500000Y-57240000D02*
G75*
G02*
X140800000Y-58720000I-1589999J109999D01*
G01*
%TO.C,S16*%
X138000000Y-93220000D02*
X138500000Y-92720000D01*
X138000000Y-96720000D02*
X138500000Y-97220000D01*
X138500000Y-92720000D02*
X140800000Y-92720000D01*
X138500000Y-97220000D02*
X141500000Y-97220000D01*
X141500000Y-97220000D02*
X142000000Y-96720000D01*
X142000000Y-95800000D02*
X142000000Y-96720000D01*
X142500000Y-90520000D02*
X147000000Y-90520000D01*
X142500000Y-91220000D02*
X142500000Y-90520000D01*
X147000000Y-90520000D02*
X147000000Y-91020000D01*
X147000000Y-94620000D02*
X147000000Y-95220000D01*
X147000000Y-95220000D02*
X142520000Y-95220000D01*
X142000000Y-95800000D02*
G75*
G02*
X142520000Y-95220000I549999J30001D01*
G01*
X142500000Y-91240000D02*
G75*
G02*
X140800000Y-92720000I-1589999J109999D01*
G01*
%TO.C,S4*%
X66000000Y-102400000D02*
X66500000Y-101900000D01*
X66000000Y-105900000D02*
X66500000Y-106400000D01*
X66500000Y-101900000D02*
X68800000Y-101900000D01*
X66500000Y-106400000D02*
X69500000Y-106400000D01*
X69500000Y-106400000D02*
X70000000Y-105900000D01*
X70000000Y-104980000D02*
X70000000Y-105900000D01*
X70500000Y-99700000D02*
X75000000Y-99700000D01*
X70500000Y-100400000D02*
X70500000Y-99700000D01*
X75000000Y-99700000D02*
X75000000Y-100200000D01*
X75000000Y-103800000D02*
X75000000Y-104400000D01*
X75000000Y-104400000D02*
X70520000Y-104400000D01*
X70000000Y-104980000D02*
G75*
G02*
X70520000Y-104400000I549999J30001D01*
G01*
X70500000Y-100420000D02*
G75*
G02*
X68800000Y-101900000I-1589999J109999D01*
G01*
%TO.C,S6*%
X66000000Y-68400000D02*
X66500000Y-67900000D01*
X66000000Y-71900000D02*
X66500000Y-72400000D01*
X66500000Y-67900000D02*
X68800000Y-67900000D01*
X66500000Y-72400000D02*
X69500000Y-72400000D01*
X69500000Y-72400000D02*
X70000000Y-71900000D01*
X70000000Y-70980000D02*
X70000000Y-71900000D01*
X70500000Y-65700000D02*
X75000000Y-65700000D01*
X70500000Y-66400000D02*
X70500000Y-65700000D01*
X75000000Y-65700000D02*
X75000000Y-66200000D01*
X75000000Y-69800000D02*
X75000000Y-70400000D01*
X75000000Y-70400000D02*
X70520000Y-70400000D01*
X70000000Y-70980000D02*
G75*
G02*
X70520000Y-70400000I549999J30001D01*
G01*
X70500000Y-66420000D02*
G75*
G02*
X68800000Y-67900000I-1589999J109999D01*
G01*
%TO.C,S14*%
X120000000Y-73520000D02*
X120500000Y-73020000D01*
X120000000Y-77020000D02*
X120500000Y-77520000D01*
X120500000Y-73020000D02*
X122800000Y-73020000D01*
X120500000Y-77520000D02*
X123500000Y-77520000D01*
X123500000Y-77520000D02*
X124000000Y-77020000D01*
X124000000Y-76100000D02*
X124000000Y-77020000D01*
X124500000Y-70820000D02*
X129000000Y-70820000D01*
X124500000Y-71520000D02*
X124500000Y-70820000D01*
X129000000Y-70820000D02*
X129000000Y-71320000D01*
X129000000Y-74920000D02*
X129000000Y-75520000D01*
X129000000Y-75520000D02*
X124520000Y-75520000D01*
X124000000Y-76100000D02*
G75*
G02*
X124520000Y-75520000I549999J30001D01*
G01*
X124500000Y-71540000D02*
G75*
G02*
X122800000Y-73020000I-1589999J109999D01*
G01*
%TD*%
M02*
