%TF.GenerationSoftware,KiCad,Pcbnew,9.0.2*%
%TF.CreationDate,2025-06-08T10:39:33-06:00*%
%TF.ProjectId,scyboard,73637962-6f61-4726-942e-6b696361645f,1*%
%TF.SameCoordinates,Original*%
%TF.FileFunction,Legend,Bot*%
%TF.FilePolarity,Positive*%
%FSLAX46Y46*%
G04 Gerber Fmt 4.6, Leading zero omitted, Abs format (unit mm)*
G04 Created by KiCad (PCBNEW 9.0.2) date 2025-06-08 10:39:33*
%MOMM*%
%LPD*%
G01*
G04 APERTURE LIST*
%ADD10C,0.300000*%
%ADD11C,0.150000*%
%ADD12C,0.120000*%
%ADD13C,0.100000*%
G04 APERTURE END LIST*
D10*
G36*
X97895247Y-106803004D02*
G01*
X98042709Y-106959930D01*
X98113923Y-107032873D01*
X98152923Y-107049078D01*
X98183759Y-107035950D01*
X98196887Y-106998703D01*
X98196887Y-105406545D01*
X98182233Y-105364108D01*
X98146207Y-105349148D01*
X98108349Y-105365940D01*
X98088504Y-105482260D01*
X98040306Y-105925178D01*
X97963824Y-106292428D01*
X97863801Y-106594787D01*
X97760041Y-106791203D01*
X97662145Y-106884935D01*
X97565519Y-106912302D01*
X97487725Y-106892596D01*
X97412257Y-106827733D01*
X97362116Y-106730167D01*
X97342953Y-106581353D01*
X97360815Y-106384946D01*
X97422943Y-106120956D01*
X97531524Y-105813355D01*
X97760914Y-105275265D01*
X97989423Y-104739267D01*
X98092473Y-104446671D01*
X98149158Y-104196895D01*
X98166051Y-103996653D01*
X98145104Y-103789687D01*
X98086016Y-103619140D01*
X97990807Y-103477332D01*
X97863716Y-103363991D01*
X97729124Y-103299429D01*
X97582311Y-103277969D01*
X97450105Y-103297159D01*
X97318946Y-103356643D01*
X97184806Y-103463593D01*
X97039176Y-103332923D01*
X96953996Y-103277969D01*
X96923466Y-103287128D01*
X96910033Y-103324680D01*
X96910033Y-104741899D01*
X96926519Y-104785863D01*
X96964071Y-104802044D01*
X97002540Y-104782199D01*
X97021774Y-104675954D01*
X97066556Y-104264332D01*
X97131698Y-103935406D01*
X97212588Y-103676085D01*
X97298115Y-103517606D01*
X97386062Y-103438831D01*
X97480034Y-103414745D01*
X97563913Y-103431848D01*
X97633602Y-103483438D01*
X97679040Y-103561699D01*
X97695579Y-103671505D01*
X97665439Y-103877365D01*
X97547247Y-104229228D01*
X97290136Y-104792274D01*
X97046699Y-105309823D01*
X96917360Y-105655368D01*
X96840735Y-105970683D01*
X96817831Y-106225675D01*
X96841401Y-106469453D01*
X96907155Y-106666108D01*
X97011699Y-106825596D01*
X97152494Y-106952838D01*
X97301156Y-107025104D01*
X97462937Y-107049078D01*
X97589069Y-107034519D01*
X97694663Y-106992903D01*
X97789353Y-106921937D01*
X97895247Y-106803004D01*
G37*
G36*
X95420762Y-103547857D02*
G01*
X95248265Y-103375971D01*
X95170400Y-103294612D01*
X95134692Y-103277969D01*
X95110879Y-103287433D01*
X95102941Y-103327428D01*
X95102941Y-104780368D01*
X95119427Y-104824637D01*
X95156980Y-104841123D01*
X95199722Y-104818836D01*
X95221399Y-104648782D01*
X95260899Y-104379648D01*
X95354206Y-104003370D01*
X95478997Y-103650711D01*
X95575245Y-103494124D01*
X95691494Y-103403165D01*
X95806055Y-103375666D01*
X95875014Y-103386674D01*
X95915048Y-103415050D01*
X95936409Y-103467469D01*
X95946495Y-103590905D01*
X95946495Y-106598145D01*
X95930651Y-106762721D01*
X95894288Y-106845746D01*
X95833122Y-106895355D01*
X95751406Y-106912302D01*
X95637461Y-106889123D01*
X95521817Y-106814300D01*
X95426605Y-106698832D01*
X95347184Y-106525177D01*
X95273787Y-106260066D01*
X95227537Y-105960321D01*
X95211324Y-105621174D01*
X95211324Y-105430969D01*
X95191479Y-105352812D01*
X95160643Y-105329609D01*
X95121564Y-105354644D01*
X95102941Y-105431885D01*
X95102941Y-105658115D01*
X95122708Y-106054489D01*
X95176163Y-106365523D01*
X95256067Y-106606629D01*
X95357564Y-106791097D01*
X95493125Y-106937949D01*
X95643740Y-107021170D01*
X95816130Y-107049078D01*
X96005948Y-107018783D01*
X96170028Y-106928926D01*
X96315912Y-106771252D01*
X96412733Y-106590171D01*
X96491824Y-106334865D01*
X96546469Y-105984283D01*
X96567177Y-105514012D01*
X96567177Y-104860968D01*
X96545465Y-104397422D01*
X96487148Y-104038419D01*
X96400801Y-103764592D01*
X96292404Y-103559153D01*
X96148746Y-103397640D01*
X95993438Y-103307701D01*
X95819794Y-103277969D01*
X95671357Y-103306013D01*
X95540376Y-103391449D01*
X95420762Y-103547857D01*
G37*
G36*
X94813818Y-103414745D02*
G01*
X94964944Y-103414745D01*
X95006465Y-103365896D01*
X94965249Y-103317048D01*
X94046896Y-103317048D01*
X94011175Y-103332008D01*
X93996215Y-103365896D01*
X94011175Y-103401617D01*
X94046896Y-103414745D01*
X94193136Y-103414745D01*
X93896687Y-106044935D01*
X93612754Y-103982609D01*
X93595657Y-103775919D01*
X93610303Y-103593399D01*
X93643285Y-103502672D01*
X93701250Y-103443838D01*
X93782503Y-103414439D01*
X93833489Y-103402533D01*
X93848449Y-103365896D01*
X93837458Y-103329870D01*
X93804485Y-103317048D01*
X93288522Y-103317048D01*
X93249443Y-103332008D01*
X93234483Y-103368949D01*
X93245779Y-103399785D01*
X93286995Y-103414439D01*
X93325433Y-103436560D01*
X93362100Y-103484049D01*
X93440069Y-103662922D01*
X93494296Y-103901704D01*
X94002932Y-107498790D01*
X94058438Y-107753488D01*
X94138243Y-107944461D01*
X94238321Y-108084973D01*
X94367540Y-108199072D01*
X94488964Y-108260657D01*
X94607128Y-108280062D01*
X94746801Y-108248433D01*
X94873963Y-108148476D01*
X94959034Y-108000871D01*
X94989368Y-107803789D01*
X94965140Y-107636637D01*
X94899609Y-107521078D01*
X94800383Y-107444753D01*
X94689255Y-107420327D01*
X94580577Y-107442544D01*
X94485617Y-107510697D01*
X94421101Y-107610643D01*
X94399216Y-107732653D01*
X94419486Y-107858660D01*
X94478660Y-107962683D01*
X94581482Y-108050474D01*
X94624836Y-108102681D01*
X94609265Y-108130769D01*
X94559195Y-108143286D01*
X94444908Y-108113176D01*
X94320753Y-108009563D01*
X94232887Y-107876719D01*
X94155940Y-107684496D01*
X94094218Y-107415443D01*
X94024303Y-107010000D01*
X94390362Y-107010000D01*
X94813818Y-103414745D01*
G37*
G36*
X93141366Y-101863803D02*
G01*
X93154494Y-101901966D01*
X93141366Y-101937381D01*
X93110530Y-101949288D01*
X92990546Y-101949288D01*
X92990546Y-106970921D01*
X92978333Y-107034729D01*
X92953299Y-107049078D01*
X92928850Y-107036686D01*
X92886742Y-106979164D01*
X92740101Y-106710319D01*
X92620518Y-106449767D01*
X92497316Y-106790348D01*
X92399783Y-106939169D01*
X92276171Y-107021402D01*
X92126842Y-107049078D01*
X91957358Y-107019873D01*
X91804316Y-106931160D01*
X91661254Y-106771252D01*
X91553834Y-106567449D01*
X91468461Y-106297153D01*
X91410921Y-105944259D01*
X91389534Y-105490198D01*
X91389534Y-104771819D01*
X91408674Y-104366794D01*
X91462688Y-104016972D01*
X91547376Y-103715163D01*
X91590004Y-103626931D01*
X92027313Y-103626931D01*
X92027313Y-106574942D01*
X92045318Y-106780886D01*
X92087152Y-106890015D01*
X92136698Y-106936086D01*
X92201946Y-106951381D01*
X92257201Y-106941361D01*
X92297506Y-106912913D01*
X92341012Y-106856075D01*
X92352766Y-106812773D01*
X92352766Y-103992379D01*
X92327396Y-103691354D01*
X92269113Y-103535340D01*
X92208482Y-103473164D01*
X92137222Y-103453824D01*
X92092894Y-103462755D01*
X92062728Y-103488018D01*
X92037539Y-103538850D01*
X92027313Y-103626931D01*
X91590004Y-103626931D01*
X91640148Y-103523144D01*
X91752234Y-103391236D01*
X91885788Y-103304290D01*
X92010826Y-103277969D01*
X92140703Y-103302066D01*
X92252858Y-103374756D01*
X92352766Y-103506641D01*
X92352766Y-101851591D01*
X93110530Y-101851591D01*
X93141366Y-101863803D01*
G37*
G36*
X90475845Y-103308586D02*
G01*
X90644400Y-103399481D01*
X90795108Y-103558848D01*
X90903332Y-103750351D01*
X90988578Y-104001868D01*
X91045680Y-104327735D01*
X91066828Y-104744647D01*
X91066828Y-105414788D01*
X91034160Y-105936247D01*
X90974614Y-106327657D01*
X90877845Y-106603030D01*
X90738360Y-106825802D01*
X90599408Y-106951992D01*
X90437295Y-107024654D01*
X90257773Y-107049078D01*
X90056915Y-107018197D01*
X89887534Y-106927757D01*
X89741200Y-106771252D01*
X89636051Y-106579185D01*
X89551713Y-106318074D01*
X89494335Y-105969960D01*
X89472838Y-105514012D01*
X89472838Y-104771819D01*
X89499284Y-104325995D01*
X89571532Y-103970368D01*
X89671364Y-103714248D01*
X90103595Y-103714248D01*
X90103595Y-106640277D01*
X90116701Y-106818893D01*
X90144200Y-106894289D01*
X90192383Y-106936926D01*
X90257773Y-106951381D01*
X90326503Y-106935302D01*
X90379590Y-106886657D01*
X90420747Y-106769643D01*
X90439429Y-106523040D01*
X90439429Y-103624794D01*
X90425618Y-103507523D01*
X90390886Y-103436421D01*
X90337319Y-103389819D01*
X90281892Y-103375666D01*
X90217791Y-103392982D01*
X90157634Y-103450160D01*
X90119871Y-103540662D01*
X90103595Y-103714248D01*
X89671364Y-103714248D01*
X89681360Y-103688602D01*
X89803925Y-103500788D01*
X89942551Y-103376048D01*
X90099647Y-103302959D01*
X90281892Y-103277969D01*
X90475845Y-103308586D01*
G37*
G36*
X88631192Y-103303155D02*
G01*
X88839625Y-103372156D01*
X89001144Y-103479774D01*
X89126975Y-103626255D01*
X89200902Y-103790976D01*
X89226153Y-103980472D01*
X89200093Y-104165898D01*
X89131203Y-104287608D01*
X89021441Y-104364607D01*
X88871390Y-104391716D01*
X88720596Y-104365136D01*
X88608218Y-104289439D01*
X88535596Y-104173613D01*
X88509911Y-104018635D01*
X88535102Y-103866703D01*
X88606692Y-103751495D01*
X88714262Y-103674808D01*
X88844218Y-103649218D01*
X88927871Y-103658072D01*
X88999923Y-103676390D01*
X88887926Y-103504733D01*
X88747968Y-103408527D01*
X88570971Y-103375666D01*
X88456343Y-103397439D01*
X88367944Y-103460846D01*
X88311334Y-103558599D01*
X88290397Y-103700814D01*
X88290397Y-104710148D01*
X88614935Y-104842650D01*
X89012979Y-104996489D01*
X89154101Y-105089335D01*
X89220735Y-105208447D01*
X89246608Y-105400439D01*
X89246608Y-106676913D01*
X89219054Y-106829908D01*
X89139752Y-106946496D01*
X89015529Y-107021426D01*
X88833838Y-107049078D01*
X88678888Y-107029466D01*
X88550821Y-106973363D01*
X88434652Y-106875170D01*
X88284902Y-106688515D01*
X88220174Y-106859722D01*
X88134692Y-106964204D01*
X88016537Y-107025939D01*
X87843433Y-107049078D01*
X87638532Y-107015474D01*
X87467909Y-106916882D01*
X87345097Y-106777849D01*
X87310983Y-106659816D01*
X87358000Y-106617684D01*
X87387461Y-106629303D01*
X87418450Y-106673250D01*
X87512408Y-106802813D01*
X87583925Y-106834145D01*
X87634605Y-106804836D01*
X87659335Y-106727899D01*
X87659335Y-106202166D01*
X88290397Y-106202166D01*
X88324871Y-106490409D01*
X88421983Y-106721793D01*
X88491261Y-106813203D01*
X88536777Y-106834145D01*
X88592648Y-106803004D01*
X88615851Y-106702559D01*
X88615851Y-105242903D01*
X88598003Y-105071626D01*
X88554485Y-104972709D01*
X88470482Y-104897852D01*
X88290397Y-104808761D01*
X88290397Y-106202166D01*
X87659335Y-106202166D01*
X87659335Y-103779277D01*
X87678058Y-103640340D01*
X87732511Y-103521888D01*
X87824809Y-103418714D01*
X87943881Y-103346367D01*
X88116925Y-103296935D01*
X88362449Y-103277969D01*
X88631192Y-103303155D01*
G37*
G36*
X87122306Y-103414745D02*
G01*
X87256029Y-103414745D01*
X87295413Y-103401617D01*
X87310373Y-103365896D01*
X87295413Y-103330481D01*
X87256334Y-103317048D01*
X86501624Y-103317048D01*
X86501624Y-103723101D01*
X86393237Y-103490591D01*
X86300734Y-103371697D01*
X86191694Y-103300319D01*
X86081221Y-103277969D01*
X85935517Y-103314859D01*
X85796983Y-103435505D01*
X85710206Y-103577028D01*
X85656515Y-103743279D01*
X85637615Y-103940478D01*
X85667311Y-104179709D01*
X85744471Y-104335235D01*
X85861655Y-104438644D01*
X85981997Y-104469874D01*
X86079477Y-104447437D01*
X86160600Y-104378283D01*
X86228984Y-104239968D01*
X86254938Y-104033900D01*
X86222881Y-103821505D01*
X86123658Y-103612887D01*
X86060155Y-103479469D01*
X86081221Y-103433979D01*
X86132512Y-103414745D01*
X86189518Y-103428299D01*
X86248527Y-103473363D01*
X86332861Y-103599452D01*
X86423771Y-103841254D01*
X86481124Y-104118367D01*
X86501624Y-104448503D01*
X86501624Y-106912302D01*
X86337370Y-106912302D01*
X86293101Y-106927262D01*
X86276310Y-106962983D01*
X86288522Y-106995040D01*
X86337370Y-107010000D01*
X87256334Y-107010000D01*
X87292055Y-106996871D01*
X87307015Y-106961151D01*
X87292055Y-106925736D01*
X87256334Y-106912302D01*
X87122306Y-106912302D01*
X87122306Y-103414745D01*
G37*
G36*
X84727199Y-101898913D02*
G01*
X84685678Y-101949288D01*
X84501580Y-101949288D01*
X84501580Y-103455961D01*
X84645989Y-103328649D01*
X84734389Y-103290507D01*
X84826728Y-103277969D01*
X84973095Y-103305564D01*
X85101445Y-103389424D01*
X85217822Y-103542667D01*
X85304723Y-103753807D01*
X85380926Y-104093016D01*
X85436355Y-104606918D01*
X85458096Y-105349759D01*
X85435946Y-105940666D01*
X85379033Y-106356600D01*
X85299644Y-106638140D01*
X85201083Y-106836247D01*
X85095952Y-106959402D01*
X84984087Y-107026973D01*
X84860617Y-107049078D01*
X84744763Y-107030149D01*
X84643546Y-106973668D01*
X84560430Y-106890007D01*
X84501580Y-106791402D01*
X84501580Y-107010000D01*
X83734352Y-107010000D01*
X83693136Y-106961151D01*
X83734352Y-106912302D01*
X83874181Y-106912302D01*
X83874181Y-103875753D01*
X84501580Y-103875753D01*
X84501580Y-106549602D01*
X84527648Y-106668146D01*
X84622786Y-106828954D01*
X84685777Y-106894769D01*
X84737885Y-106912302D01*
X84802304Y-106873834D01*
X84822039Y-106826221D01*
X84830697Y-106731257D01*
X84830697Y-103536866D01*
X84801083Y-103448328D01*
X84734527Y-103414745D01*
X84664936Y-103435745D01*
X84595614Y-103508168D01*
X84527146Y-103660621D01*
X84501580Y-103875753D01*
X83874181Y-103875753D01*
X83874181Y-101851591D01*
X84685678Y-101851591D01*
X84727199Y-101898913D01*
G37*
D11*
X164511792Y-83899819D02*
X164845125Y-83423628D01*
X165083220Y-83899819D02*
X165083220Y-82899819D01*
X165083220Y-82899819D02*
X164702268Y-82899819D01*
X164702268Y-82899819D02*
X164607030Y-82947438D01*
X164607030Y-82947438D02*
X164559411Y-82995057D01*
X164559411Y-82995057D02*
X164511792Y-83090295D01*
X164511792Y-83090295D02*
X164511792Y-83233152D01*
X164511792Y-83233152D02*
X164559411Y-83328390D01*
X164559411Y-83328390D02*
X164607030Y-83376009D01*
X164607030Y-83376009D02*
X164702268Y-83423628D01*
X164702268Y-83423628D02*
X165083220Y-83423628D01*
X164083220Y-83376009D02*
X163749887Y-83376009D01*
X163607030Y-83899819D02*
X164083220Y-83899819D01*
X164083220Y-83899819D02*
X164083220Y-82899819D01*
X164083220Y-82899819D02*
X163607030Y-82899819D01*
X163226077Y-83852200D02*
X163083220Y-83899819D01*
X163083220Y-83899819D02*
X162845125Y-83899819D01*
X162845125Y-83899819D02*
X162749887Y-83852200D01*
X162749887Y-83852200D02*
X162702268Y-83804580D01*
X162702268Y-83804580D02*
X162654649Y-83709342D01*
X162654649Y-83709342D02*
X162654649Y-83614104D01*
X162654649Y-83614104D02*
X162702268Y-83518866D01*
X162702268Y-83518866D02*
X162749887Y-83471247D01*
X162749887Y-83471247D02*
X162845125Y-83423628D01*
X162845125Y-83423628D02*
X163035601Y-83376009D01*
X163035601Y-83376009D02*
X163130839Y-83328390D01*
X163130839Y-83328390D02*
X163178458Y-83280771D01*
X163178458Y-83280771D02*
X163226077Y-83185533D01*
X163226077Y-83185533D02*
X163226077Y-83090295D01*
X163226077Y-83090295D02*
X163178458Y-82995057D01*
X163178458Y-82995057D02*
X163130839Y-82947438D01*
X163130839Y-82947438D02*
X163035601Y-82899819D01*
X163035601Y-82899819D02*
X162797506Y-82899819D01*
X162797506Y-82899819D02*
X162654649Y-82947438D01*
X162226077Y-83376009D02*
X161892744Y-83376009D01*
X161749887Y-83899819D02*
X162226077Y-83899819D01*
X162226077Y-83899819D02*
X162226077Y-82899819D01*
X162226077Y-82899819D02*
X161749887Y-82899819D01*
X161464172Y-82899819D02*
X160892744Y-82899819D01*
X161178458Y-83899819D02*
X161178458Y-82899819D01*
X158198094Y-77839819D02*
X158198094Y-76839819D01*
X158198094Y-76839819D02*
X157817142Y-76839819D01*
X157817142Y-76839819D02*
X157721904Y-76887438D01*
X157721904Y-76887438D02*
X157674285Y-76935057D01*
X157674285Y-76935057D02*
X157626666Y-77030295D01*
X157626666Y-77030295D02*
X157626666Y-77173152D01*
X157626666Y-77173152D02*
X157674285Y-77268390D01*
X157674285Y-77268390D02*
X157721904Y-77316009D01*
X157721904Y-77316009D02*
X157817142Y-77363628D01*
X157817142Y-77363628D02*
X158198094Y-77363628D01*
X157150475Y-77839819D02*
X156959999Y-77839819D01*
X156959999Y-77839819D02*
X156864761Y-77792200D01*
X156864761Y-77792200D02*
X156817142Y-77744580D01*
X156817142Y-77744580D02*
X156721904Y-77601723D01*
X156721904Y-77601723D02*
X156674285Y-77411247D01*
X156674285Y-77411247D02*
X156674285Y-77030295D01*
X156674285Y-77030295D02*
X156721904Y-76935057D01*
X156721904Y-76935057D02*
X156769523Y-76887438D01*
X156769523Y-76887438D02*
X156864761Y-76839819D01*
X156864761Y-76839819D02*
X157055237Y-76839819D01*
X157055237Y-76839819D02*
X157150475Y-76887438D01*
X157150475Y-76887438D02*
X157198094Y-76935057D01*
X157198094Y-76935057D02*
X157245713Y-77030295D01*
X157245713Y-77030295D02*
X157245713Y-77268390D01*
X157245713Y-77268390D02*
X157198094Y-77363628D01*
X157198094Y-77363628D02*
X157150475Y-77411247D01*
X157150475Y-77411247D02*
X157055237Y-77458866D01*
X157055237Y-77458866D02*
X156864761Y-77458866D01*
X156864761Y-77458866D02*
X156769523Y-77411247D01*
X156769523Y-77411247D02*
X156721904Y-77363628D01*
X156721904Y-77363628D02*
X156674285Y-77268390D01*
X159264285Y-60012200D02*
X159121428Y-60059819D01*
X159121428Y-60059819D02*
X158883333Y-60059819D01*
X158883333Y-60059819D02*
X158788095Y-60012200D01*
X158788095Y-60012200D02*
X158740476Y-59964580D01*
X158740476Y-59964580D02*
X158692857Y-59869342D01*
X158692857Y-59869342D02*
X158692857Y-59774104D01*
X158692857Y-59774104D02*
X158740476Y-59678866D01*
X158740476Y-59678866D02*
X158788095Y-59631247D01*
X158788095Y-59631247D02*
X158883333Y-59583628D01*
X158883333Y-59583628D02*
X159073809Y-59536009D01*
X159073809Y-59536009D02*
X159169047Y-59488390D01*
X159169047Y-59488390D02*
X159216666Y-59440771D01*
X159216666Y-59440771D02*
X159264285Y-59345533D01*
X159264285Y-59345533D02*
X159264285Y-59250295D01*
X159264285Y-59250295D02*
X159216666Y-59155057D01*
X159216666Y-59155057D02*
X159169047Y-59107438D01*
X159169047Y-59107438D02*
X159073809Y-59059819D01*
X159073809Y-59059819D02*
X158835714Y-59059819D01*
X158835714Y-59059819D02*
X158692857Y-59107438D01*
X158264285Y-60059819D02*
X158264285Y-59059819D01*
X158264285Y-59059819D02*
X158026190Y-59059819D01*
X158026190Y-59059819D02*
X157883333Y-59107438D01*
X157883333Y-59107438D02*
X157788095Y-59202676D01*
X157788095Y-59202676D02*
X157740476Y-59297914D01*
X157740476Y-59297914D02*
X157692857Y-59488390D01*
X157692857Y-59488390D02*
X157692857Y-59631247D01*
X157692857Y-59631247D02*
X157740476Y-59821723D01*
X157740476Y-59821723D02*
X157788095Y-59916961D01*
X157788095Y-59916961D02*
X157883333Y-60012200D01*
X157883333Y-60012200D02*
X158026190Y-60059819D01*
X158026190Y-60059819D02*
X158264285Y-60059819D01*
X157311904Y-59774104D02*
X156835714Y-59774104D01*
X157407142Y-60059819D02*
X157073809Y-59059819D01*
X157073809Y-59059819D02*
X156740476Y-60059819D01*
X157626666Y-75299819D02*
X157959999Y-74823628D01*
X158198094Y-75299819D02*
X158198094Y-74299819D01*
X158198094Y-74299819D02*
X157817142Y-74299819D01*
X157817142Y-74299819D02*
X157721904Y-74347438D01*
X157721904Y-74347438D02*
X157674285Y-74395057D01*
X157674285Y-74395057D02*
X157626666Y-74490295D01*
X157626666Y-74490295D02*
X157626666Y-74633152D01*
X157626666Y-74633152D02*
X157674285Y-74728390D01*
X157674285Y-74728390D02*
X157721904Y-74776009D01*
X157721904Y-74776009D02*
X157817142Y-74823628D01*
X157817142Y-74823628D02*
X158198094Y-74823628D01*
X157293332Y-74299819D02*
X156674285Y-74299819D01*
X156674285Y-74299819D02*
X157007618Y-74680771D01*
X157007618Y-74680771D02*
X156864761Y-74680771D01*
X156864761Y-74680771D02*
X156769523Y-74728390D01*
X156769523Y-74728390D02*
X156721904Y-74776009D01*
X156721904Y-74776009D02*
X156674285Y-74871247D01*
X156674285Y-74871247D02*
X156674285Y-75109342D01*
X156674285Y-75109342D02*
X156721904Y-75204580D01*
X156721904Y-75204580D02*
X156769523Y-75252200D01*
X156769523Y-75252200D02*
X156864761Y-75299819D01*
X156864761Y-75299819D02*
X157150475Y-75299819D01*
X157150475Y-75299819D02*
X157245713Y-75252200D01*
X157245713Y-75252200D02*
X157293332Y-75204580D01*
X159121428Y-52439819D02*
X159121428Y-51439819D01*
X159121428Y-51439819D02*
X158883333Y-51439819D01*
X158883333Y-51439819D02*
X158740476Y-51487438D01*
X158740476Y-51487438D02*
X158645238Y-51582676D01*
X158645238Y-51582676D02*
X158597619Y-51677914D01*
X158597619Y-51677914D02*
X158550000Y-51868390D01*
X158550000Y-51868390D02*
X158550000Y-52011247D01*
X158550000Y-52011247D02*
X158597619Y-52201723D01*
X158597619Y-52201723D02*
X158645238Y-52296961D01*
X158645238Y-52296961D02*
X158740476Y-52392200D01*
X158740476Y-52392200D02*
X158883333Y-52439819D01*
X158883333Y-52439819D02*
X159121428Y-52439819D01*
X158169047Y-52154104D02*
X157692857Y-52154104D01*
X158264285Y-52439819D02*
X157930952Y-51439819D01*
X157930952Y-51439819D02*
X157597619Y-52439819D01*
X157407142Y-51439819D02*
X156835714Y-51439819D01*
X157121428Y-52439819D02*
X157121428Y-51439819D01*
X162283332Y-56519819D02*
X161949999Y-57519819D01*
X161949999Y-57519819D02*
X161616666Y-56519819D01*
X160711904Y-57424580D02*
X160759523Y-57472200D01*
X160759523Y-57472200D02*
X160902380Y-57519819D01*
X160902380Y-57519819D02*
X160997618Y-57519819D01*
X160997618Y-57519819D02*
X161140475Y-57472200D01*
X161140475Y-57472200D02*
X161235713Y-57376961D01*
X161235713Y-57376961D02*
X161283332Y-57281723D01*
X161283332Y-57281723D02*
X161330951Y-57091247D01*
X161330951Y-57091247D02*
X161330951Y-56948390D01*
X161330951Y-56948390D02*
X161283332Y-56757914D01*
X161283332Y-56757914D02*
X161235713Y-56662676D01*
X161235713Y-56662676D02*
X161140475Y-56567438D01*
X161140475Y-56567438D02*
X160997618Y-56519819D01*
X160997618Y-56519819D02*
X160902380Y-56519819D01*
X160902380Y-56519819D02*
X160759523Y-56567438D01*
X160759523Y-56567438D02*
X160711904Y-56615057D01*
X159711904Y-57424580D02*
X159759523Y-57472200D01*
X159759523Y-57472200D02*
X159902380Y-57519819D01*
X159902380Y-57519819D02*
X159997618Y-57519819D01*
X159997618Y-57519819D02*
X160140475Y-57472200D01*
X160140475Y-57472200D02*
X160235713Y-57376961D01*
X160235713Y-57376961D02*
X160283332Y-57281723D01*
X160283332Y-57281723D02*
X160330951Y-57091247D01*
X160330951Y-57091247D02*
X160330951Y-56948390D01*
X160330951Y-56948390D02*
X160283332Y-56757914D01*
X160283332Y-56757914D02*
X160235713Y-56662676D01*
X160235713Y-56662676D02*
X160140475Y-56567438D01*
X160140475Y-56567438D02*
X159997618Y-56519819D01*
X159997618Y-56519819D02*
X159902380Y-56519819D01*
X159902380Y-56519819D02*
X159759523Y-56567438D01*
X159759523Y-56567438D02*
X159711904Y-56615057D01*
X161497619Y-54979819D02*
X161830952Y-54503628D01*
X162069047Y-54979819D02*
X162069047Y-53979819D01*
X162069047Y-53979819D02*
X161688095Y-53979819D01*
X161688095Y-53979819D02*
X161592857Y-54027438D01*
X161592857Y-54027438D02*
X161545238Y-54075057D01*
X161545238Y-54075057D02*
X161497619Y-54170295D01*
X161497619Y-54170295D02*
X161497619Y-54313152D01*
X161497619Y-54313152D02*
X161545238Y-54408390D01*
X161545238Y-54408390D02*
X161592857Y-54456009D01*
X161592857Y-54456009D02*
X161688095Y-54503628D01*
X161688095Y-54503628D02*
X162069047Y-54503628D01*
X161116666Y-54932200D02*
X160973809Y-54979819D01*
X160973809Y-54979819D02*
X160735714Y-54979819D01*
X160735714Y-54979819D02*
X160640476Y-54932200D01*
X160640476Y-54932200D02*
X160592857Y-54884580D01*
X160592857Y-54884580D02*
X160545238Y-54789342D01*
X160545238Y-54789342D02*
X160545238Y-54694104D01*
X160545238Y-54694104D02*
X160592857Y-54598866D01*
X160592857Y-54598866D02*
X160640476Y-54551247D01*
X160640476Y-54551247D02*
X160735714Y-54503628D01*
X160735714Y-54503628D02*
X160926190Y-54456009D01*
X160926190Y-54456009D02*
X161021428Y-54408390D01*
X161021428Y-54408390D02*
X161069047Y-54360771D01*
X161069047Y-54360771D02*
X161116666Y-54265533D01*
X161116666Y-54265533D02*
X161116666Y-54170295D01*
X161116666Y-54170295D02*
X161069047Y-54075057D01*
X161069047Y-54075057D02*
X161021428Y-54027438D01*
X161021428Y-54027438D02*
X160926190Y-53979819D01*
X160926190Y-53979819D02*
X160688095Y-53979819D01*
X160688095Y-53979819D02*
X160545238Y-54027438D01*
X160259523Y-53979819D02*
X159688095Y-53979819D01*
X159973809Y-54979819D02*
X159973809Y-53979819D01*
X161706666Y-59964580D02*
X161754285Y-60012200D01*
X161754285Y-60012200D02*
X161897142Y-60059819D01*
X161897142Y-60059819D02*
X161992380Y-60059819D01*
X161992380Y-60059819D02*
X162135237Y-60012200D01*
X162135237Y-60012200D02*
X162230475Y-59916961D01*
X162230475Y-59916961D02*
X162278094Y-59821723D01*
X162278094Y-59821723D02*
X162325713Y-59631247D01*
X162325713Y-59631247D02*
X162325713Y-59488390D01*
X162325713Y-59488390D02*
X162278094Y-59297914D01*
X162278094Y-59297914D02*
X162230475Y-59202676D01*
X162230475Y-59202676D02*
X162135237Y-59107438D01*
X162135237Y-59107438D02*
X161992380Y-59059819D01*
X161992380Y-59059819D02*
X161897142Y-59059819D01*
X161897142Y-59059819D02*
X161754285Y-59107438D01*
X161754285Y-59107438D02*
X161706666Y-59155057D01*
X161087618Y-59059819D02*
X160992380Y-59059819D01*
X160992380Y-59059819D02*
X160897142Y-59107438D01*
X160897142Y-59107438D02*
X160849523Y-59155057D01*
X160849523Y-59155057D02*
X160801904Y-59250295D01*
X160801904Y-59250295D02*
X160754285Y-59440771D01*
X160754285Y-59440771D02*
X160754285Y-59678866D01*
X160754285Y-59678866D02*
X160801904Y-59869342D01*
X160801904Y-59869342D02*
X160849523Y-59964580D01*
X160849523Y-59964580D02*
X160897142Y-60012200D01*
X160897142Y-60012200D02*
X160992380Y-60059819D01*
X160992380Y-60059819D02*
X161087618Y-60059819D01*
X161087618Y-60059819D02*
X161182856Y-60012200D01*
X161182856Y-60012200D02*
X161230475Y-59964580D01*
X161230475Y-59964580D02*
X161278094Y-59869342D01*
X161278094Y-59869342D02*
X161325713Y-59678866D01*
X161325713Y-59678866D02*
X161325713Y-59440771D01*
X161325713Y-59440771D02*
X161278094Y-59250295D01*
X161278094Y-59250295D02*
X161230475Y-59155057D01*
X161230475Y-59155057D02*
X161182856Y-59107438D01*
X161182856Y-59107438D02*
X161087618Y-59059819D01*
X157626666Y-67679819D02*
X157959999Y-67203628D01*
X158198094Y-67679819D02*
X158198094Y-66679819D01*
X158198094Y-66679819D02*
X157817142Y-66679819D01*
X157817142Y-66679819D02*
X157721904Y-66727438D01*
X157721904Y-66727438D02*
X157674285Y-66775057D01*
X157674285Y-66775057D02*
X157626666Y-66870295D01*
X157626666Y-66870295D02*
X157626666Y-67013152D01*
X157626666Y-67013152D02*
X157674285Y-67108390D01*
X157674285Y-67108390D02*
X157721904Y-67156009D01*
X157721904Y-67156009D02*
X157817142Y-67203628D01*
X157817142Y-67203628D02*
X158198094Y-67203628D01*
X157007618Y-66679819D02*
X156912380Y-66679819D01*
X156912380Y-66679819D02*
X156817142Y-66727438D01*
X156817142Y-66727438D02*
X156769523Y-66775057D01*
X156769523Y-66775057D02*
X156721904Y-66870295D01*
X156721904Y-66870295D02*
X156674285Y-67060771D01*
X156674285Y-67060771D02*
X156674285Y-67298866D01*
X156674285Y-67298866D02*
X156721904Y-67489342D01*
X156721904Y-67489342D02*
X156769523Y-67584580D01*
X156769523Y-67584580D02*
X156817142Y-67632200D01*
X156817142Y-67632200D02*
X156912380Y-67679819D01*
X156912380Y-67679819D02*
X157007618Y-67679819D01*
X157007618Y-67679819D02*
X157102856Y-67632200D01*
X157102856Y-67632200D02*
X157150475Y-67584580D01*
X157150475Y-67584580D02*
X157198094Y-67489342D01*
X157198094Y-67489342D02*
X157245713Y-67298866D01*
X157245713Y-67298866D02*
X157245713Y-67060771D01*
X157245713Y-67060771D02*
X157198094Y-66870295D01*
X157198094Y-66870295D02*
X157150475Y-66775057D01*
X157150475Y-66775057D02*
X157102856Y-66727438D01*
X157102856Y-66727438D02*
X157007618Y-66679819D01*
X159240475Y-62552200D02*
X159097618Y-62599819D01*
X159097618Y-62599819D02*
X158859523Y-62599819D01*
X158859523Y-62599819D02*
X158764285Y-62552200D01*
X158764285Y-62552200D02*
X158716666Y-62504580D01*
X158716666Y-62504580D02*
X158669047Y-62409342D01*
X158669047Y-62409342D02*
X158669047Y-62314104D01*
X158669047Y-62314104D02*
X158716666Y-62218866D01*
X158716666Y-62218866D02*
X158764285Y-62171247D01*
X158764285Y-62171247D02*
X158859523Y-62123628D01*
X158859523Y-62123628D02*
X159049999Y-62076009D01*
X159049999Y-62076009D02*
X159145237Y-62028390D01*
X159145237Y-62028390D02*
X159192856Y-61980771D01*
X159192856Y-61980771D02*
X159240475Y-61885533D01*
X159240475Y-61885533D02*
X159240475Y-61790295D01*
X159240475Y-61790295D02*
X159192856Y-61695057D01*
X159192856Y-61695057D02*
X159145237Y-61647438D01*
X159145237Y-61647438D02*
X159049999Y-61599819D01*
X159049999Y-61599819D02*
X158811904Y-61599819D01*
X158811904Y-61599819D02*
X158669047Y-61647438D01*
X157669047Y-62504580D02*
X157716666Y-62552200D01*
X157716666Y-62552200D02*
X157859523Y-62599819D01*
X157859523Y-62599819D02*
X157954761Y-62599819D01*
X157954761Y-62599819D02*
X158097618Y-62552200D01*
X158097618Y-62552200D02*
X158192856Y-62456961D01*
X158192856Y-62456961D02*
X158240475Y-62361723D01*
X158240475Y-62361723D02*
X158288094Y-62171247D01*
X158288094Y-62171247D02*
X158288094Y-62028390D01*
X158288094Y-62028390D02*
X158240475Y-61837914D01*
X158240475Y-61837914D02*
X158192856Y-61742676D01*
X158192856Y-61742676D02*
X158097618Y-61647438D01*
X158097618Y-61647438D02*
X157954761Y-61599819D01*
X157954761Y-61599819D02*
X157859523Y-61599819D01*
X157859523Y-61599819D02*
X157716666Y-61647438D01*
X157716666Y-61647438D02*
X157669047Y-61695057D01*
X156764285Y-62599819D02*
X157240475Y-62599819D01*
X157240475Y-62599819D02*
X157240475Y-61599819D01*
X162164285Y-77839819D02*
X162164285Y-76839819D01*
X162164285Y-76839819D02*
X161783333Y-76839819D01*
X161783333Y-76839819D02*
X161688095Y-76887438D01*
X161688095Y-76887438D02*
X161640476Y-76935057D01*
X161640476Y-76935057D02*
X161592857Y-77030295D01*
X161592857Y-77030295D02*
X161592857Y-77173152D01*
X161592857Y-77173152D02*
X161640476Y-77268390D01*
X161640476Y-77268390D02*
X161688095Y-77316009D01*
X161688095Y-77316009D02*
X161783333Y-77363628D01*
X161783333Y-77363628D02*
X162164285Y-77363628D01*
X160640476Y-77839819D02*
X161211904Y-77839819D01*
X160926190Y-77839819D02*
X160926190Y-76839819D01*
X160926190Y-76839819D02*
X161021428Y-76982676D01*
X161021428Y-76982676D02*
X161116666Y-77077914D01*
X161116666Y-77077914D02*
X161211904Y-77125533D01*
X160021428Y-76839819D02*
X159926190Y-76839819D01*
X159926190Y-76839819D02*
X159830952Y-76887438D01*
X159830952Y-76887438D02*
X159783333Y-76935057D01*
X159783333Y-76935057D02*
X159735714Y-77030295D01*
X159735714Y-77030295D02*
X159688095Y-77220771D01*
X159688095Y-77220771D02*
X159688095Y-77458866D01*
X159688095Y-77458866D02*
X159735714Y-77649342D01*
X159735714Y-77649342D02*
X159783333Y-77744580D01*
X159783333Y-77744580D02*
X159830952Y-77792200D01*
X159830952Y-77792200D02*
X159926190Y-77839819D01*
X159926190Y-77839819D02*
X160021428Y-77839819D01*
X160021428Y-77839819D02*
X160116666Y-77792200D01*
X160116666Y-77792200D02*
X160164285Y-77744580D01*
X160164285Y-77744580D02*
X160211904Y-77649342D01*
X160211904Y-77649342D02*
X160259523Y-77458866D01*
X160259523Y-77458866D02*
X160259523Y-77220771D01*
X160259523Y-77220771D02*
X160211904Y-77030295D01*
X160211904Y-77030295D02*
X160164285Y-76935057D01*
X160164285Y-76935057D02*
X160116666Y-76887438D01*
X160116666Y-76887438D02*
X160021428Y-76839819D01*
X158811904Y-56567438D02*
X158907142Y-56519819D01*
X158907142Y-56519819D02*
X159049999Y-56519819D01*
X159049999Y-56519819D02*
X159192856Y-56567438D01*
X159192856Y-56567438D02*
X159288094Y-56662676D01*
X159288094Y-56662676D02*
X159335713Y-56757914D01*
X159335713Y-56757914D02*
X159383332Y-56948390D01*
X159383332Y-56948390D02*
X159383332Y-57091247D01*
X159383332Y-57091247D02*
X159335713Y-57281723D01*
X159335713Y-57281723D02*
X159288094Y-57376961D01*
X159288094Y-57376961D02*
X159192856Y-57472200D01*
X159192856Y-57472200D02*
X159049999Y-57519819D01*
X159049999Y-57519819D02*
X158954761Y-57519819D01*
X158954761Y-57519819D02*
X158811904Y-57472200D01*
X158811904Y-57472200D02*
X158764285Y-57424580D01*
X158764285Y-57424580D02*
X158764285Y-57091247D01*
X158764285Y-57091247D02*
X158954761Y-57091247D01*
X158335713Y-57519819D02*
X158335713Y-56519819D01*
X158335713Y-56519819D02*
X157764285Y-57519819D01*
X157764285Y-57519819D02*
X157764285Y-56519819D01*
X157288094Y-57519819D02*
X157288094Y-56519819D01*
X157288094Y-56519819D02*
X157049999Y-56519819D01*
X157049999Y-56519819D02*
X156907142Y-56567438D01*
X156907142Y-56567438D02*
X156811904Y-56662676D01*
X156811904Y-56662676D02*
X156764285Y-56757914D01*
X156764285Y-56757914D02*
X156716666Y-56948390D01*
X156716666Y-56948390D02*
X156716666Y-57091247D01*
X156716666Y-57091247D02*
X156764285Y-57281723D01*
X156764285Y-57281723D02*
X156811904Y-57376961D01*
X156811904Y-57376961D02*
X156907142Y-57472200D01*
X156907142Y-57472200D02*
X157049999Y-57519819D01*
X157049999Y-57519819D02*
X157288094Y-57519819D01*
X161706666Y-65044580D02*
X161754285Y-65092200D01*
X161754285Y-65092200D02*
X161897142Y-65139819D01*
X161897142Y-65139819D02*
X161992380Y-65139819D01*
X161992380Y-65139819D02*
X162135237Y-65092200D01*
X162135237Y-65092200D02*
X162230475Y-64996961D01*
X162230475Y-64996961D02*
X162278094Y-64901723D01*
X162278094Y-64901723D02*
X162325713Y-64711247D01*
X162325713Y-64711247D02*
X162325713Y-64568390D01*
X162325713Y-64568390D02*
X162278094Y-64377914D01*
X162278094Y-64377914D02*
X162230475Y-64282676D01*
X162230475Y-64282676D02*
X162135237Y-64187438D01*
X162135237Y-64187438D02*
X161992380Y-64139819D01*
X161992380Y-64139819D02*
X161897142Y-64139819D01*
X161897142Y-64139819D02*
X161754285Y-64187438D01*
X161754285Y-64187438D02*
X161706666Y-64235057D01*
X161325713Y-64235057D02*
X161278094Y-64187438D01*
X161278094Y-64187438D02*
X161182856Y-64139819D01*
X161182856Y-64139819D02*
X160944761Y-64139819D01*
X160944761Y-64139819D02*
X160849523Y-64187438D01*
X160849523Y-64187438D02*
X160801904Y-64235057D01*
X160801904Y-64235057D02*
X160754285Y-64330295D01*
X160754285Y-64330295D02*
X160754285Y-64425533D01*
X160754285Y-64425533D02*
X160801904Y-64568390D01*
X160801904Y-64568390D02*
X161373332Y-65139819D01*
X161373332Y-65139819D02*
X160754285Y-65139819D01*
X158692857Y-49899819D02*
X159169047Y-49899819D01*
X159169047Y-49899819D02*
X159169047Y-48899819D01*
X158359523Y-49376009D02*
X158026190Y-49376009D01*
X157883333Y-49899819D02*
X158359523Y-49899819D01*
X158359523Y-49899819D02*
X158359523Y-48899819D01*
X158359523Y-48899819D02*
X157883333Y-48899819D01*
X157454761Y-49899819D02*
X157454761Y-48899819D01*
X157454761Y-48899819D02*
X157216666Y-48899819D01*
X157216666Y-48899819D02*
X157073809Y-48947438D01*
X157073809Y-48947438D02*
X156978571Y-49042676D01*
X156978571Y-49042676D02*
X156930952Y-49137914D01*
X156930952Y-49137914D02*
X156883333Y-49328390D01*
X156883333Y-49328390D02*
X156883333Y-49471247D01*
X156883333Y-49471247D02*
X156930952Y-49661723D01*
X156930952Y-49661723D02*
X156978571Y-49756961D01*
X156978571Y-49756961D02*
X157073809Y-49852200D01*
X157073809Y-49852200D02*
X157216666Y-49899819D01*
X157216666Y-49899819D02*
X157454761Y-49899819D01*
X157626666Y-72759819D02*
X157959999Y-72283628D01*
X158198094Y-72759819D02*
X158198094Y-71759819D01*
X158198094Y-71759819D02*
X157817142Y-71759819D01*
X157817142Y-71759819D02*
X157721904Y-71807438D01*
X157721904Y-71807438D02*
X157674285Y-71855057D01*
X157674285Y-71855057D02*
X157626666Y-71950295D01*
X157626666Y-71950295D02*
X157626666Y-72093152D01*
X157626666Y-72093152D02*
X157674285Y-72188390D01*
X157674285Y-72188390D02*
X157721904Y-72236009D01*
X157721904Y-72236009D02*
X157817142Y-72283628D01*
X157817142Y-72283628D02*
X158198094Y-72283628D01*
X157245713Y-71855057D02*
X157198094Y-71807438D01*
X157198094Y-71807438D02*
X157102856Y-71759819D01*
X157102856Y-71759819D02*
X156864761Y-71759819D01*
X156864761Y-71759819D02*
X156769523Y-71807438D01*
X156769523Y-71807438D02*
X156721904Y-71855057D01*
X156721904Y-71855057D02*
X156674285Y-71950295D01*
X156674285Y-71950295D02*
X156674285Y-72045533D01*
X156674285Y-72045533D02*
X156721904Y-72188390D01*
X156721904Y-72188390D02*
X157293332Y-72759819D01*
X157293332Y-72759819D02*
X156674285Y-72759819D01*
X161706666Y-72664580D02*
X161754285Y-72712200D01*
X161754285Y-72712200D02*
X161897142Y-72759819D01*
X161897142Y-72759819D02*
X161992380Y-72759819D01*
X161992380Y-72759819D02*
X162135237Y-72712200D01*
X162135237Y-72712200D02*
X162230475Y-72616961D01*
X162230475Y-72616961D02*
X162278094Y-72521723D01*
X162278094Y-72521723D02*
X162325713Y-72331247D01*
X162325713Y-72331247D02*
X162325713Y-72188390D01*
X162325713Y-72188390D02*
X162278094Y-71997914D01*
X162278094Y-71997914D02*
X162230475Y-71902676D01*
X162230475Y-71902676D02*
X162135237Y-71807438D01*
X162135237Y-71807438D02*
X161992380Y-71759819D01*
X161992380Y-71759819D02*
X161897142Y-71759819D01*
X161897142Y-71759819D02*
X161754285Y-71807438D01*
X161754285Y-71807438D02*
X161706666Y-71855057D01*
X160801904Y-71759819D02*
X161278094Y-71759819D01*
X161278094Y-71759819D02*
X161325713Y-72236009D01*
X161325713Y-72236009D02*
X161278094Y-72188390D01*
X161278094Y-72188390D02*
X161182856Y-72140771D01*
X161182856Y-72140771D02*
X160944761Y-72140771D01*
X160944761Y-72140771D02*
X160849523Y-72188390D01*
X160849523Y-72188390D02*
X160801904Y-72236009D01*
X160801904Y-72236009D02*
X160754285Y-72331247D01*
X160754285Y-72331247D02*
X160754285Y-72569342D01*
X160754285Y-72569342D02*
X160801904Y-72664580D01*
X160801904Y-72664580D02*
X160849523Y-72712200D01*
X160849523Y-72712200D02*
X160944761Y-72759819D01*
X160944761Y-72759819D02*
X161182856Y-72759819D01*
X161182856Y-72759819D02*
X161278094Y-72712200D01*
X161278094Y-72712200D02*
X161325713Y-72664580D01*
X161640476Y-49899819D02*
X161973809Y-49423628D01*
X162211904Y-49899819D02*
X162211904Y-48899819D01*
X162211904Y-48899819D02*
X161830952Y-48899819D01*
X161830952Y-48899819D02*
X161735714Y-48947438D01*
X161735714Y-48947438D02*
X161688095Y-48995057D01*
X161688095Y-48995057D02*
X161640476Y-49090295D01*
X161640476Y-49090295D02*
X161640476Y-49233152D01*
X161640476Y-49233152D02*
X161688095Y-49328390D01*
X161688095Y-49328390D02*
X161735714Y-49376009D01*
X161735714Y-49376009D02*
X161830952Y-49423628D01*
X161830952Y-49423628D02*
X162211904Y-49423628D01*
X161259523Y-49614104D02*
X160783333Y-49614104D01*
X161354761Y-49899819D02*
X161021428Y-48899819D01*
X161021428Y-48899819D02*
X160688095Y-49899819D01*
X160449999Y-48899819D02*
X160211904Y-49899819D01*
X160211904Y-49899819D02*
X160021428Y-49185533D01*
X160021428Y-49185533D02*
X159830952Y-49899819D01*
X159830952Y-49899819D02*
X159592857Y-48899819D01*
X161711904Y-51487438D02*
X161807142Y-51439819D01*
X161807142Y-51439819D02*
X161949999Y-51439819D01*
X161949999Y-51439819D02*
X162092856Y-51487438D01*
X162092856Y-51487438D02*
X162188094Y-51582676D01*
X162188094Y-51582676D02*
X162235713Y-51677914D01*
X162235713Y-51677914D02*
X162283332Y-51868390D01*
X162283332Y-51868390D02*
X162283332Y-52011247D01*
X162283332Y-52011247D02*
X162235713Y-52201723D01*
X162235713Y-52201723D02*
X162188094Y-52296961D01*
X162188094Y-52296961D02*
X162092856Y-52392200D01*
X162092856Y-52392200D02*
X161949999Y-52439819D01*
X161949999Y-52439819D02*
X161854761Y-52439819D01*
X161854761Y-52439819D02*
X161711904Y-52392200D01*
X161711904Y-52392200D02*
X161664285Y-52344580D01*
X161664285Y-52344580D02*
X161664285Y-52011247D01*
X161664285Y-52011247D02*
X161854761Y-52011247D01*
X161235713Y-52439819D02*
X161235713Y-51439819D01*
X161235713Y-51439819D02*
X160664285Y-52439819D01*
X160664285Y-52439819D02*
X160664285Y-51439819D01*
X160188094Y-52439819D02*
X160188094Y-51439819D01*
X160188094Y-51439819D02*
X159949999Y-51439819D01*
X159949999Y-51439819D02*
X159807142Y-51487438D01*
X159807142Y-51487438D02*
X159711904Y-51582676D01*
X159711904Y-51582676D02*
X159664285Y-51677914D01*
X159664285Y-51677914D02*
X159616666Y-51868390D01*
X159616666Y-51868390D02*
X159616666Y-52011247D01*
X159616666Y-52011247D02*
X159664285Y-52201723D01*
X159664285Y-52201723D02*
X159711904Y-52296961D01*
X159711904Y-52296961D02*
X159807142Y-52392200D01*
X159807142Y-52392200D02*
X159949999Y-52439819D01*
X159949999Y-52439819D02*
X160188094Y-52439819D01*
X158811904Y-54027438D02*
X158907142Y-53979819D01*
X158907142Y-53979819D02*
X159049999Y-53979819D01*
X159049999Y-53979819D02*
X159192856Y-54027438D01*
X159192856Y-54027438D02*
X159288094Y-54122676D01*
X159288094Y-54122676D02*
X159335713Y-54217914D01*
X159335713Y-54217914D02*
X159383332Y-54408390D01*
X159383332Y-54408390D02*
X159383332Y-54551247D01*
X159383332Y-54551247D02*
X159335713Y-54741723D01*
X159335713Y-54741723D02*
X159288094Y-54836961D01*
X159288094Y-54836961D02*
X159192856Y-54932200D01*
X159192856Y-54932200D02*
X159049999Y-54979819D01*
X159049999Y-54979819D02*
X158954761Y-54979819D01*
X158954761Y-54979819D02*
X158811904Y-54932200D01*
X158811904Y-54932200D02*
X158764285Y-54884580D01*
X158764285Y-54884580D02*
X158764285Y-54551247D01*
X158764285Y-54551247D02*
X158954761Y-54551247D01*
X158335713Y-54979819D02*
X158335713Y-53979819D01*
X158335713Y-53979819D02*
X157764285Y-54979819D01*
X157764285Y-54979819D02*
X157764285Y-53979819D01*
X157288094Y-54979819D02*
X157288094Y-53979819D01*
X157288094Y-53979819D02*
X157049999Y-53979819D01*
X157049999Y-53979819D02*
X156907142Y-54027438D01*
X156907142Y-54027438D02*
X156811904Y-54122676D01*
X156811904Y-54122676D02*
X156764285Y-54217914D01*
X156764285Y-54217914D02*
X156716666Y-54408390D01*
X156716666Y-54408390D02*
X156716666Y-54551247D01*
X156716666Y-54551247D02*
X156764285Y-54741723D01*
X156764285Y-54741723D02*
X156811904Y-54836961D01*
X156811904Y-54836961D02*
X156907142Y-54932200D01*
X156907142Y-54932200D02*
X157049999Y-54979819D01*
X157049999Y-54979819D02*
X157288094Y-54979819D01*
X161706666Y-70124580D02*
X161754285Y-70172200D01*
X161754285Y-70172200D02*
X161897142Y-70219819D01*
X161897142Y-70219819D02*
X161992380Y-70219819D01*
X161992380Y-70219819D02*
X162135237Y-70172200D01*
X162135237Y-70172200D02*
X162230475Y-70076961D01*
X162230475Y-70076961D02*
X162278094Y-69981723D01*
X162278094Y-69981723D02*
X162325713Y-69791247D01*
X162325713Y-69791247D02*
X162325713Y-69648390D01*
X162325713Y-69648390D02*
X162278094Y-69457914D01*
X162278094Y-69457914D02*
X162230475Y-69362676D01*
X162230475Y-69362676D02*
X162135237Y-69267438D01*
X162135237Y-69267438D02*
X161992380Y-69219819D01*
X161992380Y-69219819D02*
X161897142Y-69219819D01*
X161897142Y-69219819D02*
X161754285Y-69267438D01*
X161754285Y-69267438D02*
X161706666Y-69315057D01*
X160849523Y-69553152D02*
X160849523Y-70219819D01*
X161087618Y-69172200D02*
X161325713Y-69886485D01*
X161325713Y-69886485D02*
X160706666Y-69886485D01*
X161706666Y-62504580D02*
X161754285Y-62552200D01*
X161754285Y-62552200D02*
X161897142Y-62599819D01*
X161897142Y-62599819D02*
X161992380Y-62599819D01*
X161992380Y-62599819D02*
X162135237Y-62552200D01*
X162135237Y-62552200D02*
X162230475Y-62456961D01*
X162230475Y-62456961D02*
X162278094Y-62361723D01*
X162278094Y-62361723D02*
X162325713Y-62171247D01*
X162325713Y-62171247D02*
X162325713Y-62028390D01*
X162325713Y-62028390D02*
X162278094Y-61837914D01*
X162278094Y-61837914D02*
X162230475Y-61742676D01*
X162230475Y-61742676D02*
X162135237Y-61647438D01*
X162135237Y-61647438D02*
X161992380Y-61599819D01*
X161992380Y-61599819D02*
X161897142Y-61599819D01*
X161897142Y-61599819D02*
X161754285Y-61647438D01*
X161754285Y-61647438D02*
X161706666Y-61695057D01*
X160754285Y-62599819D02*
X161325713Y-62599819D01*
X161039999Y-62599819D02*
X161039999Y-61599819D01*
X161039999Y-61599819D02*
X161135237Y-61742676D01*
X161135237Y-61742676D02*
X161230475Y-61837914D01*
X161230475Y-61837914D02*
X161325713Y-61885533D01*
X157626666Y-70219819D02*
X157959999Y-69743628D01*
X158198094Y-70219819D02*
X158198094Y-69219819D01*
X158198094Y-69219819D02*
X157817142Y-69219819D01*
X157817142Y-69219819D02*
X157721904Y-69267438D01*
X157721904Y-69267438D02*
X157674285Y-69315057D01*
X157674285Y-69315057D02*
X157626666Y-69410295D01*
X157626666Y-69410295D02*
X157626666Y-69553152D01*
X157626666Y-69553152D02*
X157674285Y-69648390D01*
X157674285Y-69648390D02*
X157721904Y-69696009D01*
X157721904Y-69696009D02*
X157817142Y-69743628D01*
X157817142Y-69743628D02*
X158198094Y-69743628D01*
X156674285Y-70219819D02*
X157245713Y-70219819D01*
X156959999Y-70219819D02*
X156959999Y-69219819D01*
X156959999Y-69219819D02*
X157055237Y-69362676D01*
X157055237Y-69362676D02*
X157150475Y-69457914D01*
X157150475Y-69457914D02*
X157245713Y-69505533D01*
X162164285Y-75299819D02*
X162164285Y-74299819D01*
X162164285Y-74299819D02*
X161783333Y-74299819D01*
X161783333Y-74299819D02*
X161688095Y-74347438D01*
X161688095Y-74347438D02*
X161640476Y-74395057D01*
X161640476Y-74395057D02*
X161592857Y-74490295D01*
X161592857Y-74490295D02*
X161592857Y-74633152D01*
X161592857Y-74633152D02*
X161640476Y-74728390D01*
X161640476Y-74728390D02*
X161688095Y-74776009D01*
X161688095Y-74776009D02*
X161783333Y-74823628D01*
X161783333Y-74823628D02*
X162164285Y-74823628D01*
X160640476Y-75299819D02*
X161211904Y-75299819D01*
X160926190Y-75299819D02*
X160926190Y-74299819D01*
X160926190Y-74299819D02*
X161021428Y-74442676D01*
X161021428Y-74442676D02*
X161116666Y-74537914D01*
X161116666Y-74537914D02*
X161211904Y-74585533D01*
X159783333Y-74299819D02*
X159973809Y-74299819D01*
X159973809Y-74299819D02*
X160069047Y-74347438D01*
X160069047Y-74347438D02*
X160116666Y-74395057D01*
X160116666Y-74395057D02*
X160211904Y-74537914D01*
X160211904Y-74537914D02*
X160259523Y-74728390D01*
X160259523Y-74728390D02*
X160259523Y-75109342D01*
X160259523Y-75109342D02*
X160211904Y-75204580D01*
X160211904Y-75204580D02*
X160164285Y-75252200D01*
X160164285Y-75252200D02*
X160069047Y-75299819D01*
X160069047Y-75299819D02*
X159878571Y-75299819D01*
X159878571Y-75299819D02*
X159783333Y-75252200D01*
X159783333Y-75252200D02*
X159735714Y-75204580D01*
X159735714Y-75204580D02*
X159688095Y-75109342D01*
X159688095Y-75109342D02*
X159688095Y-74871247D01*
X159688095Y-74871247D02*
X159735714Y-74776009D01*
X159735714Y-74776009D02*
X159783333Y-74728390D01*
X159783333Y-74728390D02*
X159878571Y-74680771D01*
X159878571Y-74680771D02*
X160069047Y-74680771D01*
X160069047Y-74680771D02*
X160164285Y-74728390D01*
X160164285Y-74728390D02*
X160211904Y-74776009D01*
X160211904Y-74776009D02*
X160259523Y-74871247D01*
X157626666Y-65044580D02*
X157674285Y-65092200D01*
X157674285Y-65092200D02*
X157817142Y-65139819D01*
X157817142Y-65139819D02*
X157912380Y-65139819D01*
X157912380Y-65139819D02*
X158055237Y-65092200D01*
X158055237Y-65092200D02*
X158150475Y-64996961D01*
X158150475Y-64996961D02*
X158198094Y-64901723D01*
X158198094Y-64901723D02*
X158245713Y-64711247D01*
X158245713Y-64711247D02*
X158245713Y-64568390D01*
X158245713Y-64568390D02*
X158198094Y-64377914D01*
X158198094Y-64377914D02*
X158150475Y-64282676D01*
X158150475Y-64282676D02*
X158055237Y-64187438D01*
X158055237Y-64187438D02*
X157912380Y-64139819D01*
X157912380Y-64139819D02*
X157817142Y-64139819D01*
X157817142Y-64139819D02*
X157674285Y-64187438D01*
X157674285Y-64187438D02*
X157626666Y-64235057D01*
X157245713Y-65092200D02*
X157102856Y-65139819D01*
X157102856Y-65139819D02*
X156864761Y-65139819D01*
X156864761Y-65139819D02*
X156769523Y-65092200D01*
X156769523Y-65092200D02*
X156721904Y-65044580D01*
X156721904Y-65044580D02*
X156674285Y-64949342D01*
X156674285Y-64949342D02*
X156674285Y-64854104D01*
X156674285Y-64854104D02*
X156721904Y-64758866D01*
X156721904Y-64758866D02*
X156769523Y-64711247D01*
X156769523Y-64711247D02*
X156864761Y-64663628D01*
X156864761Y-64663628D02*
X157055237Y-64616009D01*
X157055237Y-64616009D02*
X157150475Y-64568390D01*
X157150475Y-64568390D02*
X157198094Y-64520771D01*
X157198094Y-64520771D02*
X157245713Y-64425533D01*
X157245713Y-64425533D02*
X157245713Y-64330295D01*
X157245713Y-64330295D02*
X157198094Y-64235057D01*
X157198094Y-64235057D02*
X157150475Y-64187438D01*
X157150475Y-64187438D02*
X157055237Y-64139819D01*
X157055237Y-64139819D02*
X156817142Y-64139819D01*
X156817142Y-64139819D02*
X156674285Y-64187438D01*
X161706666Y-67584580D02*
X161754285Y-67632200D01*
X161754285Y-67632200D02*
X161897142Y-67679819D01*
X161897142Y-67679819D02*
X161992380Y-67679819D01*
X161992380Y-67679819D02*
X162135237Y-67632200D01*
X162135237Y-67632200D02*
X162230475Y-67536961D01*
X162230475Y-67536961D02*
X162278094Y-67441723D01*
X162278094Y-67441723D02*
X162325713Y-67251247D01*
X162325713Y-67251247D02*
X162325713Y-67108390D01*
X162325713Y-67108390D02*
X162278094Y-66917914D01*
X162278094Y-66917914D02*
X162230475Y-66822676D01*
X162230475Y-66822676D02*
X162135237Y-66727438D01*
X162135237Y-66727438D02*
X161992380Y-66679819D01*
X161992380Y-66679819D02*
X161897142Y-66679819D01*
X161897142Y-66679819D02*
X161754285Y-66727438D01*
X161754285Y-66727438D02*
X161706666Y-66775057D01*
X161373332Y-66679819D02*
X160754285Y-66679819D01*
X160754285Y-66679819D02*
X161087618Y-67060771D01*
X161087618Y-67060771D02*
X160944761Y-67060771D01*
X160944761Y-67060771D02*
X160849523Y-67108390D01*
X160849523Y-67108390D02*
X160801904Y-67156009D01*
X160801904Y-67156009D02*
X160754285Y-67251247D01*
X160754285Y-67251247D02*
X160754285Y-67489342D01*
X160754285Y-67489342D02*
X160801904Y-67584580D01*
X160801904Y-67584580D02*
X160849523Y-67632200D01*
X160849523Y-67632200D02*
X160944761Y-67679819D01*
X160944761Y-67679819D02*
X161230475Y-67679819D01*
X161230475Y-67679819D02*
X161325713Y-67632200D01*
X161325713Y-67632200D02*
X161373332Y-67584580D01*
X168677380Y-97324819D02*
X168486904Y-97324819D01*
X168486904Y-97324819D02*
X168391666Y-97372438D01*
X168391666Y-97372438D02*
X168296428Y-97467676D01*
X168296428Y-97467676D02*
X168248809Y-97658152D01*
X168248809Y-97658152D02*
X168248809Y-97991485D01*
X168248809Y-97991485D02*
X168296428Y-98181961D01*
X168296428Y-98181961D02*
X168391666Y-98277200D01*
X168391666Y-98277200D02*
X168486904Y-98324819D01*
X168486904Y-98324819D02*
X168677380Y-98324819D01*
X168677380Y-98324819D02*
X168772618Y-98277200D01*
X168772618Y-98277200D02*
X168867856Y-98181961D01*
X168867856Y-98181961D02*
X168915475Y-97991485D01*
X168915475Y-97991485D02*
X168915475Y-97658152D01*
X168915475Y-97658152D02*
X168867856Y-97467676D01*
X168867856Y-97467676D02*
X168772618Y-97372438D01*
X168772618Y-97372438D02*
X168677380Y-97324819D01*
X167486904Y-97801009D02*
X167820237Y-97801009D01*
X167820237Y-98324819D02*
X167820237Y-97324819D01*
X167820237Y-97324819D02*
X167344047Y-97324819D01*
X166629761Y-97801009D02*
X166963094Y-97801009D01*
X166963094Y-98324819D02*
X166963094Y-97324819D01*
X166963094Y-97324819D02*
X166486904Y-97324819D01*
X168344047Y-87324819D02*
X168153571Y-87324819D01*
X168153571Y-87324819D02*
X168058333Y-87372438D01*
X168058333Y-87372438D02*
X167963095Y-87467676D01*
X167963095Y-87467676D02*
X167915476Y-87658152D01*
X167915476Y-87658152D02*
X167915476Y-87991485D01*
X167915476Y-87991485D02*
X167963095Y-88181961D01*
X167963095Y-88181961D02*
X168058333Y-88277200D01*
X168058333Y-88277200D02*
X168153571Y-88324819D01*
X168153571Y-88324819D02*
X168344047Y-88324819D01*
X168344047Y-88324819D02*
X168439285Y-88277200D01*
X168439285Y-88277200D02*
X168534523Y-88181961D01*
X168534523Y-88181961D02*
X168582142Y-87991485D01*
X168582142Y-87991485D02*
X168582142Y-87658152D01*
X168582142Y-87658152D02*
X168534523Y-87467676D01*
X168534523Y-87467676D02*
X168439285Y-87372438D01*
X168439285Y-87372438D02*
X168344047Y-87324819D01*
X167486904Y-88324819D02*
X167486904Y-87324819D01*
X167486904Y-87324819D02*
X166915476Y-88324819D01*
X166915476Y-88324819D02*
X166915476Y-87324819D01*
D12*
%TO.C,MCU1*%
X150550000Y-48115000D02*
X150550000Y-78715000D01*
X150550000Y-50715000D02*
X153210000Y-50715000D01*
X153210000Y-48115000D02*
X150550000Y-48115000D01*
X153210000Y-48115000D02*
X153210000Y-78715000D01*
X153210000Y-78715000D02*
X150550000Y-78715000D01*
X165790000Y-48115000D02*
X165790000Y-78715000D01*
X168450000Y-48115000D02*
X165790000Y-48115000D01*
X168450000Y-48115000D02*
X168450000Y-78715000D01*
X168450000Y-78715000D02*
X165790000Y-78715000D01*
%TO.C,PWR1*%
X166300000Y-91270000D02*
X166300000Y-92970000D01*
X166300000Y-94270000D02*
X166300000Y-94470000D01*
X167350000Y-89420000D02*
X168140000Y-89420000D01*
X168140000Y-96320000D02*
X167350000Y-96320000D01*
X169150000Y-90020000D02*
X169150000Y-95720000D01*
D13*
%TO.C,RST1*%
X166134000Y-81420000D02*
X166134000Y-81170000D01*
X166134000Y-85620000D02*
X166134000Y-85870000D01*
X166384000Y-81170000D02*
X166134000Y-81170000D01*
X166384000Y-85870000D02*
X166134000Y-85870000D01*
X169384000Y-81170000D02*
X169634000Y-81170000D01*
X169384000Y-85870000D02*
X169634000Y-85870000D01*
X169634000Y-81420000D02*
X169634000Y-81170000D01*
X169634000Y-85620000D02*
X169634000Y-85870000D01*
%TO.C,JST1*%
X155825000Y-87530000D02*
X155825000Y-88530000D01*
X155825000Y-90530000D02*
X155825000Y-89530000D01*
X156325000Y-88030000D02*
X155325000Y-88030000D01*
D12*
X156865000Y-85970000D02*
X157865000Y-85970000D01*
X156865000Y-86890000D02*
X156865000Y-85970000D01*
X156865000Y-91170000D02*
X156865000Y-92090000D01*
X156865000Y-92090000D02*
X157865000Y-92090000D01*
X164685000Y-85970000D02*
X163685000Y-85970000D01*
X164685000Y-86970000D02*
X164685000Y-85970000D01*
X164685000Y-91170000D02*
X164685000Y-92090000D01*
X164685000Y-92090000D02*
X163685000Y-92090000D01*
D11*
%TO.C,S21*%
X144612761Y-106133788D02*
X144831269Y-106806286D01*
X145974732Y-103460768D02*
X144612761Y-106133788D01*
X146647231Y-103242260D02*
X145974732Y-103460768D01*
X146647231Y-103242260D02*
X147466957Y-103659931D01*
X148219816Y-103459922D02*
X150253693Y-99468213D01*
X148622290Y-108176745D02*
X147949792Y-108395253D01*
X149666468Y-106127430D02*
X148622290Y-108176745D01*
X150253693Y-99468213D02*
X150788297Y-99740608D01*
X152398466Y-105611498D02*
X151774762Y-105293705D01*
X153995920Y-101374973D02*
X154441424Y-101601969D01*
X154441424Y-101601969D02*
X152398466Y-105611498D01*
X148219816Y-103459922D02*
G75*
G02*
X147466957Y-103659931I-476434J276425D01*
G01*
X149666468Y-106127430D02*
G75*
G02*
X151756942Y-105284624I1466640J-623834D01*
G01*
%TO.C,S1*%
X43000000Y-101500000D02*
X47500000Y-101500000D01*
X43000000Y-102000000D02*
X43000000Y-101500000D01*
X43000000Y-106200000D02*
X43000000Y-105600000D01*
X47480000Y-106200000D02*
X43000000Y-106200000D01*
X47500000Y-101500000D02*
X47500000Y-102200000D01*
X48000000Y-107700000D02*
X48000000Y-106780000D01*
X48000000Y-107700000D02*
X48500000Y-108200000D01*
X48500000Y-108200000D02*
X51500000Y-108200000D01*
X49200000Y-103700000D02*
X51500000Y-103700000D01*
X51500000Y-103700000D02*
X52000000Y-104200000D01*
X51500000Y-108200000D02*
X52000000Y-107700000D01*
X47480000Y-106200000D02*
G75*
G02*
X48000000Y-106780000I-30000J-550000D01*
G01*
X49200000Y-103700000D02*
G75*
G02*
X47500000Y-102220000I-110000J1590000D01*
G01*
D13*
%TO.C,D20*%
X124891225Y-102963254D02*
X125432887Y-102487226D01*
X125277595Y-103066781D02*
X125148186Y-103549744D01*
X125432887Y-102487226D02*
X124901626Y-102344875D01*
X125432887Y-102487226D02*
X125663966Y-103170309D01*
X125432887Y-102487226D02*
X125964146Y-102629576D01*
X125536414Y-102100856D02*
X125432887Y-102487226D01*
X125663966Y-103170309D02*
X124891225Y-102963254D01*
%TO.C,D6*%
X59850000Y-62950000D02*
X60250000Y-62350000D01*
X60250000Y-61950000D02*
X60250000Y-62350000D01*
X60250000Y-62350000D02*
X59700000Y-62350000D01*
X60250000Y-62350000D02*
X60650000Y-62950000D01*
X60250000Y-62350000D02*
X60800000Y-62350000D01*
X60250000Y-62950000D02*
X60250000Y-63450000D01*
X60650000Y-62950000D02*
X59850000Y-62950000D01*
%TO.C,D14*%
X113850000Y-68070000D02*
X114250000Y-67470000D01*
X114250000Y-67070000D02*
X114250000Y-67470000D01*
X114250000Y-67470000D02*
X113700000Y-67470000D01*
X114250000Y-67470000D02*
X114650000Y-68070000D01*
X114250000Y-67470000D02*
X114800000Y-67470000D01*
X114250000Y-68070000D02*
X114250000Y-68570000D01*
X114650000Y-68070000D02*
X113850000Y-68070000D01*
%TO.C,D8*%
X77850000Y-68070000D02*
X78250000Y-67470000D01*
X78250000Y-67070000D02*
X78250000Y-67470000D01*
X78250000Y-67470000D02*
X77700000Y-67470000D01*
X78250000Y-67470000D02*
X78650000Y-68070000D01*
X78250000Y-67470000D02*
X78800000Y-67470000D01*
X78250000Y-68070000D02*
X78250000Y-68570000D01*
X78650000Y-68070000D02*
X77850000Y-68070000D01*
D11*
%TO.C,S7*%
X79000000Y-87820000D02*
X83500000Y-87820000D01*
X79000000Y-88320000D02*
X79000000Y-87820000D01*
X79000000Y-92520000D02*
X79000000Y-91920000D01*
X83480000Y-92520000D02*
X79000000Y-92520000D01*
X83500000Y-87820000D02*
X83500000Y-88520000D01*
X84000000Y-94020000D02*
X84000000Y-93100000D01*
X84000000Y-94020000D02*
X84500000Y-94520000D01*
X84500000Y-94520000D02*
X87500000Y-94520000D01*
X85200000Y-90020000D02*
X87500000Y-90020000D01*
X87500000Y-90020000D02*
X88000000Y-90520000D01*
X87500000Y-94520000D02*
X88000000Y-94020000D01*
X83480000Y-92520000D02*
G75*
G02*
X84000000Y-93100000I-30000J-550000D01*
G01*
X85200000Y-90020000D02*
G75*
G02*
X83500000Y-88540000I-110000J1590000D01*
G01*
%TO.C,S22*%
X161163103Y-114978175D02*
X161298025Y-115672290D01*
X162840681Y-112491062D02*
X161163103Y-114978175D01*
X163534796Y-112356139D02*
X162840681Y-112491062D01*
X163534796Y-112356139D02*
X164297511Y-112870597D01*
X164893772Y-117494543D02*
X164199656Y-117629465D01*
X165069133Y-112763829D02*
X167574317Y-109049741D01*
X166179915Y-115587756D02*
X164893772Y-117494543D01*
X167574317Y-109049741D02*
X168071740Y-109385257D01*
X168954426Y-115408617D02*
X168374100Y-115017182D01*
X171056275Y-111398351D02*
X171470794Y-111677948D01*
X171470794Y-111677948D02*
X168954426Y-115408617D01*
X165069133Y-112763829D02*
G75*
G02*
X164297511Y-112870597I-439195J332427D01*
G01*
X166179915Y-115587756D02*
G75*
G02*
X168357519Y-115005998I1379681J-797923D01*
G01*
%TO.C,S5*%
X61000000Y-82700000D02*
X65500000Y-82700000D01*
X61000000Y-83200000D02*
X61000000Y-82700000D01*
X61000000Y-87400000D02*
X61000000Y-86800000D01*
X65480000Y-87400000D02*
X61000000Y-87400000D01*
X65500000Y-82700000D02*
X65500000Y-83400000D01*
X66000000Y-88900000D02*
X66000000Y-87980000D01*
X66000000Y-88900000D02*
X66500000Y-89400000D01*
X66500000Y-89400000D02*
X69500000Y-89400000D01*
X67200000Y-84900000D02*
X69500000Y-84900000D01*
X69500000Y-84900000D02*
X70000000Y-85400000D01*
X69500000Y-89400000D02*
X70000000Y-88900000D01*
X65480000Y-87400000D02*
G75*
G02*
X66000000Y-87980000I-30000J-550000D01*
G01*
X67200000Y-84900000D02*
G75*
G02*
X65500000Y-83420000I-110000J1590000D01*
G01*
D13*
%TO.C,D7*%
X77850000Y-85070000D02*
X78250000Y-84470000D01*
X78250000Y-84070000D02*
X78250000Y-84470000D01*
X78250000Y-84470000D02*
X77700000Y-84470000D01*
X78250000Y-84470000D02*
X78650000Y-85070000D01*
X78250000Y-84470000D02*
X78800000Y-84470000D01*
X78250000Y-85070000D02*
X78250000Y-85570000D01*
X78650000Y-85070000D02*
X77850000Y-85070000D01*
%TO.C,D16*%
X131850000Y-87770000D02*
X132250000Y-87170000D01*
X132250000Y-86770000D02*
X132250000Y-87170000D01*
X132250000Y-87170000D02*
X131700000Y-87170000D01*
X132250000Y-87170000D02*
X132650000Y-87770000D01*
X132250000Y-87170000D02*
X132800000Y-87170000D01*
X132250000Y-87770000D02*
X132250000Y-88270000D01*
X132650000Y-87770000D02*
X131850000Y-87770000D01*
%TO.C,D12*%
X95850000Y-46570000D02*
X96250000Y-45970000D01*
X96250000Y-45570000D02*
X96250000Y-45970000D01*
X96250000Y-45970000D02*
X95700000Y-45970000D01*
X96250000Y-45970000D02*
X96650000Y-46570000D01*
X96250000Y-45970000D02*
X96800000Y-45970000D01*
X96250000Y-46570000D02*
X96250000Y-47070000D01*
X96650000Y-46570000D02*
X95850000Y-46570000D01*
D11*
%TO.C,S10*%
X97000000Y-83320000D02*
X101500000Y-83320000D01*
X97000000Y-83820000D02*
X97000000Y-83320000D01*
X97000000Y-88020000D02*
X97000000Y-87420000D01*
X101480000Y-88020000D02*
X97000000Y-88020000D01*
X101500000Y-83320000D02*
X101500000Y-84020000D01*
X102000000Y-89520000D02*
X102000000Y-88600000D01*
X102000000Y-89520000D02*
X102500000Y-90020000D01*
X102500000Y-90020000D02*
X105500000Y-90020000D01*
X103200000Y-85520000D02*
X105500000Y-85520000D01*
X105500000Y-85520000D02*
X106000000Y-86020000D01*
X105500000Y-90020000D02*
X106000000Y-89520000D01*
X101480000Y-88020000D02*
G75*
G02*
X102000000Y-88600000I-30000J-550000D01*
G01*
X103200000Y-85520000D02*
G75*
G02*
X101500000Y-84040000I-110000J1590000D01*
G01*
%TO.C,S12*%
X97000000Y-49320000D02*
X101500000Y-49320000D01*
X97000000Y-49820000D02*
X97000000Y-49320000D01*
X97000000Y-54020000D02*
X97000000Y-53420000D01*
X101480000Y-54020000D02*
X97000000Y-54020000D01*
X101500000Y-49320000D02*
X101500000Y-50020000D01*
X102000000Y-55520000D02*
X102000000Y-54600000D01*
X102000000Y-55520000D02*
X102500000Y-56020000D01*
X102500000Y-56020000D02*
X105500000Y-56020000D01*
X103200000Y-51520000D02*
X105500000Y-51520000D01*
X105500000Y-51520000D02*
X106000000Y-52020000D01*
X105500000Y-56020000D02*
X106000000Y-55520000D01*
X101480000Y-54020000D02*
G75*
G02*
X102000000Y-54600000I-30000J-550000D01*
G01*
X103200000Y-51520000D02*
G75*
G02*
X101500000Y-50040000I-110000J1590000D01*
G01*
%TO.C,S2*%
X43000000Y-84500000D02*
X47500000Y-84500000D01*
X43000000Y-85000000D02*
X43000000Y-84500000D01*
X43000000Y-89200000D02*
X43000000Y-88600000D01*
X47480000Y-89200000D02*
X43000000Y-89200000D01*
X47500000Y-84500000D02*
X47500000Y-85200000D01*
X48000000Y-90700000D02*
X48000000Y-89780000D01*
X48000000Y-90700000D02*
X48500000Y-91200000D01*
X48500000Y-91200000D02*
X51500000Y-91200000D01*
X49200000Y-86700000D02*
X51500000Y-86700000D01*
X51500000Y-86700000D02*
X52000000Y-87200000D01*
X51500000Y-91200000D02*
X52000000Y-90700000D01*
X47480000Y-89200000D02*
G75*
G02*
X48000000Y-89780000I-30000J-550000D01*
G01*
X49200000Y-86700000D02*
G75*
G02*
X47500000Y-85220000I-110000J1590000D01*
G01*
D13*
%TO.C,D22*%
X173946363Y-112925517D02*
X174393718Y-112262287D01*
X174170041Y-112593902D02*
X173755522Y-112314305D01*
X174393718Y-112262287D02*
X174667463Y-112929418D01*
X174667463Y-112929418D02*
X173946363Y-112925517D01*
X174667463Y-112929418D02*
X174359907Y-113385388D01*
X174667463Y-112929418D02*
X174975019Y-112473447D01*
X174999078Y-113153095D02*
X174667463Y-112929418D01*
D11*
%TO.C,S3*%
X43000000Y-67500000D02*
X47500000Y-67500000D01*
X43000000Y-68000000D02*
X43000000Y-67500000D01*
X43000000Y-72200000D02*
X43000000Y-71600000D01*
X47480000Y-72200000D02*
X43000000Y-72200000D01*
X47500000Y-67500000D02*
X47500000Y-68200000D01*
X48000000Y-73700000D02*
X48000000Y-72780000D01*
X48000000Y-73700000D02*
X48500000Y-74200000D01*
X48500000Y-74200000D02*
X51500000Y-74200000D01*
X49200000Y-69700000D02*
X51500000Y-69700000D01*
X51500000Y-69700000D02*
X52000000Y-70200000D01*
X51500000Y-74200000D02*
X52000000Y-73700000D01*
X47480000Y-72200000D02*
G75*
G02*
X48000000Y-72780000I-30000J-550000D01*
G01*
X49200000Y-69700000D02*
G75*
G02*
X47500000Y-68220000I-110000J1590000D01*
G01*
D13*
%TO.C,D18*%
X131850000Y-53770000D02*
X132250000Y-53170000D01*
X132250000Y-52770000D02*
X132250000Y-53170000D01*
X132250000Y-53170000D02*
X131700000Y-53170000D01*
X132250000Y-53170000D02*
X132650000Y-53770000D01*
X132250000Y-53170000D02*
X132800000Y-53170000D01*
X132250000Y-53770000D02*
X132250000Y-54270000D01*
X132650000Y-53770000D02*
X131850000Y-53770000D01*
D11*
%TO.C,S13*%
X115000000Y-87820000D02*
X119500000Y-87820000D01*
X115000000Y-88320000D02*
X115000000Y-87820000D01*
X115000000Y-92520000D02*
X115000000Y-91920000D01*
X119480000Y-92520000D02*
X115000000Y-92520000D01*
X119500000Y-87820000D02*
X119500000Y-88520000D01*
X120000000Y-94020000D02*
X120000000Y-93100000D01*
X120000000Y-94020000D02*
X120500000Y-94520000D01*
X120500000Y-94520000D02*
X123500000Y-94520000D01*
X121200000Y-90020000D02*
X123500000Y-90020000D01*
X123500000Y-90020000D02*
X124000000Y-90520000D01*
X123500000Y-94520000D02*
X124000000Y-94020000D01*
X119480000Y-92520000D02*
G75*
G02*
X120000000Y-93100000I-30000J-550000D01*
G01*
X121200000Y-90020000D02*
G75*
G02*
X119500000Y-88540000I-110000J1590000D01*
G01*
D13*
%TO.C,D15*%
X113850000Y-51070000D02*
X114250000Y-50470000D01*
X114250000Y-50070000D02*
X114250000Y-50470000D01*
X114250000Y-50470000D02*
X113700000Y-50470000D01*
X114250000Y-50470000D02*
X114650000Y-51070000D01*
X114250000Y-50470000D02*
X114800000Y-50470000D01*
X114250000Y-51070000D02*
X114250000Y-51570000D01*
X114650000Y-51070000D02*
X113850000Y-51070000D01*
%TO.C,D5*%
X59850000Y-79950000D02*
X60250000Y-79350000D01*
X60250000Y-78950000D02*
X60250000Y-79350000D01*
X60250000Y-79350000D02*
X59700000Y-79350000D01*
X60250000Y-79350000D02*
X60650000Y-79950000D01*
X60250000Y-79350000D02*
X60800000Y-79350000D01*
X60250000Y-79950000D02*
X60250000Y-80450000D01*
X60650000Y-79950000D02*
X59850000Y-79950000D01*
%TO.C,D13*%
X113850000Y-85070000D02*
X114250000Y-84470000D01*
X114250000Y-84070000D02*
X114250000Y-84470000D01*
X114250000Y-84470000D02*
X113700000Y-84470000D01*
X114250000Y-84470000D02*
X114650000Y-85070000D01*
X114250000Y-84470000D02*
X114800000Y-84470000D01*
X114250000Y-85070000D02*
X114250000Y-85570000D01*
X114650000Y-85070000D02*
X113850000Y-85070000D01*
D11*
%TO.C,S9*%
X79000000Y-53820000D02*
X83500000Y-53820000D01*
X79000000Y-54320000D02*
X79000000Y-53820000D01*
X79000000Y-58520000D02*
X79000000Y-57920000D01*
X83480000Y-58520000D02*
X79000000Y-58520000D01*
X83500000Y-53820000D02*
X83500000Y-54520000D01*
X84000000Y-60020000D02*
X84000000Y-59100000D01*
X84000000Y-60020000D02*
X84500000Y-60520000D01*
X84500000Y-60520000D02*
X87500000Y-60520000D01*
X85200000Y-56020000D02*
X87500000Y-56020000D01*
X87500000Y-56020000D02*
X88000000Y-56520000D01*
X87500000Y-60520000D02*
X88000000Y-60020000D01*
X83480000Y-58520000D02*
G75*
G02*
X84000000Y-59100000I-30000J-550000D01*
G01*
X85200000Y-56020000D02*
G75*
G02*
X83500000Y-54540000I-110000J1590000D01*
G01*
D13*
%TO.C,D4*%
X59850000Y-96950000D02*
X60250000Y-96350000D01*
X60250000Y-95950000D02*
X60250000Y-96350000D01*
X60250000Y-96350000D02*
X59700000Y-96350000D01*
X60250000Y-96350000D02*
X60650000Y-96950000D01*
X60250000Y-96350000D02*
X60800000Y-96350000D01*
X60250000Y-96950000D02*
X60250000Y-97450000D01*
X60650000Y-96950000D02*
X59850000Y-96950000D01*
D11*
%TO.C,S15*%
X115000000Y-53820000D02*
X119500000Y-53820000D01*
X115000000Y-54320000D02*
X115000000Y-53820000D01*
X115000000Y-58520000D02*
X115000000Y-57920000D01*
X119480000Y-58520000D02*
X115000000Y-58520000D01*
X119500000Y-53820000D02*
X119500000Y-54520000D01*
X120000000Y-60020000D02*
X120000000Y-59100000D01*
X120000000Y-60020000D02*
X120500000Y-60520000D01*
X120500000Y-60520000D02*
X123500000Y-60520000D01*
X121200000Y-56020000D02*
X123500000Y-56020000D01*
X123500000Y-56020000D02*
X124000000Y-56520000D01*
X123500000Y-60520000D02*
X124000000Y-60020000D01*
X119480000Y-58520000D02*
G75*
G02*
X120000000Y-59100000I-30000J-550000D01*
G01*
X121200000Y-56020000D02*
G75*
G02*
X119500000Y-54540000I-110000J1590000D01*
G01*
%TO.C,S8*%
X79000000Y-70820000D02*
X83500000Y-70820000D01*
X79000000Y-71320000D02*
X79000000Y-70820000D01*
X79000000Y-75520000D02*
X79000000Y-74920000D01*
X83480000Y-75520000D02*
X79000000Y-75520000D01*
X83500000Y-70820000D02*
X83500000Y-71520000D01*
X84000000Y-77020000D02*
X84000000Y-76100000D01*
X84000000Y-77020000D02*
X84500000Y-77520000D01*
X84500000Y-77520000D02*
X87500000Y-77520000D01*
X85200000Y-73020000D02*
X87500000Y-73020000D01*
X87500000Y-73020000D02*
X88000000Y-73520000D01*
X87500000Y-77520000D02*
X88000000Y-77020000D01*
X83480000Y-75520000D02*
G75*
G02*
X84000000Y-76100000I-30000J-550000D01*
G01*
X85200000Y-73020000D02*
G75*
G02*
X83500000Y-71540000I-110000J1590000D01*
G01*
D13*
%TO.C,D3*%
X41850000Y-64750000D02*
X42250000Y-64150000D01*
X42250000Y-63750000D02*
X42250000Y-64150000D01*
X42250000Y-64150000D02*
X41700000Y-64150000D01*
X42250000Y-64150000D02*
X42650000Y-64750000D01*
X42250000Y-64150000D02*
X42800000Y-64150000D01*
X42250000Y-64750000D02*
X42250000Y-65250000D01*
X42650000Y-64750000D02*
X41850000Y-64750000D01*
%TO.C,D9*%
X77850000Y-51070000D02*
X78250000Y-50470000D01*
X78250000Y-50070000D02*
X78250000Y-50470000D01*
X78250000Y-50470000D02*
X77700000Y-50470000D01*
X78250000Y-50470000D02*
X78650000Y-51070000D01*
X78250000Y-50470000D02*
X78800000Y-50470000D01*
X78250000Y-51070000D02*
X78250000Y-51570000D01*
X78650000Y-51070000D02*
X77850000Y-51070000D01*
%TO.C,D19*%
X104850000Y-102070000D02*
X105250000Y-101470000D01*
X105250000Y-101070000D02*
X105250000Y-101470000D01*
X105250000Y-101470000D02*
X104700000Y-101470000D01*
X105250000Y-101470000D02*
X105650000Y-102070000D01*
X105250000Y-101470000D02*
X105800000Y-101470000D01*
X105250000Y-102070000D02*
X105250000Y-102570000D01*
X105650000Y-102070000D02*
X104850000Y-102070000D01*
D11*
%TO.C,S17*%
X133000000Y-73520000D02*
X137500000Y-73520000D01*
X133000000Y-74020000D02*
X133000000Y-73520000D01*
X133000000Y-78220000D02*
X133000000Y-77620000D01*
X137480000Y-78220000D02*
X133000000Y-78220000D01*
X137500000Y-73520000D02*
X137500000Y-74220000D01*
X138000000Y-79720000D02*
X138000000Y-78800000D01*
X138000000Y-79720000D02*
X138500000Y-80220000D01*
X138500000Y-80220000D02*
X141500000Y-80220000D01*
X139200000Y-75720000D02*
X141500000Y-75720000D01*
X141500000Y-75720000D02*
X142000000Y-76220000D01*
X141500000Y-80220000D02*
X142000000Y-79720000D01*
X137480000Y-78220000D02*
G75*
G02*
X138000000Y-78800000I-30000J-550000D01*
G01*
X139200000Y-75720000D02*
G75*
G02*
X137500000Y-74240000I-110000J1590000D01*
G01*
%TO.C,S11*%
X97000000Y-66320000D02*
X101500000Y-66320000D01*
X97000000Y-66820000D02*
X97000000Y-66320000D01*
X97000000Y-71020000D02*
X97000000Y-70420000D01*
X101480000Y-71020000D02*
X97000000Y-71020000D01*
X101500000Y-66320000D02*
X101500000Y-67020000D01*
X102000000Y-72520000D02*
X102000000Y-71600000D01*
X102000000Y-72520000D02*
X102500000Y-73020000D01*
X102500000Y-73020000D02*
X105500000Y-73020000D01*
X103200000Y-68520000D02*
X105500000Y-68520000D01*
X105500000Y-68520000D02*
X106000000Y-69020000D01*
X105500000Y-73020000D02*
X106000000Y-72520000D01*
X101480000Y-71020000D02*
G75*
G02*
X102000000Y-71600000I-30000J-550000D01*
G01*
X103200000Y-68520000D02*
G75*
G02*
X101500000Y-67040000I-110000J1590000D01*
G01*
D13*
%TO.C,D10*%
X95850000Y-80570000D02*
X96250000Y-79970000D01*
X96250000Y-79570000D02*
X96250000Y-79970000D01*
X96250000Y-79970000D02*
X95700000Y-79970000D01*
X96250000Y-79970000D02*
X96650000Y-80570000D01*
X96250000Y-79970000D02*
X96800000Y-79970000D01*
X96250000Y-80570000D02*
X96250000Y-81070000D01*
X96650000Y-80570000D02*
X95850000Y-80570000D01*
D11*
%TO.C,S19*%
X106000000Y-104820000D02*
X110500000Y-104820000D01*
X106000000Y-105320000D02*
X106000000Y-104820000D01*
X106000000Y-109520000D02*
X106000000Y-108920000D01*
X110480000Y-109520000D02*
X106000000Y-109520000D01*
X110500000Y-104820000D02*
X110500000Y-105520000D01*
X111000000Y-111020000D02*
X111000000Y-110100000D01*
X111000000Y-111020000D02*
X111500000Y-111520000D01*
X111500000Y-111520000D02*
X114500000Y-111520000D01*
X112200000Y-107020000D02*
X114500000Y-107020000D01*
X114500000Y-107020000D02*
X115000000Y-107520000D01*
X114500000Y-111520000D02*
X115000000Y-111020000D01*
X110480000Y-109520000D02*
G75*
G02*
X111000000Y-110100000I-30000J-550000D01*
G01*
X112200000Y-107020000D02*
G75*
G02*
X110500000Y-105540000I-110000J1590000D01*
G01*
D13*
%TO.C,D1*%
X41850000Y-98750000D02*
X42250000Y-98150000D01*
X42250000Y-97750000D02*
X42250000Y-98150000D01*
X42250000Y-98150000D02*
X41700000Y-98150000D01*
X42250000Y-98150000D02*
X42650000Y-98750000D01*
X42250000Y-98150000D02*
X42800000Y-98150000D01*
X42250000Y-98750000D02*
X42250000Y-99250000D01*
X42650000Y-98750000D02*
X41850000Y-98750000D01*
D11*
%TO.C,S20*%
X124073841Y-110457007D02*
X124229133Y-109877451D01*
X125160881Y-106400118D02*
X125290291Y-105917154D01*
X125290291Y-105917154D02*
X129636957Y-107081841D01*
X128401189Y-111616516D02*
X124073841Y-110457007D01*
X128515242Y-113199991D02*
X128753355Y-112311339D01*
X128515242Y-113199991D02*
X128868795Y-113812363D01*
X128868795Y-113812363D02*
X131766573Y-114588820D01*
X129636957Y-107081841D02*
X129455784Y-107757989D01*
X130709629Y-109646870D02*
X132931258Y-110242154D01*
X131766573Y-114588820D02*
X132378945Y-114235267D01*
X132931258Y-110242154D02*
X133284812Y-110854527D01*
X128401189Y-111616516D02*
G75*
G02*
X128753356Y-112311339I-171328J-523495D01*
G01*
X130709629Y-109646870D02*
G75*
G02*
X129450607Y-107777308I305270J1564292D01*
G01*
D13*
%TO.C,D2*%
X41850000Y-81750000D02*
X42250000Y-81150000D01*
X42250000Y-80750000D02*
X42250000Y-81150000D01*
X42250000Y-81150000D02*
X41700000Y-81150000D01*
X42250000Y-81150000D02*
X42650000Y-81750000D01*
X42250000Y-81150000D02*
X42800000Y-81150000D01*
X42250000Y-81750000D02*
X42250000Y-82250000D01*
X42650000Y-81750000D02*
X41850000Y-81750000D01*
D11*
%TO.C,S18*%
X133000000Y-56520000D02*
X137500000Y-56520000D01*
X133000000Y-57020000D02*
X133000000Y-56520000D01*
X133000000Y-61220000D02*
X133000000Y-60620000D01*
X137480000Y-61220000D02*
X133000000Y-61220000D01*
X137500000Y-56520000D02*
X137500000Y-57220000D01*
X138000000Y-62720000D02*
X138000000Y-61800000D01*
X138000000Y-62720000D02*
X138500000Y-63220000D01*
X138500000Y-63220000D02*
X141500000Y-63220000D01*
X139200000Y-58720000D02*
X141500000Y-58720000D01*
X141500000Y-58720000D02*
X142000000Y-59220000D01*
X141500000Y-63220000D02*
X142000000Y-62720000D01*
X137480000Y-61220000D02*
G75*
G02*
X138000000Y-61800000I-30000J-550000D01*
G01*
X139200000Y-58720000D02*
G75*
G02*
X137500000Y-57240000I-110000J1590000D01*
G01*
D13*
%TO.C,D21*%
X157050552Y-102538605D02*
X157413745Y-101825800D01*
X157232148Y-102182202D02*
X156786645Y-101955207D01*
X157413745Y-101825800D02*
X157766752Y-102454597D01*
X157766752Y-102454597D02*
X157050552Y-102538605D01*
X157766752Y-102454597D02*
X157517058Y-102944650D01*
X157766752Y-102454597D02*
X158016447Y-101964543D01*
X158123155Y-102636193D02*
X157766752Y-102454597D01*
D11*
%TO.C,S16*%
X133000000Y-90520000D02*
X137500000Y-90520000D01*
X133000000Y-91020000D02*
X133000000Y-90520000D01*
X133000000Y-95220000D02*
X133000000Y-94620000D01*
X137480000Y-95220000D02*
X133000000Y-95220000D01*
X137500000Y-90520000D02*
X137500000Y-91220000D01*
X138000000Y-96720000D02*
X138000000Y-95800000D01*
X138000000Y-96720000D02*
X138500000Y-97220000D01*
X138500000Y-97220000D02*
X141500000Y-97220000D01*
X139200000Y-92720000D02*
X141500000Y-92720000D01*
X141500000Y-92720000D02*
X142000000Y-93220000D01*
X141500000Y-97220000D02*
X142000000Y-96720000D01*
X137480000Y-95220000D02*
G75*
G02*
X138000000Y-95800000I-30000J-550000D01*
G01*
X139200000Y-92720000D02*
G75*
G02*
X137500000Y-91240000I-110000J1590000D01*
G01*
%TO.C,S4*%
X61000000Y-99700000D02*
X65500000Y-99700000D01*
X61000000Y-100200000D02*
X61000000Y-99700000D01*
X61000000Y-104400000D02*
X61000000Y-103800000D01*
X65480000Y-104400000D02*
X61000000Y-104400000D01*
X65500000Y-99700000D02*
X65500000Y-100400000D01*
X66000000Y-105900000D02*
X66000000Y-104980000D01*
X66000000Y-105900000D02*
X66500000Y-106400000D01*
X66500000Y-106400000D02*
X69500000Y-106400000D01*
X67200000Y-101900000D02*
X69500000Y-101900000D01*
X69500000Y-101900000D02*
X70000000Y-102400000D01*
X69500000Y-106400000D02*
X70000000Y-105900000D01*
X65480000Y-104400000D02*
G75*
G02*
X66000000Y-104980000I-30000J-550000D01*
G01*
X67200000Y-101900000D02*
G75*
G02*
X65500000Y-100420000I-110000J1590000D01*
G01*
D13*
%TO.C,D17*%
X131850000Y-70770000D02*
X132250000Y-70170000D01*
X132250000Y-69770000D02*
X132250000Y-70170000D01*
X132250000Y-70170000D02*
X131700000Y-70170000D01*
X132250000Y-70170000D02*
X132650000Y-70770000D01*
X132250000Y-70170000D02*
X132800000Y-70170000D01*
X132250000Y-70770000D02*
X132250000Y-71270000D01*
X132650000Y-70770000D02*
X131850000Y-70770000D01*
D11*
%TO.C,S6*%
X61000000Y-65700000D02*
X65500000Y-65700000D01*
X61000000Y-66200000D02*
X61000000Y-65700000D01*
X61000000Y-70400000D02*
X61000000Y-69800000D01*
X65480000Y-70400000D02*
X61000000Y-70400000D01*
X65500000Y-65700000D02*
X65500000Y-66400000D01*
X66000000Y-71900000D02*
X66000000Y-70980000D01*
X66000000Y-71900000D02*
X66500000Y-72400000D01*
X66500000Y-72400000D02*
X69500000Y-72400000D01*
X67200000Y-67900000D02*
X69500000Y-67900000D01*
X69500000Y-67900000D02*
X70000000Y-68400000D01*
X69500000Y-72400000D02*
X70000000Y-71900000D01*
X65480000Y-70400000D02*
G75*
G02*
X66000000Y-70980000I-30000J-550000D01*
G01*
X67200000Y-67900000D02*
G75*
G02*
X65500000Y-66420000I-110000J1590000D01*
G01*
D13*
%TO.C,D11*%
X95850000Y-63570000D02*
X96250000Y-62970000D01*
X96250000Y-62570000D02*
X96250000Y-62970000D01*
X96250000Y-62970000D02*
X95700000Y-62970000D01*
X96250000Y-62970000D02*
X96650000Y-63570000D01*
X96250000Y-62970000D02*
X96800000Y-62970000D01*
X96250000Y-63570000D02*
X96250000Y-64070000D01*
X96650000Y-63570000D02*
X95850000Y-63570000D01*
D11*
%TO.C,S14*%
X115000000Y-70820000D02*
X119500000Y-70820000D01*
X115000000Y-71320000D02*
X115000000Y-70820000D01*
X115000000Y-75520000D02*
X115000000Y-74920000D01*
X119480000Y-75520000D02*
X115000000Y-75520000D01*
X119500000Y-70820000D02*
X119500000Y-71520000D01*
X120000000Y-77020000D02*
X120000000Y-76100000D01*
X120000000Y-77020000D02*
X120500000Y-77520000D01*
X120500000Y-77520000D02*
X123500000Y-77520000D01*
X121200000Y-73020000D02*
X123500000Y-73020000D01*
X123500000Y-73020000D02*
X124000000Y-73520000D01*
X123500000Y-77520000D02*
X124000000Y-77020000D01*
X119480000Y-75520000D02*
G75*
G02*
X120000000Y-76100000I-30000J-550000D01*
G01*
X121200000Y-73020000D02*
G75*
G02*
X119500000Y-71540000I-110000J1590000D01*
G01*
%TD*%
M02*
