M48
; DRILL file {KiCad 9.0.2} date 2025-06-08T10:39:40-0600
; FORMAT={-:-/ absolute / inch / decimal}
; #@! TF.CreationDate,2025-06-08T10:39:40-06:00
; #@! TF.GenerationSoftware,Kicad,Pcbnew,9.0.2
; #@! TF.FileFunction,Plated,1,2,PTH
FMAT,2
INCH
; #@! TA.AperFunction,Plated,PTH,ViaDrill
T1C0.0118
; #@! TA.AperFunction,Plated,PTH,ComponentDrill
T2C0.0157
; #@! TA.AperFunction,Plated,PTH,ComponentDrill
T3C0.0295
; #@! TA.AperFunction,Plated,PTH,ComponentDrill
T4C0.0394
%
G90
G05
T1
X1.6678Y-3.0975
X1.6779Y-2.4217
X1.7849Y-3.83
X1.9685Y-2.7195
X1.9685Y-2.751
X1.9685Y-3.3888
X1.9685Y-3.4203
X1.9685Y-4.0581
X1.9685Y-4.0896
X2.2635Y-2.4217
X2.3627Y-3.1378
X2.3627Y-3.8129
X2.6772Y-2.6486
X2.6772Y-2.6801
X2.6772Y-3.3179
X2.6772Y-3.3494
X2.6772Y-3.9872
X2.6772Y-4.0187
X2.927Y-3.058
X3.0732Y-3.7129
X3.1903Y-1.9554
X3.1903Y-2.6413
X3.1903Y-3.2446
X3.3858Y-2.1809
X3.3858Y-2.2124
X3.3858Y-2.8502
X3.3858Y-2.8817
X3.3858Y-3.5195
X3.3858Y-3.551
X3.6587Y-3.2214
X3.7785Y-1.8305
X3.8007Y-2.5112
X4.0563Y-4.302
X4.0945Y-2.0037
X4.0945Y-2.0352
X4.0945Y-2.673
X4.0945Y-2.7045
X4.0945Y-3.3423
X4.0945Y-3.3738
X4.2443Y-3.9471
X4.3399Y-3.1215
X4.4488Y-4.1888
X4.4488Y-4.2203
X4.4537Y-1.9258
X4.4802Y-2.425
X4.725Y-4.3139
X4.8031Y-2.1809
X4.8031Y-2.2124
X4.8031Y-2.8502
X4.8031Y-2.8817
X4.8031Y-3.5195
X4.8031Y-3.551
X4.947Y-3.9254
X5.1619Y-2.6975
X5.1747Y-4.3316
X5.1828Y-4.3012
X5.1858Y-1.9567
X5.1858Y-3.2446
X5.2095Y-2.6235
X5.4207Y-2.7558
X5.5118Y-2.2872
X5.5118Y-2.3187
X5.5118Y-2.9565
X5.5118Y-2.988
X5.5118Y-3.6258
X5.5118Y-3.6573
X5.7668Y-3.1275
X5.8573Y-4.277
X5.8613Y-2.8955
X5.8719Y-4.2032
X5.9Y-4.2175
X5.9275Y-2.7081
X6.033Y-4.5996
X6.2353Y-3.4788
X6.2353Y-3.7129
X6.4582Y-3.613
X6.4831Y-3.5518
X6.5192Y-4.573
X6.5453Y-4.5906
X6.5752Y-3.2395
X6.6155Y-5.0248
X6.6263Y-3.2538
X6.6549Y-3.1117
T2
X6.1457Y-1.9467
X6.1457Y-2.0467
X6.1457Y-2.1467
X6.1457Y-2.2467
X6.1457Y-2.3467
X6.1457Y-2.4467
X6.1457Y-2.5467
X6.1457Y-2.6467
X6.1457Y-2.7467
X6.1457Y-2.8467
X6.1457Y-2.9467
X6.1457Y-3.0467
X6.4134Y-1.9467
X6.4134Y-2.0467
X6.4134Y-2.1467
X6.4134Y-2.2467
X6.4134Y-2.3467
X6.4134Y-2.4467
X6.4134Y-2.5467
X6.4134Y-2.6467
X6.4134Y-2.7467
X6.4134Y-2.8467
X6.4134Y-2.9467
X6.4134Y-3.0467
T3
X6.4262Y-3.4657
X6.4262Y-3.5445
T4
X5.9795Y-1.9467
X5.9795Y-2.0467
X5.9795Y-2.1467
X5.9795Y-2.2467
X5.9795Y-2.3467
X5.9795Y-2.4467
X5.9795Y-2.5467
X5.9795Y-2.6467
X5.9795Y-2.7467
X5.9795Y-2.8467
X5.9795Y-2.9467
X5.9795Y-3.0467
X6.5795Y-1.9467
X6.5795Y-2.0467
X6.5795Y-2.1467
X6.5795Y-2.2467
X6.5795Y-2.3467
X6.5795Y-2.4467
X6.5795Y-2.5467
X6.5795Y-2.6467
X6.5795Y-2.7467
X6.5795Y-2.8467
X6.5795Y-2.9467
X6.5795Y-3.0467
M30
