%TF.GenerationSoftware,KiCad,Pcbnew,9.0.2*%
%TF.CreationDate,2025-06-08T10:18:17-06:00*%
%TF.ProjectId,scyboard,73637962-6f61-4726-942e-6b696361645f,1*%
%TF.SameCoordinates,Original*%
%TF.FileFunction,Paste,Bot*%
%TF.FilePolarity,Positive*%
%FSLAX46Y46*%
G04 Gerber Fmt 4.6, Leading zero omitted, Abs format (unit mm)*
G04 Created by KiCad (PCBNEW 9.0.2) date 2025-06-08 10:18:17*
%MOMM*%
%LPD*%
G01*
G04 APERTURE LIST*
G04 Aperture macros list*
%AMRotRect*
0 Rectangle, with rotation*
0 The origin of the aperture is its center*
0 $1 length*
0 $2 width*
0 $3 Rotation angle, in degrees counterclockwise*
0 Add horizontal line*
21,1,$1,$2,0,0,$3*%
%AMOutline5P*
0 Free polygon, 5 corners , with rotation*
0 The origin of the aperture is its center*
0 number of corners: always 5*
0 $1 to $10 corner X, Y*
0 $11 Rotation angle, in degrees counterclockwise*
0 create outline with 5 corners*
4,1,5,$1,$2,$3,$4,$5,$6,$7,$8,$9,$10,$1,$2,$11*%
%AMOutline6P*
0 Free polygon, 6 corners , with rotation*
0 The origin of the aperture is its center*
0 number of corners: always 6*
0 $1 to $12 corner X, Y*
0 $13 Rotation angle, in degrees counterclockwise*
0 create outline with 6 corners*
4,1,6,$1,$2,$3,$4,$5,$6,$7,$8,$9,$10,$11,$12,$1,$2,$13*%
%AMOutline7P*
0 Free polygon, 7 corners , with rotation*
0 The origin of the aperture is its center*
0 number of corners: always 7*
0 $1 to $14 corner X, Y*
0 $15 Rotation angle, in degrees counterclockwise*
0 create outline with 7 corners*
4,1,7,$1,$2,$3,$4,$5,$6,$7,$8,$9,$10,$11,$12,$13,$14,$1,$2,$15*%
%AMOutline8P*
0 Free polygon, 8 corners , with rotation*
0 The origin of the aperture is its center*
0 number of corners: always 8*
0 $1 to $16 corner X, Y*
0 $17 Rotation angle, in degrees counterclockwise*
0 create outline with 8 corners*
4,1,8,$1,$2,$3,$4,$5,$6,$7,$8,$9,$10,$11,$12,$13,$14,$15,$16,$1,$2,$17*%
%AMFreePoly0*
4,1,6,0.600000,-1.000000,0.000000,-0.400000,-0.600000,-1.000000,-0.600000,0.250000,0.600000,0.250000,0.600000,-1.000000,0.600000,-1.000000,$1*%
%AMFreePoly1*
4,1,6,0.600000,-0.200000,0.600000,-0.400000,-0.600000,-0.400000,-0.600000,-0.200000,0.000000,0.400000,0.600000,-0.200000,0.600000,-0.200000,$1*%
G04 Aperture macros list end*
%ADD10R,0.600000X1.200000*%
%ADD11R,0.800000X1.000000*%
%ADD12R,1.500000X0.700000*%
%ADD13R,1.000000X1.550000*%
%ADD14FreePoly0,90.000000*%
%ADD15FreePoly1,90.000000*%
%ADD16Outline5P,-1.300000X1.300000X1.300000X1.300000X1.300000X-1.300000X-0.117000X-1.300000X-1.300000X-0.117000X63.000000*%
%ADD17RotRect,2.600000X2.600000X63.000000*%
%ADD18Outline5P,-1.300000X1.300000X1.300000X1.300000X1.300000X-1.300000X-0.117000X-1.300000X-1.300000X-0.117000X180.000000*%
%ADD19R,2.600000X2.600000*%
%ADD20RotRect,0.900000X1.200000X255.000000*%
%ADD21R,1.200000X0.900000*%
%ADD22Outline5P,-1.300000X1.300000X1.300000X1.300000X1.300000X-1.300000X-0.117000X-1.300000X-1.300000X-0.117000X56.000000*%
%ADD23RotRect,2.600000X2.600000X56.000000*%
%ADD24RotRect,0.900000X1.200000X146.000000*%
%ADD25Outline5P,-1.300000X1.300000X1.300000X1.300000X1.300000X-1.300000X-0.117000X-1.300000X-1.300000X-0.117000X165.000000*%
%ADD26RotRect,2.600000X2.600000X165.000000*%
%ADD27RotRect,0.900000X1.200000X153.000000*%
G04 APERTURE END LIST*
D10*
%TO.C,MCU1*%
X164980000Y-49445000D03*
X164980000Y-51985000D03*
X164980000Y-54525000D03*
X164980000Y-57065000D03*
X164980000Y-59605000D03*
X164980000Y-62145000D03*
X164980000Y-64685000D03*
X164980000Y-67225000D03*
X164980000Y-69765000D03*
X164980000Y-72305000D03*
X164980000Y-74845000D03*
X164980000Y-77385000D03*
X154020000Y-77385000D03*
X154020000Y-74845000D03*
X154020000Y-72305000D03*
X154020000Y-69765000D03*
X154020000Y-67225000D03*
X154020000Y-64685000D03*
X154020000Y-62145000D03*
X154020000Y-59605000D03*
X154020000Y-57065000D03*
X154020000Y-54525000D03*
X154020000Y-51985000D03*
X154020000Y-49445000D03*
X154920000Y-49445000D03*
X154920000Y-51985000D03*
X154920000Y-54525000D03*
X154920000Y-57065000D03*
X154920000Y-59605000D03*
X154920000Y-62145000D03*
X154920000Y-64685000D03*
X154920000Y-67225000D03*
X154920000Y-69765000D03*
X154920000Y-72305000D03*
X154920000Y-74845000D03*
X154920000Y-77385000D03*
X164080000Y-77385000D03*
X164080000Y-74845000D03*
X164080000Y-72305000D03*
X164080000Y-69765000D03*
X164080000Y-67225000D03*
X164080000Y-64685000D03*
X164080000Y-62145000D03*
X164080000Y-59605000D03*
X164080000Y-57065000D03*
X164080000Y-54525000D03*
X164080000Y-51985000D03*
X164080000Y-49445000D03*
%TD*%
D11*
%TO.C,PWR1*%
X166640000Y-89220000D03*
X166640000Y-96520000D03*
X168850000Y-89220000D03*
X168850000Y-96520000D03*
D12*
X165990000Y-90620000D03*
X165990000Y-93620000D03*
X165990000Y-95120000D03*
%TD*%
D13*
%TO.C,RST1*%
X168734000Y-80895000D03*
X167034000Y-80895000D03*
X168734000Y-86145000D03*
X167034000Y-86145000D03*
%TD*%
D14*
%TO.C,JST1*%
X160409000Y-90030000D03*
X160409000Y-88030000D03*
D15*
X161425000Y-88030000D03*
X161425000Y-90030000D03*
%TD*%
D16*
%TO.C,S21*%
X145811692Y-108736803D03*
D17*
X153015497Y-99444457D03*
%TD*%
D18*
%TO.C,S1*%
X53275000Y-105950000D03*
D19*
X41725000Y-103750000D03*
%TD*%
D20*
%TO.C,D20*%
X125769350Y-101231522D03*
X124915250Y-104419078D03*
%TD*%
D21*
%TO.C,D6*%
X60250000Y-61050000D03*
X60250000Y-64350000D03*
%TD*%
%TO.C,D14*%
X114250000Y-66170000D03*
X114250000Y-69470000D03*
%TD*%
%TO.C,D8*%
X78250000Y-66170000D03*
X78250000Y-69470000D03*
%TD*%
D18*
%TO.C,S7*%
X89275000Y-92270000D03*
D19*
X77725000Y-90070000D03*
%TD*%
D22*
%TO.C,S22*%
X162035870Y-117707900D03*
D23*
X170318430Y-109362741D03*
%TD*%
D18*
%TO.C,S5*%
X71275000Y-87150000D03*
D19*
X59725000Y-84950000D03*
%TD*%
D21*
%TO.C,D7*%
X78250000Y-83170000D03*
X78250000Y-86470000D03*
%TD*%
%TO.C,D16*%
X132250000Y-85870000D03*
X132250000Y-89170000D03*
%TD*%
%TO.C,D12*%
X96250000Y-44670000D03*
X96250000Y-47970000D03*
%TD*%
D18*
%TO.C,S10*%
X107275000Y-87770000D03*
D19*
X95725000Y-85570000D03*
%TD*%
D18*
%TO.C,S12*%
X107275000Y-53770000D03*
D19*
X95725000Y-51570000D03*
%TD*%
D18*
%TO.C,S2*%
X53275000Y-88950000D03*
D19*
X41725000Y-86750000D03*
%TD*%
D24*
%TO.C,D22*%
X175745212Y-113656368D03*
X173009388Y-111811032D03*
%TD*%
D18*
%TO.C,S3*%
X53275000Y-71950000D03*
D19*
X41725000Y-69750000D03*
%TD*%
D21*
%TO.C,D18*%
X132250000Y-51870000D03*
X132250000Y-55170000D03*
%TD*%
D18*
%TO.C,S13*%
X125275000Y-92270000D03*
D19*
X113725000Y-90070000D03*
%TD*%
D21*
%TO.C,D15*%
X114250000Y-49170000D03*
X114250000Y-52470000D03*
%TD*%
%TO.C,D5*%
X60250000Y-78050000D03*
X60250000Y-81350000D03*
%TD*%
%TO.C,D13*%
X114250000Y-83170000D03*
X114250000Y-86470000D03*
%TD*%
D18*
%TO.C,S9*%
X89275000Y-58270000D03*
D19*
X77725000Y-56070000D03*
%TD*%
D21*
%TO.C,D4*%
X60250000Y-95050000D03*
X60250000Y-98350000D03*
%TD*%
D18*
%TO.C,S15*%
X125275000Y-58270000D03*
D19*
X113725000Y-56070000D03*
%TD*%
D18*
%TO.C,S8*%
X89275000Y-75270000D03*
D19*
X77725000Y-73070000D03*
%TD*%
D21*
%TO.C,D3*%
X42250000Y-62850000D03*
X42250000Y-66150000D03*
%TD*%
%TO.C,D9*%
X78250000Y-49170000D03*
X78250000Y-52470000D03*
%TD*%
%TO.C,D19*%
X105250000Y-100170000D03*
X105250000Y-103470000D03*
%TD*%
D18*
%TO.C,S17*%
X143275000Y-77970000D03*
D19*
X131725000Y-75770000D03*
%TD*%
D18*
%TO.C,S11*%
X107275000Y-70770000D03*
D19*
X95725000Y-68570000D03*
%TD*%
D21*
%TO.C,D10*%
X96250000Y-78670000D03*
X96250000Y-81970000D03*
%TD*%
D18*
%TO.C,S19*%
X116275000Y-109270000D03*
D19*
X104725000Y-107070000D03*
%TD*%
D21*
%TO.C,D1*%
X42250000Y-96850000D03*
X42250000Y-100150000D03*
%TD*%
D25*
%TO.C,S20*%
X134063434Y-112874891D03*
D26*
X123476392Y-107760494D03*
%TD*%
D21*
%TO.C,D2*%
X42250000Y-79850000D03*
X42250000Y-83150000D03*
%TD*%
D18*
%TO.C,S18*%
X143275000Y-60970000D03*
D19*
X131725000Y-58770000D03*
%TD*%
D27*
%TO.C,D21*%
X158925061Y-103044784D03*
X155984739Y-101546616D03*
%TD*%
D18*
%TO.C,S16*%
X143275000Y-94970000D03*
D19*
X131725000Y-92770000D03*
%TD*%
D18*
%TO.C,S4*%
X71275000Y-104150000D03*
D19*
X59725000Y-101950000D03*
%TD*%
D21*
%TO.C,D17*%
X132250000Y-68870000D03*
X132250000Y-72170000D03*
%TD*%
D18*
%TO.C,S6*%
X71275000Y-70150000D03*
D19*
X59725000Y-67950000D03*
%TD*%
D21*
%TO.C,D11*%
X96250000Y-61670000D03*
X96250000Y-64970000D03*
%TD*%
D18*
%TO.C,S14*%
X125275000Y-75270000D03*
D19*
X113725000Y-73070000D03*
%TD*%
M02*
