0
SECTION
2
HEADER
9
$INSUNITS
70
4
0
ENDSEC
0
SECTION
2
TABLES
0
TABLE
2
LTYPE
0
LTYPE
72
65
70
64
2
CONTINUOUS
3
______
73
0
40
0
0
ENDTAB
0
TABLE
2
LAYER
0
ENDTAB
0
ENDSEC
0
SECTION
2
ENTITIES
0
LINE
8
0
10
38
20
-111.4
11
38
21
-56.5
0
LINE
8
0
10
38
20
-56.5
11
58
21
-50.9
0
LINE
8
0
10
58
20
-50.9
11
76
21
-40.92
0
LINE
8
0
10
76
20
-40.92
11
94
21
-36.42
0
LINE
8
0
10
94
20
-36.42
11
114
21
-36.42
0
LINE
8
0
10
114
20
-36.42
11
132
21
-40.92
0
LINE
8
0
10
132.0072358
20
-40.9217518
11
150.7680434
21
-45.4638421
0
LINE
8
0
10
151.2386579
20
-45.52
11
167.85
21
-45.52
0
LINE
8
0
10
169.85
20
-98.52
11
169.85
21
-47.52
0
LINE
8
0
10
169.85
20
-98.52
11
170.7706538
21
-100.108492
0
LINE
8
0
10
170.7706538
20
-100.108492
11
187.3099534
21
-111.2643904
0
LINE
8
0
10
169.1921033
20
-138.1252078
11
187.3099534
21
-111.2643904
0
LINE
8
0
10
152.8634597
20
-126.8359245
11
169.1921033
21
-138.1252078
0
LINE
8
0
10
137.6272481
20
-119.0726869
11
152.8634597
21
-126.8359245
0
LINE
8
0
10
120.7961304
20
-114.962183
11
137.6272481
21
-119.0726869
0
LINE
8
0
10
103
20
-114.72
11
120.7961304
21
-114.962183
0
LINE
8
0
10
102.8863275
20
-114.705359
11
78.1247299
21
-111.5160652
0
LINE
8
0
10
38
20
-111.4
11
78
21
-111.5
0
ARC
8
0
10
40
20
-58.0169208
40
2
50
105.6422454
51
180
0
ARC
8
0
10
57.2351142
20
-49.0372473
40
2
50
285.6422454
51
299.0059338
0
ARC
8
0
10
76.7399925
20
-42.7965547
40
2
50
104.0362421
51
119.0059338
0
ARC
8
0
10
94.2462113
20
-38.42
40
2
50
90
51
104.0362421
0
ARC
8
0
10
113.7537887
20
-38.42
40
2
50
75.9637579
51
90
0
ARC
8
0
10
132.4778502
20
-38.9779097
40
2
50
255.9637579
51
256.3902675
0
ARC
8
0
10
151.2386579
20
-43.52
40
2
50
256.3902675
51
270
0
ARC
8
0
10
167.85
20
-47.52
40
2
50
0
51
90
0
ARC
8
0
10
184.5334925
20
-111.8040797
40
2
50
326.000001
51
56.000001
0
ARC
8
0
10
168.6653553
20
-135.3295606
40
2
50
235.3408298
51
326.000001
0
ARC
8
0
10
151.8361927
20
-128.5571583
40
2
50
55.3408298
51
62.9999994
0
ARC
8
0
10
136.9266484
20
-120.9603659
40
2
50
62.9999994
51
76.2758404
0
ARC
8
0
10
120.5420467
20
-116.9589104
40
2
50
76.2758404
51
89.2203236
0
ARC
8
0
10
103.1418171
20
-112.7217448
40
2
50
262.6607079
51
269.2203236
0
ARC
8
0
10
77.8692403
20
-113.4996794
40
2
50
82.6607079
51
89.8567604
0
ARC
8
0
10
40
20
-109.4049937
40
2
50
180
51
269.8567604
0
LINE
8
0
10
43.1
20
-106.9
11
56.9
21
-106.9
0
LINE
8
0
10
56.9
20
-106.9
11
56.9
21
-93.1
0
LINE
8
0
10
56.9
20
-93.1
11
43.1
21
-93.1
0
LINE
8
0
10
43.1
20
-93.1
11
43.1
21
-106.9
0
LINE
8
0
10
43.1
20
-89.9
11
56.9
21
-89.9
0
LINE
8
0
10
56.9
20
-89.9
11
56.9
21
-76.1
0
LINE
8
0
10
56.9
20
-76.1
11
43.1
21
-76.1
0
LINE
8
0
10
43.1
20
-76.1
11
43.1
21
-89.9
0
LINE
8
0
10
43.1
20
-72.9
11
56.9
21
-72.9
0
LINE
8
0
10
56.9
20
-72.9
11
56.9
21
-59.1
0
LINE
8
0
10
56.9
20
-59.1
11
43.1
21
-59.1
0
LINE
8
0
10
43.1
20
-59.1
11
43.1
21
-72.9
0
LINE
8
0
10
61.1
20
-105.1
11
74.9
21
-105.1
0
LINE
8
0
10
74.9
20
-105.1
11
74.9
21
-91.3
0
LINE
8
0
10
74.9
20
-91.3
11
61.1
21
-91.3
0
LINE
8
0
10
61.1
20
-91.3
11
61.1
21
-105.1
0
LINE
8
0
10
61.1
20
-88.1
11
74.9
21
-88.1
0
LINE
8
0
10
74.9
20
-88.1
11
74.9
21
-74.3
0
LINE
8
0
10
74.9
20
-74.3
11
61.1
21
-74.3
0
LINE
8
0
10
61.1
20
-74.3
11
61.1
21
-88.1
0
LINE
8
0
10
61.1
20
-71.1
11
74.9
21
-71.1
0
LINE
8
0
10
74.9
20
-71.1
11
74.9
21
-57.3
0
LINE
8
0
10
74.9
20
-57.3
11
61.1
21
-57.3
0
LINE
8
0
10
61.1
20
-57.3
11
61.1
21
-71.1
0
LINE
8
0
10
79.1
20
-93.22
11
92.9
21
-93.22
0
LINE
8
0
10
92.9
20
-93.22
11
92.9
21
-79.42
0
LINE
8
0
10
92.9
20
-79.42
11
79.1
21
-79.42
0
LINE
8
0
10
79.1
20
-79.42
11
79.1
21
-93.22
0
LINE
8
0
10
79.1
20
-76.22
11
92.9
21
-76.22
0
LINE
8
0
10
92.9
20
-76.22
11
92.9
21
-62.42
0
LINE
8
0
10
92.9
20
-62.42
11
79.1
21
-62.42
0
LINE
8
0
10
79.1
20
-62.42
11
79.1
21
-76.22
0
LINE
8
0
10
79.1
20
-59.22
11
92.9
21
-59.22
0
LINE
8
0
10
92.9
20
-59.22
11
92.9
21
-45.42
0
LINE
8
0
10
92.9
20
-45.42
11
79.1
21
-45.42
0
LINE
8
0
10
79.1
20
-45.42
11
79.1
21
-59.22
0
LINE
8
0
10
97.1
20
-88.72
11
110.9
21
-88.72
0
LINE
8
0
10
110.9
20
-88.72
11
110.9
21
-74.92
0
LINE
8
0
10
110.9
20
-74.92
11
97.1
21
-74.92
0
LINE
8
0
10
97.1
20
-74.92
11
97.1
21
-88.72
0
LINE
8
0
10
97.1
20
-71.72
11
110.9
21
-71.72
0
LINE
8
0
10
110.9
20
-71.72
11
110.9
21
-57.92
0
LINE
8
0
10
110.9
20
-57.92
11
97.1
21
-57.92
0
LINE
8
0
10
97.1
20
-57.92
11
97.1
21
-71.72
0
LINE
8
0
10
97.1
20
-54.72
11
110.9
21
-54.72
0
LINE
8
0
10
110.9
20
-54.72
11
110.9
21
-40.92
0
LINE
8
0
10
110.9
20
-40.92
11
97.1
21
-40.92
0
LINE
8
0
10
97.1
20
-40.92
11
97.1
21
-54.72
0
LINE
8
0
10
115.1
20
-93.22
11
128.9
21
-93.22
0
LINE
8
0
10
128.9
20
-93.22
11
128.9
21
-79.42
0
LINE
8
0
10
128.9
20
-79.42
11
115.1
21
-79.42
0
LINE
8
0
10
115.1
20
-79.42
11
115.1
21
-93.22
0
LINE
8
0
10
115.1
20
-76.22
11
128.9
21
-76.22
0
LINE
8
0
10
128.9
20
-76.22
11
128.9
21
-62.42
0
LINE
8
0
10
128.9
20
-62.42
11
115.1
21
-62.42
0
LINE
8
0
10
115.1
20
-62.42
11
115.1
21
-76.22
0
LINE
8
0
10
115.1
20
-59.22
11
128.9
21
-59.22
0
LINE
8
0
10
128.9
20
-59.22
11
128.9
21
-45.42
0
LINE
8
0
10
128.9
20
-45.42
11
115.1
21
-45.42
0
LINE
8
0
10
115.1
20
-45.42
11
115.1
21
-59.22
0
LINE
8
0
10
133.1
20
-95.92
11
146.9
21
-95.92
0
LINE
8
0
10
146.9
20
-95.92
11
146.9
21
-82.12
0
LINE
8
0
10
146.9
20
-82.12
11
133.1
21
-82.12
0
LINE
8
0
10
133.1
20
-82.12
11
133.1
21
-95.92
0
LINE
8
0
10
133.1
20
-78.92
11
146.9
21
-78.92
0
LINE
8
0
10
146.9
20
-78.92
11
146.9
21
-65.12
0
LINE
8
0
10
146.9
20
-65.12
11
133.1
21
-65.12
0
LINE
8
0
10
133.1
20
-65.12
11
133.1
21
-78.92
0
LINE
8
0
10
133.1
20
-61.92
11
146.9
21
-61.92
0
LINE
8
0
10
146.9
20
-61.92
11
146.9
21
-48.12
0
LINE
8
0
10
146.9
20
-48.12
11
133.1
21
-48.12
0
LINE
8
0
10
133.1
20
-48.12
11
133.1
21
-61.92
0
LINE
8
0
10
106.1
20
-110.22
11
119.9
21
-110.22
0
LINE
8
0
10
119.9
20
-110.22
11
119.9
21
-96.42
0
LINE
8
0
10
119.9
20
-96.42
11
106.1
21
-96.42
0
LINE
8
0
10
106.1
20
-96.42
11
106.1
21
-110.22
0
LINE
8
0
10
123.9892604
20
-111.1590368
11
137.3190368
21
-114.7307396
0
LINE
8
0
10
137.3190368
20
-114.7307396
11
140.8907396
21
-101.4009632
0
LINE
8
0
10
140.8907396
20
-101.4009632
11
127.5609632
21
-97.8292604
0
LINE
8
0
10
127.5609632
20
-97.8292604
11
123.9892604
21
-111.1590368
0
LINE
8
0
10
149.5845894
20
-99.2395205
11
143.3195205
21
-111.5354106
0
LINE
8
0
10
143.3195205
20
-111.5354106
11
155.6154106
21
-117.8004795
0
LINE
8
0
10
155.6154106
20
-117.8004795
11
161.8804795
21
-105.5045894
0
LINE
8
0
10
161.8804795
20
-105.5045894
11
149.5845894
21
-99.2395205
0
LINE
8
0
10
166.9380718
20
-108.7412097
11
159.2212097
21
-120.1819282
0
LINE
8
0
10
159.2212097
20
-120.1819282
11
170.6619282
21
-127.8987903
0
LINE
8
0
10
170.6619282
20
-127.8987903
11
178.3787903
21
-116.4580718
0
LINE
8
0
10
178.3787903
20
-116.4580718
11
166.9380718
21
-108.7412097
0
LINE
8
0
10
132
20
-40.92
11
150
21
-45.52
0
LINE
8
0
10
150
20
-90.92
11
150
21
-45.52
0
LINE
8
0
10
150
20
-90.92
11
170.7706538
21
-100.108492
0
LINE
8
0
10
103
20
-114.72
11
98
21
-113.97
0
LINE
8
0
10
98
20
-113.97
11
98
21
-96.3
0
LINE
8
0
10
98
20
-96.3
11
81
21
-96.3
0
LINE
8
0
10
81
20
-96.3
11
81
21
-111.88
0
LINE
8
0
10
81
20
-111.88
11
78
21
-111.5
0
ENDSEC
0
EOF