0
SECTION
2
HEADER
9
$INSUNITS
70
4
0
ENDSEC
0
SECTION
2
TABLES
0
TABLE
2
LTYPE
0
LTYPE
72
65
70
64
2
CONTINUOUS
3
______
73
0
40
0
0
ENDTAB
0
TABLE
2
LAYER
0
ENDTAB
0
ENDSEC
0
SECTION
2
ENTITIES
0
LINE
8
0
10
43.25
20
-108.25
11
56.75
21
-108.25
0
LINE
8
0
10
58.75
20
-106.25
11
58.75
21
-99.75
0
LINE
8
0
10
50.25
20
-91.75
11
43.25
21
-91.75
0
LINE
8
0
10
41.25
20
-93.75
11
41.25
21
-106.25
0
LINE
8
0
10
43.25
20
-91.25
11
50.25
21
-91.25
0
LINE
8
0
10
58.75
20
-83.25
11
58.75
21
-82.75
0
LINE
8
0
10
50.25
20
-74.75
11
43.25
21
-74.75
0
LINE
8
0
10
41.25
20
-76.75
11
41.25
21
-89.25
0
LINE
8
0
10
43.25
20
-74.25
11
50.25
21
-74.25
0
LINE
8
0
10
58.75
20
-66.25
11
58.75
21
-59.75
0
LINE
8
0
10
56.75
20
-57.75
11
43.25
21
-57.75
0
LINE
8
0
10
41.25
20
-59.75
11
41.25
21
-72.25
0
LINE
8
0
10
61.25
20
-106.45
11
74.75
21
-106.45
0
LINE
8
0
10
76.75
20
-104.45
11
76.75
21
-91.95
0
LINE
8
0
10
74.75
20
-89.95
11
67.75
21
-89.95
0
LINE
8
0
10
59.25
20
-99.75
11
59.25
21
-104.45
0
LINE
8
0
10
67.75
20
-89.45
11
74.75
21
-89.45
0
LINE
8
0
10
76.75
20
-87.45
11
76.75
21
-74.95
0
LINE
8
0
10
74.75
20
-72.95
11
67.75
21
-72.95
0
LINE
8
0
10
59.25
20
-82.75
11
59.25
21
-83.25
0
LINE
8
0
10
67.75
20
-72.45
11
74.75
21
-72.45
0
LINE
8
0
10
76.75
20
-70.45
11
76.75
21
-57.95
0
LINE
8
0
10
74.75
20
-55.95
11
61.25
21
-55.95
0
LINE
8
0
10
59.25
20
-57.95
11
59.25
21
-66.25
0
LINE
8
0
10
79.25
20
-94.57
11
92.75
21
-94.57
0
LINE
8
0
10
94.75
20
-92.57
11
94.75
21
-80.07
0
LINE
8
0
10
92.75
20
-78.07
11
79.25
21
-78.07
0
LINE
8
0
10
77.25
20
-80.07
11
77.25
21
-92.57
0
LINE
8
0
10
79.25
20
-77.57
11
92.75
21
-77.57
0
LINE
8
0
10
94.75
20
-75.57
11
94.75
21
-63.07
0
LINE
8
0
10
92.75
20
-61.07
11
79.25
21
-61.07
0
LINE
8
0
10
77.25
20
-63.07
11
77.25
21
-75.57
0
LINE
8
0
10
79.25
20
-60.57
11
92.75
21
-60.57
0
LINE
8
0
10
94.75
20
-58.57
11
94.75
21
-46.07
0
LINE
8
0
10
92.75
20
-44.07
11
79.25
21
-44.07
0
LINE
8
0
10
77.25
20
-46.07
11
77.25
21
-58.57
0
LINE
8
0
10
97.25
20
-90.07
11
97.75
21
-90.07
0
LINE
8
0
10
112.75
20
-84.32
11
112.75
21
-75.57
0
LINE
8
0
10
110.75
20
-73.57
11
97.25
21
-73.57
0
LINE
8
0
10
95.25
20
-75.57
11
95.25
21
-88.07
0
LINE
8
0
10
97.25
20
-73.07
11
110.75
21
-73.07
0
LINE
8
0
10
112.75
20
-71.07
11
112.75
21
-58.57
0
LINE
8
0
10
110.75
20
-56.57
11
97.25
21
-56.57
0
LINE
8
0
10
95.25
20
-58.57
11
95.25
21
-71.07
0
LINE
8
0
10
97.25
20
-56.07
11
110.75
21
-56.07
0
LINE
8
0
10
112.75
20
-54.07
11
112.75
21
-41.57
0
LINE
8
0
10
110.75
20
-39.57
11
97.25
21
-39.57
0
LINE
8
0
10
95.25
20
-41.57
11
95.25
21
-54.07
0
LINE
8
0
10
117.25
20
-94.57
11
128.75
21
-94.57
0
LINE
8
0
10
130.75
20
-92.57
11
130.75
21
-80.07
0
LINE
8
0
10
128.75
20
-78.07
11
115.25
21
-78.07
0
LINE
8
0
10
113.25
20
-80.07
11
113.25
21
-84.32
0
LINE
8
0
10
115.25
20
-77.57
11
128.75
21
-77.57
0
LINE
8
0
10
130.75
20
-75.57
11
130.75
21
-73.195
0
LINE
8
0
10
122.75
20
-61.07
11
115.25
21
-61.07
0
LINE
8
0
10
113.25
20
-63.07
11
113.25
21
-75.57
0
LINE
8
0
10
115.25
20
-60.57
11
122.75
21
-60.57
0
LINE
8
0
10
130.75
20
-56.695
11
130.75
21
-46.07
0
LINE
8
0
10
128.75
20
-44.07
11
115.25
21
-44.07
0
LINE
8
0
10
113.25
20
-46.07
11
113.25
21
-58.57
0
LINE
8
0
10
133.25
20
-97.27
11
146.75
21
-97.27
0
LINE
8
0
10
148.75
20
-95.27
11
148.75
21
-82.77
0
LINE
8
0
10
146.75
20
-80.77
11
133.25
21
-80.77
0
LINE
8
0
10
131.25
20
-82.77
11
131.25
21
-95.27
0
LINE
8
0
10
133.25
20
-80.27
11
146.75
21
-80.27
0
LINE
8
0
10
148.75
20
-78.27
11
148.75
21
-65.77
0
LINE
8
0
10
146.75
20
-63.77
11
140.25
21
-63.77
0
LINE
8
0
10
131.25
20
-73.195
11
131.25
21
-78.27
0
LINE
8
0
10
140.25
20
-63.27
11
146.75
21
-63.27
0
LINE
8
0
10
148.75
20
-61.27
11
148.75
21
-48.77
0
LINE
8
0
10
146.75
20
-46.77
11
133.25
21
-46.77
0
LINE
8
0
10
131.25
20
-48.77
11
131.25
21
-56.695
0
LINE
8
0
10
106.25
20
-111.57
11
119.75
21
-111.57
0
LINE
8
0
10
121.75
20
-109.57
11
121.75
21
-97.07
0
LINE
8
0
10
119.75
20
-95.07
11
117.25
21
-95.07
0
LINE
8
0
10
104.25
20
-102.82
11
104.25
21
-109.57
0
LINE
8
0
10
123.7847437
20
-112.5018595
11
136.8247423
21
-115.9959166
0
LINE
8
0
10
139.274232
20
-114.5817029
11
142.50947
21
-102.5076302
0
LINE
8
0
10
141.0952563
20
-100.0581405
11
128.0552577
21
-96.5640834
0
LINE
8
0
10
125.605768
20
-97.9782971
11
122.37053
21
-110.0523698
0
LINE
8
0
10
58.75
20
-82.75
11
59.25
21
-82.75
0
LINE
8
0
10
67.75
20
-72.95
11
67.75
21
-72.45
0
LINE
8
0
10
59.25
20
-66.25
11
58.75
21
-66.25
0
LINE
8
0
10
50.25
20
-74.25
11
50.25
21
-74.75
0
LINE
8
0
10
58.75
20
-99.75
11
59.25
21
-99.75
0
LINE
8
0
10
67.75
20
-89.95
11
67.75
21
-89.45
0
LINE
8
0
10
59.25
20
-83.25
11
58.75
21
-83.25
0
LINE
8
0
10
50.25
20
-91.25
11
50.25
21
-91.75
0
LINE
8
0
10
101.75
20
-100.82
11
102.25
21
-100.82
0
LINE
8
0
10
117.25
20
-95.07
11
117.25
21
-94.57
0
LINE
8
0
10
113.25
20
-84.32
11
112.75
21
-84.32
0
LINE
8
0
10
99.75
20
-92.07
11
99.75
21
-98.82
0
LINE
8
0
10
130.75
20
-73.195
11
131.25
21
-73.195
0
LINE
8
0
10
140.25
20
-63.77
11
140.25
21
-63.27
0
LINE
8
0
10
131.25
20
-56.695
11
130.75
21
-56.695
0
LINE
8
0
10
122.75
20
-60.57
11
122.75
21
-61.07
0
LINE
8
0
10
157.9361881
20
-116.77
11
159.5926356
21
-116.77
0
LINE
8
0
10
172.4
20
-103.4008696
11
172.4
21
-102.27
0
LINE
8
0
10
170.4
20
-100.27
11
166.6249258
21
-100.27
0
ARC
8
0
10
56.75
20
-106.25
40
2
50
270
51
0
0
ARC
8
0
10
61.25
20
-104.45
40
2
50
180
51
270
0
ARC
8
0
10
74.75
20
-104.45
40
2
50
270
51
0
0
ARC
8
0
10
74.75
20
-91.95
40
2
50
0
51
90
0
ARC
8
0
10
74.75
20
-87.45
40
2
50
270
51
0
0
ARC
8
0
10
74.75
20
-74.95
40
2
50
0
51
90
0
ARC
8
0
10
74.75
20
-70.45
40
2
50
270
51
0
0
ARC
8
0
10
74.75
20
-57.95
40
2
50
0
51
90
0
ARC
8
0
10
61.25
20
-57.95
40
2
50
90
51
180
0
ARC
8
0
10
56.75
20
-59.75
40
2
50
0
51
90
0
ARC
8
0
10
43.25
20
-59.75
40
2
50
90
51
180
0
ARC
8
0
10
43.25
20
-72.25
40
2
50
180
51
270
0
ARC
8
0
10
43.25
20
-76.75
40
2
50
90
51
180
0
ARC
8
0
10
43.25
20
-89.25
40
2
50
180
51
270
0
ARC
8
0
10
43.25
20
-93.75
40
2
50
90
51
180
0
ARC
8
0
10
43.25
20
-106.25
40
2
50
180
51
270
0
ARC
8
0
10
128.75
20
-75.57
40
2
50
270
51
0
0
ARC
8
0
10
133.25
20
-78.27
40
2
50
180
51
270
0
ARC
8
0
10
146.75
20
-78.27
40
2
50
270
51
0
0
ARC
8
0
10
146.75
20
-65.77
40
2
50
0
51
90
0
ARC
8
0
10
146.75
20
-61.27
40
2
50
270
51
0
0
ARC
8
0
10
146.75
20
-48.77
40
2
50
0
51
90
0
ARC
8
0
10
133.25
20
-48.77
40
2
50
90
51
180
0
ARC
8
0
10
128.75
20
-46.07
40
2
50
0
51
90
0
ARC
8
0
10
115.25
20
-46.07
40
2
50
90
51
180
0
ARC
8
0
10
115.25
20
-58.57
40
2
50
180
51
270
0
ARC
8
0
10
115.25
20
-63.07
40
2
50
90
51
180
0
ARC
8
0
10
115.25
20
-75.57
40
2
50
180
51
270
0
ARC
8
0
10
97.75
20
-92.07
40
2
50
0
51
90
0
ARC
8
0
10
101.75
20
-98.82
40
2
50
180
51
270
0
ARC
8
0
10
102.25
20
-102.82
40
2
50
0
51
90
0
ARC
8
0
10
106.25
20
-109.57
40
2
50
180
51
270
0
ARC
8
0
10
119.75
20
-109.57
40
2
50
270
51
0
0
ARC
8
0
10
119.75
20
-97.07
40
2
50
0
51
90
0
ARC
8
0
10
128.75
20
-92.57
40
2
50
270
51
0
0
ARC
8
0
10
128.75
20
-80.07
40
2
50
0
51
90
0
ARC
8
0
10
115.25
20
-80.07
40
2
50
90
51
180
0
ARC
8
0
10
110.75
20
-75.57
40
2
50
0
51
90
0
ARC
8
0
10
97.25
20
-75.57
40
2
50
90
51
180
0
ARC
8
0
10
97.25
20
-88.07
40
2
50
180
51
270
0
ARC
8
0
10
170.4
20
-102.27
40
2
50
0
51
90
0
ARC
8
0
10
92.75
20
-92.57
40
2
50
270
51
0
0
ARC
8
0
10
92.75
20
-80.07
40
2
50
0
51
90
0
ARC
8
0
10
79.25
20
-80.07
40
2
50
90
51
180
0
ARC
8
0
10
79.25
20
-92.57
40
2
50
180
51
270
0
ARC
8
0
10
92.75
20
-75.57
40
2
50
270
51
0
0
ARC
8
0
10
92.75
20
-63.07
40
2
50
0
51
90
0
ARC
8
0
10
79.25
20
-63.07
40
2
50
90
51
180
0
ARC
8
0
10
79.25
20
-75.57
40
2
50
180
51
270
0
ARC
8
0
10
92.75
20
-58.57
40
2
50
270
51
0
0
ARC
8
0
10
92.75
20
-46.07
40
2
50
0
51
90
0
ARC
8
0
10
79.25
20
-46.07
40
2
50
90
51
180
0
ARC
8
0
10
79.25
20
-58.57
40
2
50
180
51
270
0
ARC
8
0
10
110.75
20
-71.07
40
2
50
270
51
0
0
ARC
8
0
10
110.75
20
-58.57
40
2
50
0
51
90
0
ARC
8
0
10
97.25
20
-58.57
40
2
50
90
51
180
0
ARC
8
0
10
97.25
20
-71.07
40
2
50
180
51
270
0
ARC
8
0
10
110.75
20
-54.07
40
2
50
270
51
0
0
ARC
8
0
10
110.75
20
-41.57
40
2
50
0
51
90
0
ARC
8
0
10
97.25
20
-41.57
40
2
50
90
51
180
0
ARC
8
0
10
97.25
20
-54.07
40
2
50
180
51
270
0
ARC
8
0
10
146.75
20
-95.27
40
2
50
270
51
0
0
ARC
8
0
10
146.75
20
-82.77
40
2
50
0
51
90
0
ARC
8
0
10
133.25
20
-82.77
40
2
50
90
51
180
0
ARC
8
0
10
133.25
20
-95.27
40
2
50
180
51
270
0
ARC
8
0
10
137.3423803
20
-114.0640649
40
2
50
255.0000021
51
345.0000021
0
ARC
8
0
10
140.5776183
20
-101.9899922
40
2
50
345.0000021
51
75.0000021
0
ARC
8
0
10
127.5376197
20
-98.4959351
40
2
50
75.0000021
51
165.0000021
0
ARC
8
0
10
124.3023817
20
-110.5700078
40
2
50
165.0000021
51
255.0000021
0
LINE
8
0
10
150.2473353
20
-94.4145057
11
139.8055538
21
-114.9076558
0
LINE
8
0
10
140.6795858
20
-117.5976498
11
152.2626707
21
-123.4995263
0
LINE
8
0
10
154.9526647
20
-122.6254943
11
157.9361881
21
-116.77
0
LINE
8
0
10
165.7169448
20
-100.052013
11
152.9373293
21
-93.5404737
0
LINE
8
0
10
159.5926356
20
-116.77
11
155.3224622
21
-123.1007924
0
LINE
8
0
10
155.8621515
20
-125.8772533
11
166.6396401
21
-133.1467611
0
LINE
8
0
10
169.416101
20
-132.6070718
11
182.2775378
21
-113.5392076
0
LINE
8
0
10
181.7378485
20
-110.7627467
11
173.2816142
21
-105.0589447
0
ARC
8
0
10
156.9805373
20
-124.2191782
40
2
50
146.000001
51
236.000001
0
ARC
8
0
10
167.7580259
20
-131.488686
40
2
50
236.000001
51
326.000001
0
ARC
8
0
10
180.6194627
20
-112.4208218
40
2
50
326.000001
51
56.000001
0
ARC
8
0
10
174.4
20
-103.4008696
40
2
50
180
51
236.000001
0
ARC
8
0
10
166.6249258
20
-98.27
40
2
50
242.9999994
51
270
0
ARC
8
0
10
152.0293483
20
-95.3224867
40
2
50
62.9999994
51
152.9999994
0
ARC
8
0
10
141.5875668
20
-115.8156368
40
2
50
152.9999994
51
242.9999994
0
ARC
8
0
10
153.1706517
20
-121.7175133
40
2
50
242.9999994
51
332.9999994
0
ENDSEC
0
EOF