0
SECTION
2
HEADER
9
$INSUNITS
70
4
0
ENDSEC
0
SECTION
2
TABLES
0
TABLE
2
LTYPE
0
LTYPE
72
65
70
64
2
CONTINUOUS
3
______
73
0
40
0
0
ENDTAB
0
TABLE
2
LAYER
0
ENDTAB
0
ENDSEC
0
SECTION
2
ENTITIES
0
LINE
8
0
10
38
20
-109.4049937
11
38
21
-58.0169208
0
LINE
8
0
10
39.4607402
20
-56.0909927
11
57.774374
21
-50.9631753
0
LINE
8
0
10
58.2049146
20
-50.7863863
11
75.7701921
21
-41.0474157
0
LINE
8
0
10
76.2549213
20
-40.8562697
11
93.7611401
21
-36.479715
0
LINE
8
0
10
94.2462113
20
-36.42
11
113.7537887
21
-36.42
0
LINE
8
0
10
114.2388599
20
-36.479715
11
131.992779
21
-40.9181948
0
LINE
8
0
10
132.0072358
20
-40.9217518
11
150.7680434
21
-45.4638421
0
LINE
8
0
10
151.2386579
20
-45.52
11
167.75
21
-45.52
0
LINE
8
0
10
169.75
20
-98.52
11
169.75
21
-47.52
0
LINE
8
0
10
169.75
20
-98.52
11
170.7706538
21
-100.108492
0
LINE
8
0
10
170.7706538
20
-100.108492
11
185.6518783
21
-110.1460046
0
LINE
8
0
10
186.1915676
20
-112.9224655
11
170.3234305
21
-136.4479463
0
LINE
8
0
10
167.5279683
20
-136.9746596
11
152.9735798
21
-126.9120592
0
LINE
8
0
10
152.7441737
20
-126.7751453
11
137.8346294
21
-119.1783529
0
LINE
8
0
10
137.401144
20
-119.0174676
11
121.0165423
21
-115.0160121
0
LINE
8
0
10
120.5692617
20
-114.9590956
11
103.1146021
21
-114.7215596
0
LINE
8
0
10
102.8863275
20
-114.705359
11
78.1247299
21
-111.5160652
0
LINE
8
0
10
77.8742403
20
-111.4996856
11
39.995
21
-111.4049875
0
ARC
8
0
10
40
20
-58.0169208
40
2
50
105.6422454
51
180
0
ARC
8
0
10
57.2351142
20
-49.0372473
40
2
50
285.6422454
51
299.0059338
0
ARC
8
0
10
76.7399925
20
-42.7965547
40
2
50
104.0362421
51
119.0059338
0
ARC
8
0
10
94.2462113
20
-38.42
40
2
50
90
51
104.0362421
0
ARC
8
0
10
113.7537887
20
-38.42
40
2
50
75.9637579
51
90
0
ARC
8
0
10
132.4778502
20
-38.9779097
40
2
50
255.9637579
51
256.3902675
0
ARC
8
0
10
151.2386579
20
-43.52
40
2
50
256.3902675
51
270
0
ARC
8
0
10
167.75
20
-47.52
40
2
50
0
51
90
0
ARC
8
0
10
184.5334925
20
-111.8040797
40
2
50
326.000001
51
56.000001
0
ARC
8
0
10
168.6653553
20
-135.3295606
40
2
50
235.3408298
51
326.000001
0
ARC
8
0
10
151.8361927
20
-128.5571583
40
2
50
55.3408298
51
62.9999994
0
ARC
8
0
10
136.9266484
20
-120.9603659
40
2
50
62.9999994
51
76.2758404
0
ARC
8
0
10
120.5420467
20
-116.9589104
40
2
50
76.2758404
51
89.2203236
0
ARC
8
0
10
103.1418171
20
-112.7217448
40
2
50
262.6607079
51
269.2203236
0
ARC
8
0
10
77.8692403
20
-113.4996794
40
2
50
82.6607079
51
89.8567604
0
ARC
8
0
10
40
20
-109.4049937
40
2
50
180
51
269.8567604
0
ENDSEC
0
EOF