0
SECTION
2
HEADER
9
$INSUNITS
70
4
0
ENDSEC
0
SECTION
2
TABLES
0
TABLE
2
LTYPE
0
LTYPE
72
65
70
64
2
CONTINUOUS
3
______
73
0
40
0
0
ENDTAB
0
TABLE
2
LAYER
0
ENDTAB
0
ENDSEC
0
SECTION
2
ENTITIES
0
LINE
8
0
10
40
20
-107.5052562
11
40
21
-57.9723328
0
LINE
8
0
10
41.4058668
20
-56.0626192
11
57.8849823
21
-50.9357833
0
LINE
8
0
10
58.1098921
20
-50.8506707
11
75.8381452
21
-42.8926548
0
LINE
8
0
10
76.1721169
20
-42.7769708
11
93.7611401
21
-38.379715
0
LINE
8
0
10
94.2462113
20
-38.32
11
113.8563013
21
-38.32
0
LINE
8
0
10
114.1422229
20
-38.3405433
11
131.8942475
21
-40.9047246
0
LINE
8
0
10
132.1035225
20
-40.9464557
11
149.7563175
21
-45.4577256
0
LINE
8
0
10
150.2515141
20
-45.52
11
167.75
21
-45.52
0
LINE
8
0
10
169.75
20
-98.5154284
11
169.75
21
-47.52
0
LINE
8
0
10
169.750021
20
-98.5245862
11
169.7592642
21
-100.5432182
0
LINE
8
0
10
170.6408574
20
-102.1921355
11
183.0701596
21
-110.5758057
0
LINE
8
0
10
183.6098489
20
-113.3522666
11
169.7551748
21
-133.8926657
0
LINE
8
0
10
166.9591769
20
-134.4190083
11
153.7910077
21
-125.3084699
0
LINE
8
0
10
153.5610659
20
-125.1711853
11
138.6442822
21
-117.5707045
0
LINE
8
0
10
138.226988
20
-117.4138451
11
121.5129184
21
-113.1838746
0
LINE
8
0
10
121.0557926
20
-113.1230287
11
103.1114133
21
-112.8218698
0
LINE
8
0
10
102.8894847
20
-112.8057656
11
78.1245987
21
-109.6160483
0
LINE
8
0
10
77.8743723
20
-109.5996694
11
41.9947368
21
-109.5052493
0
ARC
8
0
10
42
20
-57.9723328
40
2
50
107.2815006
51
180
0
ARC
8
0
10
57.2908491
20
-49.0260697
40
2
50
287.2815006
51
294.1747789
0
ARC
8
0
10
76.6571882
20
-44.7172558
40
2
50
104.0362421
51
114.1747789
0
ARC
8
0
10
94.2462113
20
-40.32
40
2
50
90
51
104.0362421
0
ARC
8
0
10
113.8563013
20
-40.32
40
2
50
81.780789
51
90
0
ARC
8
0
10
131.6083259
20
-42.8841813
40
2
50
75.664563
51
81.780789
0
ARC
8
0
10
150.2515141
20
-43.52
40
2
50
255.664563
51
270
0
ARC
8
0
10
167.75
20
-47.52
40
2
50
0
51
90
0
ARC
8
0
10
171.75
20
-98.5154284
40
2
50
180
51
180.2623526
0
ARC
8
0
10
171.7592432
20
-100.5340604
40
2
50
180.2623526
51
236.000001
0
ARC
8
0
10
181.9517738
20
-112.2338808
40
2
50
326.000001
51
56.000001
0
ARC
8
0
10
168.0970997
20
-132.7742799
40
2
50
235.3221663
51
326.000001
0
ARC
8
0
10
152.6530848
20
-126.9531984
40
2
50
55.3221663
51
62.9999994
0
ARC
8
0
10
137.7363012
20
-119.3527176
40
2
50
62.9999994
51
75.797871
0
ARC
8
0
10
121.0222316
20
-115.1227471
40
2
50
75.797871
51
89.038503
0
ARC
8
0
10
103.1449743
20
-110.8221514
40
2
50
262.6607079
51
269.038503
0
ARC
8
0
10
77.8691091
20
-111.5996625
40
2
50
82.6607079
51
89.8492202
0
ARC
8
0
10
42
20
-107.5052562
40
2
50
180
51
269.8492202
0
ENDSEC
0
EOF