0
SECTION
2
HEADER
9
$INSUNITS
70
4
0
ENDSEC
0
SECTION
2
TABLES
0
TABLE
2
LTYPE
0
LTYPE
72
65
70
64
2
CONTINUOUS
3
______
73
0
40
0
0
ENDTAB
0
TABLE
2
LAYER
0
ENDTAB
0
ENDSEC
0
SECTION
2
ENTITIES
0
LINE
8
0
10
43.1
20
-106.9
11
56.9
21
-106.9
0
LINE
8
0
10
56.9
20
-106.9
11
56.9
21
-93.1
0
LINE
8
0
10
56.9
20
-93.1
11
43.1
21
-93.1
0
LINE
8
0
10
43.1
20
-93.1
11
43.1
21
-106.9
0
LINE
8
0
10
43.1
20
-89.9
11
56.9
21
-89.9
0
LINE
8
0
10
56.9
20
-89.9
11
56.9
21
-76.1
0
LINE
8
0
10
56.9
20
-76.1
11
43.1
21
-76.1
0
LINE
8
0
10
43.1
20
-76.1
11
43.1
21
-89.9
0
LINE
8
0
10
43.1
20
-72.9
11
56.9
21
-72.9
0
LINE
8
0
10
56.9
20
-72.9
11
56.9
21
-59.1
0
LINE
8
0
10
56.9
20
-59.1
11
43.1
21
-59.1
0
LINE
8
0
10
43.1
20
-59.1
11
43.1
21
-72.9
0
LINE
8
0
10
61.1
20
-105.1
11
74.9
21
-105.1
0
LINE
8
0
10
74.9
20
-105.1
11
74.9
21
-91.3
0
LINE
8
0
10
74.9
20
-91.3
11
61.1
21
-91.3
0
LINE
8
0
10
61.1
20
-91.3
11
61.1
21
-105.1
0
LINE
8
0
10
61.1
20
-88.1
11
74.9
21
-88.1
0
LINE
8
0
10
74.9
20
-88.1
11
74.9
21
-74.3
0
LINE
8
0
10
74.9
20
-74.3
11
61.1
21
-74.3
0
LINE
8
0
10
61.1
20
-74.3
11
61.1
21
-88.1
0
LINE
8
0
10
61.1
20
-71.1
11
74.9
21
-71.1
0
LINE
8
0
10
74.9
20
-71.1
11
74.9
21
-57.3
0
LINE
8
0
10
74.9
20
-57.3
11
61.1
21
-57.3
0
LINE
8
0
10
61.1
20
-57.3
11
61.1
21
-71.1
0
LINE
8
0
10
79.1
20
-93.22
11
92.9
21
-93.22
0
LINE
8
0
10
92.9
20
-93.22
11
92.9
21
-79.42
0
LINE
8
0
10
92.9
20
-79.42
11
79.1
21
-79.42
0
LINE
8
0
10
79.1
20
-79.42
11
79.1
21
-93.22
0
LINE
8
0
10
79.1
20
-76.22
11
92.9
21
-76.22
0
LINE
8
0
10
92.9
20
-76.22
11
92.9
21
-62.42
0
LINE
8
0
10
92.9
20
-62.42
11
79.1
21
-62.42
0
LINE
8
0
10
79.1
20
-62.42
11
79.1
21
-76.22
0
LINE
8
0
10
79.1
20
-59.22
11
92.9
21
-59.22
0
LINE
8
0
10
92.9
20
-59.22
11
92.9
21
-45.42
0
LINE
8
0
10
92.9
20
-45.42
11
79.1
21
-45.42
0
LINE
8
0
10
79.1
20
-45.42
11
79.1
21
-59.22
0
LINE
8
0
10
97.1
20
-88.72
11
110.9
21
-88.72
0
LINE
8
0
10
110.9
20
-88.72
11
110.9
21
-74.92
0
LINE
8
0
10
110.9
20
-74.92
11
97.1
21
-74.92
0
LINE
8
0
10
97.1
20
-74.92
11
97.1
21
-88.72
0
LINE
8
0
10
97.1
20
-71.72
11
110.9
21
-71.72
0
LINE
8
0
10
110.9
20
-71.72
11
110.9
21
-57.92
0
LINE
8
0
10
110.9
20
-57.92
11
97.1
21
-57.92
0
LINE
8
0
10
97.1
20
-57.92
11
97.1
21
-71.72
0
LINE
8
0
10
97.1
20
-54.72
11
110.9
21
-54.72
0
LINE
8
0
10
110.9
20
-54.72
11
110.9
21
-40.92
0
LINE
8
0
10
110.9
20
-40.92
11
97.1
21
-40.92
0
LINE
8
0
10
97.1
20
-40.92
11
97.1
21
-54.72
0
LINE
8
0
10
115.1
20
-93.22
11
128.9
21
-93.22
0
LINE
8
0
10
128.9
20
-93.22
11
128.9
21
-79.42
0
LINE
8
0
10
128.9
20
-79.42
11
115.1
21
-79.42
0
LINE
8
0
10
115.1
20
-79.42
11
115.1
21
-93.22
0
LINE
8
0
10
115.1
20
-76.22
11
128.9
21
-76.22
0
LINE
8
0
10
128.9
20
-76.22
11
128.9
21
-62.42
0
LINE
8
0
10
128.9
20
-62.42
11
115.1
21
-62.42
0
LINE
8
0
10
115.1
20
-62.42
11
115.1
21
-76.22
0
LINE
8
0
10
115.1
20
-59.22
11
128.9
21
-59.22
0
LINE
8
0
10
128.9
20
-59.22
11
128.9
21
-45.42
0
LINE
8
0
10
128.9
20
-45.42
11
115.1
21
-45.42
0
LINE
8
0
10
115.1
20
-45.42
11
115.1
21
-59.22
0
LINE
8
0
10
133.1
20
-95.92
11
146.9
21
-95.92
0
LINE
8
0
10
146.9
20
-95.92
11
146.9
21
-82.12
0
LINE
8
0
10
146.9
20
-82.12
11
133.1
21
-82.12
0
LINE
8
0
10
133.1
20
-82.12
11
133.1
21
-95.92
0
LINE
8
0
10
133.1
20
-78.92
11
146.9
21
-78.92
0
LINE
8
0
10
146.9
20
-78.92
11
146.9
21
-65.12
0
LINE
8
0
10
146.9
20
-65.12
11
133.1
21
-65.12
0
LINE
8
0
10
133.1
20
-65.12
11
133.1
21
-78.92
0
LINE
8
0
10
133.1
20
-61.92
11
146.9
21
-61.92
0
LINE
8
0
10
146.9
20
-61.92
11
146.9
21
-48.12
0
LINE
8
0
10
146.9
20
-48.12
11
133.1
21
-48.12
0
LINE
8
0
10
133.1
20
-48.12
11
133.1
21
-61.92
0
LINE
8
0
10
106.1
20
-110.22
11
119.9
21
-110.22
0
LINE
8
0
10
119.9
20
-110.22
11
119.9
21
-96.42
0
LINE
8
0
10
119.9
20
-96.42
11
106.1
21
-96.42
0
LINE
8
0
10
106.1
20
-96.42
11
106.1
21
-110.22
0
LINE
8
0
10
123.9892604
20
-111.1590368
11
137.3190368
21
-114.7307396
0
LINE
8
0
10
137.3190368
20
-114.7307396
11
140.8907396
21
-101.4009632
0
LINE
8
0
10
140.8907396
20
-101.4009632
11
127.5609632
21
-97.8292604
0
LINE
8
0
10
127.5609632
20
-97.8292604
11
123.9892604
21
-111.1590368
0
LINE
8
0
10
149.5845894
20
-99.2395205
11
143.3195205
21
-111.5354106
0
LINE
8
0
10
143.3195205
20
-111.5354106
11
155.6154106
21
-117.8004795
0
LINE
8
0
10
155.6154106
20
-117.8004795
11
161.8804795
21
-105.5045894
0
LINE
8
0
10
161.8804795
20
-105.5045894
11
149.5845894
21
-99.2395205
0
LINE
8
0
10
166.9380718
20
-108.7412097
11
159.2212097
21
-120.1819282
0
LINE
8
0
10
159.2212097
20
-120.1819282
11
170.6619282
21
-127.8987903
0
LINE
8
0
10
170.6619282
20
-127.8987903
11
178.3787903
21
-116.4580718
0
LINE
8
0
10
178.3787903
20
-116.4580718
11
166.9380718
21
-108.7412097
0
ENDSEC
0
EOF