0
SECTION
2
HEADER
9
$INSUNITS
70
4
0
ENDSEC
0
SECTION
2
TABLES
0
TABLE
2
LTYPE
0
LTYPE
72
65
70
64
2
CONTINUOUS
3
______
73
0
40
0
0
ENDTAB
0
TABLE
2
LAYER
0
ENDTAB
0
ENDSEC
0
SECTION
2
ENTITIES
0
LINE
8
0
10
34.4
20
-113.0315651
11
34.4
21
-54.9459531
0
LINE
8
0
10
35.7730788
20
-53.0467507
11
54.8462491
21
-46.7507527
0
LINE
8
0
10
55.1435843
20
-46.6251766
11
72.7902615
21
-37.4292971
0
LINE
8
0
10
73.2294467
20
-37.2626383
11
90.7611401
21
-32.879715
0
LINE
8
0
10
91.2462113
20
-32.82
11
116.7537887
21
-32.82
0
LINE
8
0
10
117.2388599
20
-32.879715
11
134.98234
21
-37.315585
0
LINE
8
0
10
135.0175746
20
-37.3247351
11
154.0444045
21
-42.4511349
0
LINE
8
0
10
154.5647103
20
-42.52
11
172.15
21
-42.52
0
LINE
8
0
10
174.15
20
-96.6613001
11
174.15
21
-44.52
0
LINE
8
0
10
175.0902676
20
-98.3574626
11
191.1102385
21
-108.3664583
0
LINE
8
0
10
170.7559615
20
-142.2445426
11
191.7085811
21
-111.1810065
0
LINE
8
0
10
167.9314536
20
-142.7507905
11
153.3040774
21
-132.2488228
0
LINE
8
0
10
153.0456256
20
-132.0914433
11
133.3233102
21
-122.0424217
0
LINE
8
0
10
132.9268776
20
-121.8909617
11
118.7785504
21
-118.1476692
0
LINE
8
0
10
118.236484
20
-118.0813752
11
102.7232454
21
-118.3181192
0
LINE
8
0
10
102.4774564
20
-118.3067329
11
78.491467
21
-115.7099026
0
LINE
8
0
10
78.3080102
20
-115.6985365
11
36.3681858
21
-115.031312
0
ARC
8
0
10
36.4
20
-54.9459531
40
2
50
108.2679067
51
180
0
ARC
8
0
10
54.2193279
20
-44.8515503
40
2
50
288.2679067
51
297.5245226
0
ARC
8
0
10
73.7145179
20
-39.2029233
40
2
50
104.0362421
51
117.5245226
0
ARC
8
0
10
91.2462113
20
-34.82
40
2
50
90
51
104.0362421
0
ARC
8
0
10
116.7537887
20
-34.82
40
2
50
75.9637579
51
90
0
ARC
8
0
10
134.4972688
20
-39.25587
40
2
50
74.9208646
51
75.9637579
0
ARC
8
0
10
154.5647103
20
-40.52
40
2
50
254.9208646
51
270
0
ARC
8
0
10
172.15
20
-44.52
40
2
50
0
51
90
0
ARC
8
0
10
176.15
20
-96.6613001
40
2
50
180
51
238.0035835
0
ARC
8
0
10
190.050506
20
-110.0626207
40
2
50
326.000001
51
58.0035835
0
ARC
8
0
10
169.0978864
20
-141.1261568
40
2
50
234.3229125
51
326.000001
0
ARC
8
0
10
152.1376446
20
-133.8734564
40
2
50
54.3229125
51
62.9999994
0
ARC
8
0
10
132.4153292
20
-123.8244348
40
2
50
62.9999994
51
75.1805343
0
ARC
8
0
10
118.267002
20
-120.0811423
40
2
50
75.1805343
51
90.8743102
0
ARC
8
0
10
102.6927274
20
-116.3183521
40
2
50
263.8209695
51
270.8743102
0
ARC
8
0
10
78.276196
20
-117.6982834
40
2
50
83.8209695
51
89.0885519
0
ARC
8
0
10
36.4
20
-113.0315651
40
2
50
180
51
269.0885519
0
ENDSEC
0
EOF