0
SECTION
2
HEADER
9
$INSUNITS
70
4
0
ENDSEC
0
SECTION
2
TABLES
0
TABLE
2
LTYPE
0
LTYPE
72
65
70
64
2
CONTINUOUS
3
______
73
0
40
0
0
ENDTAB
0
TABLE
2
LAYER
0
ENDTAB
0
ENDSEC
0
SECTION
2
ENTITIES
0
LINE
8
0
10
37
20
-110.535757
11
37
21
-54.8824024
0
LINE
8
0
10
38.2931988
20
-53.0114582
11
54.9963688
21
-46.7013718
0
LINE
8
0
10
55.0036294
20
-46.6986128
11
72.8876722
21
-39.8629342
0
LINE
8
0
10
73.1166628
20
-39.7908343
11
90.7611401
21
-35.379715
0
LINE
8
0
10
91.2462113
20
-35.32
11
116.8892294
21
-35.32
0
LINE
8
0
10
117.1100924
20
-35.3322325
11
134.830056
21
-37.3011173
0
LINE
8
0
10
135.1642724
20
-37.3674565
11
152.7280213
21
-42.4414284
0
LINE
8
0
10
153.2831007
20
-42.52
11
170.75
21
-42.52
0
LINE
8
0
10
172.75
20
-99.2114193
11
172.75
21
-44.52
0
LINE
8
0
10
173.625362
20
-100.8652601
11
187.0775599
21
-110.0129689
0
LINE
8
0
10
170.7544379
20
-137.7760724
11
187.6109971
21
-112.7851955
0
LINE
8
0
10
167.9270345
20
-138.2802376
11
154.9851385
21
-128.9533664
0
LINE
8
0
10
154.7237913
20
-128.7939044
11
135.0665381
21
-118.7780335
0
LINE
8
0
10
134.5333609
20
-118.5954799
11
119.3542996
21
-115.699589
0
LINE
8
0
10
118.9604564
20
-115.6642462
11
102.7070683
21
-115.8189807
0
LINE
8
0
10
102.4934341
20
-115.809582
11
75.8790774
21
-113.2077307
0
LINE
8
0
10
75.7205592
20
-113.1985668
11
38.9639234
21
-112.5354316
0
ARC
8
0
10
39
20
-54.8824024
40
2
50
110.6954523
51
180
0
ARC
8
0
10
54.2895676
20
-44.8304276
40
2
50
290.6954523
51
290.9179645
0
ARC
8
0
10
73.601734
20
-41.7311193
40
2
50
104.0362421
51
110.9179645
0
ARC
8
0
10
91.2462113
20
-37.32
40
2
50
90
51
104.0362421
0
ARC
8
0
10
116.8892294
20
-37.32
40
2
50
83.6598095
51
90
0
ARC
8
0
10
134.609193
20
-39.2888848
40
2
50
73.8865794
51
83.6598095
0
ARC
8
0
10
153.2831007
20
-40.52
40
2
50
253.8865794
51
270
0
ARC
8
0
10
170.75
20
-44.52
40
2
50
0
51
90
0
ARC
8
0
10
174.75
20
-99.2114193
40
2
50
180
51
235.7836759
0
ARC
8
0
10
185.9529219
20
-111.6668097
40
2
50
326.000001
51
55.7836759
0
ARC
8
0
10
169.0963627
20
-136.6576866
40
2
50
234.2207372
51
326.000001
0
ARC
8
0
10
153.8158103
20
-130.5759174
40
2
50
54.2207372
51
62.9999994
0
ARC
8
0
10
134.1585571
20
-120.5600465
40
2
50
62.9999994
51
79.198799
0
ARC
8
0
10
118.9794958
20
-117.6641556
40
2
50
79.198799
51
90.5454469
0
ARC
8
0
10
102.6880289
20
-113.8190713
40
2
50
264.4164364
51
270.5454469
0
ARC
8
0
10
75.6844826
20
-115.1982414
40
2
50
84.4164364
51
88.9664255
0
ARC
8
0
10
39
20
-110.535757
40
2
50
180
51
268.9664255
0
ENDSEC
0
EOF