0
SECTION
2
HEADER
9
$INSUNITS
70
4
0
ENDSEC
0
SECTION
2
TABLES
0
TABLE
2
LTYPE
0
LTYPE
72
65
70
64
2
CONTINUOUS
3
______
73
0
40
0
0
ENDTAB
0
TABLE
2
LAYER
0
ENDTAB
0
ENDSEC
0
SECTION
2
ENTITIES
0
LINE
8
0
10
37
20
-110.5315651
11
37
21
-54.8824024
0
LINE
8
0
10
38.2931988
20
-53.0114582
11
54.9963688
21
-46.7013718
0
LINE
8
0
10
55.0036294
20
-46.6986128
11
72.8876722
21
-39.8629342
0
LINE
8
0
10
73.1166628
20
-39.7908343
11
90.7611401
21
-35.379715
0
LINE
8
0
10
91.2462113
20
-35.32
11
116.8892294
21
-35.32
0
LINE
8
0
10
117.1100924
20
-35.3322325
11
134.830056
21
-37.3011173
0
LINE
8
0
10
135.1642724
20
-37.3674565
11
152.7280213
21
-42.4414284
0
LINE
8
0
10
153.2831007
20
-42.52
11
170.75
21
-42.52
0
LINE
8
0
10
172.75
20
-98.8994418
11
172.75
21
-44.52
0
LINE
8
0
10
170.2223034
20
-100.8285702
11
167.5257051
21
-100.0909388
0
LINE
8
0
10
167.5257051
20
-100.0909388
11
185.5572724
21
-112.2533844
0
LINE
8
0
10
186.0969617
20
-115.0298453
11
172.2623675
21
-135.5404746
0
LINE
8
0
10
169.4376264
20
-136.046555
11
156.2097208
21
-126.5464828
0
LINE
8
0
10
155.9510359
20
-126.3889359
11
136.4191938
21
-116.4369653
0
LINE
8
0
10
135.6122358
20
-116.2215313
11
117.9814945
21
-115.3298382
0
LINE
8
0
10
117.8252953
20
-115.3280464
11
100.1649319
21
-115.8154481
0
LINE
8
0
10
99.8365515
20
-115.7974613
11
81.1201338
21
-113.2165658
0
LINE
8
0
10
80.8787438
20
-113.1980709
11
38.9681858
21
-112.531312
0
ARC
8
0
10
39
20
-54.8824024
40
2
50
110.6954523
51
180
0
ARC
8
0
10
54.2895676
20
-44.8304276
40
2
50
290.6954523
51
290.9179645
0
ARC
8
0
10
73.601734
20
-41.7311193
40
2
50
104.0362421
51
110.9179645
0
ARC
8
0
10
91.2462113
20
-37.32
40
2
50
90
51
104.0362421
0
ARC
8
0
10
116.8892294
20
-37.32
40
2
50
83.6598095
51
90
0
ARC
8
0
10
134.609193
20
-39.2888848
40
2
50
73.8865794
51
83.6598095
0
ARC
8
0
10
153.2831007
20
-40.52
40
2
50
253.8865794
51
270
0
ARC
8
0
10
170.75
20
-44.52
40
2
50
0
51
90
0
ARC
8
0
10
170.75
20
-98.8994418
40
2
50
254.7014703
51
0
0
ARC
8
0
10
184.4388866
20
-113.9114595
40
2
50
326.000001
51
56.000001
0
ARC
8
0
10
170.6042924
20
-134.4220889
40
2
50
234.3146888
51
326.000001
0
ARC
8
0
10
155.0430549
20
-128.1709489
40
2
50
54.3146888
51
62.9999994
0
ARC
8
0
10
135.5112128
20
-118.2189783
40
2
50
62.9999994
51
87.1046722
0
ARC
8
0
10
117.8804715
20
-117.3272852
40
2
50
87.1046722
51
91.5808822
0
ARC
8
0
10
100.1097557
20
-113.8162093
40
2
50
262.1487282
51
271.5808822
0
ARC
8
0
10
80.8469296
20
-115.1978178
40
2
50
82.1487282
51
89.0885519
0
ARC
8
0
10
39
20
-110.5315651
40
2
50
180
51
269.0885519
0
ENDSEC
0
EOF