solid csg.js
facet normal 0 0 -1
outer loop
vertex 116.8892294000003 -35.32 0
vertex 116.9998290467323 -35.32305928763779 0
vertex 117.11008970000007 -35.33223500000001 0
endloop
endfacet
facet normal 0 0 -1
outer loop
vertex 116.8892294000003 -35.32 0
vertex 117.11008970000007 -35.33223500000001 0
vertex 134.83005600000007 -37.30111730000001 0
endloop
endfacet
facet normal 0 0 -1
outer loop
vertex 116.8892294000003 -35.32 0
vertex 134.83005600000007 -37.30111730000001 0
vertex 134.99857836711305 -37.32715805011318 0
endloop
endfacet
facet normal 0 0 -1
outer loop
vertex 116.8892294000003 -35.32 0
vertex 134.99857836711305 -37.32715805011318 0
vertex 135.16427299999998 -37.36745864999999 0
endloop
endfacet
facet normal 0 0 -1
outer loop
vertex 116.8892294000003 -35.32 0
vertex 135.16427299999998 -37.36745864999999 0
vertex 152.72802129999997 -42.441428399999985 0
endloop
endfacet
facet normal 0 0 -1
outer loop
vertex 116.8892294000003 -35.32 0
vertex 152.72802129999997 -42.441428399999985 0
vertex 66.14160993635441 -42.441428399999985 0
endloop
endfacet
facet normal 0 0 -1
outer loop
vertex 116.8892294000003 -35.32 0
vertex 66.14160993635441 -42.441428399999985 0
vertex 72.8876722000004 -39.862934199999856 0
endloop
endfacet
facet normal 0 0 -1
outer loop
vertex 116.8892294000003 -35.32 0
vertex 72.8876722000004 -39.862934199999856 0
vertex 73.0010833401708 -39.82344339894992 0
endloop
endfacet
facet normal 0 0 -1
outer loop
vertex 116.8892294000003 -35.32 0
vertex 73.0010833401708 -39.82344339894992 0
vertex 73.11665609999977 -39.790832100000046 0
endloop
endfacet
facet normal 0 0 -1
outer loop
vertex 116.8892294000003 -35.32 0
vertex 73.11665609999977 -39.790832100000046 0
vertex 90.7611400999999 -35.379715000000026 0
endloop
endfacet
facet normal 0 0 -1
outer loop
vertex 116.8892294000003 -35.32 0
vertex 90.7611400999999 -35.379715000000026 0
vertex 90.92102438568911 -35.346615324495176 0
endloop
endfacet
facet normal 0 0 -1
outer loop
vertex 116.8892294000003 -35.32 0
vertex 90.92102438568911 -35.346615324495176 0
vertex 91.08307102757334 -35.32666433811549 0
endloop
endfacet
facet normal 0 0 -1
outer loop
vertex 116.8892294000003 -35.32 0
vertex 91.08307102757334 -35.32666433811549 0
vertex 91.24620505000001 -35.31999750000001 0
endloop
endfacet
facet normal 0 0 -1
outer loop
vertex 152.72802129999997 -42.441428399999985 0
vertex 152.91031663626006 -42.48494974800268 0
vertex 66.02774591314896 -42.48494974800268 0
endloop
endfacet
facet normal 0 0 -1
outer loop
vertex 152.72802129999997 -42.441428399999985 0
vertex 66.02774591314896 -42.48494974800268 0
vertex 66.14160993635441 -42.441428399999985 0
endloop
endfacet
facet normal 0 0 -1
outer loop
vertex 152.91031663626006 -42.48494974800268 0
vertex 153.09588650148874 -42.51121997933811 0
vertex 65.959015637832 -42.51121997933811 0
endloop
endfacet
facet normal 0 0 -1
outer loop
vertex 152.91031663626006 -42.48494974800268 0
vertex 65.959015637832 -42.51121997933811 0
vertex 66.02774591314896 -42.48494974800268 0
endloop
endfacet
facet normal 0 0 -1
outer loop
vertex 153.09588650148874 -42.51121997933811 0
vertex 153.2831006499999 -42.520004199999995 0
vertex 65.93603365884492 -42.520004199999995 0
endloop
endfacet
facet normal 0 0 -1
outer loop
vertex 153.09588650148874 -42.51121997933811 0
vertex 65.93603365884492 -42.520004199999995 0
vertex 65.959015637832 -42.51121997933811 0
endloop
endfacet
facet normal 0 0 -1
outer loop
vertex 170.7500480062196 -42.520004199999995 0
vertex 153.2831006499999 -42.520004199999995 0
vertex 170.75000000000003 -42.52 0
endloop
endfacet
facet normal 0 0 -1
outer loop
vertex 153.2831006499999 -42.520004199999995 0
vertex 170.7500480062196 -42.520004199999995 0
vertex 171.0972963553338 -42.55038449397558 0
endloop
endfacet
facet normal 0 0 -1
outer loop
vertex 153.2831006499999 -42.520004199999995 0
vertex 171.0972963553338 -42.55038449397558 0
vertex 171.43404028665142 -42.640614758428214 0
endloop
endfacet
facet normal 0 0 -1
outer loop
vertex 153.2831006499999 -42.520004199999995 0
vertex 171.43404028665142 -42.640614758428214 0
vertex 171.74999999999994 -42.78794919243109 0
endloop
endfacet
facet normal 0 0 -1
outer loop
vertex 153.2831006499999 -42.520004199999995 0
vertex 171.74999999999994 -42.78794919243109 0
vertex 172.03557521937313 -42.98791111376209 0
endloop
endfacet
facet normal 0 0 -1
outer loop
vertex 153.2831006499999 -42.520004199999995 0
vertex 172.03557521937313 -42.98791111376209 0
vertex 172.28208888623791 -43.23442478062688 0
endloop
endfacet
facet normal 0 0 -1
outer loop
vertex 153.2831006499999 -42.520004199999995 0
vertex 172.28208888623791 -43.23442478062688 0
vertex 172.48205080756884 -43.51999999999998 0
endloop
endfacet
facet normal 0 0 -1
outer loop
vertex 153.2831006499999 -42.520004199999995 0
vertex 172.48205080756884 -43.51999999999998 0
vertex 172.6293852415718 -43.83595971334871 0
endloop
endfacet
facet normal 0 0 -1
outer loop
vertex 153.2831006499999 -42.520004199999995 0
vertex 172.6293852415718 -43.83595971334871 0
vertex 172.71961550602444 -44.17270364466631 0
endloop
endfacet
facet normal 0 0 -1
outer loop
vertex 153.2831006499999 -42.520004199999995 0
vertex 172.71961550602444 -44.17270364466631 0
vertex 172.75 -44.52000000000001 0
endloop
endfacet
facet normal 0 0 -1
outer loop
vertex 153.2831006499999 -42.520004199999995 0
vertex 172.75 -44.52000000000001 0
vertex 172.75 -46.69955827882997 0
endloop
endfacet
facet normal 0 0 -1
outer loop
vertex 153.2831006499999 -42.520004199999995 0
vertex 172.75 -46.69955827882997 0
vertex 55.00115079191387 -46.69955827882997 0
endloop
endfacet
facet normal 0 0 -1
outer loop
vertex 153.2831006499999 -42.520004199999995 0
vertex 55.00115079191387 -46.69955827882997 0
vertex 55.00362939999996 -46.698610899999856 0
endloop
endfacet
facet normal 0 0 -1
outer loop
vertex 153.2831006499999 -42.520004199999995 0
vertex 55.00362939999996 -46.698610899999856 0
vertex 65.93603365884492 -42.520004199999995 0
endloop
endfacet
facet normal 0 0 -1
outer loop
vertex 172.75 -46.69955827882997 0
vertex 172.75 -46.701371800002676 0
vertex 54.99636879999293 -46.701371800002676 0
endloop
endfacet
facet normal 0 0 -1
outer loop
vertex 172.75 -46.69955827882997 0
vertex 54.99636879999293 -46.701371800002676 0
vertex 55.000000739796675 -46.69999442424779 0
endloop
endfacet
facet normal 0 0 -1
outer loop
vertex 172.75 -46.69955827882997 0
vertex 55.000000739796675 -46.69999442424779 0
vertex 55.00115079191387 -46.69955827882997 0
endloop
endfacet
facet normal 0 0 -1
outer loop
vertex 172.75 -46.701371800002676 0
vertex 172.75 -98.8994417999999 0
vertex 172.7221502107993 -99.2320396339124 0
endloop
endfacet
facet normal 0 0 -1
outer loop
vertex 172.75 -46.701371800002676 0
vertex 172.7221502107993 -99.2320396339124 0
vertex 172.63937889656592 -99.55537090696922 0
endloop
endfacet
facet normal 0 0 -1
outer loop
vertex 172.75 -46.701371800002676 0
vertex 172.63937889656592 -99.55537090696922 0
vertex 172.50399111843646 -99.86043541183615 0
endloop
endfacet
facet normal 0 0 -1
outer loop
vertex 172.75 -46.701371800002676 0
vertex 172.50399111843646 -99.86043541183615 0
vertex 172.35139963383966 -100.09093879999998 0
endloop
endfacet
facet normal 0 0 -1
outer loop
vertex 172.75 -46.701371800002676 0
vertex 172.35139963383966 -100.09093879999998 0
vertex 167.52570509999998 -100.09093879999998 0
endloop
endfacet
facet normal 0 0 -1
outer loop
vertex 172.75 -46.701371800002676 0
vertex 167.52570509999998 -100.09093879999998 0
vertex 37.0000023559158 -100.09093879999998 0
endloop
endfacet
facet normal 0 0 -1
outer loop
vertex 172.75 -46.701371800002676 0
vertex 37.0000023559158 -100.09093879999998 0
vertex 37 -54.882402399999954 0
endloop
endfacet
facet normal 0 0 -1
outer loop
vertex 172.75 -46.701371800002676 0
vertex 37 -54.882402399999954 0
vertex 37.02281827105176 -54.58115440917925 0
endloop
endfacet
facet normal 0 0 -1
outer loop
vertex 172.75 -46.701371800002676 0
vertex 37.02281827105176 -54.58115440917925 0
vertex 37.09075103571497 -54.28678144513741 0
endloop
endfacet
facet normal 0 0 -1
outer loop
vertex 172.75 -46.701371800002676 0
vertex 37.09075103571497 -54.28678144513741 0
vertex 37.202248232995046 -54.00599918524132 0
endloop
endfacet
facet normal 0 0 -1
outer loop
vertex 172.75 -46.701371800002676 0
vertex 37.202248232995046 -54.00599918524132 0
vertex 37.354765767161695 -53.74521439993873 0
endloop
endfacet
facet normal 0 0 -1
outer loop
vertex 172.75 -46.701371800002676 0
vertex 37.354765767161695 -53.74521439993873 0
vertex 37.544823557845945 -53.510377565788374 0
endloop
endfacet
facet normal 0 0 -1
outer loop
vertex 172.75 -46.701371800002676 0
vertex 37.544823557845945 -53.510377565788374 0
vertex 37.76808494703715 -53.30684709001125 0
endloop
endfacet
facet normal 0 0 -1
outer loop
vertex 172.75 -46.701371800002676 0
vertex 37.76808494703715 -53.30684709001125 0
vertex 38.01945565110458 -53.13926704462928 0
endloop
endfacet
facet normal 0 0 -1
outer loop
vertex 172.75 -46.701371800002676 0
vertex 38.01945565110458 -53.13926704462928 0
vertex 38.293199999999885 -53.01146120000004 0
endloop
endfacet
facet normal 0 0 -1
outer loop
vertex 172.75 -46.701371800002676 0
vertex 38.293199999999885 -53.01146120000004 0
vertex 54.99636879999293 -46.701371800002676 0
endloop
endfacet
facet normal 0 0 -1
outer loop
vertex 172.35139963383966 -100.09093879999998 0
vertex 172.319757229808 -100.13873754419741 0
vertex 172.09180787745817 -100.38252699302569 0
endloop
endfacet
facet normal 0 0 -1
outer loop
vertex 172.35139963383966 -100.09093879999998 0
vertex 172.09180787745817 -100.38252699302569 0
vertex 171.82649112047272 -100.58501457550611 0
endloop
endfacet
facet normal 0 0 -1
outer loop
vertex 172.35139963383966 -100.09093879999998 0
vertex 171.82649112047272 -100.58501457550611 0
vertex 171.5311956459953 -100.74056130594319 0
endloop
endfacet
facet normal 0 0 -1
outer loop
vertex 172.35139963383966 -100.09093879999998 0
vertex 171.5311956459953 -100.74056130594319 0
vertex 171.2141450050042 -100.84483543333558 0
endloop
endfacet
facet normal 0 0 -1
outer loop
vertex 172.35139963383966 -100.09093879999998 0
vertex 171.2141450050042 -100.84483543333558 0
vertex 170.88416859833282 -100.8949330743653 0
endloop
endfacet
facet normal 0 0 -1
outer loop
vertex 172.35139963383966 -100.09093879999998 0
vertex 170.88416859833282 -100.8949330743653 0
vertex 170.5504557906561 -100.8894590823387 0
endloop
endfacet
facet normal 0 0 -1
outer loop
vertex 172.35139963383966 -100.09093879999998 0
vertex 170.5504557906561 -100.8894590823387 0
vertex 170.2222999999998 -100.82856589999993 0
endloop
endfacet
facet normal 0 0 -1
outer loop
vertex 172.35139963383966 -100.09093879999998 0
vertex 170.2222999999998 -100.82856589999993 0
vertex 167.52570509999998 -100.09093879999998 0
endloop
endfacet
facet normal 0 0 -1
outer loop
vertex 167.52570509999998 -100.09093879999998 0
vertex 185.55727240000002 -112.25338440000003 0
vertex 185.82820591929033 -112.47278356877685 0
endloop
endfacet
facet normal 0 0 -1
outer loop
vertex 167.52570509999998 -100.09093879999998 0
vertex 185.82820591929033 -112.47278356877685 0
vertex 186.056921883896 -112.73589321694975 0
endloop
endfacet
facet normal 0 0 -1
outer loop
vertex 167.52570509999998 -100.09093879999998 0
vertex 186.056921883896 -112.73589321694975 0
vertex 186.23647469192036 -113.03472171050008 0
endloop
endfacet
facet normal 0 0 -1
outer loop
vertex 167.52570509999998 -100.09093879999998 0
vertex 186.23647469192036 -113.03472171050008 0
vertex 186.2991767839775 -113.19806789999998 0
endloop
endfacet
facet normal 0 0 -1
outer loop
vertex 167.52570509999998 -100.09093879999998 0
vertex 186.2991767839775 -113.19806789999998 0
vertex 80.8787368999999 -113.19806789999998 0
endloop
endfacet
facet normal 0 0 -1
outer loop
vertex 167.52570509999998 -100.09093879999998 0
vertex 80.8787368999999 -113.19806789999998 0
vertex 38.96818579999977 -112.53131199999999 0
endloop
endfacet
facet normal 0 0 -1
outer loop
vertex 167.52570509999998 -100.09093879999998 0
vertex 38.96818579999977 -112.53131199999999 0
vertex 38.624887038485525 -112.49607122999427 0
endloop
endfacet
facet normal 0 0 -1
outer loop
vertex 167.52570509999998 -100.09093879999998 0
vertex 38.624887038485525 -112.49607122999427 0
vertex 38.29275967875043 -112.40234126232896 0
endloop
endfacet
facet normal 0 0 -1
outer loop
vertex 167.52570509999998 -100.09093879999998 0
vertex 38.29275967875043 -112.40234126232896 0
vertex 37.98168940560001 -112.25291176361695 0
endloop
endfacet
facet normal 0 0 -1
outer loop
vertex 167.52570509999998 -100.09093879999998 0
vertex 37.98168940560001 -112.25291176361695 0
vertex 37.70093786125193 -112.05223176892626 0
endloop
endfacet
facet normal 0 0 -1
outer loop
vertex 167.52570509999998 -100.09093879999998 0
vertex 37.70093786125193 -112.05223176892626 0
vertex 37.45886399408505 -111.80627621855572 0
endloop
endfacet
facet normal 0 0 -1
outer loop
vertex 167.52570509999998 -100.09093879999998 0
vertex 37.45886399408505 -111.80627621855572 0
vertex 37.26267518372222 -111.52236806331615 0
endloop
endfacet
facet normal 0 0 -1
outer loop
vertex 167.52570509999998 -100.09093879999998 0
vertex 37.26267518372222 -111.52236806331615 0
vertex 37.11821265230978 -111.20896023485464 0
endloop
endfacet
facet normal 0 0 -1
outer loop
vertex 167.52570509999998 -100.09093879999998 0
vertex 37.11821265230978 -111.20896023485464 0
vertex 37.029777551051126 -110.87538397252699 0
endloop
endfacet
facet normal 0 0 -1
outer loop
vertex 167.52570509999998 -100.09093879999998 0
vertex 37.029777551051126 -110.87538397252699 0
vertex 37.0000029 -110.53157100000011 0
endloop
endfacet
facet normal 0 0 -1
outer loop
vertex 167.52570509999998 -100.09093879999998 0
vertex 37.0000029 -110.53157100000011 0
vertex 37.0000023559158 -100.09093879999998 0
endloop
endfacet
facet normal 0 0 -1
outer loop
vertex 186.2991767839775 -113.19806789999998 0
vertex 186.30132403858602 -113.20366174618086 0
vertex 80.99971709405824 -113.20366174618086 0
endloop
endfacet
facet normal 0 0 -1
outer loop
vertex 186.2991767839775 -113.19806789999998 0
vertex 80.99971709405824 -113.20366174618086 0
vertex 80.8787368999999 -113.19806789999998 0
endloop
endfacet
facet normal 0 0 -1
outer loop
vertex 186.30132403858602 -113.20366174618086 0
vertex 186.30627739056166 -113.21656579999997 0
vertex 81.12013379999976 -113.21656579999997 0
endloop
endfacet
facet normal 0 0 -1
outer loop
vertex 186.30132403858602 -113.20366174618086 0
vertex 81.12013379999976 -113.21656579999997 0
vertex 80.99971709405824 -113.20366174618086 0
endloop
endfacet
facet normal 0 0 -1
outer loop
vertex 186.30627739056166 -113.21656579999997 0
vertex 186.3614087354584 -113.36018931901559 0
vertex 186.4279279660763 -113.70240689802792 0
endloop
endfacet
facet normal 0 0 -1
outer loop
vertex 186.30627739056166 -113.21656579999997 0
vertex 186.4279279660763 -113.70240689802792 0
vertex 186.4340112355427 -114.05097636493461 0
endloop
endfacet
facet normal 0 0 -1
outer loop
vertex 186.30627739056166 -113.21656579999997 0
vertex 186.4340112355427 -114.05097636493461 0
vertex 186.3794737072439 -114.39530663870437 0
endloop
endfacet
facet normal 0 0 -1
outer loop
vertex 186.30627739056166 -113.21656579999997 0
vertex 186.3794737072439 -114.39530663870437 0
vertex 186.2659724723377 -114.72493544372927 0
endloop
endfacet
facet normal 0 0 -1
outer loop
vertex 186.30627739056166 -113.21656579999997 0
vertex 186.2659724723377 -114.72493544372927 0
vertex 186.09695619999977 -115.02984720000033 0
endloop
endfacet
facet normal 0 0 -1
outer loop
vertex 186.30627739056166 -113.21656579999997 0
vertex 186.09695619999977 -115.02984720000033 0
vertex 185.89624187304076 -115.32741851660175 0
endloop
endfacet
facet normal 0 0 -1
outer loop
vertex 186.30627739056166 -113.21656579999997 0
vertex 185.89624187304076 -115.32741851660175 0
vertex 117.90341463500911 -115.32741851660175 0
endloop
endfacet
facet normal 0 0 -1
outer loop
vertex 186.30627739056166 -113.21656579999997 0
vertex 117.90341463500911 -115.32741851660175 0
vertex 96.427827540398 -115.32741851660175 0
endloop
endfacet
facet normal 0 0 -1
outer loop
vertex 186.30627739056166 -113.21656579999997 0
vertex 96.427827540398 -115.32741851660175 0
vertex 81.12013379999976 -113.21656579999997 0
endloop
endfacet
facet normal 0 0 -1
outer loop
vertex 117.90341463500911 -115.32741851660175 0
vertex 117.82529724999984 -115.32805409999999 0
vertex 96.43243672792215 -115.32805409999999 0
endloop
endfacet
facet normal 0 0 -1
outer loop
vertex 117.90341463500911 -115.32741851660175 0
vertex 96.43243672792215 -115.32805409999999 0
vertex 96.427827540398 -115.32741851660175 0
endloop
endfacet
facet normal 0 0 -1
outer loop
vertex 185.89624187304076 -115.32741851660175 0
vertex 185.89460977647218 -115.32983819999998 0
vertex 117.98149449999953 -115.32983819999998 0
endloop
endfacet
facet normal 0 0 -1
outer loop
vertex 185.89624187304076 -115.32741851660175 0
vertex 117.98149449999953 -115.32983819999998 0
vertex 117.90341463500911 -115.32741851660175 0
endloop
endfacet
facet normal 0 0 -1
outer loop
vertex 117.82529724999984 -115.32805409999999 0
vertex 100.16493189999996 -115.81544810000001 0
vertex 100.00037075356599 -115.81321517931237 0
endloop
endfacet
facet normal 0 0 -1
outer loop
vertex 117.82529724999984 -115.32805409999999 0
vertex 100.00037075356599 -115.81321517931237 0
vertex 99.83655095000012 -115.79746405000002 0
endloop
endfacet
facet normal 0 0 -1
outer loop
vertex 117.82529724999984 -115.32805409999999 0
vertex 99.83655095000012 -115.79746405000002 0
vertex 96.43243672792215 -115.32805409999999 0
endloop
endfacet
facet normal 0 0 -1
outer loop
vertex 185.89460977647218 -115.32983819999998 0
vertex 185.29315782923047 -116.22152765000003 0
vertex 135.6122369000003 -116.22152765000003 0
endloop
endfacet
facet normal 0 0 -1
outer loop
vertex 185.89460977647218 -115.32983819999998 0
vertex 135.6122369000003 -116.22152765000003 0
vertex 117.98149449999953 -115.32983819999998 0
endloop
endfacet
facet normal 0 0 -1
outer loop
vertex 185.29315782923047 -116.22152765000003 0
vertex 185.27855826633805 -116.24317239862121 0
vertex 135.82137672971925 -116.24317239862121 0
endloop
endfacet
facet normal 0 0 -1
outer loop
vertex 185.29315782923047 -116.22152765000003 0
vertex 135.82137672971925 -116.24317239862121 0
vertex 135.6122369000003 -116.22152765000003 0
endloop
endfacet
facet normal 0 0 -1
outer loop
vertex 185.27855826633805 -116.24317239862121 0
vertex 185.24922977443813 -116.28665368907424 0
vertex 136.0270885205783 -116.28665368907424 0
endloop
endfacet
facet normal 0 0 -1
outer loop
vertex 185.27855826633805 -116.24317239862121 0
vertex 136.0270885205783 -116.28665368907424 0
vertex 135.82137672971925 -116.24317239862121 0
endloop
endfacet
facet normal 0 0 -1
outer loop
vertex 185.24922977443813 -116.28665368907424 0
vertex 185.20549649175575 -116.35149096653356 0
vertex 136.22709874774074 -116.35149096653356 0
endloop
endfacet
facet normal 0 0 -1
outer loop
vertex 185.24922977443813 -116.28665368907424 0
vertex 136.22709874774074 -116.35149096653356 0
vertex 136.0270885205783 -116.28665368907424 0
endloop
endfacet
facet normal 0 0 -1
outer loop
vertex 185.20549649175575 -116.35149096653356 0
vertex 185.14784334322684 -116.4369652999999 0
vertex 136.4191937999998 -116.4369652999999 0
endloop
endfacet
facet normal 0 0 -1
outer loop
vertex 185.20549649175575 -116.35149096653356 0
vertex 136.4191937999998 -116.4369652999999 0
vertex 136.22709874774074 -116.35149096653356 0
endloop
endfacet
facet normal 0 0 -1
outer loop
vertex 185.14784334322684 -116.4369652999999 0
vertex 178.43515272627715 -126.38894140000001 0
vertex 155.95104040000007 -126.38894140000001 0
endloop
endfacet
facet normal 0 0 -1
outer loop
vertex 185.14784334322684 -116.4369652999999 0
vertex 155.95104040000007 -126.38894140000001 0
vertex 136.4191937999998 -116.4369652999999 0
endloop
endfacet
facet normal 0 0 -1
outer loop
vertex 178.43515272627715 -126.38894140000001 0
vertex 178.38532935709637 -126.46280760471629 0
vertex 156.08336688488106 -126.46280760471629 0
endloop
endfacet
facet normal 0 0 -1
outer loop
vertex 178.43515272627715 -126.38894140000001 0
vertex 156.08336688488106 -126.46280760471629 0
vertex 155.95104040000007 -126.38894140000001 0
endloop
endfacet
facet normal 0 0 -1
outer loop
vertex 178.38532935709637 -126.46280760471629 0
vertex 178.32888974222894 -126.5464828000002 0
vertex 156.2097208000003 -126.5464828000002 0
endloop
endfacet
facet normal 0 0 -1
outer loop
vertex 178.38532935709637 -126.46280760471629 0
vertex 156.2097208000003 -126.5464828000002 0
vertex 156.08336688488106 -126.46280760471629 0
endloop
endfacet
facet normal 0 0 -1
outer loop
vertex 178.32888974222894 -126.5464828000002 0
vertex 172.2623675000002 -135.54047459999973 0
vertex 172.06298258887944 -135.79038452343636 0
endloop
endfacet
facet normal 0 0 -1
outer loop
vertex 178.32888974222894 -126.5464828000002 0
vertex 172.06298258887944 -135.79038452343636 0
vertex 171.8263238526631 -136.00532894449682 0
endloop
endfacet
facet normal 0 0 -1
outer loop
vertex 178.32888974222894 -126.5464828000002 0
vertex 171.8263238526631 -136.00532894449682 0
vertex 171.55843967268865 -136.17981827853046 0
endloop
endfacet
facet normal 0 0 -1
outer loop
vertex 178.32888974222894 -126.5464828000002 0
vertex 171.55843967268865 -136.17981827853046 0
vertex 171.26617505643415 -136.30939395393963 0
endloop
endfacet
facet normal 0 0 -1
outer loop
vertex 178.32888974222894 -126.5464828000002 0
vertex 171.26617505643415 -136.30939395393963 0
vertex 170.95699798309917 -136.39074503811426 0
endloop
endfacet
facet normal 0 0 -1
outer loop
vertex 178.32888974222894 -126.5464828000002 0
vertex 170.95699798309917 -136.39074503811426 0
vertex 170.63880858093913 -136.42179283876396 0
endloop
endfacet
facet normal 0 0 -1
outer loop
vertex 178.32888974222894 -126.5464828000002 0
vertex 170.63880858093913 -136.42179283876396 0
vertex 170.31973726227432 -136.40174401890388 0
endloop
endfacet
facet normal 0 0 -1
outer loop
vertex 178.32888974222894 -126.5464828000002 0
vertex 170.31973726227432 -136.40174401890388 0
vertex 170.00793697425829 -136.33111086829263 0
endloop
endfacet
facet normal 0 0 -1
outer loop
vertex 178.32888974222894 -126.5464828000002 0
vertex 170.00793697425829 -136.33111086829263 0
vertex 169.71137487382967 -136.2116982133451 0
endloop
endfacet
facet normal 0 0 -1
outer loop
vertex 178.32888974222894 -126.5464828000002 0
vertex 169.71137487382967 -136.2116982133451 0
vertex 169.43762875000016 -136.04655730000013 0
endloop
endfacet
facet normal 0 0 -1
outer loop
vertex 178.32888974222894 -126.5464828000002 0
vertex 169.43762875000016 -136.04655730000013 0
vertex 156.2097208000003 -126.5464828000002 0
endloop
endfacet
facet normal 0 0 1
outer loop
vertex 170.956997983099 -136.39074503811432 1
vertex 171.26617505643407 -136.30939395393966 1
vertex 171.55843967268876 -136.1798182785304 1
endloop
endfacet
facet normal 0 0 1
outer loop
vertex 170.956997983099 -136.39074503811432 1
vertex 171.55843967268876 -136.1798182785304 1
vertex 171.8263238526632 -136.0053289444968 1
endloop
endfacet
facet normal 0 0 1
outer loop
vertex 170.956997983099 -136.39074503811432 1
vertex 171.8263238526632 -136.0053289444968 1
vertex 172.06298258887938 -135.79038452343644 1
endloop
endfacet
facet normal 0 0 1
outer loop
vertex 170.956997983099 -136.39074503811432 1
vertex 172.06298258887938 -135.79038452343644 1
vertex 172.26236750000032 -135.54047459999964 1
endloop
endfacet
facet normal 0 0 1
outer loop
vertex 170.956997983099 -136.39074503811432 1
vertex 172.26236750000032 -135.54047459999964 1
vertex 178.32888974222902 -126.54648280000006 1
endloop
endfacet
facet normal 0 0 1
outer loop
vertex 170.956997983099 -136.39074503811432 1
vertex 178.32888974222902 -126.54648280000006 1
vertex 156.2097208000001 -126.54648280000006 1
endloop
endfacet
facet normal 0 0 1
outer loop
vertex 170.956997983099 -136.39074503811432 1
vertex 156.2097208000001 -126.54648280000006 1
vertex 169.43762875 -136.04655730000002 1
endloop
endfacet
facet normal 0 0 1
outer loop
vertex 170.956997983099 -136.39074503811432 1
vertex 169.43762875 -136.04655730000002 1
vertex 169.71137487382967 -136.2116982133451 1
endloop
endfacet
facet normal 0 0 1
outer loop
vertex 170.956997983099 -136.39074503811432 1
vertex 169.71137487382967 -136.2116982133451 1
vertex 170.00793697425823 -136.3311108682926 1
endloop
endfacet
facet normal 0 0 1
outer loop
vertex 170.956997983099 -136.39074503811432 1
vertex 170.00793697425823 -136.3311108682926 1
vertex 170.3197372622744 -136.40174401890388 1
endloop
endfacet
facet normal 0 0 1
outer loop
vertex 170.956997983099 -136.39074503811432 1
vertex 170.3197372622744 -136.40174401890388 1
vertex 170.6388085809391 -136.42179283876396 1
endloop
endfacet
facet normal 0 0 1
outer loop
vertex 178.32888974222902 -126.54648280000006 1
vertex 178.38532935709642 -126.46280760471618 1
vertex 156.08336688488086 -126.46280760471618 1
endloop
endfacet
facet normal 0 0 1
outer loop
vertex 178.32888974222902 -126.54648280000006 1
vertex 156.08336688488086 -126.46280760471618 1
vertex 156.2097208000001 -126.54648280000006 1
endloop
endfacet
facet normal 0 0 1
outer loop
vertex 178.38532935709642 -126.46280760471618 1
vertex 178.43515272627718 -126.38894139999992 1
vertex 155.9510403999999 -126.38894139999992 1
endloop
endfacet
facet normal 0 0 1
outer loop
vertex 178.38532935709642 -126.46280760471618 1
vertex 155.9510403999999 -126.38894139999992 1
vertex 156.08336688488086 -126.46280760471618 1
endloop
endfacet
facet normal 0 0 1
outer loop
vertex 178.43515272627718 -126.38894139999992 1
vertex 185.14784334322675 -116.4369653 1
vertex 136.4191938 -116.4369653 1
endloop
endfacet
facet normal 0 0 1
outer loop
vertex 178.43515272627718 -126.38894139999992 1
vertex 136.4191938 -116.4369653 1
vertex 155.9510403999999 -126.38894139999992 1
endloop
endfacet
facet normal 0 0 1
outer loop
vertex 185.14784334322675 -116.4369653 1
vertex 185.20549649175578 -116.35149096653352 1
vertex 136.22709874774063 -116.35149096653352 1
endloop
endfacet
facet normal 0 0 1
outer loop
vertex 185.14784334322675 -116.4369653 1
vertex 136.22709874774063 -116.35149096653352 1
vertex 136.4191938 -116.4369653 1
endloop
endfacet
facet normal 0 0 1
outer loop
vertex 185.20549649175578 -116.35149096653352 1
vertex 185.24922977443816 -116.28665368907421 1
vertex 136.02708852057825 -116.28665368907421 1
endloop
endfacet
facet normal 0 0 1
outer loop
vertex 185.20549649175578 -116.35149096653352 1
vertex 136.02708852057825 -116.28665368907421 1
vertex 136.22709874774063 -116.35149096653352 1
endloop
endfacet
facet normal 0 0 1
outer loop
vertex 185.24922977443816 -116.28665368907421 1
vertex 185.27855826633802 -116.24317239862123 1
vertex 135.82137672971933 -116.24317239862123 1
endloop
endfacet
facet normal 0 0 1
outer loop
vertex 185.24922977443816 -116.28665368907421 1
vertex 135.82137672971933 -116.24317239862123 1
vertex 136.02708852057825 -116.28665368907421 1
endloop
endfacet
facet normal 0 0 1
outer loop
vertex 185.27855826633802 -116.24317239862123 1
vertex 185.29315782923044 -116.22152765000004 1
vertex 135.61223690000037 -116.22152765000004 1
endloop
endfacet
facet normal 0 0 1
outer loop
vertex 185.27855826633802 -116.24317239862123 1
vertex 135.61223690000037 -116.22152765000004 1
vertex 135.82137672971933 -116.24317239862123 1
endloop
endfacet
facet normal 0 0 1
outer loop
vertex 185.29315782923044 -116.22152765000004 1
vertex 185.89460977647218 -115.3298382 1
vertex 117.98149449999958 -115.3298382 1
endloop
endfacet
facet normal 0 0 1
outer loop
vertex 185.29315782923044 -116.22152765000004 1
vertex 117.98149449999958 -115.3298382 1
vertex 135.61223690000037 -116.22152765000004 1
endloop
endfacet
facet normal 0 0 1
outer loop
vertex 117.82529725000092 -115.32805409999997 1
vertex 96.43243672792202 -115.32805409999997 1
vertex 99.8365509500001 -115.79746405000002 1
endloop
endfacet
facet normal 0 0 1
outer loop
vertex 117.82529725000092 -115.32805409999997 1
vertex 99.8365509500001 -115.79746405000002 1
vertex 100.00037075356576 -115.81321517931234 1
endloop
endfacet
facet normal 0 0 1
outer loop
vertex 117.82529725000092 -115.32805409999997 1
vertex 100.00037075356576 -115.81321517931234 1
vertex 100.16493190000054 -115.8154481 1
endloop
endfacet
facet normal 0 0 1
outer loop
vertex 117.82529725000092 -115.32805409999997 1
vertex 117.90341463500829 -115.32741851660175 1
vertex 96.42782754039798 -115.32741851660175 1
endloop
endfacet
facet normal 0 0 1
outer loop
vertex 117.82529725000092 -115.32805409999997 1
vertex 96.42782754039798 -115.32741851660175 1
vertex 96.43243672792202 -115.32805409999997 1
endloop
endfacet
facet normal 0 0 1
outer loop
vertex 185.89460977647218 -115.3298382 1
vertex 185.89624187304074 -115.32741851660175 1
vertex 117.90341463500829 -115.32741851660175 1
endloop
endfacet
facet normal 0 0 1
outer loop
vertex 185.89460977647218 -115.3298382 1
vertex 117.90341463500829 -115.32741851660175 1
vertex 117.98149449999958 -115.3298382 1
endloop
endfacet
facet normal 0 0 1
outer loop
vertex 117.90341463500829 -115.32741851660175 1
vertex 185.89624187304074 -115.32741851660175 1
vertex 186.09695619999982 -115.02984720000023 1
endloop
endfacet
facet normal 0 0 1
outer loop
vertex 117.90341463500829 -115.32741851660175 1
vertex 186.09695619999982 -115.02984720000023 1
vertex 186.2659724723377 -114.72493544372925 1
endloop
endfacet
facet normal 0 0 1
outer loop
vertex 117.90341463500829 -115.32741851660175 1
vertex 186.2659724723377 -114.72493544372925 1
vertex 186.37947370724387 -114.39530663870441 1
endloop
endfacet
facet normal 0 0 1
outer loop
vertex 117.90341463500829 -115.32741851660175 1
vertex 186.37947370724387 -114.39530663870441 1
vertex 186.43401123554267 -114.05097636493463 1
endloop
endfacet
facet normal 0 0 1
outer loop
vertex 117.90341463500829 -115.32741851660175 1
vertex 186.43401123554267 -114.05097636493463 1
vertex 186.42792796607628 -113.70240689802792 1
endloop
endfacet
facet normal 0 0 1
outer loop
vertex 117.90341463500829 -115.32741851660175 1
vertex 186.42792796607628 -113.70240689802792 1
vertex 186.36140873545835 -113.36018931901543 1
endloop
endfacet
facet normal 0 0 1
outer loop
vertex 117.90341463500829 -115.32741851660175 1
vertex 186.36140873545835 -113.36018931901543 1
vertex 186.30627739056172 -113.21656580000003 1
endloop
endfacet
facet normal 0 0 1
outer loop
vertex 117.90341463500829 -115.32741851660175 1
vertex 186.30627739056172 -113.21656580000003 1
vertex 81.12013380000022 -113.21656580000003 1
endloop
endfacet
facet normal 0 0 1
outer loop
vertex 117.90341463500829 -115.32741851660175 1
vertex 81.12013380000022 -113.21656580000003 1
vertex 96.42782754039798 -115.32741851660175 1
endloop
endfacet
facet normal 0 0 1
outer loop
vertex 186.30627739056172 -113.21656580000003 1
vertex 186.30132403858602 -113.20366174618087 1
vertex 80.99971709405837 -113.20366174618087 1
endloop
endfacet
facet normal 0 0 1
outer loop
vertex 186.30627739056172 -113.21656580000003 1
vertex 80.99971709405837 -113.20366174618087 1
vertex 81.12013380000022 -113.21656580000003 1
endloop
endfacet
facet normal 0 0 1
outer loop
vertex 186.30132403858602 -113.20366174618087 1
vertex 186.29917678397752 -113.19806789999998 1
vertex 80.87873689999941 -113.19806789999998 1
endloop
endfacet
facet normal 0 0 1
outer loop
vertex 186.30132403858602 -113.20366174618087 1
vertex 80.87873689999941 -113.19806789999998 1
vertex 80.99971709405837 -113.20366174618087 1
endloop
endfacet
facet normal 0 0 1
outer loop
vertex 186.29917678397752 -113.19806789999998 1
vertex 186.2364746919204 -113.03472171050011 1
vertex 186.056921883896 -112.73589321694975 1
endloop
endfacet
facet normal 0 0 1
outer loop
vertex 186.29917678397752 -113.19806789999998 1
vertex 186.056921883896 -112.73589321694975 1
vertex 185.82820591929038 -112.4727835687769 1
endloop
endfacet
facet normal 0 0 1
outer loop
vertex 186.29917678397752 -113.19806789999998 1
vertex 185.82820591929038 -112.4727835687769 1
vertex 185.55727240000004 -112.25338440000003 1
endloop
endfacet
facet normal 0 0 1
outer loop
vertex 186.29917678397752 -113.19806789999998 1
vertex 185.55727240000004 -112.25338440000003 1
vertex 167.52570510000004 -100.09093880000002 1
endloop
endfacet
facet normal 0 0 1
outer loop
vertex 186.29917678397752 -113.19806789999998 1
vertex 167.52570510000004 -100.09093880000002 1
vertex 37.0000023559158 -100.09093880000002 1
endloop
endfacet
facet normal 0 0 1
outer loop
vertex 186.29917678397752 -113.19806789999998 1
vertex 37.0000023559158 -100.09093880000002 1
vertex 37.0000029 -110.53157100000007 1
endloop
endfacet
facet normal 0 0 1
outer loop
vertex 186.29917678397752 -113.19806789999998 1
vertex 37.0000029 -110.53157100000007 1
vertex 37.029777551051126 -110.87538397252702 1
endloop
endfacet
facet normal 0 0 1
outer loop
vertex 186.29917678397752 -113.19806789999998 1
vertex 37.029777551051126 -110.87538397252702 1
vertex 37.118212652309765 -111.20896023485463 1
endloop
endfacet
facet normal 0 0 1
outer loop
vertex 186.29917678397752 -113.19806789999998 1
vertex 37.118212652309765 -111.20896023485463 1
vertex 37.26267518372222 -111.52236806331616 1
endloop
endfacet
facet normal 0 0 1
outer loop
vertex 186.29917678397752 -113.19806789999998 1
vertex 37.26267518372222 -111.52236806331616 1
vertex 37.45886399408508 -111.80627621855577 1
endloop
endfacet
facet normal 0 0 1
outer loop
vertex 186.29917678397752 -113.19806789999998 1
vertex 37.45886399408508 -111.80627621855577 1
vertex 37.70093786125186 -112.0522317689262 1
endloop
endfacet
facet normal 0 0 1
outer loop
vertex 186.29917678397752 -113.19806789999998 1
vertex 37.70093786125186 -112.0522317689262 1
vertex 37.98168940560012 -112.25291176361702 1
endloop
endfacet
facet normal 0 0 1
outer loop
vertex 186.29917678397752 -113.19806789999998 1
vertex 37.98168940560012 -112.25291176361702 1
vertex 38.292759678750414 -112.40234126232897 1
endloop
endfacet
facet normal 0 0 1
outer loop
vertex 186.29917678397752 -113.19806789999998 1
vertex 38.292759678750414 -112.40234126232897 1
vertex 38.624887038485454 -112.49607122999427 1
endloop
endfacet
facet normal 0 0 1
outer loop
vertex 186.29917678397752 -113.19806789999998 1
vertex 38.624887038485454 -112.49607122999427 1
vertex 38.96818579999973 -112.53131199999999 1
endloop
endfacet
facet normal 0 0 1
outer loop
vertex 186.29917678397752 -113.19806789999998 1
vertex 38.96818579999973 -112.53131199999999 1
vertex 80.87873689999941 -113.19806789999998 1
endloop
endfacet
facet normal 0 0 1
outer loop
vertex 171.2141450050041 -100.84483543333559 1
vertex 171.5311956459951 -100.74056130594326 1
vertex 171.82649112047287 -100.585014575506 1
endloop
endfacet
facet normal 0 0 1
outer loop
vertex 171.2141450050041 -100.84483543333559 1
vertex 171.82649112047287 -100.585014575506 1
vertex 172.09180787745825 -100.3825269930256 1
endloop
endfacet
facet normal 0 0 1
outer loop
vertex 171.2141450050041 -100.84483543333559 1
vertex 172.09180787745825 -100.3825269930256 1
vertex 172.31975722980795 -100.13873754419745 1
endloop
endfacet
facet normal 0 0 1
outer loop
vertex 171.2141450050041 -100.84483543333559 1
vertex 172.31975722980795 -100.13873754419745 1
vertex 172.35139963383963 -100.09093880000002 1
endloop
endfacet
facet normal 0 0 1
outer loop
vertex 171.2141450050041 -100.84483543333559 1
vertex 172.35139963383963 -100.09093880000002 1
vertex 167.52570510000004 -100.09093880000002 1
endloop
endfacet
facet normal 0 0 1
outer loop
vertex 171.2141450050041 -100.84483543333559 1
vertex 167.52570510000004 -100.09093880000002 1
vertex 170.22229999999982 -100.82856589999994 1
endloop
endfacet
facet normal 0 0 1
outer loop
vertex 171.2141450050041 -100.84483543333559 1
vertex 170.22229999999982 -100.82856589999994 1
vertex 170.5504557906561 -100.8894590823387 1
endloop
endfacet
facet normal 0 0 1
outer loop
vertex 171.2141450050041 -100.84483543333559 1
vertex 170.5504557906561 -100.8894590823387 1
vertex 170.88416859833288 -100.8949330743653 1
endloop
endfacet
facet normal 0 0 1
outer loop
vertex 167.52570510000004 -100.09093880000002 1
vertex 172.35139963383963 -100.09093880000002 1
vertex 172.50399111843655 -99.860435411836 1
endloop
endfacet
facet normal 0 0 1
outer loop
vertex 167.52570510000004 -100.09093880000002 1
vertex 172.50399111843655 -99.860435411836 1
vertex 172.6393788965659 -99.5553709069693 1
endloop
endfacet
facet normal 0 0 1
outer loop
vertex 167.52570510000004 -100.09093880000002 1
vertex 172.6393788965659 -99.5553709069693 1
vertex 172.72215021079927 -99.23203963391246 1
endloop
endfacet
facet normal 0 0 1
outer loop
vertex 167.52570510000004 -100.09093880000002 1
vertex 172.72215021079927 -99.23203963391246 1
vertex 172.75 -98.89944179999976 1
endloop
endfacet
facet normal 0 0 1
outer loop
vertex 167.52570510000004 -100.09093880000002 1
vertex 172.75 -98.89944179999976 1
vertex 172.75 -46.70137180000231 1
endloop
endfacet
facet normal 0 0 1
outer loop
vertex 167.52570510000004 -100.09093880000002 1
vertex 172.75 -46.70137180000231 1
vertex 54.996368799993874 -46.70137180000231 1
endloop
endfacet
facet normal 0 0 1
outer loop
vertex 167.52570510000004 -100.09093880000002 1
vertex 54.996368799993874 -46.70137180000231 1
vertex 38.29319999999986 -53.01146120000005 1
endloop
endfacet
facet normal 0 0 1
outer loop
vertex 167.52570510000004 -100.09093880000002 1
vertex 38.29319999999986 -53.01146120000005 1
vertex 38.01945565110458 -53.13926704462927 1
endloop
endfacet
facet normal 0 0 1
outer loop
vertex 167.52570510000004 -100.09093880000002 1
vertex 38.01945565110458 -53.13926704462927 1
vertex 37.76808494703718 -53.306847090011246 1
endloop
endfacet
facet normal 0 0 1
outer loop
vertex 167.52570510000004 -100.09093880000002 1
vertex 37.76808494703718 -53.306847090011246 1
vertex 37.5448235578459 -53.51037756578843 1
endloop
endfacet
facet normal 0 0 1
outer loop
vertex 167.52570510000004 -100.09093880000002 1
vertex 37.5448235578459 -53.51037756578843 1
vertex 37.35476576716175 -53.745214399938675 1
endloop
endfacet
facet normal 0 0 1
outer loop
vertex 167.52570510000004 -100.09093880000002 1
vertex 37.35476576716175 -53.745214399938675 1
vertex 37.202248232995004 -54.00599918524139 1
endloop
endfacet
facet normal 0 0 1
outer loop
vertex 167.52570510000004 -100.09093880000002 1
vertex 37.202248232995004 -54.00599918524139 1
vertex 37.09075103571499 -54.28678144513736 1
endloop
endfacet
facet normal 0 0 1
outer loop
vertex 167.52570510000004 -100.09093880000002 1
vertex 37.09075103571499 -54.28678144513736 1
vertex 37.02281827105176 -54.581154409179256 1
endloop
endfacet
facet normal 0 0 1
outer loop
vertex 167.52570510000004 -100.09093880000002 1
vertex 37.02281827105176 -54.581154409179256 1
vertex 37 -54.8824024 1
endloop
endfacet
facet normal 0 0 1
outer loop
vertex 167.52570510000004 -100.09093880000002 1
vertex 37 -54.8824024 1
vertex 37.0000023559158 -100.09093880000002 1
endloop
endfacet
facet normal 0 0 1
outer loop
vertex 172.75 -46.70137180000231 1
vertex 172.75 -46.699558278829855 1
vertex 55.001150791914164 -46.699558278829855 1
endloop
endfacet
facet normal 0 0 1
outer loop
vertex 172.75 -46.70137180000231 1
vertex 55.001150791914164 -46.699558278829855 1
vertex 55.000000739796675 -46.69999442424779 1
endloop
endfacet
facet normal 0 0 1
outer loop
vertex 172.75 -46.70137180000231 1
vertex 55.000000739796675 -46.69999442424779 1
vertex 54.996368799993874 -46.70137180000231 1
endloop
endfacet
facet normal 0 0 1
outer loop
vertex 172.75 -46.699558278829855 1
vertex 172.75 -44.51999999999996 1
vertex 172.71961550602444 -44.17270364466625 1
endloop
endfacet
facet normal 0 0 1
outer loop
vertex 172.75 -46.699558278829855 1
vertex 172.71961550602444 -44.17270364466625 1
vertex 172.62938524157184 -43.83595971334882 1
endloop
endfacet
facet normal 0 0 1
outer loop
vertex 172.75 -46.699558278829855 1
vertex 172.62938524157184 -43.83595971334882 1
vertex 172.48205080756878 -43.51999999999991 1
endloop
endfacet
facet normal 0 0 1
outer loop
vertex 172.75 -46.699558278829855 1
vertex 172.48205080756878 -43.51999999999991 1
vertex 172.2820888862379 -43.23442478062687 1
endloop
endfacet
facet normal 0 0 1
outer loop
vertex 172.75 -46.699558278829855 1
vertex 172.2820888862379 -43.23442478062687 1
vertex 172.03557521937307 -42.98791111376203 1
endloop
endfacet
facet normal 0 0 1
outer loop
vertex 172.75 -46.699558278829855 1
vertex 172.03557521937307 -42.98791111376203 1
vertex 171.75 -42.78794919243112 1
endloop
endfacet
facet normal 0 0 1
outer loop
vertex 172.75 -46.699558278829855 1
vertex 171.75 -42.78794919243112 1
vertex 171.43404028665137 -42.6406147584282 1
endloop
endfacet
facet normal 0 0 1
outer loop
vertex 172.75 -46.699558278829855 1
vertex 171.43404028665137 -42.6406147584282 1
vertex 171.09729635533384 -42.550384493975585 1
endloop
endfacet
facet normal 0 0 1
outer loop
vertex 172.75 -46.699558278829855 1
vertex 171.09729635533384 -42.550384493975585 1
vertex 170.75004800621957 -42.520004199999995 1
endloop
endfacet
facet normal 0 0 1
outer loop
vertex 172.75 -46.699558278829855 1
vertex 170.75004800621957 -42.520004199999995 1
vertex 153.2831006645619 -42.520004199999995 1
endloop
endfacet
facet normal 0 0 1
outer loop
vertex 172.75 -46.699558278829855 1
vertex 153.2831006645619 -42.520004199999995 1
vertex 65.93603365884489 -42.520004199999995 1
endloop
endfacet
facet normal 0 0 1
outer loop
vertex 172.75 -46.699558278829855 1
vertex 65.93603365884489 -42.520004199999995 1
vertex 55.00362939999996 -46.698610899999856 1.0000000000000004
endloop
endfacet
facet normal 0 0 1
outer loop
vertex 172.75 -46.699558278829855 1
vertex 55.00362939999996 -46.698610899999856 1.0000000000000004
vertex 55.001150791914164 -46.699558278829855 1
endloop
endfacet
facet normal 0 0 1
outer loop
vertex 170.75004800621957 -42.520004199999995 1
vertex 170.74999999999991 -42.519999999999996 1
vertex 153.2831006645619 -42.520004199999995 1
endloop
endfacet
facet normal 0 0 1
outer loop
vertex 153.2831006645619 -42.520004199999995 1
vertex 153.09588650148885 -42.511219979338115 1
vertex 65.95901563783195 -42.511219979338115 1
endloop
endfacet
facet normal 0 0 1
outer loop
vertex 153.2831006645619 -42.520004199999995 1
vertex 65.95901563783195 -42.511219979338115 1
vertex 65.93603365884489 -42.520004199999995 1
endloop
endfacet
facet normal 0 0 1
outer loop
vertex 153.09588650148885 -42.511219979338115 1
vertex 152.91031663626006 -42.48494974800268 1
vertex 66.02774591314892 -42.48494974800268 1
endloop
endfacet
facet normal 0 0 1
outer loop
vertex 153.09588650148885 -42.511219979338115 1
vertex 66.02774591314892 -42.48494974800268 1
vertex 65.95901563783195 -42.511219979338115 1
endloop
endfacet
facet normal 0 0 1
outer loop
vertex 152.91031663626006 -42.48494974800268 1
vertex 152.72802129999997 -42.441428399999985 1
vertex 66.14160993635439 -42.441428399999985 1
endloop
endfacet
facet normal 0 0 1
outer loop
vertex 152.91031663626006 -42.48494974800268 1
vertex 66.14160993635439 -42.441428399999985 1
vertex 66.02774591314892 -42.48494974800268 1
endloop
endfacet
facet normal 0 0 1
outer loop
vertex 152.72802129999997 -42.441428399999985 1
vertex 135.16427299999998 -37.36745864999999 1
vertex 134.99857836711308 -37.32715805011319 1
endloop
endfacet
facet normal 0 0 1
outer loop
vertex 152.72802129999997 -42.441428399999985 1
vertex 134.99857836711308 -37.32715805011319 1
vertex 134.83005599999998 -37.3011173 1
endloop
endfacet
facet normal 0 0 1
outer loop
vertex 152.72802129999997 -42.441428399999985 1
vertex 134.83005599999998 -37.3011173 1
vertex 117.11008970000017 -35.332235000000026 1
endloop
endfacet
facet normal 0 0 1
outer loop
vertex 152.72802129999997 -42.441428399999985 1
vertex 117.11008970000017 -35.332235000000026 1
vertex 116.99982904673223 -35.32305928763779 1
endloop
endfacet
facet normal 0 0 1
outer loop
vertex 152.72802129999997 -42.441428399999985 1
vertex 116.99982904673223 -35.32305928763779 1
vertex 116.88922940000043 -35.32000000000001 1
endloop
endfacet
facet normal 0 0 1
outer loop
vertex 152.72802129999997 -42.441428399999985 1
vertex 116.88922940000043 -35.32000000000001 1
vertex 91.24620504999972 -35.319997500000014 1
endloop
endfacet
facet normal 0 0 1
outer loop
vertex 152.72802129999997 -42.441428399999985 1
vertex 91.24620504999972 -35.319997500000014 1
vertex 91.08307102757348 -35.32666433811548 1
endloop
endfacet
facet normal 0 0 1
outer loop
vertex 152.72802129999997 -42.441428399999985 1
vertex 91.08307102757348 -35.32666433811548 1
vertex 90.9210243856889 -35.346615324495204 1
endloop
endfacet
facet normal 0 0 1
outer loop
vertex 152.72802129999997 -42.441428399999985 1
vertex 90.9210243856889 -35.346615324495204 1
vertex 90.76114010000012 -35.379714999999976 1
endloop
endfacet
facet normal 0 0 1
outer loop
vertex 152.72802129999997 -42.441428399999985 1
vertex 90.76114010000012 -35.379714999999976 1
vertex 73.11665609999974 -39.79083210000006 1
endloop
endfacet
facet normal 0 0 1
outer loop
vertex 152.72802129999997 -42.441428399999985 1
vertex 73.11665609999974 -39.79083210000006 1
vertex 73.00108334017077 -39.823443398949934 1
endloop
endfacet
facet normal 0 0 1
outer loop
vertex 152.72802129999997 -42.441428399999985 1
vertex 73.00108334017077 -39.823443398949934 1
vertex 72.88767219999987 -39.86293420000004 1
endloop
endfacet
facet normal 0 0 1
outer loop
vertex 152.72802129999997 -42.441428399999985 1
vertex 72.88767219999987 -39.86293420000004 1
vertex 66.14160993635439 -42.441428399999985 1
endloop
endfacet
facet normal -0.9962710688276375 -0.08627837166426389 0
outer loop
vertex 37.029777551051126 -110.87538397252702 1
vertex 37.0000029 -110.53157100000007 1
vertex 37.0000029 -110.53157100000011 0
endloop
endfacet
facet normal -0.9962710688276375 -0.08627837166426389 0
outer loop
vertex 37.029777551051126 -110.87538397252702 1
vertex 37.0000029 -110.53157100000011 0
vertex 37.029777551051126 -110.87538397252699 0
endloop
endfacet
facet normal -0.9666080280857794 -0.2562594779517848 0
outer loop
vertex 37.118212652309765 -111.20896023485463 1
vertex 37.029777551051126 -110.87538397252702 1
vertex 37.029777551051126 -110.87538397252699 0
endloop
endfacet
facet normal -0.9666080280857794 -0.2562594779517848 0
outer loop
vertex 37.118212652309765 -111.20896023485463 1
vertex 37.029777551051126 -110.87538397252699 0
vertex 37.11821265230978 -111.20896023485464 0
endloop
endfacet
facet normal -0.9081657098200373 -0.41861084972449997 0
outer loop
vertex 37.26267518372222 -111.52236806331616 1
vertex 37.118212652309765 -111.20896023485463 1
vertex 37.11821265230978 -111.20896023485464 0
endloop
endfacet
facet normal -0.9081657098200373 -0.41861084972449997 0
outer loop
vertex 37.26267518372222 -111.52236806331616 1
vertex 37.11821265230978 -111.20896023485464 0
vertex 37.26267518372222 -111.52236806331615 0
endloop
endfacet
facet normal -0.8226841447849662 -0.5684987228828476 0
outer loop
vertex 37.45886399408508 -111.80627621855577 1
vertex 37.26267518372222 -111.52236806331616 1
vertex 37.26267518372222 -111.52236806331615 0
endloop
endfacet
facet normal -0.8226841447849662 -0.5684987228828476 0
outer loop
vertex 37.45886399408508 -111.80627621855577 1
vertex 37.26267518372222 -111.52236806331615 0
vertex 37.45886399408505 -111.80627621855572 0
endloop
endfacet
facet normal -0.7127084160047582 -0.701460414960095 0
outer loop
vertex 37.70093786125186 -112.0522317689262 1
vertex 37.45886399408508 -111.80627621855577 1
vertex 37.45886399408505 -111.80627621855572 0
endloop
endfacet
facet normal -0.7127084160047582 -0.701460414960095 0
outer loop
vertex 37.70093786125186 -112.0522317689262 1
vertex 37.45886399408505 -111.80627621855572 0
vertex 37.70093786125193 -112.05223176892626 0
endloop
endfacet
facet normal -0.5815128828138547 -0.8135371946761377 0
outer loop
vertex 37.98168940560012 -112.25291176361702 1
vertex 37.70093786125186 -112.0522317689262 1
vertex 37.70093786125193 -112.05223176892626 0
endloop
endfacet
facet normal -0.5815128828138547 -0.8135371946761377 0
outer loop
vertex 37.98168940560012 -112.25291176361702 1
vertex 37.70093786125193 -112.05223176892626 0
vertex 37.98168940560001 -112.25291176361695 0
endloop
endfacet
facet normal -0.43300369180926235 -0.901392147114423 0
outer loop
vertex 38.292759678750414 -112.40234126232897 1
vertex 37.98168940560012 -112.25291176361702 1
vertex 37.98168940560001 -112.25291176361695 0
endloop
endfacet
facet normal -0.43300369180926235 -0.901392147114423 0
outer loop
vertex 38.292759678750414 -112.40234126232897 1
vertex 37.98168940560001 -112.25291176361695 0
vertex 38.29275967875043 -112.40234126232896 0
endloop
endfacet
facet normal -0.2716024773025367 -0.9624095252662066 0
outer loop
vertex 38.624887038485454 -112.49607122999427 1
vertex 38.292759678750414 -112.40234126232897 1
vertex 38.29275967875043 -112.40234126232896 0
endloop
endfacet
facet normal -0.2716024773025367 -0.9624095252662066 0
outer loop
vertex 38.624887038485454 -112.49607122999427 1
vertex 38.29275967875043 -112.40234126232896 0
vertex 38.624887038485525 -112.49607122999427 0
endloop
endfacet
facet normal -0.10211672776944163 -0.9947724231751007 0
outer loop
vertex 38.96818579999973 -112.53131199999999 1
vertex 38.624887038485454 -112.49607122999427 1
vertex 38.624887038485525 -112.49607122999427 0
endloop
endfacet
facet normal -0.10211672776944163 -0.9947724231751007 0
outer loop
vertex 38.96818579999973 -112.53131199999999 1
vertex 38.624887038485525 -112.49607122999427 0
vertex 38.96818579999977 -112.53131199999999 0
endloop
endfacet
facet normal -0.01590700960873903 -0.9998734755184315 0
outer loop
vertex 80.87873689999941 -113.19806789999998 1
vertex 38.96818579999973 -112.53131199999999 1
vertex 38.96818579999977 -112.53131199999999 0
endloop
endfacet
facet normal -0.01590700960873903 -0.9998734755184315 0
outer loop
vertex 80.87873689999941 -113.19806789999998 1
vertex 38.96818579999977 -112.53131199999999 0
vertex 80.8787368999999 -113.19806789999998 0
endloop
endfacet
facet normal -0.04618835490551021 -0.9989327484225967 0
outer loop
vertex 80.99971709405837 -113.20366174618087 1
vertex 80.87873689999941 -113.19806789999998 1
vertex 80.8787368999999 -113.19806789999998 0
endloop
endfacet
facet normal -0.04618835490551021 -0.9989327484225967 0
outer loop
vertex 80.99971709405837 -113.20366174618087 1
vertex 80.8787368999999 -113.19806789999998 0
vertex 80.99971709405824 -113.20366174618086 0
endloop
endfacet
facet normal -0.10655160495056747 -0.9943071736050476 0
outer loop
vertex 81.12013380000022 -113.21656580000003 1
vertex 80.99971709405837 -113.20366174618087 1
vertex 80.99971709405824 -113.20366174618086 0
endloop
endfacet
facet normal -0.10655160495056747 -0.9943071736050476 0
outer loop
vertex 81.12013380000022 -113.21656580000003 1
vertex 80.99971709405824 -113.20366174618086 0
vertex 81.12013379999976 -113.21656579999997 0
endloop
endfacet
facet normal 0 0 -1
outer loop
vertex 99.8365509500001 -115.79746405000002 1
vertex 96.43243672792202 -115.32805409999997 1
vertex 96.42782754039798 -115.32741851660175 1
endloop
endfacet
facet normal 0 0 -1
outer loop
vertex 99.8365509500001 -115.79746405000002 1
vertex 96.42782754039798 -115.32741851660175 1
vertex 81.12013380000022 -113.21656580000003 1
endloop
endfacet
facet normal 0 0 -1
outer loop
vertex 99.8365509500001 -115.79746405000002 1
vertex 81.12013380000022 -113.21656580000003 1
vertex 81.12013379999976 -113.21656579999997 0
endloop
endfacet
facet normal 0 0 -1
outer loop
vertex 99.8365509500001 -115.79746405000002 1
vertex 81.12013379999976 -113.21656579999997 0
vertex 96.427827540398 -115.32741851660175 0
endloop
endfacet
facet normal 0 0 -1
outer loop
vertex 99.8365509500001 -115.79746405000002 1
vertex 96.427827540398 -115.32741851660175 0
vertex 96.43243672792215 -115.32805409999999 0
endloop
endfacet
facet normal 0 0 -1
outer loop
vertex 99.8365509500001 -115.79746405000002 1
vertex 96.43243672792215 -115.32805409999999 0
vertex 99.83655095000012 -115.79746405000002 0
endloop
endfacet
facet normal -0.09570774143412561 -0.9954094776671452 0
outer loop
vertex 100.00037075356576 -115.81321517931234 1
vertex 99.8365509500001 -115.79746405000002 1
vertex 99.83655095000012 -115.79746405000002 0
endloop
endfacet
facet normal -0.09570774143412561 -0.9954094776671452 0
outer loop
vertex 100.00037075356576 -115.81321517931234 1
vertex 99.83655095000012 -115.79746405000002 0
vertex 100.00037075356599 -115.81321517931237 0
endloop
endfacet
facet normal -0.013567693261620658 -0.9999079546136027 0
outer loop
vertex 100.16493190000054 -115.8154481 1
vertex 100.00037075356576 -115.81321517931234 1
vertex 100.00037075356599 -115.81321517931237 0
endloop
endfacet
facet normal -0.013567693261620658 -0.9999079546136027 0
outer loop
vertex 100.16493190000054 -115.8154481 1
vertex 100.00037075356599 -115.81321517931237 0
vertex 100.16493189999996 -115.81544810000001 0
endloop
endfacet
facet normal 0.027587679083595166 -0.9996193875484712 0
outer loop
vertex 117.82529725000092 -115.32805409999997 1
vertex 100.16493190000054 -115.8154481 1
vertex 100.16493189999996 -115.81544810000001 0
endloop
endfacet
facet normal 0.027587679083595166 -0.9996193875484712 0
outer loop
vertex 117.82529725000092 -115.32805409999997 1
vertex 100.16493189999996 -115.81544810000001 0
vertex 117.82529724999984 -115.32805409999999 0
endloop
endfacet
facet normal 0.00813599126232134 -0.9999669022753601 0
outer loop
vertex 117.90341463500829 -115.32741851660175 1
vertex 117.82529725000092 -115.32805409999997 1
vertex 117.82529724999984 -115.32805409999999 0
endloop
endfacet
facet normal 0.00813599126232134 -0.9999669022753601 0
outer loop
vertex 117.90341463500829 -115.32741851660175 1
vertex 117.82529724999984 -115.32805409999999 0
vertex 117.90341463500911 -115.32741851660175 0
endloop
endfacet
facet normal -0.030974981040458267 -0.9995201601516317 0
outer loop
vertex 117.98149449999958 -115.3298382 1
vertex 117.90341463500829 -115.32741851660175 1
vertex 117.90341463500911 -115.32741851660175 0
endloop
endfacet
facet normal -0.030974981040458267 -0.9995201601516317 0
outer loop
vertex 117.98149449999958 -115.3298382 1
vertex 117.90341463500911 -115.32741851660175 0
vertex 117.98149449999953 -115.32983819999998 0
endloop
endfacet
facet normal -0.050511270609987946 -0.9987234910331111 0
outer loop
vertex 135.61223690000037 -116.22152765000004 1
vertex 117.98149449999958 -115.3298382 1
vertex 117.98149449999953 -115.32983819999998 0
endloop
endfacet
facet normal -0.050511270609987946 -0.9987234910331111 0
outer loop
vertex 135.61223690000037 -116.22152765000004 1
vertex 117.98149449999953 -115.32983819999998 0
vertex 135.6122369000003 -116.22152765000003 0
endloop
endfacet
facet normal -0.10294429689896836 -0.9946871225345069 0
outer loop
vertex 135.82137672971933 -116.24317239862123 1
vertex 135.61223690000037 -116.22152765000004 1
vertex 135.6122369000003 -116.22152765000003 0
endloop
endfacet
facet normal -0.10294429689896836 -0.9946871225345069 0
outer loop
vertex 135.82137672971933 -116.24317239862123 1
vertex 135.6122369000003 -116.22152765000003 0
vertex 135.82137672971925 -116.24317239862121 0
endloop
endfacet
facet normal -0.20680077889923573 -0.9783830731603391 0
outer loop
vertex 136.02708852057825 -116.28665368907421 1
vertex 135.82137672971933 -116.24317239862123 1
vertex 135.82137672971925 -116.24317239862121 0
endloop
endfacet
facet normal -0.20680077889923573 -0.9783830731603391 0
outer loop
vertex 136.02708852057825 -116.28665368907421 1
vertex 135.82137672971925 -116.24317239862121 0
vertex 136.0270885205783 -116.28665368907424 0
endloop
endfacet
facet normal -0.3083717005772401 -0.9512659429849789 0
outer loop
vertex 136.22709874774063 -116.35149096653352 1
vertex 136.02708852057825 -116.28665368907421 1
vertex 136.0270885205783 -116.28665368907424 0
endloop
endfacet
facet normal -0.3083717005772401 -0.9512659429849789 0
outer loop
vertex 136.22709874774063 -116.35149096653352 1
vertex 136.0270885205783 -116.28665368907424 0
vertex 136.22709874774074 -116.35149096653356 0
endloop
endfacet
facet normal -0.4065306475816048 -0.9136371449196234 0
outer loop
vertex 136.4191938 -116.4369653 1
vertex 136.22709874774063 -116.35149096653352 1
vertex 136.22709874774074 -116.35149096653356 0
endloop
endfacet
facet normal -0.4065306475816048 -0.9136371449196234 0
outer loop
vertex 136.4191938 -116.4369653 1
vertex 136.22709874774074 -116.35149096653356 0
vertex 136.4191937999998 -116.4369652999999 0
endloop
endfacet
facet normal -0.4539906149669122 -0.8910064654770835 0
outer loop
vertex 155.9510403999999 -126.38894139999992 1
vertex 136.4191938 -116.4369653 1
vertex 136.4191937999998 -116.4369652999999 0
endloop
endfacet
facet normal -0.4539906149669122 -0.8910064654770835 0
outer loop
vertex 155.9510403999999 -126.38894139999992 1
vertex 136.4191937999998 -116.4369652999999 0
vertex 155.95104040000007 -126.38894140000001 0
endloop
endfacet
facet normal -0.4874142674875235 -0.8731708491753495 0
outer loop
vertex 156.08336688488086 -126.46280760471618 1
vertex 155.9510403999999 -126.38894139999992 1
vertex 155.95104040000007 -126.38894140000001 0
endloop
endfacet
facet normal -0.4874142674875235 -0.8731708491753495 0
outer loop
vertex 156.08336688488086 -126.46280760471618 1
vertex 155.95104040000007 -126.38894140000001 0
vertex 156.08336688488106 -126.46280760471629 0
endloop
endfacet
facet normal -0.5521359381552563 -0.8337541039163855 0
outer loop
vertex 156.2097208000001 -126.54648280000006 1
vertex 156.08336688488086 -126.46280760471618 1
vertex 156.08336688488106 -126.46280760471629 0
endloop
endfacet
facet normal -0.5521359381552563 -0.8337541039163855 0
outer loop
vertex 156.2097208000001 -126.54648280000006 1
vertex 156.08336688488106 -126.46280760471629 0
vertex 156.2097208000003 -126.5464828000002 0
endloop
endfacet
facet normal -0.583332987384992 -0.8122331105221585 0
outer loop
vertex 169.43762875 -136.04655730000002 1
vertex 156.2097208000001 -126.54648280000006 1
vertex 156.2097208000003 -126.5464828000002 0
endloop
endfacet
facet normal -0.583332987384992 -0.8122331105221585 0
outer loop
vertex 169.43762875 -136.04655730000002 1
vertex 156.2097208000003 -126.5464828000002 0
vertex 169.43762875000016 -136.04655730000013 0
endloop
endfacet
facet normal -0.5165486805294965 -0.8562578236975333 0
outer loop
vertex 169.71137487382967 -136.2116982133451 1
vertex 169.43762875 -136.04655730000002 1
vertex 169.43762875000016 -136.04655730000013 0
endloop
endfacet
facet normal -0.5165486805294965 -0.8562578236975333 0
outer loop
vertex 169.71137487382967 -136.2116982133451 1
vertex 169.43762875000016 -136.04655730000013 0
vertex 169.71137487382967 -136.2116982133451 0
endloop
endfacet
facet normal -0.37351403781302417 -0.9276245272504446 0
outer loop
vertex 170.00793697425823 -136.3311108682926 1
vertex 169.71137487382967 -136.2116982133451 1
vertex 169.71137487382967 -136.2116982133451 0
endloop
endfacet
facet normal -0.37351403781302417 -0.9276245272504446 0
outer loop
vertex 170.00793697425823 -136.3311108682926 1
vertex 169.71137487382967 -136.2116982133451 0
vertex 170.00793697425829 -136.33111086829263 0
endloop
endfacet
facet normal -0.22093532130136875 -0.9752884618416549 0
outer loop
vertex 170.3197372622744 -136.40174401890388 1
vertex 170.00793697425823 -136.3311108682926 1
vertex 170.00793697425829 -136.33111086829263 0
endloop
endfacet
facet normal -0.22093532130136875 -0.9752884618416549 0
outer loop
vertex 170.3197372622744 -136.40174401890388 1
vertex 170.00793697425829 -136.33111086829263 0
vertex 170.31973726227432 -136.40174401890388 0
endloop
endfacet
facet normal -0.06271123996543797 -0.9980317131143666 0
outer loop
vertex 170.6388085809391 -136.42179283876396 1
vertex 170.3197372622744 -136.40174401890388 1
vertex 170.31973726227432 -136.40174401890388 0
endloop
endfacet
facet normal -0.06271123996543797 -0.9980317131143666 0
outer loop
vertex 170.6388085809391 -136.42179283876396 1
vertex 170.31973726227432 -136.40174401890388 0
vertex 170.63880858093913 -136.42179283876396 0
endloop
endfacet
facet normal 0.09711524621056351 -0.9952731428876507 0
outer loop
vertex 170.956997983099 -136.39074503811432 1
vertex 170.6388085809391 -136.42179283876396 1
vertex 170.63880858093913 -136.42179283876396 0
endloop
endfacet
facet normal 0.09711524621056351 -0.9952731428876507 0
outer loop
vertex 170.956997983099 -136.39074503811432 1
vertex 170.63880858093913 -136.42179283876396 0
vertex 170.95699798309917 -136.39074503811426 0
endloop
endfacet
facet normal 0.25446023240894516 -0.9670832384662582 0
outer loop
vertex 171.26617505643407 -136.30939395393966 1
vertex 170.956997983099 -136.39074503811432 1
vertex 170.95699798309917 -136.39074503811426 0
endloop
endfacet
facet normal 0.25446023240894516 -0.9670832384662582 0
outer loop
vertex 171.26617505643407 -136.30939395393966 1
vertex 170.95699798309917 -136.39074503811426 0
vertex 171.26617505643415 -136.30939395393963 0
endloop
endfacet
facet normal 0.40530322138579583 -0.9141823115409183 0
outer loop
vertex 171.55843967268876 -136.1798182785304 1
vertex 171.26617505643407 -136.30939395393966 1
vertex 171.26617505643415 -136.30939395393963 0
endloop
endfacet
facet normal 0.40530322138579583 -0.9141823115409183 0
outer loop
vertex 171.55843967268876 -136.1798182785304 1
vertex 171.26617505643415 -136.30939395393963 0
vertex 171.55843967268865 -136.17981827853046 0
endloop
endfacet
facet normal 0.5457898556807691 -0.8379220927007267 0
outer loop
vertex 171.8263238526632 -136.0053289444968 1
vertex 171.55843967268876 -136.1798182785304 1
vertex 171.55843967268865 -136.17981827853046 0
endloop
endfacet
facet normal 0.5457898556807691 -0.8379220927007267 0
outer loop
vertex 171.8263238526632 -136.0053289444968 1
vertex 171.55843967268865 -136.17981827853046 0
vertex 171.8263238526631 -136.00532894449682 0
endloop
endfacet
facet normal 0.672330404602892 -0.7402511918575422 0
outer loop
vertex 172.06298258887938 -135.79038452343644 1
vertex 171.8263238526632 -136.0053289444968 1
vertex 171.8263238526631 -136.00532894449682 0
endloop
endfacet
facet normal 0.672330404602892 -0.7402511918575422 0
outer loop
vertex 172.06298258887938 -135.79038452343644 1
vertex 171.8263238526631 -136.00532894449682 0
vertex 172.06298258887944 -135.79038452343636 0
endloop
endfacet
facet normal 0.7816966804405789 -0.6236588007782616 0
outer loop
vertex 172.26236750000032 -135.54047459999964 1
vertex 172.06298258887938 -135.79038452343644 1
vertex 172.06298258887944 -135.79038452343636 0
endloop
endfacet
facet normal 0.7816966804405789 -0.6236588007782616 0
outer loop
vertex 172.26236750000032 -135.54047459999964 1
vertex 172.06298258887944 -135.79038452343636 0
vertex 172.2623675000002 -135.54047459999973 0
endloop
endfacet
facet normal 0 0 1
outer loop
vertex 186.09695619999982 -115.02984720000023 1
vertex 185.89624187304074 -115.32741851660175 1
vertex 185.89460977647218 -115.3298382 1
endloop
endfacet
facet normal 0 0 1
outer loop
vertex 186.09695619999982 -115.02984720000023 1
vertex 185.89460977647218 -115.3298382 1
vertex 185.29315782923044 -116.22152765000004 1
endloop
endfacet
facet normal 0 0 1
outer loop
vertex 186.09695619999982 -115.02984720000023 1
vertex 185.29315782923044 -116.22152765000004 1
vertex 185.27855826633802 -116.24317239862123 1
endloop
endfacet
facet normal 0 0 1
outer loop
vertex 186.09695619999982 -115.02984720000023 1
vertex 185.27855826633802 -116.24317239862123 1
vertex 185.24922977443816 -116.28665368907421 1
endloop
endfacet
facet normal 0 0 1
outer loop
vertex 186.09695619999982 -115.02984720000023 1
vertex 185.24922977443816 -116.28665368907421 1
vertex 185.20549649175578 -116.35149096653352 1
endloop
endfacet
facet normal 0 0 1
outer loop
vertex 186.09695619999982 -115.02984720000023 1
vertex 185.20549649175578 -116.35149096653352 1
vertex 185.14784334322675 -116.4369653 1
endloop
endfacet
facet normal 0 0 1
outer loop
vertex 186.09695619999982 -115.02984720000023 1
vertex 185.14784334322675 -116.4369653 1
vertex 178.43515272627718 -126.38894139999992 1
endloop
endfacet
facet normal 0 0 1
outer loop
vertex 186.09695619999982 -115.02984720000023 1
vertex 178.43515272627718 -126.38894139999992 1
vertex 178.38532935709642 -126.46280760471618 1
endloop
endfacet
facet normal 0 0 1
outer loop
vertex 186.09695619999982 -115.02984720000023 1
vertex 178.38532935709642 -126.46280760471618 1
vertex 178.32888974222902 -126.54648280000006 1
endloop
endfacet
facet normal 0 0 1
outer loop
vertex 186.09695619999982 -115.02984720000023 1
vertex 178.32888974222902 -126.54648280000006 1
vertex 172.26236750000032 -135.54047459999964 1
endloop
endfacet
facet normal 0 0 1
outer loop
vertex 186.09695619999982 -115.02984720000023 1
vertex 172.26236750000032 -135.54047459999964 1
vertex 172.2623675000002 -135.54047459999973 0
endloop
endfacet
facet normal 0 0 1
outer loop
vertex 186.09695619999982 -115.02984720000023 1
vertex 172.2623675000002 -135.54047459999973 0
vertex 178.32888974222894 -126.5464828000002 0
endloop
endfacet
facet normal 0 0 1
outer loop
vertex 186.09695619999982 -115.02984720000023 1
vertex 178.32888974222894 -126.5464828000002 0
vertex 178.38532935709637 -126.46280760471629 0
endloop
endfacet
facet normal 0 0 1
outer loop
vertex 186.09695619999982 -115.02984720000023 1
vertex 178.38532935709637 -126.46280760471629 0
vertex 178.43515272627715 -126.38894140000001 0
endloop
endfacet
facet normal 0 0 1
outer loop
vertex 186.09695619999982 -115.02984720000023 1
vertex 178.43515272627715 -126.38894140000001 0
vertex 185.14784334322684 -116.4369652999999 0
endloop
endfacet
facet normal 0 0 1
outer loop
vertex 186.09695619999982 -115.02984720000023 1
vertex 185.14784334322684 -116.4369652999999 0
vertex 185.20549649175575 -116.35149096653356 0
endloop
endfacet
facet normal 0 0 1
outer loop
vertex 186.09695619999982 -115.02984720000023 1
vertex 185.20549649175575 -116.35149096653356 0
vertex 185.24922977443813 -116.28665368907424 0
endloop
endfacet
facet normal 0 0 1
outer loop
vertex 186.09695619999982 -115.02984720000023 1
vertex 185.24922977443813 -116.28665368907424 0
vertex 185.27855826633805 -116.24317239862121 0
endloop
endfacet
facet normal 0 0 1
outer loop
vertex 186.09695619999982 -115.02984720000023 1
vertex 185.27855826633805 -116.24317239862121 0
vertex 185.29315782923047 -116.22152765000003 0
endloop
endfacet
facet normal 0 0 1
outer loop
vertex 186.09695619999982 -115.02984720000023 1
vertex 185.29315782923047 -116.22152765000003 0
vertex 185.89460977647218 -115.32983819999998 0
endloop
endfacet
facet normal 0 0 1
outer loop
vertex 186.09695619999982 -115.02984720000023 1
vertex 185.89460977647218 -115.32983819999998 0
vertex 185.89624187304076 -115.32741851660175 0
endloop
endfacet
facet normal 0 0 1
outer loop
vertex 186.09695619999982 -115.02984720000023 1
vertex 185.89624187304076 -115.32741851660175 0
vertex 186.09695619999977 -115.02984720000033 0
endloop
endfacet
facet normal 0.8746185809279488 -0.4848116519800049 0
outer loop
vertex 186.2659724723377 -114.72493544372925 1
vertex 186.09695619999982 -115.02984720000023 1
vertex 186.09695619999977 -115.02984720000033 0
endloop
endfacet
facet normal 0.8746185809279488 -0.4848116519800049 0
outer loop
vertex 186.2659724723377 -114.72493544372925 1
vertex 186.09695619999977 -115.02984720000033 0
vertex 186.2659724723377 -114.72493544372927 0
endloop
endfacet
facet normal 0.9455177498222409 -0.32557055267804347 0
outer loop
vertex 186.37947370724387 -114.39530663870441 1
vertex 186.2659724723377 -114.72493544372925 1
vertex 186.2659724723377 -114.72493544372927 0
endloop
endfacet
facet normal 0.9455177498222409 -0.32557055267804347 0
outer loop
vertex 186.37947370724387 -114.39530663870441 1
vertex 186.2659724723377 -114.72493544372927 0
vertex 186.3794737072439 -114.39530663870437 0
endloop
endfacet
facet normal 0.9876879104238763 -0.15643718101051665 0
outer loop
vertex 186.43401123554267 -114.05097636493463 1
vertex 186.37947370724387 -114.39530663870441 1
vertex 186.3794737072439 -114.39530663870437 0
endloop
endfacet
facet normal 0.9876879104238763 -0.15643718101051665 0
outer loop
vertex 186.43401123554267 -114.05097636493463 1
vertex 186.3794737072439 -114.39530663870437 0
vertex 186.4340112355427 -114.05097636493461 0
endloop
endfacet
facet normal 0.9998477468677114 0.0174494436461714 0
outer loop
vertex 186.42792796607628 -113.70240689802792 1
vertex 186.43401123554267 -114.05097636493463 1
vertex 186.4340112355427 -114.05097636493461 0
endloop
endfacet
facet normal 0.9998477468677114 0.0174494436461714 0
outer loop
vertex 186.42792796607628 -113.70240689802792 1
vertex 186.4340112355427 -114.05097636493461 0
vertex 186.4279279660763 -113.70240689802792 0
endloop
endfacet
facet normal 0.9816277895778469 0.19080587708063504 0
outer loop
vertex 186.36140873545835 -113.36018931901543 1
vertex 186.42792796607628 -113.70240689802792 1
vertex 186.4279279660763 -113.70240689802792 0
endloop
endfacet
facet normal 0.9816277895778469 0.19080587708063504 0
outer loop
vertex 186.36140873545835 -113.36018931901543 1
vertex 186.4279279660763 -113.70240689802792 0
vertex 186.3614087354584 -113.36018931901559 0
endloop
endfacet
facet normal 0 0 -1
outer loop
vertex 186.2364746919204 -113.03472171050011 1
vertex 186.29917678397752 -113.19806789999998 1
vertex 186.30132403858602 -113.20366174618087 1
endloop
endfacet
facet normal 0 0 -1
outer loop
vertex 186.2364746919204 -113.03472171050011 1
vertex 186.30132403858602 -113.20366174618087 1
vertex 186.30627739056172 -113.21656580000003 1
endloop
endfacet
facet normal 0 0 -1
outer loop
vertex 186.2364746919204 -113.03472171050011 1
vertex 186.30627739056172 -113.21656580000003 1
vertex 186.36140873545835 -113.36018931901543 1
endloop
endfacet
facet normal 0 0 -1
outer loop
vertex 186.2364746919204 -113.03472171050011 1
vertex 186.36140873545835 -113.36018931901543 1
vertex 186.3614087354584 -113.36018931901559 0
endloop
endfacet
facet normal 0 0 -1
outer loop
vertex 186.2364746919204 -113.03472171050011 1
vertex 186.3614087354584 -113.36018931901559 0
vertex 186.30627739056166 -113.21656579999997 0
endloop
endfacet
facet normal 0 0 -1
outer loop
vertex 186.2364746919204 -113.03472171050011 1
vertex 186.30627739056166 -113.21656579999997 0
vertex 186.30132403858602 -113.20366174618086 0
endloop
endfacet
facet normal 0 0 -1
outer loop
vertex 186.2364746919204 -113.03472171050011 1
vertex 186.30132403858602 -113.20366174618086 0
vertex 186.2991767839775 -113.19806789999998 0
endloop
endfacet
facet normal 0 0 -1
outer loop
vertex 186.2364746919204 -113.03472171050011 1
vertex 186.2991767839775 -113.19806789999998 0
vertex 186.23647469192036 -113.03472171050008 0
endloop
endfacet
facet normal 0.8571691566323502 0.5150349861108326 0
outer loop
vertex 186.056921883896 -112.73589321694975 1
vertex 186.2364746919204 -113.03472171050011 1
vertex 186.23647469192036 -113.03472171050008 0
endloop
endfacet
facet normal 0.8571691566323502 0.5150349861108326 0
outer loop
vertex 186.056921883896 -112.73589321694975 1
vertex 186.23647469192036 -113.03472171050008 0
vertex 186.056921883896 -112.73589321694975 0
endloop
endfacet
facet normal 0.7547120843349339 0.6560561483278851 0
outer loop
vertex 185.82820591929038 -112.4727835687769 1
vertex 186.056921883896 -112.73589321694975 1
vertex 186.056921883896 -112.73589321694975 0
endloop
endfacet
facet normal 0.7547120843349339 0.6560561483278851 0
outer loop
vertex 185.82820591929038 -112.4727835687769 1
vertex 186.056921883896 -112.73589321694975 0
vertex 185.82820591929033 -112.47278356877685 0
endloop
endfacet
facet normal 0.6293230429745472 0.7771438139631919 0
outer loop
vertex 185.55727240000004 -112.25338440000003 1
vertex 185.82820591929038 -112.4727835687769 1
vertex 185.82820591929033 -112.47278356877685 0
endloop
endfacet
facet normal 0.6293230429745472 0.7771438139631919 0
outer loop
vertex 185.55727240000004 -112.25338440000003 1
vertex 185.82820591929033 -112.47278356877685 0
vertex 185.55727240000002 -112.25338440000003 0
endloop
endfacet
facet normal 0.5591928998093307 0.829037575024698 0
outer loop
vertex 167.52570510000004 -100.09093880000002 1
vertex 185.55727240000004 -112.25338440000003 1
vertex 185.55727240000002 -112.25338440000003 0
endloop
endfacet
facet normal 0.5591928998093307 0.829037575024698 0
outer loop
vertex 167.52570510000004 -100.09093880000002 1
vertex 185.55727240000002 -112.25338440000003 0
vertex 167.52570509999998 -100.09093879999998 0
endloop
endfacet
facet normal -0.2638471632555905 -0.9645644998868546 0
outer loop
vertex 170.22229999999982 -100.82856589999994 1
vertex 167.52570510000004 -100.09093880000002 1
vertex 167.52570509999998 -100.09093879999998 0
endloop
endfacet
facet normal -0.2638471632555905 -0.9645644998868546 0
outer loop
vertex 170.22229999999982 -100.82856589999994 1
vertex 167.52570509999998 -100.09093879999998 0
vertex 170.2222999999998 -100.82856589999993 0
endloop
endfacet
facet normal -0.18244727315725123 -0.9832156388694615 0
outer loop
vertex 170.5504557906561 -100.8894590823387 1
vertex 170.22229999999982 -100.82856589999994 1
vertex 170.2222999999998 -100.82856589999993 0
endloop
endfacet
facet normal -0.18244727315725123 -0.9832156388694615 0
outer loop
vertex 170.5504557906561 -100.8894590823387 1
vertex 170.2222999999998 -100.82856589999993 0
vertex 170.5504557906561 -100.8894590823387 0
endloop
endfacet
facet normal -0.01640109582352522 -0.9998654929818249 0
outer loop
vertex 170.88416859833288 -100.8949330743653 1
vertex 170.5504557906561 -100.8894590823387 1
vertex 170.5504557906561 -100.8894590823387 0
endloop
endfacet
facet normal -0.01640109582352522 -0.9998654929818249 0
outer loop
vertex 170.88416859833288 -100.8949330743653 1
vertex 170.5504557906561 -100.8894590823387 0
vertex 170.88416859833282 -100.8949330743653 0
endloop
endfacet
facet normal 0.1501018282578597 -0.988670542270603 0
outer loop
vertex 171.2141450050041 -100.84483543333559 1
vertex 170.88416859833288 -100.8949330743653 1
vertex 170.88416859833282 -100.8949330743653 0
endloop
endfacet
facet normal 0.1501018282578597 -0.988670542270603 0
outer loop
vertex 171.2141450050041 -100.84483543333559 1
vertex 170.88416859833282 -100.8949330743653 0
vertex 171.2141450050042 -100.84483543333558 0
endloop
endfacet
facet normal 0.3124246339725685 -0.9499425498876797 0
outer loop
vertex 171.5311956459951 -100.74056130594326 1
vertex 171.2141450050041 -100.84483543333559 1
vertex 171.2141450050042 -100.84483543333558 0
endloop
endfacet
facet normal 0.3124246339725685 -0.9499425498876797 0
outer loop
vertex 171.5311956459951 -100.74056130594326 1
vertex 171.2141450050042 -100.84483543333558 0
vertex 171.5311956459953 -100.74056130594319 0
endloop
endfacet
facet normal 0.4660468664439773 -0.884760034290513 0
outer loop
vertex 171.82649112047287 -100.585014575506 1
vertex 171.5311956459951 -100.74056130594326 1
vertex 171.5311956459953 -100.74056130594319 0
endloop
endfacet
facet normal 0.4660468664439773 -0.884760034290513 0
outer loop
vertex 171.82649112047287 -100.585014575506 1
vertex 171.5311956459953 -100.74056130594319 0
vertex 171.82649112047272 -100.58501457550611 0
endloop
endfacet
facet normal 0.6066903691504427 -0.7949382340660811 0
outer loop
vertex 172.09180787745825 -100.3825269930256 1
vertex 171.82649112047287 -100.585014575506 1
vertex 171.82649112047272 -100.58501457550611 0
endloop
endfacet
facet normal 0.6066903691504427 -0.7949382340660811 0
outer loop
vertex 172.09180787745825 -100.3825269930256 1
vertex 171.82649112047272 -100.58501457550611 0
vertex 172.09180787745817 -100.38252699302569 0
endloop
endfacet
facet normal 0.7304384243832613 -0.6829785561673946 0
outer loop
vertex 172.31975722980795 -100.13873754419745 1
vertex 172.09180787745825 -100.3825269930256 1
vertex 172.09180787745817 -100.38252699302569 0
endloop
endfacet
facet normal 0.7304384243832613 -0.6829785561673946 0
outer loop
vertex 172.31975722980795 -100.13873754419745 1
vertex 172.09180787745817 -100.38252699302569 0
vertex 172.319757229808 -100.13873754419741 0
endloop
endfacet
facet normal 0 0 -1
outer loop
vertex 172.50399111843655 -99.860435411836 1
vertex 172.35139963383963 -100.09093880000002 1
vertex 172.31975722980795 -100.13873754419745 1
endloop
endfacet
facet normal 0 0 -1
outer loop
vertex 172.50399111843655 -99.860435411836 1
vertex 172.31975722980795 -100.13873754419745 1
vertex 172.319757229808 -100.13873754419741 0
endloop
endfacet
facet normal 0 0 -1
outer loop
vertex 172.50399111843655 -99.860435411836 1
vertex 172.319757229808 -100.13873754419741 0
vertex 172.35139963383966 -100.09093879999998 0
endloop
endfacet
facet normal 0 0 -1
outer loop
vertex 172.50399111843655 -99.860435411836 1
vertex 172.35139963383966 -100.09093879999998 0
vertex 172.50399111843646 -99.86043541183615 0
endloop
endfacet
facet normal 0.9140298620035145 -0.40564690479015914 0
outer loop
vertex 172.6393788965659 -99.5553709069693 1
vertex 172.50399111843655 -99.860435411836 1
vertex 172.50399111843646 -99.86043541183615 0
endloop
endfacet
facet normal 0.9140298620035145 -0.40564690479015914 0
outer loop
vertex 172.6393788965659 -99.5553709069693 1
vertex 172.50399111843646 -99.86043541183615 0
vertex 172.63937889656592 -99.55537090696922 0
endloop
endfacet
facet normal 0.9687604889416591 -0.2479982158514808 0
outer loop
vertex 172.72215021079927 -99.23203963391246 1
vertex 172.6393788965659 -99.5553709069693 1
vertex 172.63937889656592 -99.55537090696922 0
endloop
endfacet
facet normal 0.9687604889416591 -0.2479982158514808 0
outer loop
vertex 172.72215021079927 -99.23203963391246 1
vertex 172.63937889656592 -99.55537090696922 0
vertex 172.7221502107993 -99.2320396339124 0
endloop
endfacet
facet normal 0.9965126258680712 -0.08344211457963979 0
outer loop
vertex 172.75 -98.89944179999976 1
vertex 172.72215021079927 -99.23203963391246 1
vertex 172.7221502107993 -99.2320396339124 0
endloop
endfacet
facet normal 0.9965126258680712 -0.08344211457963979 0
outer loop
vertex 172.75 -98.89944179999976 1
vertex 172.7221502107993 -99.2320396339124 0
vertex 172.75 -98.8994417999999 0
endloop
endfacet
facet normal 1 0 0
outer loop
vertex 172.75 -46.701371800002676 0
vertex 172.75 -46.69955827882997 0
vertex 172.75 -44.52000000000001 0
endloop
endfacet
facet normal 1 0 0
outer loop
vertex 172.75 -46.701371800002676 0
vertex 172.75 -44.52000000000001 0
vertex 172.75 -44.51999999999996 1
endloop
endfacet
facet normal 1 0 0
outer loop
vertex 172.75 -46.701371800002676 0
vertex 172.75 -44.51999999999996 1
vertex 172.75 -46.699558278829855 1
endloop
endfacet
facet normal 1 0 0
outer loop
vertex 172.75 -46.701371800002676 0
vertex 172.75 -46.699558278829855 1
vertex 172.75 -46.70137180000231 1
endloop
endfacet
facet normal 1 0 0
outer loop
vertex 172.75 -46.701371800002676 0
vertex 172.75 -46.70137180000231 1
vertex 172.75 -98.89944179999976 1
endloop
endfacet
facet normal 1 0 0
outer loop
vertex 172.75 -46.701371800002676 0
vertex 172.75 -98.89944179999976 1
vertex 172.75 -98.8994417999999 0
endloop
endfacet
facet normal 0.9961946980917409 0.08715574274771135 0
outer loop
vertex 172.71961550602444 -44.17270364466625 1
vertex 172.75 -44.51999999999996 1
vertex 172.75 -44.52000000000001 0
endloop
endfacet
facet normal 0.9961946980917409 0.08715574274771135 0
outer loop
vertex 172.71961550602444 -44.17270364466625 1
vertex 172.75 -44.52000000000001 0
vertex 172.71961550602444 -44.17270364466631 0
endloop
endfacet
facet normal 0.965925826289063 0.25881904510254033 0
outer loop
vertex 172.62938524157184 -43.83595971334882 1
vertex 172.71961550602444 -44.17270364466625 1
vertex 172.71961550602444 -44.17270364466631 0
endloop
endfacet
facet normal 0.965925826289063 0.25881904510254033 0
outer loop
vertex 172.62938524157184 -43.83595971334882 1
vertex 172.71961550602444 -44.17270364466631 0
vertex 172.6293852415718 -43.83595971334871 0
endloop
endfacet
facet normal 0.906307787036639 0.4226182617407234 0
outer loop
vertex 172.48205080756878 -43.51999999999991 1
vertex 172.62938524157184 -43.83595971334882 1
vertex 172.6293852415718 -43.83595971334871 0
endloop
endfacet
facet normal 0.906307787036639 0.4226182617407234 0
outer loop
vertex 172.48205080756878 -43.51999999999991 1
vertex 172.6293852415718 -43.83595971334871 0
vertex 172.48205080756884 -43.51999999999998 0
endloop
endfacet
facet normal 0.8191520442889821 0.5735764363510599 0
outer loop
vertex 172.2820888862379 -43.23442478062687 1
vertex 172.48205080756878 -43.51999999999991 1
vertex 172.48205080756884 -43.51999999999998 0
endloop
endfacet
facet normal 0.8191520442889821 0.5735764363510599 0
outer loop
vertex 172.2820888862379 -43.23442478062687 1
vertex 172.48205080756884 -43.51999999999998 0
vertex 172.28208888623791 -43.23442478062688 0
endloop
endfacet
facet normal 0.7071067811865582 0.7071067811865369 0
outer loop
vertex 172.03557521937307 -42.98791111376203 1
vertex 172.2820888862379 -43.23442478062687 1
vertex 172.28208888623791 -43.23442478062688 0
endloop
endfacet
facet normal 0.7071067811865582 0.7071067811865369 0
outer loop
vertex 172.03557521937307 -42.98791111376203 1
vertex 172.28208888623791 -43.23442478062688 0
vertex 172.03557521937313 -42.98791111376209 0
endloop
endfacet
facet normal 0.5735764363510552 0.8191520442889855 0
outer loop
vertex 171.75 -42.78794919243112 1
vertex 172.03557521937307 -42.98791111376203 1
vertex 172.03557521937313 -42.98791111376209 0
endloop
endfacet
facet normal 0.5735764363510552 0.8191520442889855 0
outer loop
vertex 171.75 -42.78794919243112 1
vertex 172.03557521937313 -42.98791111376209 0
vertex 171.74999999999994 -42.78794919243109 0
endloop
endfacet
facet normal 0.4226182617407126 0.9063077870366438 0
outer loop
vertex 171.43404028665137 -42.6406147584282 1
vertex 171.75 -42.78794919243112 1
vertex 171.74999999999994 -42.78794919243109 0
endloop
endfacet
facet normal 0.4226182617407126 0.9063077870366438 0
outer loop
vertex 171.43404028665137 -42.6406147584282 1
vertex 171.74999999999994 -42.78794919243109 0
vertex 171.43404028665142 -42.640614758428214 0
endloop
endfacet
facet normal 0.258819045102527 0.9659258262890668 0
outer loop
vertex 171.09729635533384 -42.550384493975585 1
vertex 171.43404028665137 -42.6406147584282 1
vertex 171.43404028665142 -42.640614758428214 0
endloop
endfacet
facet normal 0.258819045102527 0.9659258262890668 0
outer loop
vertex 171.09729635533384 -42.550384493975585 1
vertex 171.43404028665142 -42.640614758428214 0
vertex 171.0972963553338 -42.55038449397558 0
endloop
endfacet
facet normal 0 0 1
outer loop
vertex 170.74999999999991 -42.519999999999996 1
vertex 170.75004800621957 -42.520004199999995 1
vertex 171.09729635533384 -42.550384493975585 1
endloop
endfacet
facet normal 0 0 1
outer loop
vertex 170.74999999999991 -42.519999999999996 1
vertex 171.09729635533384 -42.550384493975585 1
vertex 171.0972963553338 -42.55038449397558 0
endloop
endfacet
facet normal 0 0 1
outer loop
vertex 170.74999999999991 -42.519999999999996 1
vertex 171.0972963553338 -42.55038449397558 0
vertex 170.7500480062196 -42.520004199999995 0
endloop
endfacet
facet normal 0 0 1
outer loop
vertex 170.74999999999991 -42.519999999999996 1
vertex 170.7500480062196 -42.520004199999995 0
vertex 170.75000000000003 -42.52 0
endloop
endfacet
facet normal -2.4045480984113965e-7 0.9999999999999712 0
outer loop
vertex 153.2831006645619 -42.520004199999995 1
vertex 170.74999999999991 -42.519999999999996 1
vertex 170.75000000000003 -42.52 0
endloop
endfacet
facet normal -2.4045480984113965e-7 0.9999999999999712 0
outer loop
vertex 153.2831006645619 -42.520004199999995 1
vertex 170.75000000000003 -42.52 0
vertex 153.2831006499999 -42.520004199999995 0
endloop
endfacet
facet normal 0.046869145333069184 0.9989010377488591 0
outer loop
vertex 153.09588650148885 -42.511219979338115 1
vertex 153.2831006645619 -42.520004199999995 1
vertex 153.2831006499999 -42.520004199999995 0
endloop
endfacet
facet normal 0.046869145333069184 0.9989010377488591 0
outer loop
vertex 153.09588650148885 -42.511219979338115 1
vertex 153.2831006499999 -42.520004199999995 0
vertex 153.09588650148874 -42.51121997933811 0
endloop
endfacet
facet normal 0.14016761848155568 0.9901277890904836 0
outer loop
vertex 152.91031663626006 -42.48494974800268 1
vertex 153.09588650148885 -42.511219979338115 1
vertex 153.09588650148874 -42.51121997933811 0
endloop
endfacet
facet normal 0.14016761848155568 0.9901277890904836 0
outer loop
vertex 152.91031663626006 -42.48494974800268 1
vertex 153.09588650148874 -42.51121997933811 0
vertex 152.91031663626006 -42.48494974800268 0
endloop
endfacet
facet normal 0.23221478142705898 0.9726645337868465 0
outer loop
vertex 152.72802129999997 -42.441428399999985 1
vertex 152.91031663626006 -42.48494974800268 1
vertex 152.91031663626006 -42.48494974800268 0
endloop
endfacet
facet normal 0.23221478142705898 0.9726645337868465 0
outer loop
vertex 152.72802129999997 -42.441428399999985 1
vertex 152.91031663626006 -42.48494974800268 0
vertex 152.72802129999997 -42.441428399999985 0
endloop
endfacet
facet normal 0.27753955280367376 0.9607142117349659 0
outer loop
vertex 135.16427299999998 -37.36745864999999 1
vertex 152.72802129999997 -42.441428399999985 1
vertex 152.72802129999997 -42.441428399999985 0
endloop
endfacet
facet normal 0.27753955280367376 0.9607142117349659 0
outer loop
vertex 135.16427299999998 -37.36745864999999 1
vertex 152.72802129999997 -42.441428399999985 0
vertex 135.16427299999998 -37.36745864999999 0
endloop
endfacet
facet normal 0.23633220081050954 0.9716723166068183 0
outer loop
vertex 134.99857836711308 -37.32715805011319 1
vertex 135.16427299999998 -37.36745864999999 1
vertex 135.16427299999998 -37.36745864999999 0
endloop
endfacet
facet normal 0.23633220081050954 0.9716723166068183 0
outer loop
vertex 134.99857836711308 -37.32715805011319 1
vertex 135.16427299999998 -37.36745864999999 0
vertex 134.99857836711305 -37.32715805011318 0
endloop
endfacet
facet normal 0.15271155675556258 0.9882708031877157 0
outer loop
vertex 134.83005599999998 -37.3011173 1
vertex 134.99857836711308 -37.32715805011319 1
vertex 134.99857836711305 -37.32715805011318 0
endloop
endfacet
facet normal 0.15271155675556258 0.9882708031877157 0
outer loop
vertex 134.83005599999998 -37.3011173 1
vertex 134.99857836711305 -37.32715805011318 0
vertex 134.83005600000007 -37.30111730000001 0
endloop
endfacet
facet normal 0.11043136848024915 0.9938837521841171 0
outer loop
vertex 117.11008970000017 -35.332235000000026 1
vertex 134.83005599999998 -37.3011173 1
vertex 134.83005600000007 -37.30111730000001 0
endloop
endfacet
facet normal 0.11043136848024915 0.9938837521841171 0
outer loop
vertex 117.11008970000017 -35.332235000000026 1
vertex 134.83005600000007 -37.30111730000001 0
vertex 117.11008970000007 -35.33223500000001 0
endloop
endfacet
facet normal 0.08293170680714469 0.9965552327924699 0
outer loop
vertex 116.99982904673223 -35.32305928763779 1
vertex 117.11008970000017 -35.332235000000026 1
vertex 117.11008970000007 -35.33223500000001 0
endloop
endfacet
facet normal 0.08293170680714469 0.9965552327924699 0
outer loop
vertex 116.99982904673223 -35.32305928763779 1
vertex 117.11008970000007 -35.33223500000001 0
vertex 116.9998290467323 -35.32305928763779 0
endloop
endfacet
facet normal 0.0276503409240334 0.9996176562300132 0
outer loop
vertex 116.88922940000043 -35.32000000000001 1
vertex 116.99982904673223 -35.32305928763779 1
vertex 116.9998290467323 -35.32305928763779 0
endloop
endfacet
facet normal 0.0276503409240334 0.9996176562300132 0
outer loop
vertex 116.88922940000043 -35.32000000000001 1
vertex 116.9998290467323 -35.32305928763779 0
vertex 116.8892294000003 -35.32 0
endloop
endfacet
facet normal 9.74924034835567e-8 0.9999999999999952 0
outer loop
vertex 91.24620504999972 -35.319997500000014 1
vertex 116.88922940000043 -35.32000000000001 1
vertex 116.8892294000003 -35.32 0
endloop
endfacet
facet normal 9.74924034835567e-8 0.9999999999999952 0
outer loop
vertex 91.24620504999972 -35.319997500000014 1
vertex 116.8892294000003 -35.32 0
vertex 91.24620505000001 -35.31999750000001 0
endloop
endfacet
facet normal -0.0408331611717756 0.9991659786785776 0
outer loop
vertex 91.08307102757348 -35.32666433811548 1
vertex 91.24620504999972 -35.319997500000014 1
vertex 91.24620505000001 -35.31999750000001 0
endloop
endfacet
facet normal -0.0408331611717756 0.9991659786785776 0
outer loop
vertex 91.08307102757348 -35.32666433811548 1
vertex 91.24620505000001 -35.31999750000001 0
vertex 91.08307102757334 -35.32666433811549 0
endloop
endfacet
facet normal -0.12219613379941308 0.9925059722160245 0
outer loop
vertex 90.9210243856889 -35.346615324495204 1
vertex 91.08307102757348 -35.32666433811548 1
vertex 91.08307102757334 -35.32666433811549 0
endloop
endfacet
facet normal -0.12219613379941308 0.9925059722160245 0
outer loop
vertex 90.9210243856889 -35.346615324495204 1
vertex 91.08307102757334 -35.32666433811549 0
vertex 90.92102438568911 -35.346615324495176 0
endloop
endfacet
facet normal -0.20272405482327832 0.9792359049769409 0
outer loop
vertex 90.76114010000012 -35.379714999999976 1
vertex 90.9210243856889 -35.346615324495204 1
vertex 90.92102438568911 -35.346615324495176 0
endloop
endfacet
facet normal -0.20272405482327832 0.9792359049769409 0
outer loop
vertex 90.76114010000012 -35.379714999999976 1
vertex 90.92102438568911 -35.346615324495176 0
vertex 90.7611400999999 -35.379715000000026 0
endloop
endfacet
facet normal -0.2425354232172269 0.9701425506000861 0
outer loop
vertex 73.11665609999974 -39.79083210000006 1
vertex 90.76114010000012 -35.379714999999976 1
vertex 90.7611400999999 -35.379715000000026 0
endloop
endfacet
facet normal -0.2425354232172269 0.9701425506000861 0
outer loop
vertex 73.11665609999974 -39.79083210000006 1
vertex 90.7611400999999 -35.379715000000026 0
vertex 73.11665609999977 -39.790832100000046 0
endloop
endfacet
facet normal -0.27156702850071934 0.9624195286003342 0
outer loop
vertex 73.00108334017077 -39.823443398949934 1
vertex 73.11665609999974 -39.79083210000006 1
vertex 73.11665609999977 -39.790832100000046 0
endloop
endfacet
facet normal -0.27156702850071934 0.9624195286003342 0
outer loop
vertex 73.00108334017077 -39.823443398949934 1
vertex 73.11665609999977 -39.790832100000046 0
vertex 73.0010833401708 -39.82344339894992 0
endloop
endfacet
facet normal -0.32884335361678296 0.9443844814386075 0
outer loop
vertex 72.88767219999987 -39.86293420000004 1
vertex 73.00108334017077 -39.823443398949934 1
vertex 73.0010833401708 -39.82344339894992 0
endloop
endfacet
facet normal -0.32884335361678296 0.9443844814386075 0
outer loop
vertex 72.88767219999987 -39.86293420000004 1
vertex 73.0010833401708 -39.82344339894992 0
vertex 72.8876722000004 -39.862934199999856 0
endloop
endfacet
facet normal 0.00027450681454691455 -0.0007181866310689994 -0.9999997044269423
outer loop
vertex 55.00362939999996 -46.698610899999856 1.0000000000000004
vertex 65.93603365884489 -42.520004199999995 1
vertex 65.95901563783195 -42.511219979338115 1
endloop
endfacet
facet normal 0.00027450681454691455 -0.0007181866310689994 -0.9999997044269423
outer loop
vertex 55.00362939999996 -46.698610899999856 1.0000000000000004
vertex 65.95901563783195 -42.511219979338115 1
vertex 66.02774591314892 -42.48494974800268 1
endloop
endfacet
facet normal 0.00027450681454691455 -0.0007181866310689994 -0.9999997044269423
outer loop
vertex 55.00362939999996 -46.698610899999856 1.0000000000000004
vertex 66.02774591314892 -42.48494974800268 1
vertex 66.14160993635439 -42.441428399999985 1
endloop
endfacet
facet normal 0.00027450681454691455 -0.0007181866310689994 -0.9999997044269423
outer loop
vertex 55.00362939999996 -46.698610899999856 1.0000000000000004
vertex 66.14160993635439 -42.441428399999985 1
vertex 72.88767219999987 -39.86293420000004 1
endloop
endfacet
facet normal 0.00027450681454691455 -0.0007181866310689994 -0.9999997044269423
outer loop
vertex 55.00362939999996 -46.698610899999856 1.0000000000000004
vertex 72.88767219999987 -39.86293420000004 1
vertex 72.8876722000004 -39.862934199999856 0
endloop
endfacet
facet normal 0.00027450681454691455 -0.0007181866310689994 -0.9999997044269423
outer loop
vertex 55.00362939999996 -46.698610899999856 1.0000000000000004
vertex 72.8876722000004 -39.862934199999856 0
vertex 66.14160993635441 -42.441428399999985 0
endloop
endfacet
facet normal 0.00027450681454691455 -0.0007181866310689994 -0.9999997044269423
outer loop
vertex 55.00362939999996 -46.698610899999856 1.0000000000000004
vertex 66.14160993635441 -42.441428399999985 0
vertex 66.02774591314896 -42.48494974800268 0
endloop
endfacet
facet normal 0.00027450681454691455 -0.0007181866310689994 -0.9999997044269423
outer loop
vertex 55.00362939999996 -46.698610899999856 1.0000000000000004
vertex 66.02774591314896 -42.48494974800268 0
vertex 65.959015637832 -42.51121997933811 0
endloop
endfacet
facet normal 0.00027450681454691455 -0.0007181866310689994 -0.9999997044269423
outer loop
vertex 55.00362939999996 -46.698610899999856 1.0000000000000004
vertex 65.959015637832 -42.51121997933811 0
vertex 65.93603365884492 -42.520004199999995 0
endloop
endfacet
facet normal 0.00027450681454691455 -0.0007181866310689994 -0.9999997044269423
outer loop
vertex 55.00362939999996 -46.698610899999856 1.0000000000000004
vertex 65.93603365884492 -42.520004199999995 0
vertex 55.00362939999996 -46.698610899999856 0
endloop
endfacet
facet normal 2.278282149705215e-11 -6.007499110968915e-11 1
outer loop
vertex 55.000000739796675 -46.69999442424779 1
vertex 55.001150791914164 -46.699558278829855 1
vertex 55.00362939999996 -46.698610899999856 1.0000000000000004
endloop
endfacet
facet normal 2.278282149705215e-11 -6.007499110968915e-11 1
outer loop
vertex 55.000000739796675 -46.69999442424779 1
vertex 55.00362939999996 -46.698610899999856 1.0000000000000004
vertex 55.00362939999996 -46.698610899999856 0
endloop
endfacet
facet normal 2.278282149705215e-11 -6.007499110968915e-11 1
outer loop
vertex 55.000000739796675 -46.69999442424779 1
vertex 55.00362939999996 -46.698610899999856 0
vertex 55.00115079191387 -46.69955827882997 0
endloop
endfacet
facet normal 2.278282149705215e-11 -6.007499110968915e-11 1
outer loop
vertex 55.000000739796675 -46.69999442424779 1
vertex 55.00115079191387 -46.69955827882997 0
vertex 55.000000739796675 -46.69999442424779 0
endloop
endfacet
facet normal -0.3545964859378618 0.9350194287609855 0
outer loop
vertex 54.996368799993874 -46.70137180000231 1
vertex 55.000000739796675 -46.69999442424779 1
vertex 55.000000739796675 -46.69999442424779 0
endloop
endfacet
facet normal -0.3545964859378618 0.9350194287609855 0
outer loop
vertex 54.996368799993874 -46.70137180000231 1
vertex 55.000000739796675 -46.69999442424779 0
vertex 54.99636879999293 -46.701371800002676 0
endloop
endfacet
facet normal -0.3534007357916515 0.9354720305503096 0
outer loop
vertex 38.29319999999986 -53.01146120000005 1
vertex 54.996368799993874 -46.70137180000231 1
vertex 54.99636879999293 -46.701371800002676 0
endloop
endfacet
facet normal -0.3534007357916515 0.9354720305503096 0
outer loop
vertex 38.29319999999986 -53.01146120000005 1
vertex 54.99636879999293 -46.701371800002676 0
vertex 38.293199999999885 -53.01146120000004 0
endloop
endfacet
facet normal -0.42304441888788363 0.9061089446903242 0
outer loop
vertex 38.01945565110458 -53.13926704462927 1
vertex 38.29319999999986 -53.01146120000005 1
vertex 38.293199999999885 -53.01146120000004 0
endloop
endfacet
facet normal -0.42304441888788363 0.9061089446903242 0
outer loop
vertex 38.01945565110458 -53.13926704462927 1
vertex 38.293199999999885 -53.01146120000004 0
vertex 38.01945565110458 -53.13926704462928 0
endloop
endfacet
facet normal -0.5546992246047824 0.8320509420839887 0
outer loop
vertex 37.76808494703718 -53.306847090011246 1
vertex 38.01945565110458 -53.13926704462927 1
vertex 38.01945565110458 -53.13926704462928 0
endloop
endfacet
facet normal -0.5546992246047824 0.8320509420839887 0
outer loop
vertex 37.76808494703718 -53.306847090011246 1
vertex 38.01945565110458 -53.13926704462928 0
vertex 37.76808494703715 -53.30684709001125 0
endloop
endfacet
facet normal -0.6736971388188211 0.7390075541882736 0
outer loop
vertex 37.5448235578459 -53.51037756578843 1
vertex 37.76808494703718 -53.306847090011246 1
vertex 37.76808494703715 -53.30684709001125 0
endloop
endfacet
facet normal -0.6736971388188211 0.7390075541882736 0
outer loop
vertex 37.5448235578459 -53.51037756578843 1
vertex 37.76808494703715 -53.30684709001125 0
vertex 37.544823557845945 -53.510377565788374 0
endloop
endfacet
facet normal -0.7773229176239213 0.629101805542342 0
outer loop
vertex 37.35476576716175 -53.745214399938675 1
vertex 37.5448235578459 -53.51037756578843 1
vertex 37.544823557845945 -53.510377565788374 0
endloop
endfacet
facet normal -0.7773229176239213 0.629101805542342 0
outer loop
vertex 37.35476576716175 -53.745214399938675 1
vertex 37.544823557845945 -53.510377565788374 0
vertex 37.354765767161695 -53.74521439993873 0
endloop
endfacet
facet normal -0.8632120719762657 0.5048414788767286 0
outer loop
vertex 37.202248232995004 -54.00599918524139 1
vertex 37.35476576716175 -53.745214399938675 1
vertex 37.354765767161695 -53.74521439993873 0
endloop
endfacet
facet normal -0.8632120719762657 0.5048414788767286 0
outer loop
vertex 37.202248232995004 -54.00599918524139 1
vertex 37.354765767161695 -53.74521439993873 0
vertex 37.202248232995046 -54.00599918524132 0
endloop
endfacet
facet normal -0.9294048196015608 0.3690618935915634 0
outer loop
vertex 37.09075103571499 -54.28678144513736 1
vertex 37.202248232995004 -54.00599918524139 1
vertex 37.202248232995046 -54.00599918524132 0
endloop
endfacet
facet normal -0.9294048196015608 0.3690618935915634 0
outer loop
vertex 37.09075103571499 -54.28678144513736 1
vertex 37.202248232995046 -54.00599918524132 0
vertex 37.09075103571497 -54.28678144513741 0
endloop
endfacet
facet normal -0.9743908024754999 0.22486121064147843 0
outer loop
vertex 37.02281827105176 -54.581154409179256 1
vertex 37.09075103571499 -54.28678144513736 1
vertex 37.09075103571497 -54.28678144513741 0
endloop
endfacet
facet normal -0.9743908024754999 0.22486121064147843 0
outer loop
vertex 37.02281827105176 -54.581154409179256 1
vertex 37.09075103571497 -54.28678144513741 0
vertex 37.02281827105176 -54.58115440917925 0
endloop
endfacet
facet normal -0.9971435721915505 0.07552944086297941 0
outer loop
vertex 37 -54.8824024 1
vertex 37.02281827105176 -54.581154409179256 1
vertex 37.02281827105176 -54.58115440917925 0
endloop
endfacet
facet normal -0.9971435721915505 0.07552944086297941 0
outer loop
vertex 37 -54.8824024 1
vertex 37.02281827105176 -54.58115440917925 0
vertex 37 -54.882402399999954 0
endloop
endfacet
facet normal 0 0 -1
outer loop
vertex 37.0000029 -110.53157100000007 1
vertex 37.0000023559158 -100.09093880000002 1
vertex 37 -54.8824024 1
endloop
endfacet
facet normal 0 0 -1
outer loop
vertex 37.0000029 -110.53157100000007 1
vertex 37 -54.8824024 1
vertex 37 -54.882402399999954 0
endloop
endfacet
facet normal 0 0 -1
outer loop
vertex 37.0000029 -110.53157100000007 1
vertex 37 -54.882402399999954 0
vertex 37.0000023559158 -100.09093879999998 0
endloop
endfacet
facet normal 0 0 -1
outer loop
vertex 37.0000029 -110.53157100000007 1
vertex 37.0000023559158 -100.09093879999998 0
vertex 37.0000029 -110.53157100000011 0
endloop
endfacet
endsolid csg.js
